<?xml version="1.0" encoding="UTF-8"?>
<!DOCTYPE svg PUBLIC "-//W3C//DTD SVG 1.1//EN" "http://www.w3.org/Graphics/SVG/1.1/DTD/svg11.dtd">
<svg xmlns="http://www.w3.org/2000/svg" version="1.1" width="530px" height="439px" style="shape-rendering:geometricPrecision; text-rendering:geometricPrecision; image-rendering:optimizeQuality; fill-rule:evenodd; clip-rule:evenodd" xmlns:xlink="http://www.w3.org/1999/xlink">
<g><path style="opacity:1" fill="#fefef5" d="M -0.5,-0.5 C 176.167,-0.5 352.833,-0.5 529.5,-0.5C 529.5,145.833 529.5,292.167 529.5,438.5C 352.833,438.5 176.167,438.5 -0.5,438.5C -0.5,292.167 -0.5,145.833 -0.5,-0.5 Z"/></g>
<g><path style="opacity:1" fill="#566572" d="M 137.5,48.5 C 135.485,49.9238 133.152,50.5905 130.5,50.5C 132.515,49.0762 134.848,48.4095 137.5,48.5 Z"/></g>
<g><path style="opacity:1" fill="#081836" d="M 137.5,48.5 C 218.834,48.3333 300.167,48.5 381.5,49C 386,49.4406 390,50.9406 393.5,53.5C 392.609,54.2613 391.942,55.2613 391.5,56.5C 387.893,57.4892 384.226,57.8226 380.5,57.5C 379.833,57.5 379.167,57.5 378.5,57.5C 296.764,56.832 214.931,56.1653 133,55.5C 131.16,56.8331 130.66,56.6665 131.5,55C 132.5,54.6667 133.5,54.3333 134.5,54C 131.949,53.9977 129.949,53.1644 128.5,51.5C 128.842,50.6618 129.508,50.3284 130.5,50.5C 133.152,50.5905 135.485,49.9238 137.5,48.5 Z"/></g>
<g><path style="opacity:1" fill="#f8f8f5" d="M 378.5,57.5 C 379.167,57.5 379.833,57.5 380.5,57.5C 385.804,58.6018 390.304,61.2685 394,65.5C 397.847,73.1932 401.68,80.8599 405.5,88.5C 404.482,94.1159 406.482,98.1159 411.5,100.5C 411.411,112.427 405.411,119.261 393.5,121C 302.167,121.5 210.834,121.667 119.5,121.5C 117.035,121.233 114.701,120.566 112.5,119.5C 108.42,117.021 106.087,113.354 105.5,108.5C 107.074,106.898 107.741,104.898 107.5,102.5C 113.034,90.4304 118.867,78.4304 125,66.5C 128.011,62.4802 131.844,59.6468 136.5,58C 217.166,57.5 297.833,57.3333 378.5,57.5 Z"/></g>
<g><path style="opacity:1" fill="#14243d" d="M 128.5,51.5 C 129.949,53.1644 131.949,53.9977 134.5,54C 133.5,54.3333 132.5,54.6667 131.5,55C 130.66,56.6665 131.16,56.8331 133,55.5C 214.931,56.1653 296.764,56.832 378.5,57.5C 297.833,57.3333 217.166,57.5 136.5,58C 131.844,59.6468 128.011,62.4802 125,66.5C 118.867,78.4304 113.034,90.4304 107.5,102.5C 105.926,104.102 105.259,106.102 105.5,108.5C 106.087,113.354 108.42,117.021 112.5,119.5C 111.07,119.579 109.736,119.246 108.5,118.5C 106.889,119.32 106.222,120.654 106.5,122.5C 102.865,122.344 102.532,121.178 105.5,119C 104.576,118.15 104.576,117.15 105.5,116C 103.826,114.331 103.493,112.165 104.5,109.5C 104.365,106.225 103.365,103.225 101.5,100.5C 102.855,99.3247 102.688,98.3247 101,97.5C 100.764,99.1193 99.9311,100.119 98.5,100.5C 105.328,84.6756 113.328,69.509 122.5,55C 124.405,53.5787 126.405,52.412 128.5,51.5 Z"/></g>
<g><path style="opacity:1" fill="#9aabbe" d="M 145.5,66.5 C 221.833,65.1667 298.167,65.1667 374.5,66.5C 370.987,66.3075 367.654,66.9741 364.5,68.5C 364.167,69.1667 363.833,69.8333 363.5,70.5C 365.145,71.6963 366.811,72.6963 368.5,73.5C 296.167,73.5 223.833,73.5 151.5,73.5C 157.598,72.729 163.265,71.229 168.5,69C 167.833,68.3333 167.167,67.6667 166.5,67C 159.508,66.5004 152.508,66.3337 145.5,66.5 Z"/></g>
<g><path style="opacity:1" fill="#768ca6" d="M 374.5,66.5 C 379.365,67.1804 383.198,69.5138 386,73.5C 389.528,81.2189 393.028,88.8856 396.5,96.5C 395.259,94.4913 393.592,92.8246 391.5,91.5C 390.993,85.6424 388.326,81.1424 383.5,78C 384.731,76.8173 384.731,75.6507 383.5,74.5C 381.208,73.6906 379.041,73.3573 377,73.5C 376.805,74.8193 376.972,76.1526 377.5,77.5C 374.878,75.3565 371.878,74.0231 368.5,73.5C 366.811,72.6963 365.145,71.6963 363.5,70.5C 363.833,69.8333 364.167,69.1667 364.5,68.5C 367.654,66.9741 370.987,66.3075 374.5,66.5 Z"/></g>
<g><path style="opacity:1" fill="#fefef6" d="M 151.5,73.5 C 223.833,73.5 296.167,73.5 368.5,73.5C 371.878,74.0231 374.878,75.3565 377.5,77.5C 379.513,81.5266 381.513,85.5266 383.5,89.5C 383.156,92.6201 383.823,95.4534 385.5,98C 384.978,98.9503 384.311,99.7836 383.5,100.5C 301.169,101.5 218.836,101.833 136.5,101.5C 134.973,101.573 133.973,100.906 133.5,99.5C 134.979,90.5392 138.646,82.5392 144.5,75.5C 146.618,74.0541 148.951,73.3874 151.5,73.5 Z"/></g>
<g><path style="opacity:1" fill="#6a839f" d="M 145.5,66.5 C 152.508,66.3337 159.508,66.5004 166.5,67C 167.167,67.6667 167.833,68.3333 168.5,69C 163.265,71.229 157.598,72.729 151.5,73.5C 148.951,73.3874 146.618,74.0541 144.5,75.5C 138.646,82.5392 134.979,90.5392 133.5,99.5C 132.724,96.1217 131.724,93.455 130.5,91.5C 127.612,91.2196 126.112,92.5529 126,95.5C 124.887,96.305 123.721,96.9717 122.5,97.5C 126.57,89.6913 130.403,81.6913 134,73.5C 136.745,69.2328 140.578,66.8995 145.5,66.5 Z"/></g>
<g><path style="opacity:1" fill="#c8d2d9" d="M 405.5,88.5 C 408.008,92.1822 410.008,96.1822 411.5,100.5C 406.482,98.1159 404.482,94.1159 405.5,88.5 Z"/></g>
<g><path style="opacity:1" fill="#061c37" d="M 393.5,53.5 C 396.056,54.5434 398.223,56.2101 400,58.5C 408.62,73.3602 416.286,88.6936 423,104.5C 422.834,121.153 422.5,137.819 422,154.5C 420.878,156.407 420.045,158.407 419.5,160.5C 416.774,163.388 413.607,165.721 410,167.5C 409.5,227.832 409.333,288.166 409.5,348.5C 408.527,354.759 406.194,360.425 402.5,365.5C 397.77,369.861 392.437,373.195 386.5,375.5C 302.167,375.5 217.833,375.5 133.5,375.5C 132.833,375.5 132.167,375.5 131.5,375.5C 126.519,372.67 121.852,369.336 117.5,365.5C 114.967,361.096 112.967,356.429 111.5,351.5C 111.5,336.167 111.5,320.833 111.5,305.5C 113.071,293.201 114.071,280.701 114.5,268C 114.022,258.47 113.689,248.97 113.5,239.5C 114.154,237.885 114.654,236.218 115,234.5C 115.333,246.5 115.667,258.5 116,270.5C 117.271,243.852 117.271,217.186 116,190.5C 115.167,193.5 114.333,196.5 113.5,199.5C 112.833,224.663 112.167,249.663 111.5,274.5C 111.833,238.827 111.5,203.16 110.5,167.5C 109.583,166.873 108.583,166.539 107.5,166.5C 102.669,162.491 99.169,157.491 97,151.5C 96.3333,135.167 96.3333,118.833 97,102.5C 97.2784,101.584 97.7784,100.918 98.5,100.5C 99.9311,100.119 100.764,99.1193 101,97.5C 102.688,98.3247 102.855,99.3247 101.5,100.5C 103.365,103.225 104.365,106.225 104.5,109.5C 103.493,112.165 103.826,114.331 105.5,116C 104.576,117.15 104.576,118.15 105.5,119C 102.532,121.178 102.865,122.344 106.5,122.5C 106.222,120.654 106.889,119.32 108.5,118.5C 109.736,119.246 111.07,119.579 112.5,119.5C 114.701,120.566 117.035,121.233 119.5,121.5C 211.666,122.666 303.999,122.832 396.5,122C 406.35,122.095 412.35,117.428 414.5,108C 414.161,105.133 413.161,102.633 411.5,100.5C 410.008,96.1822 408.008,92.1822 405.5,88.5C 401.68,80.8599 397.847,73.1932 394,65.5C 390.304,61.2685 385.804,58.6018 380.5,57.5C 384.226,57.8226 387.893,57.4892 391.5,56.5C 391.942,55.2613 392.609,54.2613 393.5,53.5 Z"/></g>
<g><path style="opacity:1" fill="#f0f4f4" d="M 383.5,89.5 C 386.897,93.4386 387.23,97.6053 384.5,102C 301.666,102.832 218.999,102.666 136.5,101.5C 218.836,101.833 301.169,101.5 383.5,100.5C 384.311,99.7836 384.978,98.9503 385.5,98C 383.823,95.4534 383.156,92.6201 383.5,89.5 Z"/></g>
<g><path style="opacity:1" fill="#607795" d="M 396.5,96.5 C 401.059,101.94 400.059,106.273 393.5,109.5C 304.874,110.495 216.208,110.828 127.5,110.5C 121.771,107.806 120.104,103.472 122.5,97.5C 123.721,96.9717 124.887,96.305 126,95.5C 126.112,92.5529 127.612,91.2196 130.5,91.5C 131.724,93.455 132.724,96.1217 133.5,99.5C 133.973,100.906 134.973,101.573 136.5,101.5C 218.999,102.666 301.666,102.832 384.5,102C 387.23,97.6053 386.897,93.4386 383.5,89.5C 381.513,85.5266 379.513,81.5266 377.5,77.5C 376.972,76.1526 376.805,74.8193 377,73.5C 379.041,73.3573 381.208,73.6906 383.5,74.5C 384.731,75.6507 384.731,76.8173 383.5,78C 388.326,81.1424 390.993,85.6424 391.5,91.5C 393.592,92.8246 395.259,94.4913 396.5,96.5 Z"/></g>
<g><path style="opacity:1" fill="#abb2ba" d="M 107.5,102.5 C 107.741,104.898 107.074,106.898 105.5,108.5C 105.259,106.102 105.926,104.102 107.5,102.5 Z"/></g>
<g><path style="opacity:1" fill="#a5afbe" d="M 393.5,109.5 C 393.389,110.117 393.056,110.617 392.5,111C 303.999,111.832 215.666,111.666 127.5,110.5C 216.208,110.828 304.874,110.495 393.5,109.5 Z"/></g>
<g><path style="opacity:1" fill="#9eafbc" d="M 411.5,100.5 C 413.161,102.633 414.161,105.133 414.5,108C 412.35,117.428 406.35,122.095 396.5,122C 303.999,122.832 211.666,122.666 119.5,121.5C 210.834,121.667 302.167,121.5 393.5,121C 405.411,119.261 411.411,112.427 411.5,100.5 Z"/></g>
<g><path style="opacity:1" fill="#304963" d="M 127.5,131.5 C 130.5,131.5 133.5,131.5 136.5,131.5C 136.5,141.5 136.5,151.5 136.5,161.5C 133.223,161.784 130.057,161.451 127,160.5C 126.194,150.756 126.361,141.089 127.5,131.5 Z"/></g>
<g><path style="opacity:1" fill="#344f6a" d="M 163.5,132.5 C 167.5,132.5 171.5,132.5 175.5,132.5C 175.5,142.167 175.5,151.833 175.5,161.5C 171.5,161.5 167.5,161.5 163.5,161.5C 163.5,151.833 163.5,142.167 163.5,132.5 Z"/></g>
<g><path style="opacity:1" fill="#35536c" d="M 321.5,132.5 C 321.5,141.833 321.5,151.167 321.5,160.5C 317.833,160.5 314.167,160.5 310.5,160.5C 310.5,151.167 310.5,141.833 310.5,132.5C 314.167,132.5 317.833,132.5 321.5,132.5 Z"/></g>
<g><path style="opacity:1" fill="#33506a" d="M 399.5,130.5 C 401.167,130.5 402.833,130.5 404.5,130.5C 404.5,140.167 404.5,149.833 404.5,159.5C 400.865,160.114 397.198,160.448 393.5,160.5C 393.5,150.833 393.5,141.167 393.5,131.5C 395.735,131.795 397.735,131.461 399.5,130.5 Z"/></g>
<g><path style="opacity:1" fill="#a4b8c7" d="M 106.5,126.5 C 110.024,128.347 113.69,130.014 117.5,131.5C 118.498,140.81 118.832,150.143 118.5,159.5C 113.078,158.538 109.245,155.538 107,150.5C 106.5,142.507 106.334,134.507 106.5,126.5 Z"/></g>
<g><path style="opacity:1" fill="#334f6a" d="M 184.5,131.5 C 188.5,131.5 192.5,131.5 196.5,131.5C 196.5,141.5 196.5,151.5 196.5,161.5C 192.5,161.5 188.5,161.5 184.5,161.5C 184.5,151.5 184.5,141.5 184.5,131.5 Z"/></g>
<g><path style="opacity:1" fill="#324c68" d="M 225.5,132.5 C 229.833,132.5 234.167,132.5 238.5,132.5C 238.5,142.167 238.5,151.833 238.5,161.5C 234.233,161.797 230.066,161.464 226,160.5C 225.5,151.173 225.334,141.839 225.5,132.5 Z"/></g>
<g><path style="opacity:1" fill="#334e67" d="M 267.5,132.5 C 271.833,132.5 276.167,132.5 280.5,132.5C 280.5,142.167 280.5,151.833 280.5,161.5C 276.233,161.797 272.066,161.464 268,160.5C 267.5,151.173 267.334,141.839 267.5,132.5 Z"/></g>
<g><path style="opacity:1" fill="#1a344d" d="M 321.5,132.5 C 322.494,141.986 322.827,151.652 322.5,161.5C 318.298,161.817 314.298,161.483 310.5,160.5C 314.167,160.5 317.833,160.5 321.5,160.5C 321.5,151.167 321.5,141.833 321.5,132.5 Z"/></g>
<g><path style="opacity:1" fill="#35506a" d="M 331.5,131.5 C 335.5,131.5 339.5,131.5 343.5,131.5C 343.5,141.167 343.5,150.833 343.5,160.5C 339.5,160.5 335.5,160.5 331.5,160.5C 331.5,150.833 331.5,141.167 331.5,131.5 Z"/></g>
<g><path style="opacity:1" fill="#1d3752" d="M 289.5,132.5 C 289.5,141.833 289.5,151.167 289.5,160.5C 293.167,160.5 296.833,160.5 300.5,160.5C 300.5,151.167 300.5,141.833 300.5,132.5C 301.494,141.986 301.827,151.652 301.5,161.5C 297.167,161.5 292.833,161.5 288.5,161.5C 288.173,151.652 288.506,141.986 289.5,132.5 Z"/></g>
<g><path style="opacity:1" fill="#34516b" d="M 289.5,132.5 C 293.167,132.5 296.833,132.5 300.5,132.5C 300.5,141.833 300.5,151.167 300.5,160.5C 296.833,160.5 293.167,160.5 289.5,160.5C 289.5,151.167 289.5,141.833 289.5,132.5 Z"/></g>
<g><path style="opacity:1" fill="#324e68" d="M 142.5,131.5 C 146.5,131.5 150.5,131.5 154.5,131.5C 154.5,141.5 154.5,151.5 154.5,161.5C 150.5,161.5 146.5,161.5 142.5,161.5C 142.5,151.5 142.5,141.5 142.5,131.5 Z"/></g>
<g><path style="opacity:1" fill="#324d69" d="M 205.5,131.5 C 209.5,131.5 213.5,131.5 217.5,131.5C 217.5,141.5 217.5,151.5 217.5,161.5C 213.5,161.5 209.5,161.5 205.5,161.5C 205.5,151.5 205.5,141.5 205.5,131.5 Z"/></g>
<g><path style="opacity:1" fill="#233c57" d="M 247.5,132.5 C 247.5,141.833 247.5,151.167 247.5,160.5C 251.167,160.5 254.833,160.5 258.5,160.5C 258.5,151.167 258.5,141.833 258.5,132.5C 259.494,141.986 259.827,151.652 259.5,161.5C 255.167,161.5 250.833,161.5 246.5,161.5C 246.173,151.652 246.506,141.986 247.5,132.5 Z"/></g>
<g><path style="opacity:1" fill="#35506b" d="M 247.5,132.5 C 251.167,132.5 254.833,132.5 258.5,132.5C 258.5,141.833 258.5,151.167 258.5,160.5C 254.833,160.5 251.167,160.5 247.5,160.5C 247.5,151.167 247.5,141.833 247.5,132.5 Z"/></g>
<g><path style="opacity:1" fill="#324e68" d="M 373.5,131.5 C 377.5,131.5 381.5,131.5 385.5,131.5C 385.5,141.167 385.5,150.833 385.5,160.5C 381.167,160.5 376.833,160.5 372.5,160.5C 372.194,150.75 372.527,141.084 373.5,131.5 Z"/></g>
<g><path style="opacity:1" fill="#334e69" d="M 352.5,131.5 C 356.5,131.5 360.5,131.5 364.5,131.5C 364.5,141.167 364.5,150.833 364.5,160.5C 360.5,160.5 356.5,160.5 352.5,160.5C 352.5,150.833 352.5,141.167 352.5,131.5 Z"/></g>
<g><path style="opacity:1" fill="#28425c" d="M 120.5,171.5 C 120.917,170.876 121.584,170.543 122.5,170.5C 125.475,171.139 128.475,171.639 131.5,172C 212.001,172.167 292.334,172.667 372.5,173.5C 291.833,173.667 211.166,173.5 130.5,173C 127.146,172.545 123.813,172.045 120.5,171.5 Z"/></g>
<g><path style="opacity:1" fill="#314e68" d="M 120.5,171.5 C 123.813,172.045 127.146,172.545 130.5,173C 211.166,173.5 291.833,173.667 372.5,173.5C 376.856,174.523 379.523,177.19 380.5,181.5C 380.667,221.501 380.5,261.501 380,301.5C 379.667,301.167 379.333,300.833 379,300.5C 378.702,305.007 377.702,309.34 376,313.5C 375.667,318.833 375.333,324.167 375,329.5C 374.833,282.665 374.333,235.998 373.5,189.5C 372.05,186.215 369.717,183.715 366.5,182C 289.5,181.333 212.5,181.333 135.5,182C 134.956,182.717 134.289,183.217 133.5,183.5C 129.235,183.434 125.235,182.434 121.5,180.5C 121.158,179.662 120.492,179.328 119.5,179.5C 119.194,176.615 119.527,173.948 120.5,171.5 Z"/></g>
<g><path style="opacity:1" fill="#031b33" d="M 373.5,189.5 C 373.667,242.168 373.5,294.834 373,347.5C 371.5,350.333 369.333,352.5 366.5,354C 328.333,354.167 290.167,354.333 252,354.5C 213.023,354.488 174.19,353.822 135.5,352.5C 135.167,351.5 134.5,350.833 133.5,350.5C 133.539,349.244 133.039,348.244 132,347.5C 131.5,294.501 131.333,241.501 131.5,188.5C 131.893,186.716 132.559,185.05 133.5,183.5C 134.289,183.217 134.956,182.717 135.5,182C 212.5,181.333 289.5,181.333 366.5,182C 369.717,183.715 372.05,186.215 373.5,189.5 Z"/></g>
<g><path style="opacity:1" fill="#a5b7cb" d="M 121.5,180.5 C 125.235,182.434 129.235,183.434 133.5,183.5C 132.559,185.05 131.893,186.716 131.5,188.5C 130.821,242.027 130.154,295.694 129.5,349.5C 130.959,349.433 132.292,349.766 133.5,350.5C 134.5,350.833 135.167,351.5 135.5,352.5C 132.35,355.245 128.684,357.245 124.5,358.5C 122.642,356.117 121.308,353.45 120.5,350.5C 120.168,293.664 120.501,236.998 121.5,180.5 Z"/></g>
<g><path style="opacity:1" fill="#051838" d="M 111.5,305.5 C 111.5,295.167 111.5,284.833 111.5,274.5C 112.167,249.663 112.833,224.663 113.5,199.5C 114.333,196.5 115.167,193.5 116,190.5C 117.271,217.186 117.271,243.852 116,270.5C 115.667,258.5 115.333,246.5 115,234.5C 114.654,236.218 114.154,237.885 113.5,239.5C 113.689,248.97 114.022,258.47 114.5,268C 114.071,280.701 113.071,293.201 111.5,305.5 Z"/></g>
<g><path style="opacity:1" fill="#eeecf5" d="M 339.5,229.5 C 286.166,229.333 232.832,229.5 179.5,230C 178.095,231.269 176.429,231.769 174.5,231.5C 175.058,230.21 176.058,229.377 177.5,229C 231.668,228.168 285.668,228.335 339.5,229.5 Z"/></g>
<g><path style="opacity:1" fill="#fcfcf4" d="M 339.5,229.5 C 342.643,229.969 344.977,231.636 346.5,234.5C 346.667,253.836 346.5,273.17 346,292.5C 344.562,293.9 343.729,295.567 343.5,297.5C 342.833,298.167 342.167,298.833 341.5,299.5C 287.542,300.491 233.542,300.825 179.5,300.5C 175.324,298.848 172.49,295.848 171,291.5C 170.333,272.833 170.333,254.167 171,235.5C 171.949,233.907 173.115,232.574 174.5,231.5C 176.429,231.769 178.095,231.269 179.5,230C 232.832,229.5 286.166,229.333 339.5,229.5 Z"/></g>
<g><path style="opacity:1" fill="#c4d0da" d="M 244.5,243.5 C 258.504,243.333 272.504,243.5 286.5,244C 289.167,246.333 289.167,248.667 286.5,251C 272.504,251.5 258.504,251.667 244.5,251.5C 244.5,248.833 244.5,246.167 244.5,243.5 Z"/></g>
<g><path style="opacity:1" fill="#081e38" d="M 203.5,243.5 C 220.826,243.657 228.992,252.323 228,269.5C 222.017,283.407 211.85,287.907 197.5,283C 187.55,275.762 184.716,266.262 189,254.5C 192.562,248.988 197.396,245.322 203.5,243.5 Z"/></g>
<g><path style="opacity:1" fill="#c4cedc" d="M 317.5,243.5 C 322.5,243.5 327.5,243.5 332.5,243.5C 332.5,245.833 332.5,248.167 332.5,250.5C 327.5,250.5 322.5,250.5 317.5,250.5C 317.5,248.167 317.5,245.833 317.5,243.5 Z"/></g>
<g><path style="opacity:1" fill="#c6cfd9" d="M 297.5,243.5 C 300.833,243.5 304.167,243.5 307.5,243.5C 307.5,245.833 307.5,248.167 307.5,250.5C 304.167,250.5 300.833,250.5 297.5,250.5C 297.5,248.167 297.5,245.833 297.5,243.5 Z"/></g>
<g><path style="opacity:1" fill="#d3d5da" d="M 107.5,166.5 C 108.583,166.539 109.583,166.873 110.5,167.5C 111.5,203.16 111.833,238.827 111.5,274.5C 111.5,284.833 111.5,295.167 111.5,305.5C 111.5,320.833 111.5,336.167 111.5,351.5C 110.883,351.389 110.383,351.056 110,350.5C 110.144,289.058 109.31,227.724 107.5,166.5 Z"/></g>
<g><path style="opacity:1" fill="#eaecf0" d="M 346.5,234.5 C 347.662,253.996 347.829,273.662 347,293.5C 346.34,295.324 345.173,296.657 343.5,297.5C 343.729,295.567 344.562,293.9 346,292.5C 346.5,273.17 346.667,253.836 346.5,234.5 Z"/></g>
<g><path style="opacity:1" fill="#c5d0dc" d="M 244.5,259.5 C 261.837,259.333 279.17,259.5 296.5,260C 297.982,262.592 297.648,264.925 295.5,267C 278.503,267.5 261.503,267.667 244.5,267.5C 244.5,264.833 244.5,262.167 244.5,259.5 Z"/></g>
<g><path style="opacity:1" fill="#4e6d83" d="M 440.5,266.5 C 441.167,270.5 439.5,272.167 435.5,271.5C 433.148,270.048 432.815,268.048 434.5,265.5C 436.912,264.051 438.912,264.384 440.5,266.5 Z"/></g>
<g><path style="opacity:1" fill="#ccd8de" d="M 440.5,266.5 C 441.657,269.026 441.657,271.693 440.5,274.5C 438.958,273.699 437.292,273.366 435.5,273.5C 435.5,272.833 435.5,272.167 435.5,271.5C 439.5,272.167 441.167,270.5 440.5,266.5 Z"/></g>
<g><path style="opacity:1" fill="#43607e" d="M 435.5,273.5 C 437.292,273.366 438.958,273.699 440.5,274.5C 441.321,280.158 439.154,281.825 434,279.5C 433.059,277.011 433.559,275.011 435.5,273.5 Z"/></g>
<g><path style="opacity:1" fill="#ebeaeb" d="M 419.5,160.5 C 418.395,162.713 418.395,164.88 419.5,167C 418.892,167.87 418.059,168.37 417,168.5C 415.144,167.264 413.311,167.264 411.5,168.5C 410.833,228.665 410.167,288.665 409.5,348.5C 409.333,288.166 409.5,227.832 410,167.5C 413.607,165.721 416.774,163.388 419.5,160.5 Z"/></g>
<g><path style="opacity:1" fill="#c1cfdb" d="M 244.5,276.5 C 250.509,276.334 256.509,276.501 262.5,277C 265.172,279.679 264.838,282.012 261.5,284C 255.843,284.499 250.176,284.666 244.5,284.5C 244.5,281.833 244.5,279.167 244.5,276.5 Z"/></g>
<g><path style="opacity:1" fill="#29394a" d="M 341.5,299.5 C 341.389,300.117 341.056,300.617 340.5,301C 286.665,301.832 232.998,301.665 179.5,300.5C 233.542,300.825 287.542,300.491 341.5,299.5 Z"/></g>
<g><path style="opacity:1" fill="#5f7590" d="M 119.5,179.5 C 120.492,179.328 121.158,179.662 121.5,180.5C 120.501,236.998 120.168,293.664 120.5,350.5C 119.501,293.669 119.168,236.669 119.5,179.5 Z"/></g>
<g><path style="opacity:1" fill="#8da7c0" d="M 131.5,188.5 C 131.333,241.501 131.5,294.501 132,347.5C 133.039,348.244 133.539,349.244 133.5,350.5C 132.292,349.766 130.959,349.433 129.5,349.5C 130.154,295.694 130.821,242.027 131.5,188.5 Z"/></g>
<g><path style="opacity:1" fill="#2f4a66" d="M 380.5,181.5 C 381.665,238.999 381.832,296.665 381,354.5C 379.5,356.667 378,358.833 376.5,361C 374.283,362.275 371.949,363.275 369.5,364C 289.833,364.667 210.167,364.667 130.5,364C 128.004,362.669 126.004,360.836 124.5,358.5C 128.684,357.245 132.35,355.245 135.5,352.5C 174.19,353.822 213.023,354.488 252,354.5C 290.167,354.333 328.333,354.167 366.5,354C 369.333,352.5 371.5,350.333 373,347.5C 373.5,294.834 373.667,242.168 373.5,189.5C 374.333,235.998 374.833,282.665 375,329.5C 375.333,324.167 375.667,318.833 376,313.5C 377.702,309.34 378.702,305.007 379,300.5C 379.333,300.833 379.667,301.167 380,301.5C 380.5,261.501 380.667,221.501 380.5,181.5 Z"/></g>
<g><path style="opacity:1" fill="#0d1d3b" d="M 107.5,366.5 C 110.267,369.786 109.934,372.786 106.5,375.5C 102.5,375.5 98.5,375.5 94.5,375.5C 89.8215,375.666 85.1548,375.499 80.5,375C 77.8333,372.333 77.8333,369.667 80.5,367C 89.4938,366.5 98.4938,366.334 107.5,366.5 Z"/></g>
<g><path style="opacity:1" fill="#071a39" d="M 415.5,366.5 C 423.507,366.334 431.507,366.5 439.5,367C 442.14,369.621 442.14,372.121 439.5,374.5C 431.493,374.666 423.493,374.5 415.5,374C 414.221,371.502 414.221,369.002 415.5,366.5 Z"/></g>
<g><path style="opacity:1" fill="#7991ac" d="M 402.5,365.5 C 406.634,366.485 410.968,366.818 415.5,366.5C 414.221,369.002 414.221,371.502 415.5,374C 423.493,374.5 431.493,374.666 439.5,374.5C 435.03,375.486 430.363,375.819 425.5,375.5C 412.5,375.5 399.5,375.5 386.5,375.5C 392.437,373.195 397.77,369.861 402.5,365.5 Z"/></g>
<g><path style="opacity:1" fill="#8399b1" d="M 117.5,365.5 C 121.852,369.336 126.519,372.67 131.5,375.5C 123.167,375.5 114.833,375.5 106.5,375.5C 109.934,372.786 110.267,369.786 107.5,366.5C 111.042,366.813 114.375,366.479 117.5,365.5 Z"/></g>
<g><path style="opacity:1" fill="#b5c7d8" d="M 133.5,375.5 C 217.833,375.5 302.167,375.5 386.5,375.5C 399.5,375.5 412.5,375.5 425.5,375.5C 423.78,379.55 420.78,382.217 416.5,383.5C 391.78,383.902 367.114,383.235 342.5,381.5C 342.5,379.833 342.5,378.167 342.5,376.5C 310.5,376.5 278.5,376.5 246.5,376.5C 243.5,376.5 240.5,376.5 237.5,376.5C 237.167,376.5 236.833,376.5 236.5,376.5C 201.996,376.832 167.663,376.498 133.5,375.5 Z"/></g>
<g><path style="opacity:1" fill="#becdda" d="M 94.5,375.5 C 98.5,375.5 102.5,375.5 106.5,375.5C 114.833,375.5 123.167,375.5 131.5,375.5C 132.167,375.5 132.833,375.5 133.5,375.5C 167.663,376.498 201.996,376.832 236.5,376.5C 236.264,378.87 235.264,380.87 233.5,382.5C 189.505,383.5 145.505,383.833 101.5,383.5C 97.7026,382.041 95.3693,379.374 94.5,375.5 Z"/></g>
<g><path style="opacity:1" fill="#c0cfdb" d="M 246.5,376.5 C 278.5,376.5 310.5,376.5 342.5,376.5C 342.5,378.167 342.5,379.833 342.5,381.5C 367.114,383.235 391.78,383.902 416.5,383.5C 360.336,384.499 304.002,384.832 247.5,384.5C 246.908,381.873 246.575,379.206 246.5,376.5 Z"/></g>
<g><path style="opacity:1" fill="#c9d6db" d="M 236.5,376.5 C 236.833,376.5 237.167,376.5 237.5,376.5C 237.945,379.365 237.278,381.865 235.5,384C 190.665,384.831 145.998,384.665 101.5,383.5C 145.505,383.833 189.505,383.5 233.5,382.5C 235.264,380.87 236.264,378.87 236.5,376.5 Z"/></g>
</svg>
