<svg id="svg" version="1.1" xmlns="http://www.w3.org/2000/svg" xmlns:xlink="http://www.w3.org/1999/xlink" width="200" height="200" viewBox="0, 0, 400,401.6021361815755"><g id="svgg"><path id="path1" d="M106.800 68.140 C 103.330 69.401,101.123 71.437,99.146 75.200 L 98.200 77.000 98.200 196.600 L 98.200 316.200 99.378 318.527 C 101.173 322.073,106.129 325.599,109.318 325.600 L 110.437 325.600 110.318 328.300 L 110.200 331.000 97.925 331.106 L 85.649 331.211 84.825 332.260 C 83.668 333.730,83.764 335.510,85.075 336.878 L 86.150 338.000 200.975 337.991 C 309.166 337.983,315.849 337.942,316.653 337.291 C 317.908 336.275,318.486 334.904,318.204 333.618 C 317.677 331.218,317.698 331.222,304.375 331.106 L 292.200 331.000 292.082 328.300 L 291.963 325.600 293.128 325.600 C 294.964 325.600,299.790 322.972,301.393 321.100 C 303.973 318.085,303.800 327.052,303.800 196.600 L 303.800 77.000 302.688 74.736 C 301.467 72.249,299.366 70.131,296.718 68.717 L 295.000 67.800 201.600 67.716 C 126.869 67.648,107.920 67.733,106.800 68.140 M293.393 75.200 C 297.364 77.192,296.937 62.656,296.956 196.565 C 296.974 324.534,297.139 315.794,294.675 317.643 L 293.400 318.600 202.000 318.718 C 103.488 318.845,108.523 318.957,106.437 316.581 L 105.200 315.172 105.200 196.800 L 105.200 78.428 106.455 76.999 C 109.157 73.921,102.556 74.112,204.400 74.160 L 291.400 74.200 293.393 75.200 M114.585 82.912 L 113.525 83.823 113.574 196.412 L 113.622 309.000 114.620 310.000 L 115.618 311.000 200.961 311.115 L 286.303 311.230 287.552 310.179 L 288.800 309.129 288.800 196.546 L 288.800 83.964 287.818 82.982 L 286.836 82.000 201.240 82.000 L 115.645 82.000 114.585 82.912 M281.400 100.000 L 281.400 111.000 201.100 111.101 L 120.800 111.202 120.800 100.000 L 120.800 88.798 201.100 88.899 L 281.400 89.000 281.400 100.000 M281.920 121.392 C 281.987 122.927,281.938 124.592,281.812 125.093 L 281.584 126.002 201.092 125.901 L 120.600 125.800 120.485 122.099 L 120.370 118.398 201.085 118.499 L 281.800 118.600 281.920 121.392 M281.506 143.900 L 281.613 154.800 201.206 154.800 L 120.800 154.800 120.800 143.799 L 120.800 132.798 201.100 132.899 L 281.400 133.000 281.506 143.900 M281.520 162.080 C 282.077 162.637,282.191 168.635,281.651 168.968 C 281.310 169.179,204.709 169.340,148.700 169.247 L 120.400 169.200 120.400 166.033 C 120.400 164.291,120.509 162.581,120.643 162.233 C 120.963 161.398,280.686 161.246,281.520 162.080 M281.400 187.800 L 281.400 199.000 201.100 199.101 L 120.800 199.202 120.800 187.800 L 120.800 176.398 201.100 176.499 L 281.400 176.600 281.400 187.800 M197.105 220.153 C 197.180 230.117,197.081 234.262,196.756 234.653 C 196.217 235.302,121.024 235.486,120.624 234.839 C 120.324 234.353,120.313 206.864,120.613 206.378 C 120.762 206.138,135.019 206.034,158.925 206.098 L 197.000 206.200 197.105 220.153 M281.905 220.247 C 281.991 231.754,281.911 234.376,281.462 234.749 C 281.058 235.084,270.773 235.177,242.557 235.102 L 204.200 235.000 204.095 221.002 C 204.037 213.304,204.076 206.778,204.183 206.500 C 204.337 206.098,212.238 206.017,243.088 206.098 L 281.800 206.200 281.905 220.247 M144.400 217.707 C 143.080 218.382,142.754 220.933,143.908 221.551 C 144.360 221.793,150.234 222.004,158.564 222.077 L 172.465 222.200 173.233 221.256 C 174.226 220.033,174.204 219.108,173.159 218.162 C 172.080 217.185,146.220 216.776,144.400 217.707 M229.000 217.458 C 227.167 217.980,226.523 220.066,227.800 221.343 C 229.236 222.779,256.783 222.865,258.359 221.438 C 259.386 220.507,259.443 219.144,258.490 218.281 C 257.765 217.626,231.034 216.880,229.000 217.458 M197.000 255.200 L 197.000 268.600 158.800 268.600 L 120.600 268.600 120.494 255.603 C 120.436 248.455,120.476 242.379,120.583 242.101 C 120.737 241.698,128.481 241.617,158.888 241.698 L 197.000 241.800 197.000 255.200 M281.800 272.680 C 281.800 292.787,281.660 303.672,281.400 303.880 C 281.180 304.056,263.675 304.153,242.500 304.096 L 204.000 303.992 204.000 273.063 C 204.000 256.052,204.121 242.012,204.269 241.865 C 204.416 241.717,221.921 241.642,243.169 241.698 L 281.800 241.800 281.800 272.680 M143.862 251.931 C 142.752 253.158,143.020 254.702,144.500 255.604 C 146.532 256.843,170.945 256.831,172.522 255.590 C 174.043 254.393,174.247 253.314,173.168 252.166 L 172.261 251.200 158.392 251.200 C 145.465 251.200,144.479 251.250,143.862 251.931 M212.800 258.000 C 211.703 259.097,211.541 285.967,212.623 287.511 C 213.343 288.540,215.047 288.692,216.224 287.833 C 217.311 287.038,217.662 259.764,216.606 258.153 C 215.820 256.954,213.922 256.878,212.800 258.000 M197.105 289.900 L 197.210 304.000 158.805 304.000 L 120.400 304.000 120.400 289.798 L 120.400 275.596 158.700 275.698 L 197.000 275.800 197.105 289.900 M143.872 286.977 C 142.789 287.798,143.106 290.032,144.400 290.693 C 146.253 291.641,172.309 291.213,173.033 290.224 C 173.811 289.158,173.744 287.854,172.869 287.062 C 171.861 286.150,145.067 286.072,143.872 286.977 M127.400 328.200 L 127.400 331.000 122.500 331.112 C 119.341 331.185,117.591 331.078,117.575 330.812 C 117.235 325.202,117.193 325.240,123.600 325.341 L 127.400 325.400 127.400 328.200 M269.600 328.401 L 269.600 331.202 202.100 331.101 L 134.600 331.000 134.477 328.848 C 134.410 327.664,134.449 326.449,134.565 326.148 C 134.741 325.687,145.496 325.600,202.187 325.600 L 269.600 325.600 269.600 328.401 M285.200 328.400 L 285.200 331.200 281.000 331.200 L 276.800 331.200 276.800 328.400 L 276.800 325.600 281.000 325.600 L 285.200 325.600 285.200 328.400 " stroke="none" fill="#64848c" fill-rule="evenodd"></path><path id="path2" d="M154.900 67.100 C 179.705 67.157,220.295 67.157,245.100 67.100 C 269.905 67.043,249.610 66.997,200.000 66.997 C 150.390 66.997,130.095 67.043,154.900 67.100 M104.726 68.414 C 103.915 68.842,103.146 69.364,103.016 69.573 C 102.831 69.874,106.076 68.281,106.767 67.732 C 107.296 67.312,105.981 67.751,104.726 68.414 M301.606 72.036 C 301.603 72.166,302.137 73.246,302.793 74.436 C 304.106 76.818,304.471 76.859,303.215 74.484 C 302.290 72.733,301.615 71.706,301.606 72.036 M128.100 74.700 C 137.505 74.760,152.895 74.760,162.300 74.700 C 171.705 74.640,164.010 74.591,145.200 74.591 C 126.390 74.591,118.695 74.640,128.100 74.700 M230.930 74.700 C 242.112 74.759,260.292 74.759,271.330 74.700 C 282.369 74.641,273.220 74.592,251.000 74.592 C 228.780 74.592,219.749 74.641,230.930 74.700 M304.197 196.800 C 304.197 262.690,304.244 289.645,304.300 256.700 C 304.356 223.755,304.356 169.845,304.300 136.900 C 304.244 103.955,304.197 130.910,304.197 196.800 M105.397 196.600 C 105.397 261.280,105.444 287.800,105.500 255.532 C 105.556 223.265,105.556 170.345,105.500 137.932 C 105.444 105.520,105.397 131.920,105.397 196.600 M296.593 124.800 C 296.593 149.990,296.641 160.295,296.700 147.700 C 296.759 135.105,296.759 114.495,296.700 101.900 C 296.641 89.305,296.593 99.610,296.593 124.800 M288.997 195.600 C 288.997 257.090,289.043 282.245,289.100 251.500 C 289.157 220.755,289.157 170.445,289.100 139.700 C 289.043 108.955,288.997 134.110,288.997 195.600 M112.975 94.800 C 112.975 100.630,113.031 103.015,113.099 100.100 C 113.167 97.185,113.167 92.415,113.099 89.500 C 113.031 86.585,112.975 88.970,112.975 94.800 M127.149 95.862 C 126.729 96.369,126.600 98.196,126.600 103.629 L 126.600 110.734 129.600 110.956 C 132.165 111.145,168.447 111.117,255.900 110.857 L 275.200 110.800 275.200 103.774 C 275.200 99.695,275.026 96.423,274.786 95.974 C 274.186 94.853,128.077 94.743,127.149 95.862 M112.962 111.800 C 112.962 115.320,113.024 116.706,113.098 114.881 C 113.172 113.056,113.172 110.176,113.097 108.481 C 113.022 106.786,112.961 108.280,112.962 111.800 M200.900 118.700 L 281.200 118.802 281.200 122.192 L 281.200 125.582 274.000 125.705 L 266.799 125.828 274.100 125.814 L 281.400 125.800 281.400 122.200 L 281.400 118.600 201.000 118.599 L 120.600 118.597 200.900 118.700 M153.100 125.900 C 170.975 125.958,200.225 125.958,218.100 125.900 C 235.975 125.842,221.350 125.795,185.600 125.795 C 149.850 125.795,135.225 125.842,153.100 125.900 M255.907 125.890 C 256.626 125.979,257.706 125.977,258.307 125.886 C 258.908 125.795,258.320 125.722,257.000 125.724 C 255.680 125.726,255.188 125.801,255.907 125.890 M262.291 125.889 C 263.001 125.977,264.261 125.979,265.091 125.892 C 265.921 125.805,265.340 125.733,263.800 125.731 C 262.260 125.729,261.581 125.800,262.291 125.889 M112.993 178.200 C 112.993 202.180,113.041 212.049,113.100 200.131 C 113.159 188.213,113.159 168.593,113.100 156.531 C 113.041 144.469,112.993 154.220,112.993 178.200 M161.885 139.192 C 131.972 139.373,127.522 139.477,127.191 140.000 C 126.983 140.330,126.809 143.795,126.806 147.701 L 126.800 154.802 200.900 154.701 L 275.000 154.600 275.109 147.570 C 275.207 141.258,275.146 140.477,274.509 139.923 C 273.659 139.183,220.362 138.837,161.885 139.192 M149.600 162.297 C 226.826 162.570,281.506 162.571,281.338 162.300 C 281.236 162.135,245.028 162.044,200.876 162.097 C 156.724 162.151,133.650 162.241,149.600 162.297 M281.200 166.182 L 281.200 168.763 278.500 168.903 L 275.800 169.043 278.700 169.122 L 281.600 169.200 281.600 166.400 C 281.600 164.860,281.510 163.600,281.400 163.600 C 281.290 163.600,281.200 164.762,281.200 166.182 M146.918 169.098 C 148.633 169.173,151.333 169.172,152.918 169.097 C 154.503 169.021,153.100 168.959,149.800 168.960 C 146.500 168.961,145.203 169.022,146.918 169.098 M173.505 169.083 C 174.002 169.179,174.722 169.175,175.105 169.075 C 175.487 168.975,175.080 168.896,174.200 168.901 C 173.320 168.905,173.007 168.987,173.505 169.083 M203.100 169.100 C 212.835 169.160,228.765 169.160,238.500 169.100 C 248.235 169.040,240.270 168.991,220.800 168.991 C 201.330 168.991,193.365 169.040,203.100 169.100 M261.900 169.099 C 264.375 169.169,268.425 169.169,270.900 169.099 C 273.375 169.028,271.350 168.971,266.400 168.971 C 261.450 168.971,259.425 169.028,261.900 169.099 M296.595 246.400 C 296.595 283.690,296.642 298.945,296.700 280.300 C 296.757 261.655,296.757 231.145,296.700 212.500 C 296.642 193.855,296.595 209.110,296.595 246.400 M127.023 183.300 C 126.608 184.306,126.545 186.184,126.743 191.600 L 127.000 198.600 201.000 198.600 L 275.000 198.600 275.109 191.109 C 275.211 184.045,275.171 183.571,274.409 182.809 C 273.603 182.003,273.331 182.000,200.580 182.000 L 127.559 182.000 127.023 183.300 M120.582 206.903 C 120.475 207.182,120.438 212.448,120.500 218.605 L 120.613 229.800 120.707 218.300 L 120.800 206.800 158.600 206.800 L 196.400 206.800 196.400 220.598 L 196.400 234.396 158.600 234.501 L 120.800 234.606 158.700 234.603 L 196.600 234.600 196.600 220.600 L 196.600 206.600 158.688 206.498 C 128.357 206.416,120.738 206.497,120.582 206.903 M204.182 206.903 C 204.076 207.179,204.039 213.434,204.100 220.803 L 204.211 234.200 204.306 220.502 L 204.400 206.804 243.100 206.700 L 281.800 206.596 243.087 206.498 C 212.297 206.420,204.335 206.503,204.182 206.903 M151.500 217.099 C 155.295 217.165,161.505 217.165,165.300 217.099 C 169.095 217.034,165.990 216.980,158.400 216.980 C 150.810 216.980,147.705 217.034,151.500 217.099 M235.700 217.099 C 239.605 217.165,245.995 217.165,249.900 217.099 C 253.805 217.034,250.610 216.980,242.800 216.980 C 234.990 216.980,231.795 217.034,235.700 217.099 M143.023 218.089 C 142.127 219.368,142.254 220.691,143.382 221.818 L 144.364 222.800 158.305 222.800 C 170.318 222.800,172.355 222.714,173.024 222.178 C 173.774 221.577,173.770 221.570,172.926 221.978 C 172.365 222.249,167.107 222.400,158.226 222.400 C 142.966 222.400,142.800 222.372,142.800 219.800 C 142.800 219.250,143.160 218.440,143.600 218.000 C 144.040 217.560,144.230 217.200,144.023 217.200 C 143.815 217.200,143.365 217.600,143.023 218.089 M173.952 219.913 C 173.821 220.707,173.879 221.081,174.101 220.859 C 174.303 220.657,174.401 220.067,174.319 219.546 C 174.193 218.745,174.137 218.802,173.952 219.913 M226.460 219.664 C 226.354 221.546,228.362 222.813,231.331 222.737 L 233.800 222.674 231.141 222.437 C 228.192 222.174,226.950 221.400,226.682 219.658 L 226.520 218.600 226.460 219.664 M258.730 221.441 C 258.377 221.794,257.484 222.226,256.744 222.401 C 255.516 222.691,255.493 222.722,256.478 222.759 C 257.338 222.792,260.420 220.862,259.586 220.813 C 259.468 220.806,259.083 221.089,258.730 221.441 M112.991 258.200 C 112.991 276.680,113.040 284.182,113.100 274.870 C 113.160 265.559,113.160 250.439,113.100 241.270 C 113.040 232.102,112.991 239.720,112.991 258.200 M281.274 231.898 L 281.200 234.396 242.700 234.500 L 204.200 234.604 242.713 234.702 C 275.008 234.784,281.259 234.712,281.435 234.252 C 281.551 233.951,281.579 232.736,281.497 231.552 L 281.348 229.400 281.274 231.898 M196.557 247.200 C 196.557 250.170,196.620 251.385,196.697 249.900 C 196.774 248.415,196.774 245.985,196.697 244.500 C 196.620 243.015,196.557 244.230,196.557 247.200 M281.337 245.000 C 281.339 246.760,281.409 247.430,281.493 246.489 C 281.578 245.549,281.577 244.109,281.491 243.289 C 281.405 242.470,281.336 243.240,281.337 245.000 M120.575 253.200 C 120.575 259.250,120.631 261.725,120.699 258.700 C 120.767 255.675,120.767 250.725,120.699 247.700 C 120.631 244.675,120.575 247.150,120.575 253.200 M204.196 273.000 L 204.200 303.800 242.800 303.800 L 281.400 303.800 281.413 295.400 L 281.426 287.000 281.305 295.300 L 281.184 303.600 242.794 303.600 L 204.405 303.600 204.299 272.900 L 204.192 242.200 204.196 273.000 M142.814 252.374 C 142.205 253.512,142.303 254.200,143.224 255.256 L 144.047 256.200 143.351 255.060 C 142.787 254.135,142.738 253.700,143.093 252.760 C 143.591 251.440,143.432 251.219,142.814 252.374 M196.537 255.800 C 196.539 257.560,196.609 258.230,196.693 257.289 C 196.778 256.349,196.777 254.909,196.691 254.089 C 196.605 253.270,196.536 254.040,196.537 255.800 M152.125 256.699 C 155.824 256.766,161.764 256.765,165.325 256.699 C 168.886 256.633,165.860 256.579,158.600 256.579 C 151.340 256.579,148.426 256.633,152.125 256.699 M217.295 272.467 C 217.243 280.314,217.096 287.064,216.970 287.467 C 216.762 288.129,216.782 288.135,217.175 287.526 C 217.473 287.065,217.575 282.350,217.500 272.526 L 217.390 258.200 217.295 272.467 M211.780 272.800 C 211.780 280.610,211.834 283.805,211.899 279.900 C 211.965 275.995,211.965 269.605,211.899 265.700 C 211.834 261.795,211.780 264.990,211.780 272.800 M196.531 265.800 C 196.533 267.340,196.605 267.921,196.692 267.091 C 196.779 266.261,196.777 265.001,196.689 264.291 C 196.600 263.581,196.529 264.260,196.531 265.800 M122.291 268.689 C 123.001 268.777,124.261 268.779,125.091 268.692 C 125.921 268.605,125.340 268.533,123.800 268.531 C 122.260 268.529,121.581 268.600,122.291 268.689 M146.530 268.700 C 155.071 268.760,168.931 268.760,177.330 268.700 C 185.728 268.640,178.740 268.590,161.800 268.590 C 144.860 268.590,137.988 268.640,146.530 268.700 M156.900 275.896 C 158.165 275.975,160.235 275.975,161.500 275.896 C 162.765 275.816,161.730 275.751,159.200 275.751 C 156.670 275.751,155.635 275.816,156.900 275.896 M196.494 289.698 L 196.400 303.596 158.500 303.700 L 120.600 303.804 158.513 303.902 C 188.652 303.980,196.465 303.897,196.618 303.497 C 196.724 303.221,196.761 296.876,196.700 289.397 L 196.589 275.800 196.494 289.698 M120.577 287.800 C 120.577 294.180,120.632 296.734,120.699 293.476 C 120.767 290.217,120.766 284.997,120.699 281.876 C 120.631 278.754,120.576 281.420,120.577 287.800 M151.300 286.299 C 155.205 286.365,161.595 286.365,165.500 286.299 C 169.405 286.234,166.210 286.180,158.400 286.180 C 150.590 286.180,147.395 286.234,151.300 286.299 M212.744 288.376 C 213.779 289.279,214.677 289.407,215.600 288.782 C 216.045 288.481,215.915 288.442,215.097 288.632 C 214.381 288.798,213.609 288.654,212.897 288.220 L 211.800 287.553 212.744 288.376 M142.434 288.656 C 142.415 289.126,142.715 289.855,143.100 290.275 C 143.485 290.694,143.653 290.816,143.472 290.544 C 143.292 290.273,142.992 289.545,142.807 288.926 C 142.533 288.013,142.462 287.962,142.434 288.656 M112.969 300.000 C 112.969 304.510,113.027 306.355,113.098 304.100 C 113.170 301.845,113.170 298.155,113.098 295.900 C 113.027 293.645,112.969 295.490,112.969 300.000 M158.932 311.500 C 182.435 311.557,220.775 311.557,244.132 311.500 C 267.489 311.443,248.260 311.396,201.400 311.396 C 154.540 311.396,135.429 311.443,158.932 311.500 M105.625 314.853 C 105.611 315.213,106.321 316.158,107.201 316.953 L 108.802 318.400 123.501 318.310 L 138.200 318.219 123.332 318.010 L 108.464 317.800 107.388 316.800 C 106.796 316.250,106.164 315.440,105.982 315.000 C 105.728 314.387,105.645 314.353,105.625 314.853 M295.494 316.103 L 294.788 317.400 295.594 316.456 C 296.280 315.652,296.646 314.794,296.300 314.803 C 296.245 314.804,295.882 315.389,295.494 316.103 M282.600 318.000 L 271.800 318.220 282.400 318.304 C 288.718 318.354,293.242 318.231,293.600 318.000 C 293.930 317.787,294.020 317.650,293.800 317.696 C 293.580 317.742,288.540 317.879,282.600 318.000 M264.300 318.295 C 265.455 318.376,267.345 318.376,268.500 318.295 C 269.655 318.214,268.710 318.148,266.400 318.148 C 264.090 318.148,263.145 318.214,264.300 318.295 M300.862 321.885 C 299.149 323.668,299.311 323.878,301.137 322.240 C 301.924 321.534,303.083 319.916,302.714 320.038 C 302.651 320.058,301.818 320.889,300.862 321.885 M117.765 326.148 C 117.649 326.449,117.621 327.664,117.703 328.848 L 117.852 331.000 117.926 328.513 L 118.000 326.025 122.700 325.899 L 127.400 325.772 122.687 325.686 C 119.007 325.619,117.929 325.720,117.765 326.148 M276.969 326.136 C 276.850 326.447,276.820 327.579,276.904 328.651 L 277.056 330.600 277.128 328.300 L 277.200 326.000 281.036 326.000 L 284.871 326.000 284.736 328.382 C 284.661 329.691,284.745 330.617,284.923 330.439 C 285.100 330.260,285.190 329.144,285.123 327.957 L 285.000 325.800 281.093 325.685 C 278.017 325.595,277.140 325.691,276.969 326.136 M109.590 326.263 C 109.816 326.375,110.000 327.352,110.000 328.433 L 110.000 330.400 97.969 330.400 L 85.938 330.400 84.769 331.569 C 84.126 332.212,83.601 332.977,83.601 333.269 C 83.602 333.561,83.960 333.215,84.396 332.500 C 84.832 331.785,85.236 331.162,85.294 331.115 C 85.352 331.068,90.980 330.933,97.800 330.815 L 110.200 330.600 110.200 328.433 C 110.200 326.998,110.028 326.232,109.690 326.163 C 109.410 326.107,109.365 326.151,109.590 326.263 M134.880 328.299 L 135.000 330.600 201.400 330.709 C 237.920 330.770,268.214 330.719,268.720 330.597 C 269.556 330.395,269.630 330.182,269.520 328.287 L 269.400 326.200 202.080 326.099 L 134.760 325.998 134.880 328.299 M292.064 329.113 C 292.028 329.852,292.218 330.504,292.500 330.605 C 293.363 330.916,316.750 331.015,316.263 330.706 C 316.008 330.544,310.546 330.409,304.125 330.406 L 292.451 330.400 292.289 329.100 L 292.128 327.800 292.064 329.113 M318.493 334.400 C 318.493 335.170,318.575 335.485,318.676 335.100 C 318.776 334.715,318.776 334.085,318.676 333.700 C 318.575 333.315,318.493 333.630,318.493 334.400 M83.632 335.630 C 83.614 335.977,84.095 336.697,84.700 337.230 L 85.800 338.200 84.951 337.200 C 84.484 336.650,84.003 335.930,83.882 335.600 C 83.695 335.086,83.659 335.091,83.632 335.630 M143.268 338.300 C 174.875 338.356,226.715 338.356,258.468 338.300 C 290.220 338.243,264.360 338.197,201.000 338.197 C 137.640 338.197,111.660 338.243,143.268 338.300 " stroke="none" fill="#b3c9c8" fill-rule="evenodd"></path><path id="path3" d="M110.900 67.496 C 112.165 67.575,114.235 67.575,115.500 67.496 C 116.765 67.416,115.730 67.351,113.200 67.351 C 110.670 67.351,109.635 67.416,110.900 67.496 M119.500 67.482 C 119.995 67.578,120.805 67.578,121.300 67.482 C 121.795 67.387,121.390 67.309,120.400 67.309 C 119.410 67.309,119.005 67.387,119.500 67.482 M124.500 67.476 C 124.885 67.576,125.515 67.576,125.900 67.476 C 126.285 67.375,125.970 67.293,125.200 67.293 C 124.430 67.293,124.115 67.375,124.500 67.476 M140.121 67.498 C 142.277 67.571,145.697 67.570,147.721 67.498 C 149.744 67.425,147.980 67.366,143.800 67.367 C 139.620 67.367,137.964 67.426,140.121 67.498 M187.300 67.500 C 206.825 67.557,238.775 67.557,258.300 67.500 C 277.825 67.443,261.850 67.396,222.800 67.396 C 183.750 67.396,167.775 67.443,187.300 67.500 M118.500 74.291 C 119.325 74.378,120.675 74.378,121.500 74.291 C 122.325 74.205,121.650 74.134,120.000 74.134 C 118.350 74.134,117.675 74.205,118.500 74.291 M188.900 74.300 C 207.325 74.357,237.475 74.357,255.900 74.300 C 274.325 74.242,259.250 74.195,222.400 74.195 C 185.550 74.195,170.475 74.242,188.900 74.300 M120.800 99.999 L 120.800 111.200 125.300 111.140 C 128.161 111.102,129.178 110.992,128.093 110.840 L 126.385 110.600 126.493 103.514 C 126.584 97.456,126.699 96.329,127.284 95.744 C 128.352 94.676,273.910 94.789,274.692 95.858 C 275.058 96.358,275.200 98.549,275.200 103.673 L 275.200 110.792 255.700 110.902 C 236.749 111.008,236.837 111.011,258.800 111.006 L 281.400 111.000 281.400 100.000 L 281.400 89.000 201.100 88.899 L 120.800 88.798 120.800 99.999 M113.390 125.600 C 113.390 142.210,113.439 149.005,113.500 140.700 C 113.560 132.395,113.560 118.805,113.500 110.500 C 113.439 102.195,113.390 108.990,113.390 125.600 M171.717 111.097 C 173.211 111.174,175.551 111.174,176.917 111.096 C 178.282 111.018,177.060 110.955,174.200 110.955 C 171.340 110.956,170.222 111.020,171.717 111.097 M181.905 111.083 C 182.402 111.179,183.122 111.175,183.505 111.075 C 183.887 110.975,183.480 110.896,182.600 110.901 C 181.720 110.905,181.407 110.987,181.905 111.083 M192.100 111.091 C 192.925 111.178,194.275 111.178,195.100 111.091 C 195.925 111.005,195.250 110.934,193.600 110.934 C 191.950 110.934,191.275 111.005,192.100 111.091 M281.597 121.918 L 281.793 125.400 281.915 122.238 C 281.981 120.499,281.893 118.932,281.718 118.756 C 281.543 118.580,281.488 120.003,281.597 121.918 M120.800 143.799 L 120.800 154.800 123.800 154.800 L 126.800 154.800 126.800 147.629 C 126.800 138.161,124.729 139.210,143.529 139.154 C 225.425 138.909,273.701 139.168,274.460 139.855 C 275.179 140.505,275.225 141.061,275.117 147.678 L 275.000 154.801 278.306 154.800 L 281.613 154.800 281.506 143.900 L 281.400 133.000 201.100 132.899 L 120.800 132.798 120.800 143.799 M296.909 144.000 C 296.909 144.990,296.987 145.395,297.082 144.900 C 297.178 144.405,297.178 143.595,297.082 143.100 C 296.987 142.605,296.909 143.010,296.909 144.000 M296.924 157.400 C 296.926 158.720,297.001 159.212,297.090 158.493 C 297.179 157.774,297.177 156.694,297.086 156.093 C 296.995 155.492,296.922 156.080,296.924 157.400 M113.395 219.400 C 113.395 253.500,113.442 267.509,113.500 250.531 C 113.558 233.554,113.558 205.654,113.500 188.531 C 113.442 171.409,113.395 185.300,113.395 219.400 M296.992 195.800 C 296.992 215.380,297.040 223.331,297.100 213.470 C 297.160 203.608,297.159 187.588,297.100 177.870 C 297.040 168.151,296.991 176.220,296.992 195.800 M121.700 161.887 C 122.305 161.978,123.295 161.978,123.900 161.887 C 124.505 161.795,124.010 161.720,122.800 161.720 C 121.590 161.720,121.095 161.795,121.700 161.887 M127.511 161.893 C 128.451 161.978,129.891 161.977,130.711 161.891 C 131.530 161.805,130.760 161.736,129.000 161.737 C 127.240 161.739,126.570 161.809,127.511 161.893 M136.905 161.887 C 137.514 161.979,138.414 161.977,138.905 161.882 C 139.397 161.787,138.900 161.711,137.800 161.714 C 136.700 161.717,136.297 161.795,136.905 161.887 M145.700 161.897 C 147.405 161.972,150.195 161.972,151.900 161.897 C 153.605 161.822,152.210 161.761,148.800 161.761 C 145.390 161.761,143.995 161.822,145.700 161.897 M159.107 161.890 C 159.826 161.979,160.906 161.977,161.507 161.886 C 162.108 161.795,161.520 161.722,160.200 161.724 C 158.880 161.726,158.388 161.801,159.107 161.890 M174.300 161.899 C 177.875 161.966,183.725 161.966,187.300 161.899 C 190.875 161.833,187.950 161.779,180.800 161.779 C 173.650 161.779,170.725 161.833,174.300 161.899 M196.900 161.887 C 197.505 161.978,198.495 161.978,199.100 161.887 C 199.705 161.795,199.210 161.720,198.000 161.720 C 196.790 161.720,196.295 161.795,196.900 161.887 M206.305 161.883 C 206.802 161.979,207.522 161.975,207.905 161.875 C 208.287 161.775,207.880 161.696,207.000 161.701 C 206.120 161.705,205.807 161.787,206.305 161.883 M212.100 161.876 C 212.485 161.976,213.115 161.976,213.500 161.876 C 213.885 161.775,213.570 161.693,212.800 161.693 C 212.030 161.693,211.715 161.775,212.100 161.876 M218.500 161.891 C 219.325 161.978,220.675 161.978,221.500 161.891 C 222.325 161.805,221.650 161.734,220.000 161.734 C 218.350 161.734,217.675 161.805,218.500 161.891 M228.291 161.889 C 229.001 161.977,230.261 161.979,231.091 161.892 C 231.921 161.805,231.340 161.733,229.800 161.731 C 228.260 161.729,227.581 161.800,228.291 161.889 M273.500 161.895 C 274.655 161.976,276.545 161.976,277.700 161.895 C 278.855 161.814,277.910 161.748,275.600 161.748 C 273.290 161.748,272.345 161.814,273.500 161.895 M281.740 165.600 C 281.740 167.470,281.809 168.235,281.893 167.300 C 281.977 166.365,281.977 164.835,281.893 163.900 C 281.809 162.965,281.740 163.730,281.740 165.600 M179.718 169.498 C 181.433 169.573,184.133 169.572,185.718 169.497 C 187.303 169.421,185.900 169.359,182.600 169.360 C 179.300 169.361,178.003 169.422,179.718 169.498 M224.313 169.495 C 225.476 169.576,227.276 169.576,228.313 169.493 C 229.351 169.411,228.400 169.345,226.200 169.346 C 224.000 169.347,223.151 169.414,224.313 169.495 M120.800 187.800 L 120.800 199.202 201.100 199.101 L 281.400 199.000 281.400 187.800 L 281.400 176.600 201.100 176.499 L 120.800 176.398 120.800 187.800 M274.409 182.809 C 275.171 183.571,275.211 184.045,275.109 191.109 L 275.000 198.600 201.221 198.701 C 160.643 198.757,127.301 198.661,127.129 198.489 C 126.541 197.901,126.458 184.725,127.034 183.300 L 127.559 182.000 200.580 182.000 C 273.331 182.000,273.603 182.003,274.409 182.809 M137.105 206.283 C 137.602 206.379,138.322 206.375,138.705 206.275 C 139.087 206.175,138.680 206.096,137.800 206.101 C 136.920 206.105,136.607 206.187,137.105 206.283 M154.128 206.300 C 159.808 206.362,168.988 206.362,174.528 206.300 C 180.068 206.237,175.420 206.186,164.200 206.186 C 152.980 206.186,148.448 206.237,154.128 206.300 M192.700 206.282 C 193.195 206.378,194.005 206.378,194.500 206.282 C 194.995 206.187,194.590 206.109,193.600 206.109 C 192.610 206.109,192.205 206.187,192.700 206.282 M216.100 206.291 C 216.925 206.378,218.275 206.378,219.100 206.291 C 219.925 206.205,219.250 206.134,217.600 206.134 C 215.950 206.134,215.275 206.205,216.100 206.291 M281.064 206.271 C 281.319 206.453,281.614 207.142,281.720 207.801 C 281.897 208.899,281.908 208.885,281.856 207.631 C 281.822 206.788,281.569 206.200,281.200 206.100 C 280.795 205.991,280.751 206.047,281.064 206.271 M281.728 214.400 C 281.728 215.830,281.801 216.415,281.889 215.700 C 281.978 214.985,281.978 213.815,281.889 213.100 C 281.801 212.385,281.728 212.970,281.728 214.400 M196.909 216.400 C 196.909 217.390,196.987 217.795,197.082 217.300 C 197.178 216.805,197.178 215.995,197.082 215.500 C 196.987 215.005,196.909 215.410,196.909 216.400 M249.100 217.496 C 250.475 217.574,252.725 217.574,254.100 217.496 C 255.475 217.418,254.350 217.354,251.600 217.354 C 248.850 217.354,247.725 217.418,249.100 217.496 M281.693 218.400 C 281.693 219.170,281.775 219.485,281.876 219.100 C 281.976 218.715,281.976 218.085,281.876 217.700 C 281.775 217.315,281.693 217.630,281.693 218.400 M281.740 223.600 C 281.740 225.470,281.809 226.235,281.893 225.300 C 281.977 224.365,281.977 222.835,281.893 221.900 C 281.809 220.965,281.740 221.730,281.740 223.600 M147.516 222.297 C 148.899 222.375,151.059 222.374,152.316 222.295 C 153.572 222.216,152.440 222.152,149.800 222.153 C 147.160 222.153,146.132 222.218,147.516 222.297 M155.505 222.283 C 156.002 222.379,156.722 222.375,157.105 222.275 C 157.487 222.175,157.080 222.096,156.200 222.101 C 155.320 222.105,155.007 222.187,155.505 222.283 M296.914 233.400 C 296.917 234.500,296.995 234.903,297.087 234.295 C 297.179 233.686,297.177 232.786,297.082 232.295 C 296.987 231.803,296.911 232.300,296.914 233.400 M173.705 235.087 C 174.314 235.179,175.214 235.177,175.705 235.082 C 176.197 234.987,175.700 234.911,174.600 234.914 C 173.500 234.917,173.097 234.995,173.705 235.087 M187.700 235.076 C 188.085 235.176,188.715 235.176,189.100 235.076 C 189.485 234.975,189.170 234.893,188.400 234.893 C 187.630 234.893,187.315 234.975,187.700 235.076 M278.100 235.087 C 278.705 235.178,279.695 235.178,280.300 235.087 C 280.905 234.995,280.410 234.920,279.200 234.920 C 277.990 234.920,277.495 234.995,278.100 235.087 M270.505 241.887 C 271.114 241.979,272.014 241.977,272.505 241.882 C 272.997 241.787,272.500 241.711,271.400 241.714 C 270.300 241.717,269.897 241.795,270.505 241.887 M280.689 241.887 C 281.549 242.046,281.583 242.231,281.706 247.526 L 281.833 253.000 281.816 247.400 L 281.800 241.800 280.800 241.761 C 279.952 241.729,279.935 241.748,280.689 241.887 M281.709 256.000 C 281.709 256.990,281.787 257.395,281.882 256.900 C 281.978 256.405,281.978 255.595,281.882 255.100 C 281.787 254.605,281.709 255.010,281.709 256.000 M281.746 262.200 C 281.747 264.400,281.814 265.249,281.895 264.087 C 281.976 262.924,281.976 261.124,281.893 260.087 C 281.811 259.049,281.745 260.000,281.746 262.200 M281.701 268.200 C 281.705 269.080,281.787 269.393,281.883 268.895 C 281.979 268.398,281.975 267.678,281.875 267.295 C 281.775 266.913,281.696 267.320,281.701 268.200 M296.920 273.600 C 296.920 274.810,296.995 275.305,297.087 274.700 C 297.178 274.095,297.178 273.105,297.087 272.500 C 296.995 271.895,296.920 272.390,296.920 273.600 M281.734 276.000 C 281.734 277.650,281.805 278.325,281.891 277.500 C 281.978 276.675,281.978 275.325,281.891 274.500 C 281.805 273.675,281.734 274.350,281.734 276.000 M113.379 294.600 C 113.379 301.860,113.433 304.886,113.499 301.325 C 113.565 297.764,113.566 291.824,113.499 288.125 C 113.433 284.426,113.379 287.340,113.379 294.600 M281.693 285.600 C 281.693 286.370,281.775 286.685,281.876 286.300 C 281.976 285.915,281.976 285.285,281.876 284.900 C 281.775 284.515,281.693 284.830,281.693 285.600 M281.693 288.400 C 281.693 289.170,281.775 289.485,281.876 289.100 C 281.976 288.715,281.976 288.085,281.876 287.700 C 281.775 287.315,281.693 287.630,281.693 288.400 M196.934 296.000 C 196.934 297.650,197.005 298.325,197.091 297.500 C 197.178 296.675,197.178 295.325,197.091 294.500 C 197.005 293.675,196.934 294.350,196.934 296.000 M134.565 326.148 C 134.449 326.449,134.410 327.664,134.477 328.848 L 134.600 331.000 202.100 331.101 C 239.225 331.157,269.600 331.067,269.600 330.901 C 269.600 330.736,239.315 330.600,202.300 330.600 L 135.000 330.600 134.880 328.298 L 134.760 325.995 202.180 326.098 C 239.261 326.154,269.600 326.065,269.600 325.900 C 269.600 325.294,134.797 325.541,134.565 326.148 M98.200 330.800 L 86.200 331.018 98.076 331.109 C 105.662 331.167,110.042 331.055,110.200 330.800 C 110.336 330.580,110.392 330.441,110.324 330.491 C 110.256 330.541,104.800 330.680,98.200 330.800 M292.346 330.906 C 292.514 331.075,297.951 331.164,304.426 331.106 L 316.200 330.999 304.120 330.800 C 297.475 330.690,292.177 330.738,292.346 330.906 " stroke="none" fill="#94b4b1" fill-rule="evenodd"></path><path id="path4" d="M128.917 67.497 C 130.411 67.574,132.751 67.574,134.117 67.496 C 135.482 67.418,134.260 67.355,131.400 67.355 C 128.540 67.356,127.422 67.420,128.917 67.497 M123.300 74.276 C 123.685 74.376,124.315 74.376,124.700 74.276 C 125.085 74.175,124.770 74.093,124.000 74.093 C 123.230 74.093,122.915 74.175,123.300 74.276 M133.726 74.300 C 137.866 74.365,144.526 74.365,148.526 74.299 C 152.527 74.234,149.140 74.181,141.000 74.181 C 132.860 74.181,129.587 74.234,133.726 74.300 M97.789 105.200 C 97.789 119.830,97.839 125.815,97.900 118.500 C 97.961 111.185,97.961 99.215,97.900 91.900 C 97.839 84.585,97.789 90.570,97.789 105.200 M158.068 81.900 C 181.535 81.957,220.055 81.957,243.668 81.900 C 267.281 81.843,248.080 81.796,201.000 81.796 C 153.920 81.796,134.601 81.843,158.068 81.900 M148.305 95.083 C 148.802 95.179,149.522 95.175,149.905 95.075 C 150.287 94.975,149.880 94.896,149.000 94.901 C 148.120 94.905,147.807 94.987,148.305 95.083 M165.500 95.096 C 166.875 95.174,169.125 95.174,170.500 95.096 C 171.875 95.018,170.750 94.954,168.000 94.954 C 165.250 94.954,164.125 95.018,165.500 95.096 M186.500 95.076 C 186.885 95.176,187.515 95.176,187.900 95.076 C 188.285 94.975,187.970 94.893,187.200 94.893 C 186.430 94.893,186.115 94.975,186.500 95.076 M202.300 95.098 C 204.555 95.170,208.245 95.170,210.500 95.098 C 212.755 95.027,210.910 94.969,206.400 94.969 C 201.890 94.969,200.045 95.027,202.300 95.098 M126.524 107.800 C 126.526 109.120,126.601 109.612,126.690 108.893 C 126.779 108.174,126.777 107.094,126.686 106.493 C 126.595 105.892,126.522 106.480,126.524 107.800 M185.712 111.095 C 186.764 111.177,188.384 111.176,189.312 111.092 C 190.240 111.008,189.380 110.941,187.400 110.942 C 185.420 110.943,184.660 111.012,185.712 111.095 M197.507 111.090 C 198.226 111.179,199.306 111.177,199.907 111.086 C 200.508 110.995,199.920 110.922,198.600 110.924 C 197.280 110.926,196.788 111.001,197.507 111.090 M120.540 122.400 C 120.540 124.270,120.609 125.035,120.693 124.100 C 120.777 123.165,120.777 121.635,120.693 120.700 C 120.609 119.765,120.540 120.530,120.540 122.400 M251.507 125.890 C 252.226 125.979,253.306 125.977,253.907 125.886 C 254.508 125.795,253.920 125.722,252.600 125.724 C 251.280 125.726,250.788 125.801,251.507 125.890 M97.797 223.400 C 97.797 273.780,97.843 294.331,97.900 269.068 C 97.957 243.805,97.957 202.585,97.900 177.468 C 97.843 152.351,97.797 173.020,97.797 223.400 M159.700 139.087 C 160.305 139.178,161.295 139.178,161.900 139.087 C 162.505 138.995,162.010 138.920,160.800 138.920 C 159.590 138.920,159.095 138.995,159.700 139.087 M132.900 161.887 C 133.505 161.978,134.495 161.978,135.100 161.887 C 135.705 161.795,135.210 161.720,134.000 161.720 C 132.790 161.720,132.295 161.795,132.900 161.887 M155.500 161.882 C 155.995 161.978,156.805 161.978,157.300 161.882 C 157.795 161.787,157.390 161.709,156.400 161.709 C 155.410 161.709,155.005 161.787,155.500 161.882 M163.507 161.890 C 164.226 161.979,165.306 161.977,165.907 161.886 C 166.508 161.795,165.920 161.722,164.600 161.724 C 163.280 161.726,162.788 161.801,163.507 161.890 M194.100 161.876 C 194.485 161.976,195.115 161.976,195.500 161.876 C 195.885 161.775,195.570 161.693,194.800 161.693 C 194.030 161.693,193.715 161.775,194.100 161.876 M201.900 161.889 C 202.615 161.978,203.785 161.978,204.500 161.889 C 205.215 161.801,204.630 161.728,203.200 161.728 C 201.770 161.728,201.185 161.801,201.900 161.889 M209.100 161.882 C 209.595 161.978,210.405 161.978,210.900 161.882 C 211.395 161.787,210.990 161.709,210.000 161.709 C 209.010 161.709,208.605 161.787,209.100 161.882 M214.700 161.882 C 215.195 161.978,216.005 161.978,216.500 161.882 C 216.995 161.787,216.590 161.709,215.600 161.709 C 214.610 161.709,214.205 161.787,214.700 161.882 M223.907 161.890 C 224.626 161.979,225.706 161.977,226.307 161.886 C 226.908 161.795,226.320 161.722,225.000 161.724 C 223.680 161.726,223.188 161.801,223.907 161.890 M242.100 161.900 C 247.545 161.963,256.455 161.963,261.900 161.900 C 267.345 161.837,262.890 161.785,252.000 161.785 C 241.110 161.785,236.655 161.837,242.100 161.900 M120.534 166.000 C 120.534 167.650,120.605 168.325,120.691 167.500 C 120.778 166.675,120.778 165.325,120.691 164.500 C 120.605 163.675,120.534 164.350,120.534 166.000 M123.312 206.295 C 124.364 206.377,125.984 206.376,126.912 206.292 C 127.840 206.208,126.980 206.141,125.000 206.142 C 123.020 206.143,122.260 206.212,123.312 206.295 M131.911 206.293 C 132.851 206.378,134.291 206.377,135.111 206.291 C 135.930 206.205,135.160 206.136,133.400 206.137 C 131.640 206.139,130.970 206.209,131.911 206.293 M141.905 206.283 C 142.402 206.379,143.122 206.375,143.505 206.275 C 143.887 206.175,143.480 206.096,142.600 206.101 C 141.720 206.105,141.407 206.187,141.905 206.283 M186.313 206.295 C 187.476 206.376,189.276 206.376,190.313 206.293 C 191.351 206.211,190.400 206.145,188.200 206.146 C 186.000 206.147,185.151 206.214,186.313 206.295 M195.900 206.412 C 196.743 206.751,196.805 207.034,196.884 210.887 L 196.967 215.000 197.099 211.059 C 197.234 206.997,196.940 205.975,195.651 206.025 C 195.210 206.043,195.291 206.168,195.900 206.412 M207.505 206.283 C 208.002 206.379,208.722 206.375,209.105 206.275 C 209.487 206.175,209.080 206.096,208.200 206.101 C 207.320 206.105,207.007 206.187,207.505 206.283 M211.500 206.282 C 211.995 206.378,212.805 206.378,213.300 206.282 C 213.795 206.187,213.390 206.109,212.400 206.109 C 211.410 206.109,211.005 206.187,211.500 206.282 M235.270 206.300 C 243.559 206.360,257.239 206.360,265.670 206.300 C 274.102 206.240,267.320 206.190,250.600 206.190 C 233.880 206.190,226.982 206.239,235.270 206.300 M281.693 210.000 C 281.693 210.770,281.775 211.085,281.876 210.700 C 281.976 210.315,281.976 209.685,281.876 209.300 C 281.775 208.915,281.693 209.230,281.693 210.000 M227.280 218.080 C 226.737 218.623,226.629 220.647,227.128 220.955 C 227.308 221.067,227.377 220.626,227.282 219.975 C 227.186 219.325,227.331 218.524,227.603 218.196 C 228.195 217.484,227.961 217.399,227.280 218.080 M258.500 218.231 C 258.885 218.689,259.200 219.395,259.200 219.800 C 259.200 220.205,258.885 220.911,258.500 221.369 C 257.801 222.199,257.801 222.199,258.700 221.438 C 259.195 221.019,259.600 220.282,259.600 219.800 C 259.600 219.318,259.195 218.581,258.700 218.162 C 257.801 217.401,257.801 217.401,258.500 218.231 M196.969 226.000 C 196.969 230.510,197.027 232.355,197.098 230.100 C 197.170 227.845,197.170 224.155,197.098 221.900 C 197.027 219.645,196.969 221.490,196.969 226.000 M239.124 222.699 C 242.273 222.767,247.313 222.767,250.324 222.699 C 253.336 222.631,250.760 222.576,244.600 222.576 C 238.440 222.576,235.976 222.632,239.124 222.699 M281.597 230.682 C 281.489 232.927,281.542 234.621,281.716 234.446 C 281.890 234.271,281.978 232.434,281.913 230.364 L 281.795 226.600 281.597 230.682 M120.531 232.200 C 120.533 233.740,120.605 234.321,120.692 233.491 C 120.779 232.661,120.777 231.401,120.689 230.691 C 120.600 229.981,120.529 230.660,120.531 232.200 M204.103 234.400 C 204.247 234.928,208.671 235.000,240.833 235.003 L 277.400 235.006 241.022 234.901 C 212.556 234.819,204.568 234.687,204.292 234.298 C 204.032 233.931,203.982 233.958,204.103 234.400 M134.129 235.100 C 141.350 235.161,153.050 235.161,160.129 235.100 C 167.208 235.039,161.300 234.989,147.000 234.989 C 132.700 234.989,126.908 235.039,134.129 235.100 M178.917 235.097 C 180.411 235.174,182.751 235.174,184.117 235.096 C 185.482 235.018,184.260 234.955,181.400 234.955 C 178.540 234.956,177.422 235.020,178.917 235.097 M190.691 235.089 C 191.401 235.177,192.661 235.179,193.491 235.092 C 194.321 235.005,193.740 234.933,192.200 234.931 C 190.660 234.929,189.981 235.000,190.691 235.089 M120.662 241.900 C 120.494 242.172,147.345 242.169,183.000 241.894 C 190.480 241.836,179.556 241.747,158.724 241.695 C 137.892 241.643,120.764 241.735,120.662 241.900 M204.262 241.900 C 204.093 242.172,225.623 242.169,253.200 241.893 C 259.030 241.834,250.446 241.744,234.124 241.693 C 217.802 241.642,204.364 241.735,204.262 241.900 M266.307 241.890 C 267.026 241.979,268.106 241.977,268.707 241.886 C 269.308 241.795,268.720 241.722,267.400 241.724 C 266.080 241.726,265.588 241.801,266.307 241.890 M274.700 241.893 C 275.635 241.977,277.165 241.977,278.100 241.893 C 279.035 241.809,278.270 241.740,276.400 241.740 C 274.530 241.740,273.765 241.809,274.700 241.893 M196.894 255.280 L 196.800 268.360 194.500 268.504 L 192.200 268.649 194.513 268.724 C 197.455 268.821,197.231 270.009,197.100 254.997 L 196.988 242.200 196.894 255.280 M151.500 251.099 C 155.295 251.165,161.505 251.165,165.300 251.099 C 169.095 251.034,165.990 250.980,158.400 250.980 C 150.810 250.980,147.705 251.034,151.500 251.099 M120.446 266.076 C 120.421 267.328,120.535 268.436,120.700 268.538 C 120.865 268.640,120.946 267.886,120.880 266.862 C 120.693 263.941,120.497 263.586,120.446 266.076 M129.105 268.683 C 129.602 268.779,130.322 268.775,130.705 268.675 C 131.087 268.575,130.680 268.496,129.800 268.501 C 128.920 268.505,128.607 268.587,129.105 268.683 M281.714 271.400 C 281.717 272.500,281.795 272.903,281.887 272.295 C 281.979 271.686,281.977 270.786,281.882 270.295 C 281.787 269.803,281.711 270.300,281.714 271.400 M120.661 275.900 C 120.493 276.173,133.742 276.167,149.000 275.887 C 152.300 275.827,147.316 275.738,137.924 275.689 C 128.532 275.640,120.764 275.735,120.661 275.900 M171.700 275.900 C 176.265 275.964,183.735 275.964,188.300 275.900 C 192.865 275.835,189.130 275.783,180.000 275.783 C 170.870 275.783,167.135 275.835,171.700 275.900 M196.957 281.600 C 196.957 284.570,197.020 285.785,197.097 284.300 C 197.174 282.815,197.174 280.385,197.097 278.900 C 197.020 277.415,196.957 278.630,196.957 281.600 M281.734 281.600 C 281.734 283.250,281.805 283.925,281.891 283.100 C 281.978 282.275,281.978 280.925,281.891 280.100 C 281.805 279.275,281.734 279.950,281.734 281.600 M196.934 290.400 C 196.934 292.050,197.005 292.725,197.091 291.900 C 197.178 291.075,197.178 289.725,197.091 288.900 C 197.005 288.075,196.934 288.750,196.934 290.400 M173.646 288.624 C 173.512 291.013,173.697 290.981,158.933 291.213 L 145.400 291.426 158.274 291.513 C 172.971 291.612,174.613 291.293,173.872 288.479 C 173.732 287.948,173.683 287.980,173.646 288.624 M281.750 293.800 C 281.751 296.220,281.816 297.158,281.896 295.885 C 281.976 294.612,281.975 292.632,281.894 291.485 C 281.814 290.338,281.749 291.380,281.750 293.800 M196.795 301.282 C 196.688 302.757,196.745 303.818,196.922 303.640 C 197.099 303.462,197.186 302.255,197.117 300.958 L 196.990 298.600 196.795 301.282 M120.524 301.400 C 120.526 302.720,120.601 303.212,120.690 302.493 C 120.779 301.774,120.777 300.694,120.686 300.093 C 120.595 299.492,120.522 300.080,120.524 301.400 M113.200 308.664 C 113.200 308.882,113.695 309.497,114.300 310.030 L 115.400 311.000 114.400 309.800 C 113.850 309.140,113.355 308.525,113.300 308.433 C 113.245 308.342,113.200 308.445,113.200 308.664 M117.511 311.093 C 118.451 311.178,119.891 311.177,120.711 311.091 C 121.530 311.005,120.760 310.936,119.000 310.937 C 117.240 310.939,116.570 311.009,117.511 311.093 M105.600 315.725 C 105.600 315.794,106.185 316.379,106.900 317.025 L 108.200 318.200 107.025 316.900 C 105.930 315.688,105.600 315.416,105.600 315.725 M155.332 318.700 C 180.595 318.757,221.815 318.757,246.932 318.700 C 272.049 318.643,251.380 318.597,201.000 318.597 C 150.620 318.597,130.069 318.643,155.332 318.700 M123.399 325.492 L 127.200 325.629 127.200 328.202 L 127.200 330.775 122.700 330.906 L 118.200 331.038 122.800 331.019 L 127.400 331.000 127.400 328.200 L 127.400 325.400 123.499 325.377 L 119.598 325.354 123.399 325.492 M277.155 330.916 C 277.330 331.091,279.077 331.179,281.036 331.114 L 284.600 330.994 280.718 330.797 C 278.583 330.689,276.980 330.742,277.155 330.916 " stroke="none" fill="#9fb0ab" fill-rule="evenodd"></path></g></svg>