<svg id="svg" version="1.1" xmlns="http://www.w3.org/2000/svg" xmlns:xlink="http://www.w3.org/1999/xlink" width="200" height="200" viewBox="0, 0, 400,397.8171896316507"><g id="svgg"><path id="path0" d="M121.791 113.055 C 106.398 113.720,95.002 123.626,92.510 138.507 C 91.790 142.807,91.656 251.826,92.364 256.920 C 94.346 271.166,106.228 282.197,121.320 283.802 C 128.933 284.612,293.873 284.112,296.676 283.271 C 308.121 279.836,315.177 273.694,319.408 263.483 C 322.158 256.848,322.027 260.337,321.901 196.816 L 321.787 139.502 320.896 136.318 C 317.684 124.844,309.876 116.794,299.047 113.794 L 295.920 112.927 211.542 112.875 C 165.134 112.846,124.746 112.927,121.791 113.055 M296.545 124.422 C 302.709 126.252,308.553 131.654,309.331 136.244 C 309.501 137.252,104.566 137.378,104.355 136.370 C 103.693 133.210,110.411 126.799,116.594 124.691 L 119.204 123.802 206.793 123.791 C 286.204 123.782,294.585 123.841,296.545 124.422 M311.276 176.219 C 311.491 251.843,311.481 253.182,310.690 256.318 C 308.782 263.886,304.446 268.664,296.517 271.933 L 294.328 272.836 207.788 272.940 C 112.263 273.055,119.232 273.232,113.832 270.542 C 110.428 268.846,106.757 265.178,105.140 261.855 C 102.571 256.578,102.687 259.028,102.687 209.668 L 102.687 164.776 206.965 164.776 L 311.244 164.776 311.276 176.219 M117.086 174.991 C 116.360 175.353,115.285 176.278,114.698 177.047 L 113.632 178.445 113.632 191.443 L 113.632 204.440 114.704 205.846 C 116.792 208.583,116.594 208.557,135.509 208.557 C 153.645 208.557,153.242 208.600,155.507 206.456 C 157.439 204.628,157.677 202.698,157.536 189.974 C 157.400 177.714,157.320 177.300,154.732 175.454 L 153.433 174.527 135.920 174.430 C 120.309 174.344,118.265 174.405,117.086 174.991 M122.790 182.388 C 127.743 188.128,127.809 195.282,122.954 200.137 C 120.039 203.051,120.015 202.985,119.893 191.644 C 119.761 179.316,119.862 178.994,122.790 182.388 M142.488 181.015 C 142.488 181.190,142.311 181.510,142.095 181.726 C 139.610 184.211,138.919 193.816,140.879 198.631 C 142.394 202.356,142.645 202.189,135.522 202.189 C 128.624 202.189,128.457 202.114,129.885 199.677 C 132.634 194.986,132.558 188.573,129.686 182.985 L 128.511 180.697 135.499 180.697 C 139.343 180.697,142.488 180.840,142.488 181.015 M151.151 191.023 C 151.259 201.284,151.157 202.070,149.773 201.630 C 145.416 200.248,143.497 189.575,146.684 184.447 C 150.483 178.333,151.026 179.132,151.151 191.023 M241.250 191.660 C 239.551 193.821,240.085 197.409,242.226 198.223 C 243.538 198.722,263.918 198.724,265.229 198.226 C 267.837 197.235,268.131 192.643,265.695 190.951 C 265.463 190.791,260.048 190.656,253.661 190.653 L 242.048 190.647 241.250 191.660 M273.860 191.695 C 272.763 193.090,272.729 196.151,273.795 197.468 C 274.565 198.420,291.969 199.164,295.996 198.417 C 298.741 197.908,299.740 193.801,297.658 191.585 L 296.777 190.647 285.731 190.647 L 274.685 190.647 273.860 191.695 M256.518 216.174 C 244.988 218.872,236.774 233.074,240.437 243.980 C 240.694 244.746,241.156 246.115,241.464 247.021 C 245.150 257.894,259.800 263.999,269.909 258.876 L 271.835 257.900 273.729 258.882 C 289.535 267.085,308.150 249.360,302.583 231.408 C 298.623 218.639,284.604 211.982,273.581 217.637 C 272.196 218.348,272.141 218.345,270.285 217.456 C 266.772 215.775,260.656 215.205,256.518 216.174 M117.119 217.126 C 115.298 218.402,115.174 221.741,116.888 223.352 L 117.875 224.279 135.455 224.279 C 145.124 224.279,153.524 224.142,154.122 223.974 C 156.450 223.323,157.068 219.476,155.170 217.455 L 154.289 216.517 136.139 216.517 C 120.493 216.517,117.868 216.601,117.119 217.126 M162.966 217.571 C 161.628 219.015,161.614 221.567,162.937 222.995 C 164.262 224.425,165.622 224.544,179.040 224.402 L 190.717 224.279 191.677 223.162 C 193.052 221.562,193.011 218.991,191.588 217.567 L 190.538 216.517 177.240 216.517 L 163.942 216.517 162.966 217.571 M199.920 217.116 C 198.466 218.134,198.015 220.235,198.874 221.989 C 200.091 224.475,200.216 224.495,214.065 224.381 L 226.537 224.279 227.498 223.162 C 228.847 221.592,228.839 218.853,227.481 217.494 L 226.504 216.517 213.639 216.517 C 202.836 216.517,200.637 216.613,199.920 217.116 M289.044 223.013 C 304.160 230.409,298.852 254.527,282.109 254.527 C 277.496 254.527,276.921 254.200,278.141 252.266 C 283.679 243.486,284.071 233.632,279.211 225.339 C 277.093 221.725,277.127 221.694,282.998 221.826 C 286.231 221.899,287.126 222.075,289.044 223.013 M257.069 225.328 C 257.591 225.736,258.599 226.070,259.308 226.070 C 260.018 226.070,260.822 226.338,261.095 226.667 C 261.367 226.995,262.095 227.264,262.712 227.264 C 264.315 227.264,264.354 227.554,263.215 231.072 C 260.977 237.992,262.306 245.882,266.621 251.291 C 268.094 253.139,268.034 253.277,265.368 254.169 C 261.276 255.538,255.984 254.773,253.143 252.402 L 251.805 251.285 254.460 247.805 C 255.920 245.892,257.114 244.006,257.114 243.615 C 257.114 241.881,256.194 240.351,254.691 239.584 C 253.211 238.829,251.940 237.110,251.940 235.863 C 251.940 233.975,249.217 232.655,246.864 233.402 C 246.187 233.617,245.970 233.528,245.970 233.035 C 245.970 231.610,246.762 230.846,248.241 230.846 C 249.837 230.846,253.134 227.951,253.134 226.549 C 253.134 224.270,254.980 223.697,257.069 225.328 M273.922 227.164 C 278.355 232.206,277.844 245.001,273.036 249.352 C 271.467 250.772,268.152 244.243,268.096 239.623 L 268.060 236.659 269.446 236.371 C 272.637 235.707,273.627 232.060,271.119 230.210 C 270.605 229.832,270.650 229.556,271.456 228.121 C 272.474 226.310,272.993 226.108,273.922 227.164 M117.953 230.842 C 115.858 231.688,115.101 235.257,116.602 237.214 C 117.385 238.234,127.089 238.921,134.355 238.469 C 138.013 238.242,139.538 234.203,136.946 231.611 L 135.783 230.448 127.294 230.473 C 122.626 230.487,118.422 230.653,117.953 230.842 M143.834 231.382 C 142.234 232.758,142.211 235.922,143.789 237.503 L 144.892 238.607 151.389 238.732 C 157.863 238.857,157.892 238.854,159.098 237.839 C 161.317 235.972,161.018 231.762,158.600 230.843 C 156.238 229.945,145.029 230.354,143.834 231.382 M166.869 252.254 C 163.761 252.738,162.430 257.493,164.752 259.815 C 167.823 262.886,172.338 261.002,172.338 256.650 C 172.338 253.656,169.989 251.768,166.869 252.254 M183.994 252.235 C 182.433 252.509,181.095 254.551,181.095 256.658 C 181.095 261.683,186.983 263.098,189.294 258.628 C 191.029 255.273,187.936 251.543,183.994 252.235 M117.344 253.008 C 115.434 254.213,114.903 256.548,116.039 258.743 C 116.960 260.525,117.920 260.697,126.965 260.697 C 131.534 260.697,135.722 260.525,136.273 260.316 C 138.530 259.458,139.177 255.220,137.333 253.374 C 136.157 252.197,119.123 251.885,117.344 253.008 M147.844 253.247 C 145.557 255.214,146.245 259.535,149.056 260.869 C 151.830 262.186,154.740 260.332,155.115 257.010 C 155.546 253.186,150.781 250.720,147.844 253.247 " stroke="none" fill="#21455b" fill-rule="evenodd"></path><path id="path2" d="M119.693 112.526 C 120.399 112.614,121.653 112.615,122.479 112.529 C 123.304 112.443,122.726 112.371,121.194 112.369 C 119.662 112.368,118.986 112.438,119.693 112.526 M284.299 112.536 C 286.445 112.607,289.848 112.607,291.861 112.535 C 293.875 112.463,292.119 112.404,287.960 112.405 C 283.801 112.405,282.154 112.464,284.299 112.536 M118.266 124.605 C 115.072 125.237,110.818 127.669,108.472 130.203 C 106.529 132.302,104.388 135.963,104.840 136.416 C 104.935 136.511,150.948 136.617,207.090 136.653 L 309.168 136.716 308.549 135.124 C 307.045 131.248,303.820 128.073,298.954 125.676 L 296.318 124.378 208.159 124.320 C 159.672 124.287,119.220 124.416,118.266 124.605 M317.866 127.960 C 318.786 129.532,318.806 129.555,318.806 129.066 C 318.806 128.835,318.437 128.223,317.986 127.706 L 317.167 126.766 317.866 127.960 M92.188 136.334 C 92.052 136.689,91.956 137.279,91.975 137.644 C 91.993 138.010,92.167 137.780,92.359 137.134 C 92.735 135.878,92.602 135.257,92.188 136.334 M322.090 143.085 C 322.095 143.960,322.176 144.272,322.272 143.776 C 322.367 143.281,322.363 142.565,322.264 142.184 C 322.164 141.804,322.086 142.209,322.090 143.085 M322.556 176.318 C 322.556 180.806,322.614 182.642,322.685 180.398 C 322.756 178.154,322.756 174.483,322.685 172.239 C 322.614 169.995,322.556 171.831,322.556 176.318 M102.892 188.458 C 102.291 199.330,102.873 253.930,103.621 256.713 C 105.188 262.552,109.211 267.854,113.706 270.007 C 114.979 270.617,116.322 271.273,116.690 271.465 C 117.059 271.658,118.492 271.999,119.874 272.223 C 123.229 272.767,289.784 272.790,293.103 272.246 C 295.236 271.897,299.604 270.391,300.100 269.833 C 300.209 269.710,300.944 269.217,301.734 268.738 C 304.791 266.881,308.239 262.429,309.773 258.357 C 310.605 256.147,310.617 255.666,310.741 219.900 L 310.866 183.682 234.438 183.682 L 158.010 183.682 158.010 193.300 C 158.010 204.257,157.745 205.514,154.991 207.616 L 153.496 208.756 136.549 208.877 C 111.790 209.053,113.035 209.866,113.035 193.521 L 113.035 183.634 108.096 183.658 L 103.157 183.682 102.892 188.458 M266.006 190.668 C 268.121 192.332,268.228 196.516,266.198 198.208 C 265.332 198.930,264.551 198.979,253.800 198.992 L 242.327 199.005 241.163 197.842 C 239.257 195.935,239.537 192.282,241.708 190.746 C 243.597 189.410,264.322 189.343,266.006 190.668 M296.900 190.502 C 299.523 192.051,300.043 195.141,298.080 197.521 L 296.857 199.005 285.972 199.005 L 275.086 199.005 273.861 197.975 C 271.946 196.363,272.039 192.846,274.044 191.086 L 275.451 189.851 285.624 189.851 C 294.327 189.851,295.957 189.945,296.900 190.502 M322.546 198.607 C 322.546 201.781,322.608 203.080,322.684 201.493 C 322.759 199.905,322.759 197.308,322.684 195.721 C 322.608 194.134,322.546 195.433,322.546 198.607 M267.354 215.925 C 268.468 216.256,269.888 216.792,270.510 217.116 C 271.929 217.856,272.642 217.863,273.666 217.145 C 276.111 215.433,283.138 214.826,287.481 215.951 C 307.617 221.169,309.730 250.354,290.630 259.437 C 286.192 261.547,278.346 261.647,274.273 259.646 L 271.731 258.397 269.878 259.327 C 254.348 267.128,236.112 251.299,239.817 233.234 C 242.364 220.809,255.659 212.452,267.354 215.925 M154.891 216.617 C 157.082 218.390,157.452 221.324,155.719 223.180 C 154.270 224.730,149.601 225.008,130.746 224.663 L 117.214 224.416 116.219 223.362 C 114.650 221.700,114.794 218.826,116.524 217.281 L 117.824 216.119 136.050 216.119 C 150.037 216.119,154.419 216.235,154.891 216.617 M191.871 217.283 C 193.493 218.905,193.521 221.532,191.936 223.307 L 190.837 224.536 177.309 224.495 L 163.781 224.454 162.786 223.462 C 161.369 222.049,161.353 218.640,162.756 217.146 L 163.721 216.119 177.214 216.119 L 190.708 216.119 191.871 217.283 M227.843 217.133 C 229.153 218.443,229.292 221.860,228.095 223.339 L 227.335 224.279 214.464 224.478 C 199.862 224.703,199.568 224.661,198.444 222.170 C 197.585 220.265,197.781 219.077,199.239 217.344 L 200.270 216.119 213.550 216.119 L 226.829 216.119 227.843 217.133 M254.416 224.999 C 254.214 225.259,253.647 226.279,253.156 227.264 C 252.056 229.470,249.368 231.763,248.285 231.419 C 247.866 231.287,247.264 231.394,246.946 231.658 C 245.981 232.459,246.284 232.918,247.588 232.631 C 249.972 232.108,251.598 233.410,252.545 236.598 C 252.802 237.463,253.353 238.358,253.770 238.587 C 257.786 240.793,258.447 243.832,255.616 247.078 C 251.748 251.514,251.727 251.780,255.124 253.113 C 255.891 253.414,256.688 253.810,256.896 253.994 C 258.030 254.997,265.576 254.178,267.021 252.896 C 267.106 252.820,266.728 252.171,266.182 251.454 C 261.450 245.245,260.545 236.577,263.755 228.212 C 263.906 227.818,263.622 227.662,262.758 227.662 C 262.093 227.662,261.281 227.393,260.952 227.065 C 260.624 226.736,259.829 226.468,259.187 226.468 C 258.544 226.468,257.591 226.140,257.069 225.739 C 255.710 224.697,254.840 224.454,254.416 224.999 M272.062 227.750 C 271.245 228.917,271.281 229.519,272.239 230.737 C 273.951 232.914,272.942 235.579,270.050 236.518 L 268.458 237.035 268.536 239.890 C 268.643 243.780,271.394 249.723,272.711 248.910 C 275.759 247.026,277.643 237.585,275.998 232.436 C 274.533 227.849,273.148 226.200,272.062 227.750 M136.504 230.640 C 138.878 231.867,139.082 236.324,136.851 238.202 C 135.576 239.275,120.572 239.780,118.083 238.834 C 114.737 237.562,114.373 232.319,117.509 230.577 C 118.908 229.800,134.983 229.853,136.504 230.640 M159.558 231.069 C 161.679 232.854,161.704 235.970,159.612 238.061 L 158.469 239.204 152.096 239.204 C 144.972 239.204,144.025 238.990,142.887 237.124 C 141.551 234.932,142.109 232.111,144.166 230.671 C 145.881 229.470,158.031 229.784,159.558 231.069 M322.496 245.970 C 322.496 246.955,322.574 247.358,322.669 246.866 C 322.764 246.373,322.764 245.567,322.669 245.075 C 322.574 244.582,322.496 244.985,322.496 245.970 M322.124 252.736 C 322.124 254.378,322.194 255.050,322.280 254.229 C 322.366 253.408,322.366 252.065,322.280 251.244 C 322.194 250.423,322.124 251.095,322.124 252.736 M152.684 252.188 C 155.647 253.594,156.496 256.838,154.622 259.594 C 151.939 263.544,146.070 261.659,146.070 256.847 C 146.070 252.839,149.284 250.575,152.684 252.188 M170.580 252.513 C 170.922 252.855,171.325 253.134,171.477 253.134 C 171.628 253.134,172.063 253.852,172.443 254.729 C 174.750 260.052,167.940 264.297,164.208 259.862 C 160.803 255.815,166.876 248.810,170.580 252.513 M188.230 252.716 C 191.769 255.236,190.179 261.078,185.775 261.735 C 183.459 262.081,180.810 259.793,180.644 257.304 C 180.330 252.581,184.499 250.059,188.230 252.716 M136.709 252.500 C 139.248 253.817,139.680 257.431,137.565 259.673 L 136.224 261.095 126.978 261.095 L 117.731 261.095 116.378 259.741 C 114.173 257.536,114.523 254.312,117.140 252.717 C 118.795 251.707,134.839 251.530,136.709 252.500 M91.946 258.541 C 91.950 258.960,92.134 259.572,92.356 259.900 C 92.652 260.337,92.688 260.175,92.493 259.303 C 92.166 257.840,91.938 257.522,91.946 258.541 M317.014 269.108 C 316.186 270.451,314.414 272.755,313.077 274.228 C 311.544 275.918,311.860 275.659,313.930 273.529 C 315.736 271.671,317.214 269.926,317.214 269.651 C 317.214 269.377,317.463 268.945,317.768 268.692 C 318.242 268.299,318.933 266.667,318.626 266.667 C 318.568 266.667,317.843 267.765,317.014 269.108 M100.896 275.025 C 101.751 275.900,102.540 276.617,102.649 276.617 C 102.759 276.617,102.149 275.900,101.294 275.025 C 100.439 274.149,99.649 273.433,99.540 273.433 C 99.430 273.433,100.041 274.149,100.896 275.025 M117.214 283.781 C 117.652 283.969,118.279 284.123,118.607 284.123 C 118.983 284.123,118.910 283.997,118.408 283.781 C 117.970 283.593,117.343 283.439,117.015 283.439 C 116.639 283.439,116.712 283.565,117.214 283.781 M179.701 311.253 C 156.408 312.056,150.511 315.052,168.358 317.016 C 177.497 318.021,232.684 318.167,244.975 317.218 C 255.682 316.391,260.111 315.264,258.597 313.750 C 256.394 311.547,211.966 310.141,179.701 311.253 " stroke="none" fill="#cbe4ea" fill-rule="evenodd"></path><path id="path3" d="M103.085 174.286 C 103.085 182.227,103.165 183.428,103.714 183.639 C 104.530 183.952,108.838 183.950,111.138 183.634 L 112.933 183.388 113.138 180.839 C 113.679 174.105,114.248 173.930,135.670 173.930 L 153.172 173.930 154.892 175.242 C 157.048 176.886,157.599 177.968,157.606 180.569 C 157.610 181.907,157.832 182.849,158.238 183.256 C 158.805 183.822,166.156 183.873,234.756 183.782 L 310.647 183.682 310.754 174.428 L 310.860 165.174 206.973 165.174 L 103.085 165.174 103.085 174.286 M120.199 191.244 C 120.199 202.805,120.156 202.687,123.149 199.358 C 127.300 194.741,127.010 187.428,122.483 182.587 C 120.191 180.136,120.199 180.104,120.199 191.244 M129.353 181.253 C 129.353 181.340,129.935 182.549,130.647 183.939 C 132.557 187.675,132.592 195.079,130.716 198.873 L 129.502 201.329 130.461 201.512 C 130.988 201.613,133.710 201.602,136.509 201.489 L 141.598 201.282 140.825 199.535 C 139.445 196.415,138.857 192.599,139.290 189.571 C 139.748 186.374,140.758 182.819,141.304 182.481 C 142.991 181.439,141.555 181.095,135.522 181.095 C 132.129 181.095,129.353 181.166,129.353 181.253 M148.319 182.786 C 144.157 187.866,144.211 195.102,148.447 199.927 C 150.815 202.625,150.846 202.515,150.846 191.244 C 150.846 179.871,150.809 179.748,148.319 182.786 M279.602 222.175 C 278.064 222.718,278.017 222.770,278.508 223.373 C 284.137 230.298,284.333 243.240,278.935 251.652 C 277.412 254.025,277.491 254.099,281.745 254.266 C 295.492 254.805,302.781 237.494,293.328 226.755 C 289.878 222.836,283.635 220.753,279.602 222.175 " stroke="none" fill="#fbd2c3" fill-rule="evenodd"></path><path id="path4" d="M120.995 112.609 C 119.353 112.734,158.040 112.836,206.965 112.836 C 255.891 112.836,291.980 112.724,287.164 112.588 C 276.265 112.279,125.085 112.298,120.995 112.609 M113.632 113.831 C 113.130 114.046,113.057 114.173,113.433 114.173 C 113.761 114.173,114.388 114.019,114.826 113.831 C 115.328 113.615,115.401 113.489,115.025 113.489 C 114.697 113.489,114.070 113.643,113.632 113.831 M299.104 113.831 C 299.542 114.019,300.169 114.173,300.498 114.173 C 300.874 114.173,300.800 114.046,300.299 113.831 C 299.861 113.643,299.234 113.489,298.905 113.489 C 298.529 113.489,298.603 113.615,299.104 113.831 M109.851 115.224 C 109.303 115.537,109.035 115.793,109.254 115.793 C 109.473 115.793,110.100 115.537,110.647 115.224 C 111.194 114.911,111.463 114.655,111.244 114.655 C 111.025 114.655,110.398 114.911,109.851 115.224 M303.284 115.224 C 303.831 115.537,304.458 115.793,304.677 115.793 C 304.896 115.793,304.627 115.537,304.080 115.224 C 303.532 114.911,302.905 114.655,302.687 114.655 C 302.468 114.655,302.736 114.911,303.284 115.224 M305.274 115.996 C 305.274 116.107,305.787 116.464,306.415 116.789 C 307.042 117.113,308.403 118.025,309.439 118.816 C 310.475 119.607,311.396 120.179,311.487 120.088 C 311.578 119.998,310.620 119.205,309.358 118.327 C 306.846 116.578,305.274 115.681,305.274 115.996 M103.170 119.364 C 100.716 121.406,98.124 124.218,97.447 125.572 C 97.229 126.010,97.547 125.741,98.154 124.975 C 99.606 123.142,102.931 119.849,104.677 118.515 C 105.443 117.929,105.945 117.442,105.792 117.432 C 105.639 117.421,104.459 118.291,103.170 119.364 M312.468 121.201 C 312.813 121.635,313.820 122.886,314.705 123.980 C 316.640 126.372,318.203 129.038,319.453 132.077 C 319.962 133.315,320.383 134.022,320.389 133.648 C 320.414 131.836,314.773 122.691,312.577 120.984 C 311.882 120.444,311.876 120.456,312.468 121.201 M116.594 124.691 C 111.202 126.530,107.265 129.731,105.166 133.984 C 103.568 137.223,103.729 137.328,110.137 137.227 L 115.622 137.140 110.455 137.015 C 104.448 136.870,104.400 136.845,105.480 134.404 C 107.455 129.940,113.330 125.556,118.657 124.571 C 120.093 124.306,150.750 124.204,208.699 124.273 C 257.025 124.331,296.151 124.262,295.646 124.119 C 295.140 123.977,255.234 123.847,206.965 123.831 L 119.204 123.802 116.594 124.691 M299.396 125.913 C 304.085 128.313,307.072 131.319,308.550 135.124 L 309.168 136.716 212.620 136.610 C 159.519 136.551,116.154 136.585,116.253 136.685 C 116.954 137.385,309.446 136.967,309.331 136.265 C 308.647 132.111,302.568 126.118,297.711 124.810 C 297.164 124.663,297.922 125.159,299.396 125.913 M96.415 127.065 C 95.835 127.789,94.251 131.000,94.400 131.149 C 94.470 131.219,95.105 130.216,95.810 128.921 C 97.047 126.653,97.253 126.019,96.415 127.065 M93.532 132.935 C 93.255 133.606,93.120 134.248,93.234 134.361 C 93.347 134.475,93.641 133.992,93.886 133.289 C 94.465 131.628,94.188 131.351,93.532 132.935 M320.652 135.299 C 320.787 135.832,321.141 137.534,321.439 139.080 L 321.981 141.891 321.759 139.332 C 321.636 137.925,321.282 136.223,320.971 135.551 C 320.563 134.668,320.474 134.598,320.652 135.299 M92.115 137.595 C 91.698 139.029,91.425 253.736,91.832 256.167 C 92.001 257.176,92.089 231.967,92.027 200.146 C 91.951 160.752,92.050 141.414,92.338 139.548 C 92.780 136.682,92.667 135.694,92.115 137.595 M322.183 197.214 C 322.183 226.328,322.231 238.180,322.289 223.551 C 322.346 208.922,322.346 185.101,322.288 170.616 C 322.231 156.130,322.183 168.100,322.183 197.214 M102.780 176.617 L 102.873 188.458 102.985 176.816 L 103.097 165.174 206.979 165.174 L 310.862 165.174 310.754 210.739 C 310.683 241.105,310.778 255.942,311.040 255.217 C 311.390 254.250,311.452 233.730,311.278 176.219 L 311.244 164.776 206.965 164.776 L 102.687 164.776 102.780 176.617 M116.569 174.825 C 115.055 175.728,113.427 177.761,113.442 178.731 C 113.447 179.046,113.744 178.709,114.102 177.982 C 114.460 177.255,115.382 176.180,116.151 175.594 L 117.549 174.527 134.496 174.409 C 155.328 174.263,155.472 174.289,157.052 178.507 C 157.635 180.065,157.644 180.070,157.429 178.744 C 157.169 177.139,156.735 176.561,154.667 175.058 L 153.114 173.930 135.562 173.948 C 118.307 173.965,117.986 173.980,116.569 174.825 M113.121 191.356 C 113.027 204.488,113.098 205.005,115.274 207.039 C 117.296 208.930,117.640 208.961,135.648 208.866 L 152.637 208.776 135.124 208.567 C 111.649 208.287,113.725 209.887,113.419 191.841 L 113.207 179.303 113.121 191.356 M119.980 181.201 C 119.411 182.686,120.012 201.584,120.633 201.703 C 123.018 202.162,126.343 196.302,126.341 191.642 C 126.340 186.315,121.234 177.934,119.980 181.201 M129.552 182.687 C 130.107 183.781,130.642 184.677,130.740 184.677 C 131.000 184.677,130.504 183.415,129.884 182.499 C 128.973 181.151,129.199 181.095,135.522 181.095 C 139.599 181.095,141.692 181.237,141.692 181.516 C 141.692 181.748,141.871 181.827,142.090 181.692 C 143.344 180.917,141.890 180.697,135.516 180.697 L 128.544 180.697 129.552 182.687 M148.321 182.272 C 147.520 183.158,146.869 184.017,146.873 184.180 C 146.878 184.344,147.519 183.716,148.300 182.786 C 150.820 179.780,150.846 179.867,150.846 191.244 C 150.846 199.357,150.741 201.393,150.323 201.393 C 149.607 201.393,147.932 199.569,146.668 197.413 C 146.058 196.372,145.733 196.039,145.892 196.617 C 146.272 197.999,148.858 201.340,149.773 201.630 C 151.157 202.070,151.259 201.284,151.151 191.023 C 151.031 179.577,150.958 179.353,148.321 182.272 M122.483 182.587 C 127.010 187.428,127.300 194.741,123.149 199.358 C 120.156 202.687,120.199 202.805,120.199 191.244 C 120.199 180.104,120.191 180.136,122.483 182.587 M140.655 183.719 C 140.327 184.505,140.126 185.353,140.209 185.602 C 140.292 185.851,140.649 185.207,141.002 184.172 C 141.755 181.961,141.519 181.652,140.655 183.719 M157.695 192.040 C 157.562 204.422,157.252 205.688,153.831 207.813 C 153.174 208.221,152.889 208.555,153.196 208.556 C 154.287 208.559,156.497 206.450,157.254 204.682 C 157.959 203.039,158.014 202.032,157.910 192.688 L 157.797 182.488 157.695 192.040 M146.058 185.495 C 145.817 185.945,145.690 186.522,145.775 186.778 C 145.860 187.033,146.131 186.665,146.377 185.959 C 146.882 184.510,146.715 184.266,146.058 185.495 M131.197 186.269 C 131.354 187.035,131.623 188.378,131.794 189.254 C 132.040 190.509,132.065 190.351,131.914 188.505 C 131.808 187.217,131.539 185.874,131.316 185.520 C 131.021 185.051,130.988 185.254,131.197 186.269 M139.193 190.149 C 139.069 191.408,139.113 193.154,139.289 194.030 C 139.545 195.302,139.619 194.841,139.656 191.741 C 139.707 187.370,139.526 186.747,139.193 190.149 M145.003 191.443 C 145.003 192.866,145.075 193.448,145.164 192.736 C 145.252 192.025,145.252 190.861,145.164 190.149 C 145.075 189.438,145.003 190.020,145.003 191.443 M241.745 190.721 C 241.114 191.199,240.567 191.603,240.530 191.617 C 240.493 191.632,240.354 192.180,240.222 192.837 C 239.993 193.971,240.003 193.982,240.410 193.043 C 241.486 190.563,241.025 190.646,253.694 190.653 C 265.796 190.659,265.709 190.649,266.789 192.228 C 267.160 192.769,267.463 192.979,267.463 192.695 C 267.463 192.410,266.939 191.654,266.299 191.014 L 265.136 189.851 254.015 189.851 C 243.193 189.851,242.862 189.874,241.745 190.721 M274.044 191.086 C 272.039 192.846,271.946 196.363,273.861 197.975 L 275.086 199.005 285.972 199.005 L 296.857 199.005 298.080 197.521 C 299.481 195.822,299.680 193.993,298.653 192.255 C 297.290 189.949,296.759 189.851,285.624 189.851 L 275.451 189.851 274.044 191.086 M297.658 191.585 C 299.740 193.801,298.741 197.908,295.996 198.417 C 291.969 199.164,274.565 198.420,273.795 197.468 C 272.729 196.151,272.763 193.090,273.860 191.695 L 274.685 190.647 285.731 190.647 L 296.777 190.647 297.658 191.585 M131.602 194.328 C 131.466 195.259,131.250 196.468,131.122 197.015 C 130.945 197.778,130.984 197.866,131.292 197.392 C 131.723 196.728,132.372 192.637,132.046 192.637 C 131.938 192.637,131.738 193.398,131.602 194.328 M240.032 195.951 C 240.015 196.351,240.524 197.202,241.163 197.842 L 242.327 199.005 253.804 199.005 L 265.282 199.005 266.372 197.994 C 266.972 197.438,267.456 196.677,267.447 196.302 C 267.436 195.838,267.239 195.976,266.827 196.735 C 265.887 198.469,264.921 198.607,253.731 198.607 C 242.307 198.607,241.487 198.477,240.636 196.530 C 240.266 195.684,240.053 195.480,240.032 195.951 M139.894 197.015 C 140.054 197.562,140.503 198.746,140.891 199.646 L 141.598 201.282 136.509 201.489 C 129.867 201.758,129.176 201.636,130.023 200.343 C 130.371 199.812,130.554 199.278,130.432 199.155 C 130.098 198.821,128.884 201.354,129.161 201.803 C 129.453 202.275,141.558 202.329,141.848 201.859 C 141.960 201.678,141.591 200.379,141.028 198.974 C 139.950 196.282,139.403 195.339,139.894 197.015 M257.114 215.688 C 256.567 215.844,258.090 215.904,260.498 215.821 C 264.616 215.679,266.776 215.984,269.652 217.117 C 270.205 217.335,270.326 217.302,270.050 217.010 C 268.774 215.663,260.246 214.791,257.114 215.688 M276.676 215.974 C 275.505 216.292,274.118 216.833,273.594 217.176 C 272.971 217.584,272.264 217.706,271.545 217.530 C 270.519 217.278,270.498 217.298,271.217 217.832 C 271.899 218.339,272.214 218.298,274.003 217.469 C 276.965 216.095,279.946 215.600,283.980 215.809 C 285.950 215.911,287.114 215.861,286.567 215.699 C 284.884 215.198,278.923 215.364,276.676 215.974 M116.524 217.281 C 114.120 219.428,115.083 223.863,118.110 224.587 C 118.603 224.705,118.906 224.639,118.783 224.440 C 118.660 224.242,118.333 224.080,118.056 224.080 C 116.527 224.080,115.281 221.243,115.871 219.107 C 116.606 216.443,116.026 216.517,136.139 216.517 L 154.289 216.517 155.170 217.455 C 157.079 219.487,156.443 223.398,154.122 223.910 C 152.333 224.304,152.181 224.413,153.373 224.446 C 156.016 224.519,157.773 220.519,156.161 218.099 C 154.800 216.055,155.456 216.119,136.050 216.119 L 117.824 216.119 116.524 217.281 M162.855 217.041 C 162.379 217.547,161.990 218.111,161.990 218.293 C 161.990 218.475,162.429 218.150,162.966 217.571 L 163.942 216.517 177.240 216.517 L 190.538 216.517 191.588 217.567 C 193.577 219.556,192.814 223.045,190.119 224.286 C 189.147 224.733,189.086 224.815,189.851 224.641 C 192.935 223.941,194.141 219.552,191.871 217.283 L 190.708 216.119 177.214 216.119 L 163.721 216.119 162.855 217.041 M199.239 217.344 C 197.187 219.783,197.792 223.215,200.471 224.335 C 202.295 225.097,202.667 224.973,200.995 224.160 C 199.031 223.205,197.984 220.992,198.606 219.108 C 199.466 216.501,199.372 216.517,213.639 216.517 L 226.504 216.517 227.481 217.494 C 229.261 219.275,228.578 223.174,226.326 224.083 C 225.618 224.369,225.594 224.431,226.187 224.452 C 228.730 224.542,229.933 219.223,227.843 217.133 L 226.829 216.119 213.550 216.119 L 200.270 216.119 199.239 217.344 M253.708 216.704 C 252.715 217.455,253.093 217.465,254.780 216.732 C 255.768 216.303,255.904 216.146,255.300 216.135 C 254.849 216.126,254.133 216.382,253.708 216.704 M289.821 217.092 C 295.458 219.434,299.854 224.042,302.183 230.050 C 302.790 231.616,302.847 231.670,302.636 230.482 C 301.675 225.058,292.576 216.044,288.159 216.140 C 287.831 216.147,288.579 216.575,289.821 217.092 M250.271 218.427 C 245.398 221.297,240.713 227.523,240.179 231.838 C 240.013 233.183,240.124 233.024,240.888 230.827 C 242.747 225.483,246.148 221.287,250.835 218.555 C 251.990 217.882,252.756 217.330,252.537 217.329 C 252.318 217.328,251.299 217.822,250.271 218.427 M161.692 220.299 C 161.697 221.174,161.778 221.485,161.874 220.990 C 161.969 220.495,161.965 219.779,161.866 219.398 C 161.766 219.018,161.688 219.423,161.692 220.299 M278.507 221.966 C 278.124 222.066,277.811 222.317,277.811 222.523 C 277.811 223.116,280.274 227.322,280.493 227.103 C 280.601 226.994,280.121 225.982,279.426 224.852 C 278.732 223.723,278.218 222.753,278.285 222.698 C 278.353 222.642,278.945 222.407,279.602 222.175 C 280.810 221.750,279.959 221.587,278.507 221.966 M285.572 222.061 C 286.010 222.253,287.225 222.713,288.272 223.084 C 290.673 223.934,293.700 226.751,295.518 229.827 C 297.033 232.391,297.390 232.540,296.138 230.086 C 294.215 226.316,289.612 222.628,285.970 221.939 C 285.077 221.770,284.976 221.800,285.572 222.061 M161.999 222.319 C 161.983 223.092,163.812 224.478,164.802 224.443 C 165.690 224.412,165.672 224.379,164.587 224.056 C 163.935 223.861,163.088 223.295,162.705 222.796 C 162.321 222.298,162.004 222.083,161.999 222.319 M253.765 224.948 C 253.418 225.443,253.134 226.164,253.134 226.549 C 253.134 227.951,249.837 230.846,248.241 230.846 C 246.762 230.846,245.970 231.610,245.970 233.035 C 245.970 233.528,246.187 233.617,246.864 233.402 C 249.486 232.570,251.263 233.533,251.996 236.183 C 252.244 237.078,252.527 237.586,252.625 237.311 C 253.352 235.281,249.943 232.114,247.588 232.631 C 246.284 232.918,245.981 232.459,246.946 231.658 C 247.264 231.394,247.866 231.287,248.285 231.419 C 249.421 231.780,252.044 229.445,253.398 226.866 C 254.652 224.479,255.249 224.290,257.052 225.708 C 257.583 226.126,258.544 226.468,259.187 226.468 C 259.829 226.468,260.624 226.736,260.952 227.065 C 261.281 227.393,262.093 227.662,262.758 227.662 C 263.679 227.662,263.910 227.806,263.732 228.272 C 262.802 230.695,261.858 234.533,262.004 235.298 C 262.176 236.196,262.182 236.194,262.234 235.224 C 262.264 234.677,262.727 232.808,263.263 231.072 C 264.350 227.548,264.309 227.264,262.712 227.264 C 262.095 227.264,261.367 226.995,261.095 226.667 C 260.822 226.338,260.018 226.070,259.308 226.070 C 258.599 226.070,257.591 225.736,257.069 225.328 C 255.433 224.051,254.471 223.940,253.765 224.948 M137.015 224.774 C 139.149 224.846,142.642 224.846,144.776 224.774 C 146.910 224.703,145.164 224.644,140.896 224.644 C 136.627 224.644,134.881 224.703,137.015 224.774 M271.456 228.121 C 270.650 229.556,270.605 229.832,271.119 230.210 C 272.901 231.525,273.052 233.675,271.473 235.254 C 270.834 235.894,270.483 236.418,270.695 236.418 C 272.630 236.418,273.677 232.565,272.239 230.737 C 271.162 229.369,271.667 226.866,273.020 226.866 C 273.543 226.866,275.282 230.048,275.848 232.040 C 276.154 233.119,276.419 233.554,276.516 233.134 C 276.695 232.353,274.934 228.262,273.950 227.175 C 272.986 226.111,272.478 226.303,271.456 228.121 M281.186 229.492 C 281.814 231.578,282.402 232.450,281.964 230.646 C 281.566 229.007,281.053 227.662,280.825 227.662 C 280.721 227.662,280.883 228.485,281.186 229.492 M117.509 230.577 C 115.198 231.861,114.579 234.911,116.175 237.153 C 117.543 239.074,118.253 239.204,127.359 239.204 L 135.660 239.204 136.885 238.174 C 137.558 237.607,138.109 236.846,138.108 236.482 C 138.107 236.071,137.818 236.295,137.341 237.076 C 136.405 238.612,135.573 238.700,124.750 238.408 C 117.448 238.211,117.357 238.198,116.602 237.214 C 115.486 235.759,115.571 233.171,116.781 231.763 L 117.741 230.647 126.740 230.526 L 135.740 230.405 136.975 231.640 C 137.654 232.319,138.097 232.583,137.960 232.226 C 137.824 231.869,137.711 231.506,137.711 231.420 C 137.711 230.062,119.784 229.314,117.509 230.577 M143.803 231.084 L 142.687 232.118 143.835 231.283 C 145.118 230.350,156.418 230.013,158.600 230.843 C 161.018 231.762,161.317 235.972,159.098 237.839 C 157.892 238.854,157.863 238.857,151.389 238.732 L 144.892 238.607 143.789 237.503 C 142.867 236.579,142.691 236.074,142.716 234.409 C 142.733 233.255,142.610 232.632,142.423 232.926 C 141.416 234.513,142.801 238.093,144.703 238.816 C 145.264 239.029,148.591 239.204,152.096 239.204 L 158.469 239.204 159.612 238.061 C 161.704 235.970,161.679 232.854,159.558 231.069 C 157.659 229.471,145.533 229.483,143.803 231.084 M303.193 233.831 C 303.567 236.400,303.563 240.511,303.185 242.786 C 302.932 244.305,302.963 244.456,303.384 243.781 C 304.053 242.709,304.055 233.737,303.387 232.637 C 302.985 231.976,302.952 232.179,303.193 233.831 M282.388 237.612 C 282.388 240.441,282.510 242.450,282.659 242.075 C 282.807 241.700,282.929 239.692,282.929 237.612 C 282.929 235.532,282.807 233.524,282.659 233.149 C 282.510 232.774,282.388 234.783,282.388 237.612 M138.202 234.428 C 138.202 235.194,138.284 235.507,138.384 235.124 C 138.484 234.741,138.484 234.114,138.384 233.731 C 138.284 233.348,138.202 233.662,138.202 234.428 M239.453 234.876 C 239.144 236.421,239.196 240.286,239.542 241.516 C 239.685 242.021,239.801 240.454,239.801 238.033 C 239.801 233.134,239.801 233.134,239.453 234.876 M297.607 236.418 C 298.100 243.670,294.733 249.681,288.352 252.942 C 286.823 253.724,286.020 254.247,286.567 254.105 C 293.957 252.191,299.655 242.231,297.710 234.627 C 297.532 233.931,297.489 234.678,297.607 236.418 M276.785 237.525 C 276.804 240.018,276.889 240.516,277.135 239.569 C 277.313 238.881,277.302 237.397,277.110 236.273 C 276.776 234.324,276.761 234.383,276.785 237.525 M267.995 237.041 C 267.632 237.985,268.094 242.576,268.637 243.428 C 269.045 244.070,269.083 244.077,268.896 243.478 C 268.165 241.130,268.151 237.481,268.871 236.955 C 269.540 236.466,269.544 236.418,268.919 236.418 C 268.542 236.418,268.126 236.698,267.995 237.041 M253.067 238.526 C 253.337 238.852,254.112 239.347,254.787 239.627 C 255.502 239.923,256.239 240.649,256.550 241.362 C 256.974 242.336,257.086 242.416,257.099 241.753 C 257.117 240.792,256.364 240.040,254.148 238.808 C 253.184 238.272,252.765 238.162,253.067 238.526 M261.945 240.624 C 261.836 243.067,263.967 248.548,266.126 251.381 C 267.308 252.932,267.308 252.937,265.858 253.538 C 265.194 253.813,264.727 254.113,264.820 254.206 C 265.007 254.394,267.861 253.271,267.861 253.010 C 267.861 252.920,267.305 252.150,266.626 251.299 C 264.473 248.599,262.785 244.485,262.153 240.398 C 262.021 239.545,261.991 239.578,261.945 240.624 M276.246 241.393 C 276.226 241.612,275.950 242.648,275.632 243.696 C 275.314 244.744,275.222 245.497,275.427 245.371 C 275.914 245.069,276.718 242.065,276.473 241.463 C 276.368 241.206,276.266 241.174,276.246 241.393 M240.187 244.477 C 241.411 251.876,250.328 260.096,257.980 260.878 C 260.003 261.084,259.975 261.066,257.354 260.473 C 249.870 258.781,240.861 250.350,240.794 244.975 C 240.788 244.537,240.594 243.910,240.362 243.582 C 240.048 243.138,240.004 243.367,240.187 244.477 M281.429 245.210 C 281.160 246.109,281.030 246.934,281.140 247.044 C 281.251 247.154,281.543 246.492,281.791 245.572 C 282.377 243.394,282.067 243.083,281.429 245.210 M255.627 246.241 C 254.919 247.187,254.471 247.960,254.632 247.960 C 255.063 247.960,257.193 245.199,257.043 244.834 C 256.973 244.663,256.336 245.296,255.627 246.241 M269.055 244.593 C 269.055 245.057,270.654 247.824,271.563 248.931 L 272.523 250.101 273.774 248.374 C 274.462 247.424,275.014 246.450,275.001 246.209 C 274.989 245.968,274.765 246.104,274.504 246.511 C 272.496 249.643,271.737 249.566,270.172 246.070 C 269.497 244.561,269.055 243.976,269.055 244.593 M302.066 246.269 C 299.635 253.778,292.377 259.668,284.270 260.710 L 281.592 261.055 284.628 260.910 C 291.816 260.567,301.214 252.837,302.670 246.070 C 303.050 244.306,302.660 244.435,302.066 246.269 M279.871 249.254 C 279.385 250.184,278.619 251.522,278.170 252.228 C 277.358 253.501,277.423 254.334,278.332 254.322 C 278.649 254.318,278.627 254.203,278.265 253.974 C 277.839 253.703,278.069 253.062,279.360 250.920 C 280.821 248.497,281.243 247.562,280.875 247.562 C 280.809 247.562,280.358 248.323,279.871 249.254 M252.943 249.776 C 251.959 251.066,252.435 253.569,253.468 252.536 C 253.581 252.423,253.328 252.078,252.906 251.769 C 252.152 251.218,252.153 251.193,252.976 250.281 C 253.899 249.257,254.471 248.358,254.200 248.358 C 254.104 248.358,253.538 248.996,252.943 249.776 M148.636 252.160 C 144.893 254.007,145.287 259.850,149.266 261.498 C 152.128 262.683,155.622 259.983,155.622 256.586 C 155.622 253.044,151.779 250.609,148.636 252.160 M166.169 252.153 C 161.807 254.367,162.241 260.274,166.858 261.517 C 170.139 262.401,173.650 259.174,172.938 255.930 C 172.512 253.993,172.128 254.246,172.278 256.366 C 172.596 260.865,167.937 263.000,164.752 259.815 C 161.562 256.625,164.559 251.449,169.055 252.384 C 170.503 252.685,170.851 252.168,169.453 251.793 C 168.084 251.426,167.469 251.494,166.169 252.153 M182.613 252.529 C 179.624 254.560,179.935 259.086,183.206 261.133 C 186.301 263.070,190.831 259.861,190.133 256.226 C 189.985 255.457,189.951 255.489,189.905 256.438 C 189.600 262.708,181.095 262.898,181.095 256.634 C 181.095 252.348,185.663 250.543,188.548 253.691 C 189.890 255.156,190.299 255.145,189.268 253.673 C 187.792 251.566,184.790 251.050,182.613 252.529 M102.873 254.129 C 102.973 255.443,103.332 257.234,103.672 258.109 C 104.129 259.284,104.225 259.389,104.042 258.507 C 103.905 257.851,103.545 256.060,103.242 254.527 L 102.691 251.741 102.873 254.129 M117.140 252.717 C 114.523 254.312,114.173 257.536,116.378 259.741 L 117.731 261.095 126.978 261.095 L 136.224 261.095 137.565 259.673 C 138.912 258.244,139.506 255.144,138.545 254.551 C 138.342 254.425,138.274 254.992,138.390 255.856 C 138.956 260.077,137.494 260.697,126.965 260.697 C 116.791 260.697,115.423 260.206,115.423 256.556 C 115.423 252.748,116.879 252.253,127.624 252.409 C 132.474 252.480,136.359 252.403,136.257 252.239 C 135.787 251.481,118.456 251.914,117.140 252.717 M154.033 253.796 C 157.165 257.363,153.286 262.877,149.056 260.869 C 147.165 259.972,146.321 258.297,146.583 255.967 C 147.013 252.156,151.457 250.861,154.033 253.796 M253.930 252.956 C 253.930 253.280,256.769 254.408,257.001 254.176 C 257.111 254.067,256.532 253.698,255.716 253.357 C 254.073 252.670,253.930 252.638,253.930 252.956 M259.094 254.764 C 260.111 254.964,261.646 254.964,262.676 254.765 C 264.262 254.459,264.050 254.417,260.896 254.416 C 257.757 254.416,257.534 254.459,259.094 254.764 M280.498 254.620 C 281.428 254.704,282.950 254.704,283.881 254.620 C 284.811 254.536,284.050 254.467,282.189 254.467 C 280.328 254.467,279.567 254.536,280.498 254.620 M321.453 256.816 C 321.316 257.746,321.101 258.955,320.973 259.502 C 320.795 260.266,320.835 260.354,321.143 259.879 C 321.574 259.215,322.222 255.124,321.896 255.124 C 321.789 255.124,321.589 255.886,321.453 256.816 M309.625 258.408 C 308.697 261.857,304.515 267.256,301.523 268.867 C 300.740 269.289,300.100 269.793,300.100 269.987 C 300.100 270.386,301.558 269.504,303.810 267.743 C 306.438 265.689,309.613 260.876,310.232 258.010 C 310.641 256.113,310.157 256.431,309.625 258.408 M270.050 258.806 C 269.174 259.280,267.025 259.975,265.274 260.351 C 263.522 260.727,262.627 261.044,263.284 261.055 C 265.075 261.085,267.800 260.371,269.878 259.327 L 271.731 258.397 274.102 259.535 C 275.522 260.216,277.420 260.756,278.834 260.880 L 281.194 261.086 278.458 260.509 C 276.954 260.192,274.853 259.478,273.789 258.922 C 272.726 258.365,271.807 257.918,271.749 257.928 C 271.690 257.938,270.925 258.333,270.050 258.806 M104.282 260.199 C 104.320 263.211,115.322 273.268,116.877 271.713 C 117.016 271.575,116.790 271.348,116.375 271.210 C 112.234 269.825,107.140 265.367,105.524 261.715 C 104.794 260.065,104.273 259.428,104.282 260.199 M93.362 262.289 C 93.509 262.836,93.795 263.552,93.997 263.881 C 94.254 264.296,94.285 264.174,94.100 263.483 C 93.954 262.935,93.668 262.219,93.465 261.891 C 93.209 261.476,93.177 261.597,93.362 262.289 M319.254 263.831 C 317.360 269.025,312.119 275.499,307.260 278.648 C 304.848 280.211,304.661 280.592,306.925 279.329 C 312.072 276.459,321.199 264.494,320.300 261.795 C 320.220 261.556,319.749 262.472,319.254 263.831 M94.337 264.792 C 94.258 267.551,102.353 276.951,107.027 279.525 C 109.780 281.042,109.592 280.644,106.717 278.870 C 102.172 276.064,98.396 271.991,95.699 266.987 C 94.955 265.607,94.342 264.619,94.337 264.792 M297.512 271.052 C 296.637 271.482,296.368 271.722,296.915 271.585 C 298.424 271.208,299.701 270.691,299.701 270.458 C 299.701 270.097,299.155 270.245,297.512 271.052 M118.209 272.361 C 119.679 273.063,293.981 273.049,295.124 272.347 C 295.789 271.939,295.592 271.906,293.930 272.148 C 291.389 272.518,121.866 272.531,119.204 272.162 C 117.490 271.924,117.352 271.951,118.209 272.361 M110.249 281.194 C 110.796 281.507,111.423 281.763,111.642 281.763 C 111.861 281.763,111.592 281.507,111.045 281.194 C 110.498 280.881,109.871 280.625,109.652 280.625 C 109.433 280.625,109.701 280.881,110.249 281.194 M303.164 280.849 C 303.025 280.988,301.518 281.621,299.814 282.254 C 298.110 282.888,297.254 283.306,297.910 283.182 C 300.244 282.742,305.153 280.597,303.828 280.597 C 303.601 280.597,303.303 280.711,303.164 280.849 M113.234 282.350 C 113.891 282.639,114.965 282.983,115.622 283.113 L 116.816 283.350 115.622 282.824 C 114.965 282.535,113.891 282.191,113.234 282.061 L 112.040 281.824 113.234 282.350 M118.607 283.910 C 120.044 284.586,293.795 284.581,295.522 283.904 C 296.559 283.498,296.401 283.472,294.328 283.708 C 291.222 284.062,122.674 284.064,119.801 283.711 C 117.951 283.483,117.766 283.514,118.607 283.910 " stroke="none" fill="#a4bfc8" fill-rule="evenodd"></path></g></svg>