<svg id="svg" version="1.1" xmlns="http://www.w3.org/2000/svg" xmlns:xlink="http://www.w3.org/1999/xlink" width="200" height="200" viewBox="0, 0, 400,395.53695955369597"><g id="svgg"><path id="path0" d="M187.933 50.868 C 165.997 53.674,147.254 66.573,137.384 85.658 C 134.302 91.617,132.034 99.508,131.555 105.940 C 131.429 107.624,131.245 109.954,131.145 111.119 C 130.879 114.226,131.642 121.896,132.584 125.579 L 133.404 128.783 131.480 130.564 C 112.544 148.087,108.400 180.029,122.357 200.880 L 124.483 204.057 122.198 208.952 C 118.799 216.231,119.037 217.141,125.025 219.778 C 128.443 221.283,128.542 221.571,126.882 225.184 C 126.347 226.348,125.354 228.502,124.676 229.971 C 122.852 233.920,123.017 235.096,125.989 239.338 C 129.917 244.944,129.986 245.386,127.102 246.404 C 109.865 252.488,109.708 252.770,116.831 264.859 C 117.738 266.397,118.706 267.891,118.983 268.179 C 119.889 269.121,119.540 269.787,118.002 270.050 C 103.088 272.603,99.823 276.098,104.611 284.384 C 107.438 289.276,110.007 294.501,109.710 294.754 C 109.537 294.900,107.527 295.597,105.242 296.303 C 91.386 300.583,90.492 302.358,96.238 314.193 C 97.862 317.539,99.529 321.136,99.942 322.186 C 101.981 327.375,107.504 330.221,112.049 328.424 C 112.548 328.227,116.125 327.030,119.996 325.765 C 128.562 322.967,129.133 322.559,131.133 317.819 C 131.940 315.907,132.833 313.808,133.117 313.155 C 133.402 312.502,135.176 308.051,137.059 303.264 C 138.943 298.477,140.735 294.026,141.042 293.373 C 141.349 292.720,141.773 291.563,141.985 290.801 C 142.197 290.040,142.721 288.526,143.150 287.438 C 143.578 286.350,144.545 283.858,145.299 281.899 C 146.053 279.941,147.163 277.092,147.765 275.569 C 148.368 274.045,149.094 272.176,149.379 271.414 C 150.877 267.415,152.027 264.531,153.330 261.511 C 154.125 259.668,155.012 257.448,155.302 256.578 C 156.210 253.847,157.079 251.464,157.468 250.643 C 157.673 250.208,158.215 248.872,158.672 247.676 C 159.490 245.531,161.858 240.016,162.706 238.279 C 163.256 237.153,163.662 237.163,166.408 238.378 C 169.219 239.621,171.408 239.670,172.561 238.517 C 173.296 237.782,173.522 237.736,174.229 238.178 C 175.525 238.988,182.394 244.990,182.394 245.314 C 182.394 245.474,179.901 248.083,176.855 251.112 C 169.051 258.869,168.967 258.409,179.995 268.317 L 183.332 271.316 182.171 272.377 C 169.528 283.931,169.411 284.386,177.266 291.409 C 180.086 293.930,182.394 296.103,182.394 296.238 C 182.394 296.373,179.901 299.013,176.855 302.105 L 171.316 307.727 171.316 309.646 C 171.316 311.553,171.340 311.589,174.758 314.735 C 176.651 316.477,179.253 318.893,180.539 320.104 L 182.878 322.304 178.746 326.434 C 171.047 334.128,170.549 336.047,175.156 340.274 C 176.214 341.244,179.186 343.996,181.762 346.390 C 191.150 355.113,192.978 354.940,203.392 344.344 C 206.564 341.117,209.546 337.799,210.020 336.970 L 210.880 335.464 210.880 279.130 C 210.880 248.147,211.014 222.718,211.177 222.622 C 213.173 221.452,214.906 223.649,216.895 229.871 C 218.883 236.093,219.899 236.744,224.926 235.015 C 228.413 233.815,227.721 233.077,231.045 241.543 C 232.541 245.353,232.651 245.437,239.283 247.857 C 245.182 250.011,245.255 250.065,244.249 251.551 C 243.850 252.139,243.301 253.066,243.028 253.610 C 242.756 254.154,242.221 255.076,241.840 255.659 C 235.548 265.287,235.993 266.813,246.371 271.205 C 253.079 274.044,252.774 273.748,251.285 275.954 C 250.605 276.961,250.049 277.869,250.049 277.972 C 250.049 278.075,249.149 279.518,248.049 281.179 C 242.606 289.398,243.378 291.411,253.625 295.717 C 260.911 298.778,262.711 299.602,262.704 299.870 C 262.700 299.996,261.723 301.612,260.534 303.462 C 252.966 315.227,253.578 316.764,268.774 324.160 C 282.248 330.719,283.591 330.428,289.496 319.683 C 290.154 318.487,291.829 315.638,293.219 313.353 C 296.616 307.771,296.615 306.941,293.202 298.121 C 291.855 294.639,288.246 285.025,285.183 276.756 C 282.119 268.487,279.273 260.831,278.859 259.743 C 278.445 258.655,277.678 256.607,277.155 255.193 C 276.631 253.778,275.736 251.375,275.165 249.852 C 274.594 248.328,273.956 246.512,273.747 245.816 C 273.538 245.120,273.106 244.052,272.789 243.442 C 272.471 242.833,272.210 242.194,272.208 242.022 C 272.206 241.695,268.500 231.254,267.054 227.498 C 266.593 226.301,265.897 224.431,265.508 223.343 C 265.119 222.255,264.672 221.065,264.514 220.697 C 264.195 219.954,265.328 219.282,269.770 217.579 C 274.030 215.947,274.191 214.898,271.242 207.993 C 269.064 202.895,269.076 203.207,270.960 200.559 C 284.351 181.734,282.475 152.194,266.754 134.322 C 265.989 133.452,264.466 131.786,263.370 130.620 L 261.379 128.500 262.109 125.081 C 270.927 83.809,232.326 45.189,187.933 50.868 M202.374 60.134 C 232.566 62.916,254.856 87.353,253.494 116.177 C 253.214 122.117,253.201 122.141,251.110 120.853 C 235.380 111.164,216.291 110.066,199.877 117.907 L 195.787 119.861 192.660 118.288 C 190.940 117.424,189.333 116.716,189.089 116.716 C 188.845 116.716,188.085 116.467,187.399 116.162 C 177.405 111.720,159.082 113.301,146.916 119.655 C 144.594 120.867,142.493 121.860,142.247 121.860 C 141.099 121.860,140.109 112.311,140.791 107.814 C 142.271 98.054,142.934 95.556,145.368 90.585 C 149.863 81.402,161.174 70.331,170.566 65.921 C 181.842 60.627,190.544 59.044,202.374 60.134 M232.839 123.804 C 239.390 125.626,247.250 129.529,249.271 131.964 C 250.284 133.184,246.090 140.359,241.592 145.103 C 238.284 148.591,238.303 148.590,236.653 145.400 C 233.324 138.961,227.145 135.618,218.806 135.746 L 214.665 135.809 211.685 132.403 C 210.046 130.530,208.126 128.533,207.418 127.965 C 205.763 126.636,205.796 126.399,207.777 125.389 C 213.355 122.543,225.534 121.773,232.839 123.804 M179.228 124.300 C 192.221 126.767,204.180 135.964,210.197 148.117 C 212.487 152.742,213.250 154.489,213.272 155.154 C 213.281 155.447,213.549 156.400,213.868 157.270 C 215.741 162.393,216.448 172.187,215.418 178.738 C 212.614 196.565,202.843 208.448,185.559 215.053 C 183.530 215.829,178.010 216.828,174.316 217.089 L 171.095 217.316 169.791 220.923 C 166.816 229.150,167.519 228.707,161.523 226.145 C 159.293 225.192,157.468 224.582,157.468 224.790 C 157.468 224.997,157.134 225.914,156.725 226.827 C 155.538 229.482,147.308 250.363,145.780 254.599 C 145.388 255.687,144.942 256.756,144.791 256.973 C 144.639 257.191,144.294 258.054,144.024 258.891 C 143.754 259.728,143.287 260.885,142.986 261.463 C 142.685 262.040,142.437 262.691,142.436 262.910 C 142.434 263.128,141.437 265.710,140.220 268.647 C 139.003 271.583,137.728 274.778,137.387 275.745 C 137.046 276.712,136.530 277.958,136.240 278.514 C 135.950 279.070,135.711 279.765,135.710 280.058 C 135.708 280.350,135.444 281.063,135.121 281.640 C 134.799 282.218,133.547 285.272,132.339 288.427 C 131.131 291.583,129.881 294.725,129.562 295.411 C 129.242 296.097,128.981 296.831,128.981 297.042 C 128.981 297.386,128.464 298.685,126.818 302.473 C 126.534 303.126,125.649 305.351,124.851 307.418 C 121.594 315.854,122.645 314.679,116.559 316.694 C 114.222 317.467,111.655 318.204,110.854 318.331 L 109.397 318.562 107.338 314.294 C 104.949 309.339,104.910 309.474,109.087 308.235 C 114.260 306.700,114.197 306.738,114.914 304.717 C 116.174 301.163,117.197 298.504,117.910 296.934 C 119.843 292.675,121.955 287.394,123.923 281.899 C 124.157 281.246,124.477 280.534,124.635 280.317 C 124.793 280.099,125.146 279.209,125.420 278.338 C 125.694 277.468,126.879 274.746,128.052 272.289 L 130.186 267.823 128.817 265.563 C 123.329 256.502,123.225 257.730,129.667 255.593 C 136.307 253.391,135.718 253.881,138.029 248.630 C 140.542 242.921,140.619 243.779,137.092 238.154 C 133.560 232.521,133.653 233.749,136.297 227.686 C 138.253 223.201,139.975 218.963,140.586 217.133 C 140.765 216.597,139.889 216.014,136.259 214.248 C 131.054 211.717,131.287 212.376,133.740 207.122 C 136.013 202.251,136.005 202.459,134.028 200.096 C 120.079 183.421,120.847 155.201,135.623 141.439 C 137.871 139.345,137.735 139.276,140.851 144.106 C 145.094 150.684,153.894 159.046,158.358 160.741 C 158.739 160.886,159.050 161.267,159.050 161.589 C 159.050 161.910,159.672 163.233,160.431 164.529 C 170.174 181.152,194.824 174.395,194.849 155.094 L 194.856 150.148 193.321 147.079 C 186.888 134.217,168.820 132.650,160.435 144.226 C 159.565 145.428,158.539 146.807,158.155 147.291 L 157.458 148.170 153.980 144.551 C 150.350 140.772,145.125 133.571,145.450 132.794 C 145.774 132.021,148.983 129.848,151.888 128.434 C 160.900 124.048,170.367 122.617,179.228 124.300 M260.609 142.936 C 273.161 159.625,273.084 184.086,260.435 197.846 C 258.447 200.009,257.947 201.084,258.710 201.556 C 258.903 201.675,259.184 202.264,259.334 202.865 C 259.484 203.465,259.842 204.491,260.131 205.143 C 262.516 210.535,262.626 210.307,256.379 212.874 C 253.659 213.991,251.387 214.952,251.330 215.009 C 251.241 215.096,252.173 217.343,253.636 220.574 C 254.159 221.727,257.332 230.089,259.416 235.806 C 260.408 238.526,261.668 241.909,262.217 243.323 C 262.766 244.738,263.792 247.498,264.497 249.456 C 265.201 251.414,266.435 254.797,267.239 256.973 C 268.043 259.149,268.881 261.464,269.101 262.117 C 269.321 262.770,269.658 263.660,269.850 264.095 C 270.410 265.366,273.947 274.698,275.173 278.140 C 275.444 278.902,276.032 280.504,276.479 281.701 C 276.925 282.898,278.040 285.925,278.956 288.427 C 279.872 290.930,280.967 293.867,281.388 294.955 C 281.809 296.044,282.337 297.468,282.560 298.121 C 282.784 298.773,283.197 299.842,283.479 300.495 C 283.761 301.147,284.113 302.258,284.262 302.963 C 284.410 303.668,284.696 304.346,284.897 304.470 C 285.360 304.756,285.374 306.742,284.917 307.240 C 284.727 307.447,283.722 309.219,282.683 311.177 C 278.686 318.712,279.310 318.365,274.320 315.826 C 269.957 313.606,270.077 314.070,272.832 310.070 C 275.248 306.564,275.275 306.374,273.884 302.868 C 272.754 300.023,267.835 286.935,267.192 285.064 C 266.893 284.194,266.398 282.859,266.092 282.097 C 265.786 281.335,263.992 276.439,262.106 271.217 C 258.117 260.172,257.248 257.824,256.519 256.122 C 256.225 255.436,255.984 254.670,255.984 254.419 C 255.984 254.168,255.658 253.216,255.259 252.303 C 254.860 251.390,253.953 249.041,253.244 247.082 C 252.535 245.124,251.827 243.269,251.672 242.960 C 251.395 242.412,249.509 241.553,244.708 239.789 C 240.356 238.189,239.878 237.903,239.590 236.727 C 239.439 236.112,238.646 233.917,237.828 231.850 C 237.010 229.782,235.931 226.800,235.430 225.223 C 234.368 221.875,234.595 221.937,229.634 223.615 C 227.362 224.384,225.775 224.732,225.572 224.506 C 225.314 224.218,222.780 217.607,221.753 214.540 C 221.642 214.208,220.688 214.045,218.848 214.045 C 216.567 214.045,211.287 213.266,209.402 212.651 C 209.121 212.560,210.073 211.314,211.628 209.738 C 219.487 201.769,225.915 185.974,225.915 174.632 C 225.915 172.181,226.190 171.316,226.971 171.316 C 229.692 171.316,235.321 166.580,237.344 162.588 C 238.413 160.480,238.991 159.818,240.424 159.057 C 244.609 156.837,252.119 148.331,256.412 140.950 C 257.480 139.112,257.873 139.297,260.609 142.936 M224.640 146.283 C 229.342 148.469,231.462 154.780,228.742 158.497 C 226.209 161.960,225.331 162.106,224.894 159.140 C 224.510 156.526,222.949 151.853,221.341 148.498 C 220.592 146.937,219.980 145.542,219.980 145.397 C 219.980 144.995,223.176 145.603,224.640 146.283 M180.049 146.602 C 188.791 151.123,187.075 162.380,177.349 164.314 C 175.914 164.599,175.695 164.121,176.669 162.832 C 179.462 159.140,174.702 153.511,168.788 153.511 C 166.466 153.511,166.033 152.961,166.945 151.173 C 169.336 146.487,175.600 144.302,180.049 146.602 M236.727 199.569 C 235.359 200.185,234.619 201.245,234.619 202.592 C 234.619 203.686,238.489 215.241,239.105 215.986 C 241.743 219.177,247.091 216.342,246.066 212.297 C 245.246 209.061,242.105 200.781,241.447 200.124 C 240.454 199.131,238.271 198.874,236.727 199.569 M154.593 202.067 C 153.198 202.624,150.742 206.549,150.742 208.222 C 150.742 208.499,150.510 209.077,150.227 209.506 C 146.915 214.522,147.243 219.215,150.971 220.150 C 153.050 220.672,156.677 217.058,156.677 214.465 C 156.677 214.269,157.494 212.384,158.493 210.275 C 161.368 204.205,159.434 200.136,154.593 202.067 M200.895 276.479 L 200.999 332.542 196.394 337.207 C 193.862 339.773,191.642 341.821,191.462 341.757 C 191.281 341.694,189.519 340.154,187.546 338.334 L 183.960 335.027 188.122 330.564 L 192.285 326.100 192.283 321.804 L 192.281 317.507 187.931 313.635 C 182.628 308.914,182.628 309.397,187.933 304.288 L 192.285 300.096 192.287 296.141 L 192.289 292.186 188.034 288.163 L 183.778 284.140 188.032 279.848 L 192.285 275.556 192.285 270.942 C 192.285 266.380,192.273 266.319,191.197 265.476 C 189.257 263.955,183.581 258.663,183.581 258.375 C 183.581 258.221,185.533 256.062,187.920 253.578 L 192.259 249.060 192.272 244.665 L 192.285 240.270 187.339 236.202 L 182.394 232.133 182.394 229.230 C 182.394 226.384,182.416 226.321,183.482 226.083 C 188.840 224.886,194.091 222.922,198.412 220.498 C 199.478 219.900,200.119 219.743,200.390 220.014 C 200.657 220.280,200.826 239.250,200.895 276.479 " stroke="none" fill="#324e5c" fill-rule="evenodd"></path><path id="path2" d="M185.636 72.049 C 177.490 72.774,165.824 75.842,158.062 79.302 C 148.763 83.447,144.775 89.536,142.056 103.738 C 140.807 110.267,141.182 120.453,142.691 120.956 C 142.914 121.031,144.531 120.285,146.284 119.300 C 148.037 118.314,149.624 117.506,149.810 117.505 C 149.996 117.504,150.671 117.230,151.309 116.897 C 152.464 116.295,152.956 116.145,157.864 114.904 C 159.278 114.547,161.147 114.051,162.018 113.804 C 168.895 111.846,184.419 113.771,192.681 117.604 L 196.044 119.165 198.813 117.775 C 202.817 115.764,205.174 114.804,206.842 114.503 C 207.649 114.357,208.626 114.074,209.014 113.874 C 213.414 111.600,229.195 111.564,236.400 113.810 C 241.523 115.408,245.645 117.091,248.583 118.787 C 249.626 119.389,250.592 119.881,250.728 119.881 C 250.865 119.881,251.291 120.166,251.675 120.513 C 254.526 123.093,253.001 102.335,249.808 95.094 C 249.506 94.408,249.258 93.688,249.258 93.494 C 249.258 92.851,245.239 86.073,244.173 84.918 C 243.185 83.848,235.461 79.864,231.762 78.517 C 215.938 72.755,201.094 70.673,185.636 72.049 M130.720 94.835 C 94.907 121.880,78.898 161.739,86.493 204.946 C 90.331 226.784,101.724 250.076,116.006 265.282 C 116.211 265.500,115.386 263.772,114.173 261.444 C 110.645 254.669,111.546 250.962,117.126 249.305 C 118.097 249.017,119.070 248.642,119.288 248.472 C 119.505 248.302,120.274 248.036,120.996 247.882 C 121.718 247.727,122.786 247.352,123.370 247.047 C 123.954 246.743,124.650 246.492,124.918 246.491 C 125.871 246.486,128.586 245.208,128.585 244.764 C 128.585 244.516,127.873 243.287,127.002 242.033 C 126.132 240.780,125.420 239.676,125.420 239.580 C 125.420 239.485,124.842 238.552,124.135 237.507 C 122.316 234.821,122.429 233.102,124.743 228.289 C 125.737 226.222,126.820 223.863,127.151 223.048 L 127.752 221.567 125.696 220.685 C 121.986 219.094,120.526 218.175,119.832 216.992 C 119.058 215.672,118.897 214.212,119.486 213.848 C 119.703 213.713,119.881 213.342,119.881 213.022 C 119.881 212.702,120.773 210.577,121.864 208.299 L 123.847 204.158 122.161 201.688 C 120.215 198.837,117.112 192.814,117.112 191.887 C 117.112 191.540,116.955 191.087,116.764 190.880 C 114.246 188.158,112.605 169.755,114.154 161.622 C 114.913 157.641,116.285 152.640,116.755 152.146 C 116.951 151.940,117.112 151.535,117.112 151.248 C 117.112 148.377,125.783 135.072,130.475 130.742 L 132.640 128.744 132.169 126.786 C 129.712 116.576,130.030 106.501,133.195 94.263 C 133.518 93.017,132.954 93.147,130.720 94.835 M261.278 95.567 C 263.906 102.416,264.604 119.459,262.535 126.282 L 261.974 128.133 264.221 130.594 C 267.874 134.594,268.171 134.962,270.578 138.477 C 283.523 157.373,283.936 184.925,271.513 200.858 C 269.803 203.052,269.894 203.961,272.295 208.660 C 275.352 214.644,274.466 216.434,266.965 219.428 C 264.990 220.217,264.703 220.827,265.690 222.133 C 266.010 222.555,266.271 223.152,266.271 223.458 C 266.271 223.764,266.530 224.576,266.847 225.262 C 267.425 226.513,267.666 227.160,269.602 232.641 C 270.178 234.273,270.811 235.964,271.008 236.400 C 271.204 236.835,271.820 238.526,272.376 240.158 C 272.932 241.790,273.845 244.372,274.405 245.895 C 274.964 247.418,275.606 249.199,275.831 249.852 C 276.056 250.504,276.472 251.573,276.755 252.226 C 277.039 252.878,277.538 254.214,277.866 255.193 C 278.701 257.690,279.401 259.149,279.765 259.149 C 280.540 259.149,288.472 248.076,291.102 243.323 C 291.764 242.127,292.905 240.079,293.637 238.773 C 299.914 227.581,304.631 212.475,306.424 197.824 C 307.507 188.975,307.087 171.728,305.602 163.996 C 303.664 153.912,300.582 144.530,296.633 136.696 C 295.536 134.520,294.371 132.206,294.045 131.553 C 293.421 130.307,287.156 120.671,286.237 119.546 C 285.944 119.186,284.496 117.379,283.021 115.529 C 280.507 112.378,271.732 103.307,268.645 100.669 C 263.054 95.891,260.804 94.333,261.278 95.567 M217.606 123.434 C 214.204 123.812,210.945 124.708,208.223 126.013 C 208.175 126.035,210.086 128.061,212.468 130.515 L 216.799 134.976 220.490 135.111 C 227.922 135.383,233.802 138.843,237.131 144.901 C 238.612 147.597,238.418 147.548,240.315 145.707 C 243.266 142.840,246.864 137.582,248.219 134.154 L 248.912 132.403 247.616 131.384 C 243.792 128.379,235.865 124.963,230.267 123.909 C 227.237 123.338,220.678 123.092,217.606 123.434 M166.370 124.491 C 158.727 125.696,147.913 130.204,148.006 132.146 C 148.022 132.473,148.545 133.541,149.168 134.520 C 149.791 135.500,150.855 137.228,151.531 138.362 C 152.207 139.496,153.962 141.707,155.431 143.275 L 158.102 146.127 160.013 143.695 C 165.655 136.514,174.234 134.004,182.941 136.986 C 188.398 138.856,191.991 142.449,194.914 148.961 C 196.039 151.468,195.943 159.011,194.754 161.502 C 194.267 162.523,193.867 163.470,193.867 163.606 C 193.867 164.964,188.768 170.473,186.031 172.073 C 182.920 173.891,178.068 175.035,175.074 174.656 C 168.148 173.780,162.426 169.915,159.469 164.116 C 158.216 161.658,157.844 161.286,154.331 158.980 C 150.582 156.520,143.225 149.566,143.225 148.483 C 143.225 148.202,143.078 147.972,142.899 147.972 C 142.589 147.972,142.093 147.290,138.938 142.520 L 137.556 140.431 136.390 141.531 C 133.037 144.694,128.248 152.335,127.022 156.479 C 125.285 162.348,124.666 166.420,124.678 171.909 C 124.701 182.388,128.646 193.282,134.912 200.170 C 136.819 202.267,136.883 201.901,133.248 209.624 C 132.292 211.656,132.217 211.563,136.499 213.635 C 138.348 214.530,140.129 215.408,140.455 215.585 C 141.357 216.074,141.385 217.424,140.533 219.288 C 140.110 220.213,139.492 221.607,139.159 222.386 L 138.553 223.803 142.052 225.284 C 146.638 227.226,146.642 227.232,145.199 230.211 C 144.548 231.554,144.016 232.750,144.016 232.867 C 144.016 232.984,143.683 233.827,143.276 234.740 C 141.248 239.288,140.447 241.770,140.692 242.747 C 140.845 243.353,140.705 244.281,140.349 245.030 C 139.775 246.236,139.249 247.415,137.304 251.851 C 136.362 253.999,135.547 254.473,129.773 256.228 C 128.576 256.592,127.427 257.042,127.221 257.228 C 127.014 257.414,126.535 257.567,126.156 257.567 C 125.349 257.567,124.760 258.333,125.286 258.699 C 125.485 258.838,126.774 260.866,128.149 263.205 C 131.042 268.127,131.041 267.600,128.171 273.668 C 127.094 275.948,126.212 277.993,126.212 278.214 C 126.212 278.434,125.959 279.175,125.651 279.861 C 124.237 283.003,123.316 285.271,122.433 287.786 C 121.907 289.282,121.319 290.707,121.127 290.951 C 120.935 291.195,120.412 292.463,119.965 293.769 C 119.518 295.074,118.638 297.300,118.008 298.714 C 117.378 300.129,116.446 302.443,115.937 303.858 C 114.835 306.920,114.062 307.635,111.177 308.260 C 109.980 308.519,108.832 308.880,108.625 309.064 C 108.418 309.247,107.973 309.399,107.636 309.403 C 106.315 309.416,105.987 309.968,106.566 311.204 C 107.587 313.383,108.642 315.528,109.306 316.775 L 109.969 318.020 112.057 317.442 C 113.205 317.123,114.500 316.713,114.936 316.530 C 115.371 316.347,117.034 315.797,118.631 315.308 C 120.367 314.776,121.615 314.164,121.733 313.787 C 121.842 313.439,122.087 312.799,122.277 312.364 C 122.466 311.929,123.273 309.881,124.070 307.814 C 124.866 305.747,125.826 303.343,126.203 302.473 C 126.580 301.602,127.297 299.822,127.796 298.516 C 128.295 297.211,128.924 295.608,129.193 294.955 C 129.462 294.303,130.328 292.077,131.119 290.010 C 131.909 287.943,132.731 285.942,132.944 285.564 C 133.158 285.186,133.335 284.652,133.337 284.377 C 133.339 284.102,133.778 282.987,134.314 281.899 C 134.849 280.811,135.298 279.654,135.312 279.327 C 135.326 279.001,135.598 278.388,135.918 277.966 C 136.237 277.544,136.499 276.955,136.499 276.658 C 136.499 276.362,136.833 275.372,137.241 274.459 C 137.650 273.546,138.911 270.396,140.045 267.458 C 141.178 264.520,142.357 261.613,142.665 260.997 C 142.973 260.381,143.225 259.695,143.225 259.474 C 143.225 259.252,143.480 258.510,143.793 257.824 C 144.737 255.756,145.576 253.646,147.438 248.665 C 148.413 246.053,149.378 243.748,149.581 243.541 C 149.784 243.334,149.951 242.907,149.951 242.591 C 149.951 242.110,155.393 228.154,156.300 226.311 C 156.460 225.984,156.783 225.232,157.016 224.640 C 157.424 223.607,157.487 223.586,158.543 224.135 C 159.930 224.856,161.832 225.660,164.496 226.651 C 166.961 227.568,166.670 227.875,168.558 222.354 C 170.689 216.123,170.314 216.499,174.576 216.318 C 178.578 216.148,184.152 215.111,185.861 214.219 C 186.456 213.909,187.189 213.654,187.488 213.652 C 187.967 213.650,195.405 209.958,196.439 209.209 C 201.220 205.746,208.902 197.288,208.902 195.487 C 208.902 195.285,209.036 195.061,209.199 194.988 C 209.599 194.811,212.467 189.050,212.465 188.429 C 212.464 188.158,212.799 186.911,213.210 185.659 C 218.457 169.680,213.483 149.013,201.521 137.092 C 198.567 134.149,194.517 130.920,192.681 130.045 C 192.354 129.889,191.111 129.230,189.919 128.580 C 188.726 127.930,187.596 127.399,187.407 127.399 C 187.218 127.399,186.502 127.140,185.816 126.825 C 181.830 124.989,171.260 123.721,166.370 124.491 M256.960 141.287 C 256.683 142.162,254.962 144.841,254.451 145.194 C 254.286 145.308,253.457 146.469,252.608 147.774 C 249.619 152.373,243.821 158.175,240.543 159.847 C 239.461 160.400,238.869 161.097,238.236 162.570 C 237.767 163.659,236.429 165.582,235.262 166.845 L 233.140 169.139 232.921 175.865 C 232.458 190.124,228.631 199.337,219.097 209.151 C 214.721 213.655,214.721 213.650,219.324 213.650 L 222.163 213.650 223.088 216.320 C 224.412 220.147,225.635 223.291,225.945 223.670 C 226.225 224.012,228.823 223.412,230.861 222.535 C 232.873 221.669,235.015 221.396,235.015 222.006 C 235.015 222.298,235.360 223.430,235.781 224.523 C 236.203 225.615,236.635 226.801,236.742 227.158 C 236.966 227.909,240.686 227.106,243.285 225.746 C 244.906 224.897,244.925 224.920,246.535 229.476 C 248.822 235.949,250.808 241.082,251.113 241.307 C 252.108 242.039,253.756 245.833,255.256 250.841 C 255.484 251.602,255.812 252.404,255.984 252.621 C 256.157 252.839,256.483 253.640,256.710 254.402 C 257.272 256.287,258.300 259.177,258.750 260.138 C 258.954 260.574,259.461 261.909,259.877 263.106 C 261.246 267.051,262.337 270.018,262.713 270.821 C 263.190 271.838,264.229 274.781,264.738 276.558 C 264.956 277.319,265.364 278.477,265.645 279.130 C 265.926 279.782,266.555 281.474,267.043 282.888 C 267.531 284.303,268.090 285.816,268.284 286.251 C 268.478 286.686,269.089 288.289,269.642 289.812 C 270.194 291.335,270.795 292.938,270.977 293.373 C 271.893 295.560,272.999 298.576,273.010 298.920 C 273.018 299.133,273.368 300.020,273.788 300.890 C 274.209 301.761,274.559 302.675,274.566 302.922 C 274.574 303.169,274.846 303.881,275.171 304.505 C 276.077 306.242,275.627 307.963,273.787 309.792 C 273.230 310.346,271.318 313.386,271.455 313.500 C 271.541 313.574,273.167 314.453,275.067 315.455 L 278.521 317.276 280.056 314.622 C 280.900 313.163,282.328 310.580,283.230 308.883 L 284.869 305.799 284.077 304.058 C 283.641 303.101,283.284 301.988,283.284 301.585 C 283.284 301.181,283.127 300.682,282.936 300.475 C 282.745 300.268,282.376 299.387,282.117 298.516 C 281.858 297.646,281.485 296.578,281.288 296.142 C 280.412 294.208,278.140 288.291,278.140 287.943 C 278.140 287.731,277.900 286.997,277.606 286.311 C 277.312 285.625,276.696 284.038,276.236 282.783 C 275.777 281.528,275.053 279.570,274.628 278.431 C 274.203 277.292,273.285 274.758,272.589 272.799 C 271.892 270.841,271.087 268.704,270.800 268.051 C 269.720 265.601,268.951 263.602,267.829 260.336 C 266.397 256.167,265.351 253.319,264.778 252.028 C 264.536 251.484,263.065 247.478,261.509 243.126 C 259.953 238.773,258.523 234.857,258.330 234.421 C 258.025 233.730,255.233 226.318,253.785 222.354 C 253.507 221.592,252.999 220.435,252.656 219.782 C 252.313 219.130,252.031 218.306,252.030 217.952 C 252.029 217.597,251.761 217.086,251.434 216.815 C 250.617 216.137,250.679 214.473,251.533 214.174 C 252.121 213.968,257.642 211.724,260.655 210.467 C 261.509 210.110,261.527 210.031,260.951 209.208 C 260.613 208.725,260.336 208.062,260.336 207.734 C 260.336 207.086,259.021 203.545,258.018 201.489 L 257.392 200.208 259.161 198.334 C 260.134 197.304,261.025 196.367,261.141 196.252 C 262.961 194.458,266.606 187.148,267.263 183.976 C 267.420 183.215,267.688 182.413,267.858 182.196 C 269.100 180.604,269.646 168.759,268.745 162.934 C 267.836 157.050,265.510 151.365,261.571 145.401 C 258.423 140.633,257.445 139.760,256.960 141.287 M222.023 148.022 C 222.741 149.192,223.895 151.011,224.588 152.066 C 225.280 153.121,226.236 155.023,226.711 156.292 C 228.008 159.763,229.286 158.687,229.239 154.164 C 229.200 150.502,225.991 146.841,222.229 146.167 L 220.719 145.896 222.023 148.022 M173.112 146.655 C 171.397 147.142,168.150 149.699,168.150 150.563 C 168.150 150.821,168.984 151.128,170.030 151.254 C 175.178 151.875,180.005 155.961,180.992 160.534 C 181.330 162.100,181.562 162.125,182.876 160.732 C 188.773 154.481,181.661 144.227,173.112 146.655 M241.832 199.591 C 242.426 200.114,243.080 201.221,243.285 202.052 C 243.705 203.750,245.935 209.921,246.509 210.974 C 247.566 212.910,246.545 216.143,244.495 217.355 C 241.467 219.143,238.001 217.108,237.174 213.056 C 237.041 212.404,236.776 211.513,236.585 211.078 C 235.187 207.885,233.820 202.931,234.059 201.923 C 234.798 198.811,239.383 197.435,241.832 199.591 M159.017 202.125 C 159.542 202.499,160.214 203.503,160.509 204.356 C 161.103 206.071,161.057 206.251,158.724 211.276 C 158.067 212.690,157.408 214.337,157.258 214.936 C 157.109 215.534,156.850 216.024,156.683 216.024 C 156.516 216.024,156.270 216.574,156.135 217.247 C 155.532 220.264,152.001 221.657,149.234 219.970 C 146.917 218.557,146.474 216.207,147.931 213.056 C 149.091 210.547,149.912 208.585,150.165 207.715 C 150.323 207.171,150.696 206.375,150.993 205.946 C 151.290 205.516,151.540 204.893,151.547 204.561 C 151.613 201.777,156.354 200.231,159.017 202.125 M211.672 264.250 C 211.672 286.905,211.814 305.440,211.988 305.440 C 213.695 305.440,223.368 302.768,228.564 300.860 C 232.428 299.442,243.626 294.154,245.073 293.065 C 245.821 292.502,245.819 292.464,244.974 290.843 C 243.505 288.025,243.924 286.288,247.270 281.306 C 248.074 280.109,249.382 278.011,250.177 276.645 L 251.621 274.160 250.736 273.814 C 249.850 273.468,247.106 272.289,244.511 271.141 C 236.462 267.577,235.193 264.767,239.007 258.952 C 240.006 257.428,241.333 255.292,241.956 254.204 C 242.578 253.116,243.206 252.136,243.350 252.028 C 244.708 251.004,244.041 250.225,240.845 249.107 C 239.053 248.480,237.409 247.837,237.191 247.678 C 236.973 247.519,236.261 247.262,235.608 247.106 C 232.507 246.366,231.790 245.433,229.278 238.872 C 227.674 234.684,227.448 234.508,225.145 235.657 C 221.403 237.524,218.592 236.411,217.211 232.515 C 216.404 230.237,213.996 223.822,213.892 223.672 C 213.867 223.635,213.357 223.483,212.759 223.332 L 211.672 223.060 211.672 264.250 M193.950 231.577 L 187.918 235.608 190.504 237.982 L 193.090 240.356 193.080 244.510 C 193.070 249.178,192.913 249.572,189.908 252.495 C 188.930 253.445,187.244 255.171,186.160 256.330 L 184.190 258.437 185.567 259.650 C 186.324 260.318,188.323 262.110,190.010 263.633 L 193.076 266.402 193.076 270.979 L 193.076 275.556 188.825 279.820 L 184.573 284.085 187.184 286.553 C 188.621 287.910,190.555 289.716,191.484 290.565 L 193.173 292.109 192.990 296.302 L 192.807 300.495 188.577 304.637 C 183.576 309.535,183.553 308.706,188.823 313.516 L 193.076 317.399 193.076 321.934 L 193.076 326.469 188.900 330.693 L 184.724 334.916 188.147 338.094 L 191.570 341.271 195.828 336.951 L 200.085 332.630 200.328 320.914 C 200.581 308.734,200.417 227.981,200.140 227.703 C 200.053 227.616,197.267 229.359,193.950 231.577 M162.982 239.268 C 162.717 240.084,162.003 241.820,161.396 243.126 C 160.789 244.431,159.558 247.369,158.660 249.654 C 157.762 251.939,156.877 254.164,156.695 254.599 C 156.512 255.035,155.970 256.548,155.490 257.962 C 155.010 259.377,154.297 261.246,153.906 262.117 C 153.515 262.987,152.630 265.124,151.940 266.864 C 151.251 268.605,150.432 270.534,150.121 271.150 C 149.810 271.766,149.555 272.555,149.555 272.904 C 149.555 273.476,149.017 274.813,147.368 278.338 C 146.776 279.603,145.145 283.905,144.142 286.845 C 143.807 287.824,143.399 288.803,143.233 289.021 C 142.470 290.024,142.399 292.380,143.108 293.138 C 145.257 295.433,164.100 302.800,172.058 304.456 C 173.280 304.710,181.602 297.593,181.602 296.293 C 181.602 296.064,177.556 292.387,173.600 289.021 C 169.303 285.365,169.867 283.427,177.327 276.211 L 182.460 271.246 180.943 269.908 C 171.901 261.935,171.450 261.471,170.873 259.544 C 170.217 257.356,170.892 256.111,174.787 252.325 C 180.651 246.624,181.602 245.655,181.602 245.382 C 181.602 245.116,180.319 243.972,175.787 240.199 L 173.730 238.486 172.667 239.322 C 171.121 240.539,166.035 239.757,164.317 238.039 C 163.791 237.513,163.450 237.827,162.982 239.268 M117.373 267.742 C 117.494 268.224,117.841 268.825,118.144 269.076 C 118.972 269.763,118.820 268.885,117.924 267.799 C 117.158 266.871,117.154 266.871,117.373 267.742 " stroke="none" fill="#faede6" fill-rule="evenodd"></path><path id="path3" d="M189.817 50.527 C 190.309 50.622,191.021 50.618,191.399 50.519 C 191.778 50.420,191.375 50.343,190.504 50.347 C 189.634 50.351,189.325 50.432,189.817 50.527 M200.698 50.531 C 201.299 50.622,202.189 50.620,202.676 50.526 C 203.163 50.432,202.671 50.357,201.583 50.360 C 200.495 50.363,200.096 50.440,200.698 50.531 M186.256 50.923 C 186.748 51.017,187.460 51.014,187.838 50.915 C 188.217 50.816,187.814 50.738,186.944 50.743 C 186.073 50.747,185.764 50.828,186.256 50.923 M204.847 50.922 C 205.336 51.016,206.137 51.016,206.627 50.922 C 207.117 50.828,206.716 50.751,205.737 50.751 C 204.758 50.751,204.357 50.828,204.847 50.922 M212.265 52.226 C 212.700 52.413,213.412 52.560,213.848 52.554 C 214.484 52.545,214.445 52.480,213.650 52.226 C 212.297 51.792,211.257 51.792,212.265 52.226 M224.728 56.380 C 225.272 56.691,225.895 56.945,226.113 56.945 C 226.330 56.945,226.063 56.691,225.519 56.380 C 224.975 56.069,224.352 55.814,224.135 55.814 C 223.917 55.814,224.184 56.069,224.728 56.380 M164.886 57.595 C 163.352 58.427,163.526 58.715,165.084 57.922 C 166.575 57.164,166.839 56.967,166.337 56.989 C 166.137 56.998,165.485 57.271,164.886 57.595 M193.769 60.035 C 194.911 60.114,196.780 60.114,197.923 60.035 C 199.065 59.955,198.131 59.889,195.846 59.889 C 193.561 59.889,192.626 59.955,193.769 60.035 M186.548 60.549 C 185.800 60.749,186.312 60.786,187.933 60.648 C 189.347 60.528,190.579 60.364,190.669 60.284 C 190.969 60.019,187.757 60.226,186.548 60.549 M201.813 60.288 C 201.904 60.370,203.225 60.537,204.748 60.659 C 206.876 60.829,207.151 60.800,205.935 60.532 C 204.335 60.180,201.509 60.013,201.813 60.288 M156.380 62.932 C 155.237 63.809,154.303 64.613,154.303 64.719 C 154.303 64.825,155.282 64.173,156.479 63.269 C 158.368 61.842,158.943 61.307,158.556 61.332 C 158.501 61.335,157.522 62.056,156.380 62.932 M234.619 61.485 C 234.619 61.594,235.420 62.234,236.400 62.908 C 237.379 63.582,238.180 64.044,238.180 63.935 C 238.180 63.826,237.379 63.186,236.400 62.512 C 235.420 61.839,234.619 61.376,234.619 61.485 M240.158 65.406 C 240.158 65.474,240.737 66.052,241.444 66.692 L 242.730 67.854 241.568 66.568 C 240.485 65.369,240.158 65.100,240.158 65.406 M166.852 67.884 C 165.608 68.663,164.590 69.395,164.590 69.512 C 164.590 69.629,165.064 69.414,165.643 69.035 C 166.223 68.655,167.291 67.994,168.017 67.565 C 169.156 66.894,169.624 66.469,169.226 66.469 C 169.165 66.469,168.097 67.106,166.852 67.884 M244.708 69.634 C 245.558 70.504,246.343 71.217,246.451 71.217 C 246.560 71.217,245.954 70.504,245.104 69.634 C 244.254 68.764,243.469 68.051,243.361 68.051 C 243.252 68.051,243.858 68.764,244.708 69.634 M161.919 71.241 C 160.776 72.118,159.842 72.922,159.842 73.028 C 159.842 73.134,160.821 72.481,162.018 71.578 C 163.907 70.151,164.482 69.615,164.095 69.640 C 164.041 69.644,163.061 70.364,161.919 71.241 M146.018 72.520 C 144.355 74.470,144.341 74.506,145.754 73.195 C 147.006 72.033,148.287 70.380,147.887 70.443 C 147.825 70.453,146.984 71.388,146.018 72.520 M155.897 76.546 C 154.282 78.172,153.040 79.555,153.137 79.619 C 153.234 79.684,154.637 78.354,156.254 76.664 C 160.004 72.743,159.756 72.661,155.897 76.546 M235.806 74.975 C 236.544 75.737,237.237 76.360,237.346 76.360 C 237.455 76.360,236.940 75.737,236.202 74.975 C 235.464 74.214,234.771 73.591,234.662 73.591 C 234.553 73.591,235.068 74.214,235.806 74.975 M139.914 80.704 C 139.341 81.569,138.872 82.410,138.872 82.572 C 138.872 82.734,139.112 82.515,139.405 82.086 C 140.694 80.199,141.323 79.130,141.147 79.130 C 141.042 79.130,140.487 79.838,139.914 80.704 M257.199 86.845 C 257.199 87.062,257.454 87.685,257.765 88.229 C 258.076 88.773,258.330 89.041,258.330 88.823 C 258.330 88.605,258.076 87.982,257.765 87.438 C 257.454 86.894,257.199 86.627,257.199 86.845 M142.235 98.912 C 142.085 99.596,142.045 100.238,142.146 100.339 C 142.246 100.440,142.443 99.953,142.582 99.258 C 142.911 97.609,142.592 97.289,142.235 98.912 M140.942 106.825 C 140.942 107.587,141.024 107.898,141.123 107.517 C 141.223 107.136,141.223 106.513,141.123 106.133 C 141.024 105.752,140.942 106.063,140.942 106.825 M131.086 108.803 C 131.086 110.218,131.158 110.796,131.246 110.089 C 131.333 109.382,131.333 108.225,131.246 107.517 C 131.158 106.810,131.086 107.389,131.086 108.803 M253.368 113.353 C 253.369 116.182,253.432 117.287,253.508 115.809 C 253.585 114.332,253.584 112.017,253.507 110.666 C 253.430 109.315,253.368 110.524,253.368 113.353 M140.595 112.166 C 140.594 114.125,140.661 114.976,140.744 114.057 C 140.827 113.139,140.828 111.537,140.746 110.497 C 140.665 109.456,140.597 110.208,140.595 112.166 M263.260 113.749 C 263.260 116.578,263.323 117.683,263.400 116.205 C 263.476 114.727,263.475 112.413,263.398 111.062 C 263.321 109.711,263.259 110.920,263.260 113.749 M221.464 112.654 C 222.389 112.737,223.902 112.737,224.827 112.654 C 225.752 112.570,224.995 112.502,223.145 112.502 C 221.296 112.502,220.539 112.570,221.464 112.654 M170.826 113.435 C 171.318 113.530,172.030 113.526,172.408 113.427 C 172.786 113.328,172.384 113.251,171.513 113.255 C 170.643 113.259,170.333 113.340,170.826 113.435 M166.078 113.831 C 166.570 113.925,167.282 113.922,167.660 113.823 C 168.039 113.724,167.636 113.646,166.766 113.651 C 165.895 113.655,165.586 113.736,166.078 113.831 M175.376 113.835 C 175.978 113.926,176.868 113.923,177.355 113.829 C 177.841 113.736,177.349 113.661,176.261 113.664 C 175.173 113.667,174.775 113.744,175.376 113.835 M131.082 117.310 C 131.084 118.615,131.158 119.102,131.246 118.391 C 131.334 117.679,131.332 116.611,131.242 116.017 C 131.152 115.422,131.080 116.004,131.082 117.310 M217.112 122.930 C 217.601 123.024,218.403 123.024,218.892 122.930 C 219.382 122.836,218.981 122.759,218.002 122.759 C 217.023 122.759,216.622 122.836,217.112 122.930 M225.821 122.931 C 226.313 123.025,227.025 123.022,227.403 122.923 C 227.782 122.824,227.379 122.746,226.508 122.751 C 225.638 122.755,225.328 122.836,225.821 122.931 M228.783 123.319 C 229.164 123.419,229.787 123.419,230.168 123.319 C 230.549 123.220,230.237 123.138,229.476 123.138 C 228.714 123.138,228.403 123.220,228.783 123.319 M170.821 123.721 C 171.311 123.816,172.112 123.816,172.601 123.721 C 173.091 123.627,172.690 123.550,171.711 123.550 C 170.732 123.550,170.331 123.627,170.821 123.721 M206.825 125.848 C 205.780 126.456,205.927 126.712,208.605 128.955 L 211.078 131.025 208.734 128.812 C 206.499 126.701,206.425 126.571,207.151 126.022 C 208.030 125.357,207.840 125.256,206.825 125.848 M131.132 130.663 L 129.970 131.949 131.256 130.787 C 131.963 130.147,132.542 129.569,132.542 129.501 C 132.542 129.195,132.216 129.464,131.132 130.663 M263.699 130.959 C 264.549 131.830,265.334 132.542,265.442 132.542 C 265.551 132.542,264.945 131.830,264.095 130.959 C 263.245 130.089,262.461 129.377,262.352 129.377 C 262.243 129.377,262.849 130.089,263.699 130.959 M146.278 131.972 C 145.082 133.082,145.216 133.643,147.270 136.129 L 148.066 137.092 147.365 135.905 C 146.980 135.252,146.426 134.370,146.136 133.944 C 145.670 133.262,145.734 133.038,146.666 132.065 C 147.992 130.680,147.737 130.619,146.278 131.972 M212.859 133.729 C 213.990 135.035,214.992 136.103,215.087 136.103 C 215.403 136.103,211.478 131.410,211.138 131.382 C 210.953 131.367,211.727 132.423,212.859 133.729 M173.986 136.393 C 174.911 136.476,176.424 136.476,177.349 136.393 C 178.274 136.309,177.517 136.241,175.668 136.241 C 173.818 136.241,173.061 136.309,173.986 136.393 M148.681 138.279 C 148.906 138.714,149.744 139.782,150.542 140.653 L 151.994 142.235 150.498 140.257 C 148.617 137.771,148.161 137.275,148.681 138.279 M233.432 141.048 C 234.170 141.810,234.863 142.433,234.972 142.433 C 235.081 142.433,234.566 141.810,233.828 141.048 C 233.090 140.287,232.397 139.664,232.288 139.664 C 232.179 139.664,232.694 140.287,233.432 141.048 M189.499 141.741 C 190.469 142.774,191.315 143.620,191.378 143.620 C 191.675 143.620,191.361 143.265,189.614 141.625 L 187.735 139.862 189.499 141.741 M256.182 141.246 C 255.844 141.899,255.657 142.433,255.766 142.433 C 255.875 142.433,256.240 141.899,256.578 141.246 C 256.915 140.593,257.102 140.059,256.994 140.059 C 256.885 140.059,256.520 140.593,256.182 141.246 M154.493 145.107 C 157.437 148.168,157.675 148.265,158.571 146.764 L 159.148 145.796 158.325 146.785 L 157.503 147.774 154.617 145.005 L 151.731 142.235 154.493 145.107 M219.980 145.773 C 219.980 146.086,220.156 146.452,220.371 146.585 C 220.591 146.720,220.665 146.572,220.540 146.247 C 220.405 145.895,220.601 145.594,221.039 145.481 C 221.618 145.331,221.584 145.285,220.870 145.249 C 220.338 145.221,219.980 145.432,219.980 145.773 M175.178 145.878 C 175.670 145.973,176.382 145.969,176.760 145.870 C 177.139 145.771,176.736 145.694,175.865 145.698 C 174.995 145.703,174.686 145.784,175.178 145.878 M193.500 147.379 C 193.500 147.596,193.754 148.220,194.065 148.764 C 194.376 149.308,194.631 149.575,194.631 149.357 C 194.631 149.139,194.376 148.516,194.065 147.972 C 193.754 147.428,193.500 147.161,193.500 147.379 M182.788 148.962 C 183.549 149.832,184.328 150.722,184.518 150.940 C 184.709 151.157,184.680 150.979,184.454 150.544 C 184.229 150.109,183.450 149.219,182.724 148.567 L 181.405 147.380 182.788 148.962 M117.551 150.786 C 117.308 151.485,117.177 152.126,117.262 152.211 C 117.347 152.296,117.615 151.793,117.859 151.094 C 118.103 150.394,118.233 149.753,118.148 149.668 C 118.064 149.584,117.795 150.087,117.551 150.786 M221.986 149.753 C 221.986 149.970,222.241 150.593,222.552 151.137 C 222.863 151.682,223.117 151.949,223.117 151.731 C 223.117 151.513,222.863 150.890,222.552 150.346 C 222.241 149.802,221.986 149.535,221.986 149.753 M145.203 150.455 C 145.203 150.515,146.583 151.895,148.269 153.521 L 151.335 156.479 148.378 153.412 C 145.631 150.565,145.203 150.166,145.203 150.455 M166.662 151.682 C 166.092 152.933,166.701 153.521,168.526 153.480 C 169.983 153.448,169.898 153.352,168.046 152.944 C 167.116 152.738,166.989 152.556,167.199 151.722 C 167.511 150.478,167.220 150.457,166.662 151.682 M246.278 154.402 L 243.917 156.874 246.390 154.513 C 247.750 153.214,248.863 152.101,248.863 152.040 C 248.863 151.748,248.472 152.105,246.278 154.402 M195.187 155.094 C 195.187 156.726,195.257 157.394,195.343 156.578 C 195.428 155.762,195.428 154.426,195.343 153.610 C 195.257 152.794,195.187 153.462,195.187 155.094 M223.193 152.720 C 223.187 153.046,223.426 153.848,223.725 154.500 C 224.424 156.029,224.435 155.318,223.739 153.511 C 223.446 152.750,223.200 152.394,223.193 152.720 M185.659 155.292 C 185.663 156.162,185.744 156.472,185.839 155.980 C 185.933 155.487,185.930 154.775,185.831 154.397 C 185.732 154.019,185.654 154.421,185.659 155.292 M175.610 156.186 C 176.403 157.004,177.129 157.624,177.223 157.564 C 177.447 157.422,174.805 154.698,174.444 154.698 C 174.291 154.698,174.816 155.368,175.610 156.186 M224.967 159.248 C 225.299 161.655,225.738 161.797,227.405 160.034 L 228.882 158.472 227.405 159.822 C 225.724 161.358,225.774 161.371,225.186 159.248 L 224.748 157.666 224.967 159.248 M177.363 160.040 C 177.366 161.128,177.443 161.526,177.534 160.924 C 177.625 160.323,177.623 159.433,177.529 158.946 C 177.435 158.459,177.360 158.952,177.363 160.040 M176.543 163.020 C 175.952 163.966,175.928 164.590,176.482 164.590 C 176.713 164.590,176.786 164.404,176.646 164.177 C 176.506 163.949,176.610 163.500,176.877 163.178 C 177.144 162.856,177.286 162.516,177.193 162.422 C 177.099 162.328,176.807 162.597,176.543 163.020 M269.528 165.776 C 269.528 166.538,269.609 166.850,269.709 166.469 C 269.808 166.088,269.808 165.465,269.709 165.084 C 269.609 164.703,269.528 165.015,269.528 165.776 M114.054 166.963 C 114.054 167.943,114.132 168.343,114.226 167.854 C 114.320 167.364,114.320 166.563,114.226 166.073 C 114.132 165.584,114.054 165.984,114.054 166.963 M189.274 168.384 C 187.726 169.996,186.532 171.316,186.620 171.316 C 186.947 171.316,190.801 167.541,191.555 166.481 C 192.695 164.881,192.401 165.126,189.274 168.384 M232.047 168.811 C 231.177 169.591,230.821 170.045,231.256 169.820 C 231.989 169.440,234.175 167.339,233.798 167.376 C 233.706 167.385,232.918 168.030,232.047 168.811 M269.970 170.920 C 269.970 172.770,270.038 173.526,270.122 172.601 C 270.205 171.677,270.205 170.163,270.122 169.238 C 270.038 168.314,269.970 169.070,269.970 170.920 M123.978 171.513 C 123.977 173.472,124.044 174.323,124.127 173.405 C 124.210 172.486,124.211 170.884,124.129 169.844 C 124.047 168.804,123.979 169.555,123.978 171.513 M228.882 170.736 C 227.888 171.215,227.856 171.269,228.684 171.069 C 229.228 170.938,229.843 170.673,230.049 170.480 C 230.562 170.001,230.281 170.062,228.882 170.736 M226.091 172.250 C 225.962 172.764,225.930 173.788,226.020 174.525 C 226.160 175.673,226.193 175.607,226.247 174.065 C 226.282 173.075,226.524 172.051,226.785 171.790 C 227.146 171.430,227.148 171.316,226.793 171.316 C 226.536 171.316,226.220 171.736,226.091 172.250 M215.720 174.876 C 215.720 175.638,215.801 175.950,215.901 175.569 C 216.000 175.188,216.000 174.565,215.901 174.184 C 215.801 173.803,215.720 174.115,215.720 174.876 M114.054 175.668 C 114.054 176.647,114.132 177.047,114.226 176.558 C 114.320 176.068,114.320 175.267,114.226 174.777 C 114.132 174.288,114.054 174.688,114.054 175.668 M222.398 191.933 C 222.154 192.632,222.024 193.274,222.109 193.358 C 222.193 193.443,222.462 192.940,222.706 192.241 C 222.950 191.542,223.080 190.900,222.995 190.816 C 222.910 190.731,222.642 191.234,222.398 191.933 M275.415 192.329 C 275.171 193.028,275.041 193.669,275.126 193.754 C 275.210 193.839,275.479 193.336,275.723 192.637 C 275.966 191.937,276.097 191.296,276.012 191.211 C 275.927 191.127,275.659 191.630,275.415 192.329 M259.752 198.210 C 258.685 199.293,257.891 200.236,257.986 200.305 C 258.082 200.374,259.033 199.488,260.099 198.336 C 262.551 195.688,262.319 195.604,259.752 198.210 M134.747 201.026 C 135.384 201.809,135.985 202.382,136.083 202.300 C 136.180 202.218,135.659 201.578,134.924 200.878 L 133.589 199.604 134.747 201.026 M218.200 200.989 C 217.862 201.642,217.675 202.176,217.784 202.176 C 217.893 202.176,218.258 201.642,218.595 200.989 C 218.933 200.336,219.120 199.802,219.011 199.802 C 218.903 199.802,218.537 200.336,218.200 200.989 M154.082 202.000 C 153.326 202.606,153.326 202.610,154.105 202.251 C 154.540 202.051,155.163 201.788,155.490 201.667 C 156.002 201.477,155.999 201.443,155.466 201.416 C 155.127 201.399,154.504 201.662,154.082 202.000 M203.737 203.264 L 202.374 204.748 203.858 203.384 C 205.239 202.115,205.523 201.780,205.221 201.780 C 205.155 201.780,204.487 202.448,203.737 203.264 M234.230 202.803 C 234.233 203.437,234.406 204.224,234.614 204.550 C 234.872 204.954,234.915 204.639,234.750 203.561 C 234.450 201.605,234.222 201.272,234.230 202.803 M269.860 204.748 C 269.860 204.965,270.114 205.589,270.425 206.133 C 270.736 206.677,270.991 206.944,270.991 206.726 C 270.991 206.508,270.736 205.885,270.425 205.341 C 270.114 204.797,269.860 204.530,269.860 204.748 M200.572 206.429 L 199.209 207.913 200.692 206.549 C 202.073 205.280,202.358 204.946,202.056 204.946 C 201.990 204.946,201.322 205.613,200.572 206.429 M243.946 206.133 C 244.091 206.677,244.375 207.389,244.577 207.715 C 244.832 208.128,244.863 208.007,244.679 207.319 C 244.534 206.775,244.250 206.063,244.048 205.737 C 243.793 205.324,243.762 205.445,243.946 206.133 M211.803 209.510 C 210.244 211.131,209.086 212.524,209.232 212.606 C 209.377 212.688,210.208 212.863,211.078 212.995 C 212.182 213.163,212.421 213.127,211.869 212.877 C 211.434 212.680,210.637 212.506,210.098 212.491 C 209.145 212.464,209.156 212.431,210.518 211.308 C 211.718 210.319,215.129 206.494,214.764 206.546 C 214.695 206.556,213.363 207.890,211.803 209.510 M216.024 213.895 C 218.315 214.189,221.871 214.221,221.701 213.947 C 221.599 213.783,220.058 213.677,218.275 213.709 C 216.493 213.742,215.480 213.825,216.024 213.895 M147.215 216.245 C 147.196 216.693,147.461 217.405,147.804 217.827 C 148.146 218.250,148.305 218.359,148.157 218.070 C 148.009 217.781,147.744 217.069,147.568 216.487 C 147.312 215.639,147.242 215.591,147.215 216.245 M172.411 217.102 C 173.122 217.190,174.190 217.188,174.785 217.098 C 175.379 217.007,174.797 216.935,173.492 216.938 C 172.186 216.940,171.700 217.014,172.411 217.102 M198.516 220.417 C 197.700 220.840,197.033 221.274,197.033 221.382 C 197.033 221.491,197.745 221.216,198.615 220.772 L 200.198 219.964 200.252 221.060 C 200.301 222.059,200.321 222.074,200.483 221.220 C 200.751 219.808,200.159 219.566,198.516 220.417 M195.054 222.156 C 194.510 222.467,194.243 222.722,194.461 222.722 C 194.679 222.722,195.302 222.467,195.846 222.156 C 196.390 221.845,196.657 221.591,196.439 221.591 C 196.222 221.591,195.598 221.845,195.054 222.156 M191.691 223.753 C 190.697 224.232,190.665 224.286,191.494 224.086 C 192.038 223.955,192.652 223.690,192.859 223.497 C 193.371 223.017,193.090 223.079,191.691 223.753 M200.765 233.630 C 200.765 239.070,200.820 241.351,200.889 238.698 C 200.957 236.045,200.957 231.594,200.889 228.806 C 200.821 226.019,200.765 228.190,200.765 233.630 M187.339 225.124 C 186.840 225.338,186.767 225.464,187.141 225.464 C 187.468 225.464,188.091 225.311,188.526 225.124 C 189.025 224.909,189.098 224.784,188.724 224.784 C 188.398 224.784,187.774 224.937,187.339 225.124 M136.563 226.921 C 135.900 228.376,136.026 228.686,136.743 227.364 C 137.078 226.746,137.278 226.167,137.187 226.076 C 137.097 225.986,136.816 226.366,136.563 226.921 M182.888 226.177 C 182.556 226.311,182.394 227.324,182.394 229.263 L 182.394 232.150 184.273 233.615 L 186.152 235.079 184.471 233.553 C 182.383 231.657,181.878 227.047,183.680 226.323 C 184.169 226.126,184.303 225.968,183.976 225.971 C 183.650 225.975,183.160 226.067,182.888 226.177 M135.376 229.691 C 134.713 231.145,134.839 231.456,135.556 230.133 C 135.891 229.516,136.091 228.936,136.000 228.846 C 135.910 228.755,135.629 229.135,135.376 229.691 M237.220 230.267 C 237.365 230.811,237.649 231.523,237.851 231.850 C 238.106 232.262,238.137 232.141,237.953 231.454 C 237.808 230.910,237.524 230.198,237.322 229.871 C 237.067 229.459,237.036 229.580,237.220 230.267 M238.208 232.839 C 238.208 233.056,238.463 233.680,238.773 234.224 C 239.084 234.768,239.339 235.035,239.339 234.817 C 239.339 234.599,239.084 233.976,238.773 233.432 C 238.463 232.888,238.208 232.621,238.208 232.839 M186.466 235.276 C 186.806 235.829,190.702 239.124,190.702 238.858 C 190.702 238.756,189.686 237.804,188.443 236.744 C 187.201 235.684,186.311 235.023,186.466 235.276 M219.940 235.924 C 220.124 236.109,220.877 236.198,221.611 236.122 C 222.915 235.988,222.906 235.979,221.276 235.787 C 220.357 235.678,219.756 235.740,219.940 235.924 M239.537 236.400 C 239.692 237.052,239.989 237.761,240.197 237.973 C 240.405 238.186,240.366 237.741,240.110 236.984 C 239.511 235.212,239.174 234.869,239.537 236.400 M169.436 239.640 C 169.817 239.739,170.440 239.739,170.821 239.640 C 171.202 239.540,170.890 239.459,170.129 239.459 C 169.367 239.459,169.055 239.540,169.436 239.640 M191.776 239.786 C 192.065 240.157,192.308 242.130,192.385 244.732 L 192.512 249.060 192.596 244.658 C 192.669 240.872,192.583 240.179,191.988 239.712 C 191.379 239.234,191.353 239.243,191.776 239.786 M244.510 239.696 C 244.837 239.898,245.549 240.182,246.093 240.327 C 246.780 240.511,246.901 240.480,246.489 240.225 C 246.162 240.023,245.450 239.739,244.906 239.594 C 244.219 239.410,244.098 239.441,244.510 239.696 M177.646 241.073 C 177.646 241.141,178.225 241.720,178.932 242.359 L 180.218 243.521 179.056 242.235 C 177.972 241.037,177.646 240.768,177.646 241.073 M181.193 244.230 C 182.066 245.220,182.111 245.426,181.624 246.209 C 181.127 247.006,181.137 247.035,181.737 246.539 C 182.661 245.775,182.558 245.189,181.306 244.085 L 180.218 243.126 181.193 244.230 M252.254 244.510 C 252.400 245.054,252.684 245.767,252.886 246.093 C 253.141 246.505,253.172 246.385,252.988 245.697 C 252.842 245.153,252.558 244.441,252.357 244.115 C 252.102 243.702,252.071 243.823,252.254 244.510 M190.486 250.940 L 188.922 252.621 190.603 251.057 C 191.528 250.197,192.285 249.440,192.285 249.376 C 192.285 249.076,191.940 249.376,190.486 250.940 M275.202 250.049 C 275.348 250.593,275.632 251.306,275.833 251.632 C 276.088 252.045,276.119 251.924,275.935 251.236 C 275.790 250.692,275.506 249.980,275.304 249.654 C 275.049 249.241,275.018 249.362,275.202 250.049 M174.072 253.511 L 171.909 255.786 174.184 253.624 C 176.298 251.615,176.640 251.236,176.347 251.236 C 176.285 251.236,175.261 252.260,174.072 253.511 M187.314 254.105 L 186.152 255.391 187.438 254.229 C 188.637 253.145,188.906 252.819,188.600 252.819 C 188.532 252.819,187.954 253.398,187.314 254.105 M183.581 258.218 C 183.581 258.431,184.159 259.129,184.866 259.768 L 186.152 260.930 184.965 259.547 C 184.313 258.786,183.734 258.089,183.680 257.997 C 183.625 257.906,183.581 258.005,183.581 258.218 M171.625 260.534 C 171.854 260.969,172.718 261.949,173.544 262.710 C 174.909 263.968,173.746 262.471,171.392 259.941 C 171.291 259.832,171.396 260.099,171.625 260.534 M188.328 262.834 C 188.328 262.902,188.907 263.481,189.614 264.120 L 190.900 265.282 189.738 263.996 C 188.655 262.797,188.328 262.528,188.328 262.834 M151.577 265.524 C 151.333 266.223,151.203 266.864,151.288 266.949 C 151.372 267.033,151.641 266.531,151.885 265.831 C 152.129 265.132,152.259 264.491,152.174 264.406 C 152.090 264.322,151.821 264.824,151.577 265.524 M177.646 266.469 C 178.384 267.230,179.077 267.854,179.186 267.854 C 179.295 267.854,178.780 267.230,178.042 266.469 C 177.303 265.707,176.610 265.084,176.502 265.084 C 176.393 265.084,176.908 265.707,177.646 266.469 M192.436 270.821 C 192.437 273.432,192.501 274.449,192.578 273.080 C 192.656 271.712,192.655 269.575,192.577 268.333 C 192.499 267.090,192.435 268.210,192.436 270.821 M238.772 267.396 C 239.203 267.905,239.914 268.506,240.352 268.730 C 241.192 269.160,241.070 269.028,239.172 267.452 C 238.030 266.503,238.015 266.501,238.772 267.396 M118.831 268.782 C 118.865 269.359,119.026 269.831,119.189 269.832 C 119.591 269.832,119.553 268.969,119.122 268.288 C 118.871 267.890,118.788 268.031,118.831 268.782 M182.032 270.472 C 182.557 271.151,183.067 271.635,183.164 271.548 C 183.261 271.461,182.831 270.906,182.209 270.314 L 181.077 269.238 182.032 270.472 M283.511 272.206 C 283.656 272.750,283.940 273.462,284.142 273.788 C 284.397 274.201,284.428 274.080,284.244 273.393 C 284.099 272.849,283.814 272.136,283.613 271.810 C 283.358 271.398,283.327 271.518,283.511 272.206 M178.030 276.063 L 175.470 278.734 178.140 276.174 C 180.621 273.796,180.992 273.393,180.701 273.393 C 180.640 273.393,179.438 274.594,178.030 276.063 M284.698 275.371 C 284.843 275.915,285.127 276.627,285.329 276.954 C 285.584 277.366,285.615 277.245,285.431 276.558 C 285.285 276.014,285.001 275.302,284.800 274.975 C 284.545 274.563,284.514 274.683,284.698 275.371 M190.681 277.250 L 189.318 278.734 190.801 277.370 C 192.182 276.101,192.467 275.767,192.165 275.767 C 192.099 275.767,191.431 276.434,190.681 277.250 M102.140 278.734 C 102.125 279.387,102.370 280.455,102.685 281.108 C 103.146 282.065,103.206 282.104,102.994 281.306 C 102.849 280.762,102.605 279.693,102.450 278.932 C 102.175 277.583,102.167 277.577,102.140 278.734 M184.763 283.091 C 183.992 283.912,183.921 284.171,184.356 284.575 C 184.778 284.966,184.824 284.959,184.586 284.540 C 184.406 284.223,184.644 283.639,185.191 283.057 C 185.687 282.529,186.003 282.097,185.895 282.097 C 185.786 282.097,185.276 282.544,184.763 283.091 M171.322 284.306 C 171.325 284.941,171.498 285.727,171.706 286.053 C 171.964 286.458,172.007 286.142,171.842 285.064 C 171.542 283.109,171.314 282.776,171.322 284.306 M105.836 287.240 C 106.387 288.328,106.927 289.219,107.036 289.219 C 107.145 289.219,106.783 288.328,106.231 287.240 C 105.680 286.152,105.140 285.262,105.031 285.262 C 104.922 285.262,105.284 286.152,105.836 287.240 M187.125 287.339 C 188.764 289.086,189.120 289.400,189.120 289.103 C 189.120 289.040,188.274 288.194,187.240 287.224 L 185.361 285.460 187.125 287.339 M173.294 288.229 C 174.032 288.991,174.725 289.614,174.834 289.614 C 174.943 289.614,174.428 288.991,173.689 288.229 C 172.951 287.468,172.258 286.845,172.149 286.845 C 172.041 286.845,172.556 287.468,173.294 288.229 M290.237 290.406 C 290.382 290.950,290.666 291.662,290.868 291.988 C 291.123 292.401,291.154 292.280,290.970 291.592 C 290.825 291.048,290.540 290.336,290.339 290.010 C 290.084 289.597,290.053 289.718,290.237 290.406 M191.577 291.408 C 192.085 292.013,192.286 293.145,192.385 295.958 L 192.516 299.703 192.598 295.907 C 192.674 292.404,192.612 292.052,191.790 291.357 C 190.904 290.607,190.903 290.607,191.577 291.408 M109.158 293.411 C 109.441 293.999,109.419 294.388,109.081 294.747 C 108.707 295.144,108.727 295.215,109.174 295.079 C 110.011 294.825,110.081 294.233,109.380 293.357 C 108.772 292.598,108.768 292.599,109.158 293.411 M140.839 293.593 C 140.600 294.040,140.462 294.582,140.534 294.797 C 140.606 295.012,140.869 294.646,141.119 293.983 C 141.639 292.606,141.483 292.389,140.839 293.593 M178.833 292.903 C 178.833 292.971,179.411 293.550,180.119 294.189 L 181.405 295.351 180.242 294.065 C 179.159 292.867,178.833 292.598,178.833 292.903 M200.751 299.110 C 200.751 302.265,200.812 303.556,200.887 301.978 C 200.962 300.401,200.962 297.819,200.887 296.241 C 200.812 294.664,200.751 295.955,200.751 299.110 M177.067 301.386 C 174.247 304.270,171.772 306.941,171.569 307.321 C 171.365 307.701,171.270 307.923,171.356 307.814 C 171.443 307.705,173.994 305.082,177.027 301.986 C 180.059 298.889,182.463 296.307,182.368 296.249 C 182.273 296.190,179.888 298.502,177.067 301.386 M117.591 297.540 C 117.328 297.962,117.113 298.533,117.114 298.808 C 117.116 299.083,117.386 298.792,117.715 298.161 C 118.400 296.846,118.310 296.390,117.591 297.540 M94.733 300.396 L 93.571 301.682 94.954 300.495 C 95.714 299.842,96.411 299.263,96.503 299.209 C 96.595 299.154,96.496 299.110,96.282 299.110 C 96.069 299.110,95.372 299.688,94.733 300.396 M116.385 300.512 C 115.722 301.966,115.848 302.277,116.565 300.954 C 116.900 300.336,117.100 299.757,117.009 299.667 C 116.919 299.576,116.638 299.956,116.385 300.512 M92.967 302.894 C 92.755 303.452,92.605 304.654,92.633 305.565 C 92.682 307.104,92.706 307.064,92.971 305.002 C 93.128 303.782,93.382 302.580,93.536 302.331 C 93.690 302.083,93.711 301.879,93.584 301.879 C 93.457 301.879,93.180 302.336,92.967 302.894 M171.012 309.792 C 171.012 310.554,171.093 310.865,171.193 310.485 C 171.292 310.104,171.292 309.481,171.193 309.100 C 171.093 308.719,171.012 309.031,171.012 309.792 M185.147 311.078 C 186.786 312.825,187.141 313.139,187.141 312.842 C 187.141 312.779,186.296 311.933,185.262 310.963 L 183.383 309.199 185.147 311.078 M255.696 312.957 C 255.696 313.937,255.773 314.337,255.868 313.848 C 255.962 313.358,255.962 312.557,255.868 312.067 C 255.773 311.578,255.696 311.978,255.696 312.957 M172.701 313.288 C 173.353 314.014,174.243 314.793,174.679 315.018 C 175.114 315.244,175.292 315.272,175.074 315.082 C 174.857 314.892,173.967 314.113,173.097 313.352 L 171.515 311.968 172.701 313.288 M188.922 314.540 C 189.772 315.410,190.556 316.123,190.665 316.123 C 190.774 316.123,190.167 315.410,189.318 314.540 C 188.468 313.670,187.683 312.957,187.574 312.957 C 187.466 312.957,188.072 313.670,188.922 314.540 M191.592 316.747 C 192.159 317.420,192.285 318.352,192.285 321.879 L 192.285 326.189 190.010 328.574 L 187.735 330.959 190.208 328.598 L 192.681 326.236 192.681 321.834 C 192.681 317.756,192.615 317.377,191.790 316.679 C 190.901 315.926,190.901 315.926,191.592 316.747 M290.617 317.542 C 290.248 318.105,290.015 318.633,290.098 318.717 C 290.181 318.800,290.562 318.339,290.943 317.693 C 291.796 316.250,291.541 316.131,290.617 317.542 M97.758 317.903 C 97.758 318.121,98.099 318.922,98.516 319.683 C 98.933 320.445,99.274 320.890,99.274 320.673 C 99.274 320.455,98.933 319.654,98.516 318.892 C 98.099 318.131,97.758 317.685,97.758 317.903 M180.003 319.782 C 181.643 321.529,181.998 321.843,181.998 321.546 C 181.998 321.483,181.152 320.637,180.119 319.667 L 178.239 317.903 180.003 319.782 M200.682 326.000 L 200.593 332.515 198.719 334.507 L 196.845 336.499 198.927 334.505 L 201.010 332.512 200.890 325.999 L 200.770 319.486 200.682 326.000 M128.190 322.513 C 127.428 323.180,127.163 323.546,127.601 323.324 C 128.324 322.959,130.116 321.244,129.735 321.282 C 129.647 321.291,128.952 321.845,128.190 322.513 M124.629 324.233 C 123.867 324.527,123.511 324.772,123.838 324.779 C 124.164 324.786,124.965 324.547,125.618 324.248 C 127.146 323.548,126.435 323.538,124.629 324.233 M178.623 326.113 L 176.261 328.586 178.734 326.224 C 181.031 324.030,181.388 323.640,181.095 323.640 C 181.034 323.640,179.921 324.753,178.623 326.113 M269.832 325.025 C 271.246 325.765,272.582 326.371,272.799 326.371 C 273.017 326.371,272.038 325.765,270.623 325.025 C 269.209 324.284,267.873 323.678,267.656 323.678 C 267.438 323.678,268.417 324.284,269.832 325.025 M100.808 324.629 C 101.033 325.064,101.812 325.954,102.538 326.606 L 103.858 327.793 102.474 326.211 C 101.713 325.341,100.934 324.451,100.744 324.233 C 100.554 324.016,100.582 324.194,100.808 324.629 M120.475 325.618 C 119.976 325.833,119.903 325.958,120.277 325.958 C 120.603 325.958,121.227 325.805,121.662 325.618 C 122.160 325.404,122.234 325.278,121.860 325.278 C 121.533 325.278,120.910 325.431,120.475 325.618 M284.669 326.674 C 283.798 327.455,283.442 327.909,283.877 327.683 C 284.611 327.303,286.796 325.202,286.419 325.239 C 286.327 325.248,285.539 325.894,284.669 326.674 M116.518 327.017 C 115.529 327.493,115.496 327.548,116.320 327.347 C 117.442 327.073,118.702 326.431,118.101 326.439 C 117.883 326.443,117.171 326.702,116.518 327.017 M107.715 329.067 C 108.314 329.157,109.293 329.157,109.891 329.067 C 110.490 328.976,110.000 328.902,108.803 328.902 C 107.606 328.902,107.117 328.976,107.715 329.067 M173.730 331.369 C 173.055 332.138,172.502 332.886,172.502 333.031 C 172.502 333.175,172.637 333.125,172.802 332.918 C 172.967 332.711,173.624 331.963,174.261 331.256 C 174.899 330.549,175.316 329.970,175.189 329.970 C 175.062 329.970,174.406 330.600,173.730 331.369 M184.638 334.247 C 184.029 334.920,184.103 335.068,185.863 336.720 L 187.735 338.477 186.054 336.682 C 184.467 334.987,184.411 334.849,185.051 334.209 C 185.423 333.836,185.629 333.531,185.507 333.531 C 185.385 333.531,184.994 333.853,184.638 334.247 M209.891 337.092 C 209.554 337.745,209.366 338.279,209.475 338.279 C 209.584 338.279,209.949 337.745,210.287 337.092 C 210.624 336.439,210.812 335.905,210.703 335.905 C 210.594 335.905,210.229 336.439,209.891 337.092 M173.689 339.230 C 174.783 340.453,179.228 344.386,179.228 344.131 C 179.228 344.042,177.760 342.654,175.964 341.046 C 174.169 339.439,173.145 338.622,173.689 339.230 M202.974 344.807 L 197.244 350.742 203.154 344.922 C 206.405 341.721,208.984 339.050,208.885 338.987 C 208.785 338.924,206.126 341.543,202.974 344.807 M184.174 348.961 C 185.246 350.049,186.212 350.940,186.320 350.940 C 186.429 350.940,185.641 350.049,184.570 348.961 C 183.498 347.873,182.532 346.983,182.423 346.983 C 182.315 346.983,183.102 347.873,184.174 348.961 " stroke="none" fill="#859395" fill-rule="evenodd"></path><path id="path4" d="M194.758 50.140 C 195.574 50.225,196.909 50.225,197.725 50.140 C 198.541 50.054,197.873 49.985,196.241 49.985 C 194.609 49.985,193.942 50.054,194.758 50.140 M191.395 60.418 C 191.884 60.512,192.685 60.512,193.175 60.418 C 193.665 60.323,193.264 60.246,192.285 60.246 C 191.306 60.246,190.905 60.323,191.395 60.418 M198.714 60.422 C 199.313 60.513,200.292 60.513,200.890 60.422 C 201.489 60.331,200.999 60.257,199.802 60.257 C 198.605 60.257,198.116 60.331,198.714 60.422 M240.950 65.801 C 240.950 65.869,241.528 66.448,242.235 67.087 L 243.521 68.249 242.359 66.963 C 241.276 65.765,240.950 65.496,240.950 65.801 M158.238 74.679 L 156.874 76.162 158.358 74.799 C 159.174 74.049,159.842 73.381,159.842 73.315 C 159.842 73.013,159.507 73.298,158.238 74.679 M140.999 112.166 C 141.000 114.560,141.065 115.488,141.143 114.229 C 141.222 112.970,141.221 111.011,141.142 109.877 C 141.062 108.742,140.998 109.773,140.999 112.166 M130.697 113.155 C 130.697 114.787,130.767 115.455,130.852 114.639 C 130.937 113.823,130.937 112.488,130.852 111.672 C 130.767 110.856,130.697 111.523,130.697 113.155 M167.656 113.435 C 168.145 113.529,168.947 113.529,169.436 113.435 C 169.926 113.340,169.525 113.263,168.546 113.263 C 167.567 113.263,167.166 113.340,167.656 113.435 M173.591 113.435 C 174.080 113.529,174.881 113.529,175.371 113.435 C 175.861 113.340,175.460 113.263,174.481 113.263 C 173.501 113.263,173.101 113.340,173.591 113.435 M220.870 122.939 C 221.686 123.024,223.022 123.024,223.838 122.939 C 224.654 122.854,223.986 122.784,222.354 122.784 C 220.722 122.784,220.054 122.854,220.870 122.939 M206.528 126.560 C 206.528 126.752,207.190 127.413,207.998 128.030 C 208.806 128.647,209.785 129.469,210.174 129.857 C 210.562 130.246,211.086 130.564,211.337 130.564 C 211.975 130.564,210.552 129.056,209.641 128.767 C 209.235 128.638,208.902 128.289,208.902 127.992 C 208.902 127.695,208.546 127.339,208.111 127.201 C 207.676 127.063,207.319 126.784,207.319 126.581 C 207.319 126.378,207.141 126.212,206.924 126.212 C 206.706 126.212,206.528 126.369,206.528 126.560 M129.356 132.047 L 127.992 133.531 129.476 132.168 C 130.292 131.418,130.959 130.750,130.959 130.684 C 130.959 130.382,130.625 130.667,129.356 132.047 M211.330 130.918 C 211.033 131.106,210.944 131.325,211.132 131.406 C 211.320 131.487,212.247 132.488,213.192 133.630 L 214.910 135.707 219.127 135.629 L 223.343 135.551 218.991 135.312 C 216.597 135.180,214.875 135.037,215.164 134.994 C 215.814 134.897,214.101 132.597,213.353 132.564 C 213.081 132.552,212.887 132.409,212.921 132.245 C 213.154 131.146,212.211 130.359,211.330 130.918 M146.661 132.070 C 145.677 133.097,145.643 133.238,146.213 133.949 C 146.808 134.692,146.815 134.688,146.409 133.849 C 146.096 133.203,146.116 132.899,146.486 132.662 C 147.048 132.303,148.161 130.959,147.897 130.959 C 147.802 130.959,147.246 131.459,146.661 132.070 M200.593 135.905 C 201.332 136.667,202.025 137.290,202.133 137.290 C 202.242 137.290,201.727 136.667,200.989 135.905 C 200.251 135.143,199.558 134.520,199.449 134.520 C 199.340 134.520,199.855 135.143,200.593 135.905 M147.449 136.004 C 150.665 141.136,157.164 148.062,157.959 147.205 C 158.361 146.772,158.356 146.727,157.929 146.969 C 157.192 147.388,151.423 141.328,149.159 137.757 C 148.180 136.213,147.241 134.942,147.073 134.933 C 146.905 134.923,147.074 135.406,147.449 136.004 M135.491 141.741 L 133.927 143.422 135.608 141.858 C 137.172 140.404,137.472 140.059,137.172 140.059 C 137.108 140.059,136.351 140.816,135.491 141.741 M161.999 141.741 L 160.435 143.422 162.117 141.858 C 163.680 140.404,163.980 140.059,163.681 140.059 C 163.616 140.059,162.859 140.816,161.999 141.741 M222.869 151.196 C 223.348 152.424,223.891 153.337,224.078 153.223 C 224.265 153.110,224.287 153.440,224.128 153.956 C 223.969 154.473,223.978 154.764,224.148 154.603 C 224.318 154.442,224.720 154.527,225.040 154.793 C 225.663 155.310,223.618 151.079,222.605 149.753 C 222.209 149.235,222.300 149.734,222.869 151.196 M167.172 151.846 C 166.870 152.633,167.461 152.982,169.651 153.310 C 170.622 153.456,171.661 153.669,171.960 153.783 C 172.258 153.898,172.502 153.795,172.502 153.554 C 172.502 153.313,172.102 153.113,171.612 153.110 C 170.909 153.105,170.844 153.026,171.304 152.735 C 171.993 152.300,171.738 152.170,169.065 151.591 C 167.708 151.297,167.365 151.344,167.172 151.846 M173.314 153.886 C 172.862 154.172,172.957 154.302,173.761 154.504 C 175.581 154.961,177.288 157.147,177.667 159.504 L 178.008 161.622 177.847 159.263 C 177.683 156.866,175.916 154.314,174.408 154.297 C 174.026 154.292,174.045 154.189,174.481 153.907 C 175.008 153.566,175.008 153.523,174.481 153.523 C 174.154 153.523,173.629 153.687,173.314 153.886 M224.340 155.312 C 224.344 155.518,224.609 156.578,224.928 157.666 L 225.509 159.644 225.284 157.666 C 225.096 156.013,224.315 154.064,224.340 155.312 M226.585 160.052 C 225.975 160.589,225.632 161.029,225.824 161.029 C 226.016 161.029,226.591 160.584,227.102 160.040 C 228.284 158.781,228.023 158.787,226.585 160.052 M176.958 162.883 C 176.344 164.204,176.517 164.381,177.918 163.871 C 178.549 163.641,178.743 163.452,178.366 163.434 C 178.000 163.417,177.644 163.048,177.575 162.615 C 177.463 161.918,177.391 161.949,176.958 162.883 M179.624 162.809 C 179.009 163.550,179.515 163.550,180.811 162.809 C 181.743 162.276,181.751 162.243,180.958 162.230 C 180.495 162.222,179.895 162.483,179.624 162.809 M234.403 167.062 L 232.839 168.744 234.520 167.180 C 236.084 165.725,236.384 165.381,236.084 165.381 C 236.020 165.381,235.263 166.137,234.403 167.062 M124.341 167.755 C 124.341 168.734,124.418 169.135,124.513 168.645 C 124.607 168.155,124.607 167.354,124.513 166.864 C 124.418 166.375,124.341 166.775,124.341 167.755 M161.820 167.483 C 161.820 167.551,162.399 168.130,163.106 168.769 L 164.392 169.931 163.230 168.645 C 162.146 167.446,161.820 167.177,161.820 167.483 M280.257 171.316 C 280.257 173.165,280.325 173.922,280.408 172.997 C 280.492 172.072,280.492 170.559,280.408 169.634 C 280.325 168.709,280.257 169.466,280.257 171.316 M215.755 171.316 C 215.755 172.730,215.827 173.309,215.914 172.601 C 216.002 171.894,216.002 170.737,215.914 170.030 C 215.827 169.322,215.755 169.901,215.755 171.316 M231.058 169.931 C 230.297 170.450,229.101 170.992,228.402 171.136 C 226.656 171.496,226.451 171.872,226.146 175.272 C 226.000 176.904,225.789 178.863,225.677 179.624 C 225.516 180.720,225.563 180.868,225.902 180.335 C 226.137 179.964,226.450 177.917,226.598 175.785 C 226.788 173.043,226.946 172.256,227.135 173.096 C 227.346 174.028,227.414 174.092,227.451 173.393 C 227.480 172.829,227.752 172.500,228.190 172.496 C 228.670 172.492,228.734 172.396,228.399 172.183 C 228.089 171.986,228.601 171.611,229.829 171.134 C 230.881 170.726,231.946 170.066,232.195 169.667 C 232.752 168.775,232.757 168.774,231.058 169.931 M124.333 175.470 C 124.338 176.340,124.419 176.650,124.513 176.158 C 124.608 175.665,124.604 174.953,124.505 174.575 C 124.406 174.197,124.329 174.599,124.333 175.470 M175.767 174.358 C 176.147 174.457,176.771 174.457,177.151 174.358 C 177.532 174.258,177.221 174.177,176.459 174.177 C 175.697 174.177,175.386 174.258,175.767 174.358 M225.915 182.196 C 225.915 182.522,226.093 182.789,226.311 182.789 C 226.528 182.789,226.706 182.522,226.706 182.196 C 226.706 181.869,226.528 181.602,226.311 181.602 C 226.093 181.602,225.915 181.869,225.915 182.196 M224.813 184.415 C 224.510 186.045,224.481 186.990,224.733 187.076 C 225.228 187.243,225.249 188.724,224.757 188.724 C 224.555 188.724,224.316 188.947,224.225 189.219 C 224.134 189.491,224.119 189.179,224.192 188.526 C 224.265 187.873,223.787 188.853,223.130 190.702 C 221.684 194.775,221.621 195.118,222.272 195.347 C 222.622 195.470,222.734 195.233,222.627 194.599 C 222.540 194.088,222.546 193.894,222.640 194.169 C 222.733 194.444,222.983 194.561,223.195 194.431 C 223.430 194.285,223.380 193.951,223.066 193.570 C 222.659 193.077,222.655 192.913,223.046 192.781 C 223.318 192.689,223.541 192.403,223.541 192.144 C 223.541 191.885,224.183 191.328,224.968 190.905 C 226.346 190.163,226.387 190.076,226.189 188.342 C 226.044 187.078,226.157 186.355,226.570 185.893 C 227.132 185.266,226.795 183.951,225.875 183.185 C 225.745 183.076,225.558 182.739,225.461 182.437 C 225.364 182.134,225.072 183.024,224.813 184.415 M225.909 185.064 C 225.891 185.932,225.135 186.507,225.130 185.658 C 225.126 185.168,225.302 184.768,225.519 184.768 C 225.737 184.768,225.912 184.901,225.909 185.064 M220.091 198.036 C 219.410 199.443,218.988 200.593,219.154 200.593 C 219.462 200.593,221.656 195.807,221.445 195.596 C 221.381 195.532,220.771 196.630,220.091 198.036 M133.729 199.530 C 133.729 199.598,134.308 200.177,135.015 200.816 L 136.301 201.978 135.139 200.692 C 134.055 199.494,133.729 199.225,133.729 199.530 M216.419 204.288 C 215.223 206.056,214.288 207.639,214.342 207.807 C 214.397 207.974,214.308 208.079,214.144 208.041 C 213.981 208.002,212.828 208.982,211.581 210.217 C 209.398 212.380,208.864 213.411,210.884 211.561 C 211.426 211.065,212.184 210.691,212.570 210.729 C 213.033 210.776,213.070 210.737,212.678 210.615 C 211.972 210.394,212.827 209.335,214.353 208.540 C 214.849 208.282,215.150 207.902,215.022 207.695 C 214.606 207.021,215.250 206.445,215.856 206.949 C 216.454 207.445,216.958 206.752,216.779 205.679 C 216.654 204.926,217.194 203.710,218.103 202.699 C 218.529 202.225,218.814 201.665,218.737 201.455 C 218.659 201.245,217.616 202.520,216.419 204.288 M211.287 212.587 C 211.402 212.712,212.269 212.989,213.214 213.201 C 214.159 213.414,214.777 213.437,214.588 213.254 C 214.204 212.882,210.957 212.225,211.287 212.587 M196.241 221.958 C 195.480 222.375,195.109 222.724,195.417 222.733 C 195.725 222.742,195.862 222.866,195.720 223.007 C 195.578 223.149,195.765 223.486,196.134 223.756 C 196.628 224.118,196.807 224.836,196.807 226.466 C 196.807 227.686,196.957 228.684,197.142 228.684 C 197.326 228.684,197.441 227.194,197.398 225.373 C 197.354 223.552,197.442 221.860,197.594 221.614 C 197.949 221.040,197.893 221.054,196.241 221.958 M200.333 224.926 C 200.335 226.667,200.404 227.330,200.488 226.399 C 200.572 225.468,200.570 224.044,200.485 223.234 C 200.400 222.424,200.332 223.185,200.333 224.926 M193.245 223.335 C 192.826 223.652,192.661 223.914,192.878 223.918 C 193.466 223.928,194.471 223.222,194.223 222.973 C 194.104 222.855,193.664 223.017,193.245 223.335 M211.073 279.130 C 211.073 310.247,211.120 323.036,211.177 307.548 C 211.234 292.061,211.234 266.601,211.177 250.971 C 211.120 235.340,211.073 248.012,211.073 279.130 M137.750 224.942 C 137.189 226.174,137.182 226.311,137.685 226.311 C 137.903 226.311,138.081 226.068,138.081 225.772 C 138.081 225.400,138.419 225.294,139.169 225.430 C 139.768 225.539,140.168 225.557,140.059 225.470 C 139.951 225.384,139.490 225.002,139.036 224.622 C 138.239 223.955,138.195 223.966,137.750 224.942 M189.806 224.614 C 188.769 224.960,187.981 225.304,188.055 225.378 C 188.299 225.622,192.285 224.548,192.285 224.239 C 192.285 223.836,192.019 223.876,189.806 224.614 M184.570 226.056 L 182.987 226.531 182.872 229.326 C 182.780 231.574,182.889 232.231,183.431 232.678 C 184.046 233.185,184.065 233.158,183.645 232.370 C 183.392 231.895,183.185 230.447,183.185 229.152 C 183.185 226.602,183.459 226.329,186.030 226.316 C 186.616 226.313,187.205 226.133,187.339 225.915 C 187.656 225.402,186.558 225.458,184.570 226.056 M135.813 229.483 C 135.138 231.002,134.655 232.245,134.741 232.245 C 135.145 232.245,137.427 227.108,137.147 226.827 C 137.088 226.769,136.488 227.964,135.813 229.483 M237.066 229.280 C 237.314 229.825,237.570 230.217,237.635 230.153 C 237.876 229.912,237.284 228.289,236.955 228.289 C 236.768 228.289,236.818 228.735,237.066 229.280 M237.986 231.454 C 238.454 233.051,239.020 233.805,238.728 232.443 C 238.588 231.790,238.298 231.078,238.084 230.861 C 237.829 230.601,237.795 230.804,237.986 231.454 M184.372 233.199 C 184.372 233.274,185.396 234.203,186.647 235.264 C 188.473 236.811,188.726 236.942,187.933 235.927 C 187.389 235.232,186.715 234.653,186.437 234.641 C 186.158 234.629,185.832 234.366,185.714 234.056 C 185.526 233.566,184.372 232.829,184.372 233.199 M242.889 238.795 C 243.629 239.116,244.321 239.292,244.427 239.186 C 244.649 238.965,242.716 238.172,242.012 238.196 C 241.754 238.204,242.149 238.474,242.889 238.795 M247.227 240.408 C 247.960 240.728,248.652 240.896,248.766 240.783 C 249.004 240.544,247.064 239.747,246.364 239.795 C 246.106 239.813,246.495 240.089,247.227 240.408 M200.780 268.447 C 200.780 282.374,200.829 288.014,200.890 280.980 C 200.951 273.947,200.951 262.552,200.890 255.659 C 200.829 248.766,200.780 254.520,200.780 268.447 M180.199 247.379 L 178.635 249.060 180.317 247.496 C 181.880 246.042,182.180 245.697,181.880 245.697 C 181.816 245.697,181.059 246.454,180.199 247.379 M188.897 252.918 L 187.735 254.204 189.021 253.042 C 190.219 251.959,190.488 251.632,190.183 251.632 C 190.115 251.632,189.536 252.211,188.897 252.918 M112.060 255.589 C 112.060 256.350,112.142 256.662,112.241 256.281 C 112.341 255.900,112.341 255.277,112.241 254.896 C 112.142 254.515,112.060 254.827,112.060 255.589 M185.559 256.182 C 184.598 257.161,183.901 257.962,184.009 257.962 C 184.118 257.962,184.993 257.161,185.955 256.182 C 186.916 255.203,187.613 254.402,187.504 254.402 C 187.395 254.402,186.520 255.203,185.559 256.182 M179.228 267.977 C 179.228 268.046,179.807 268.624,180.514 269.263 L 181.800 270.425 180.638 269.139 C 179.555 267.941,179.228 267.672,179.228 267.977 M181.636 272.357 L 180.681 273.591 181.813 272.514 C 182.436 271.923,182.866 271.367,182.768 271.281 C 182.671 271.194,182.162 271.678,181.636 272.357 M173.862 279.822 L 172.700 281.108 173.986 279.946 C 175.185 278.863,175.454 278.536,175.148 278.536 C 175.080 278.536,174.501 279.115,173.862 279.822 M186.362 306.022 C 184.747 307.648,183.505 309.031,183.602 309.095 C 183.699 309.160,185.101 307.829,186.718 306.139 C 190.469 302.219,190.221 302.137,186.362 306.022 M200.759 312.166 C 200.759 316.409,200.817 318.145,200.888 316.024 C 200.960 313.902,200.960 310.430,200.888 308.309 C 200.817 306.187,200.759 307.923,200.759 312.166 M170.771 308.423 C 170.635 308.776,170.542 309.452,170.565 309.924 C 170.590 310.466,170.725 310.273,170.930 309.399 C 171.276 307.929,171.182 307.352,170.771 308.423 M100.890 325.346 C 100.890 325.414,101.469 325.993,102.176 326.632 L 103.462 327.794 102.300 326.508 C 101.217 325.310,100.890 325.041,100.890 325.346 M189.307 329.674 L 186.548 332.542 189.416 329.783 C 192.081 327.221,192.466 326.805,192.175 326.805 C 192.115 326.805,190.824 328.096,189.307 329.674 M108.111 329.452 C 108.492 329.551,109.115 329.551,109.496 329.452 C 109.876 329.352,109.565 329.271,108.803 329.271 C 108.042 329.271,107.730 329.352,108.111 329.452 M171.811 335.312 C 171.815 336.182,171.896 336.491,171.991 335.999 C 172.086 335.507,172.082 334.795,171.983 334.417 C 171.884 334.038,171.807 334.441,171.811 335.312 M194.252 338.971 L 191.691 341.642 194.362 339.082 C 196.843 336.704,197.214 336.301,196.922 336.301 C 196.862 336.301,195.660 337.502,194.252 338.971 M187.933 338.403 C 187.933 338.471,188.511 339.049,189.219 339.689 L 190.504 340.851 189.342 339.565 C 188.259 338.366,187.933 338.097,187.933 338.403 M172.898 338.798 C 172.898 338.866,173.477 339.445,174.184 340.084 L 175.470 341.246 174.308 339.960 C 173.225 338.762,172.898 338.493,172.898 338.798 M182.987 348.170 C 184.279 349.476,185.425 350.544,185.534 350.544 C 185.643 350.544,184.675 349.476,183.383 348.170 C 182.091 346.864,180.945 345.796,180.836 345.796 C 180.727 345.796,181.695 346.864,182.987 348.170 M191.494 352.522 L 188.922 352.781 191.296 352.844 C 192.601 352.878,193.937 352.733,194.263 352.522 C 194.590 352.311,194.679 352.167,194.461 352.201 C 194.243 352.235,192.908 352.380,191.494 352.522 " stroke="none" fill="#9fa2a2" fill-rule="evenodd"></path></g></svg>