<svg id="svg" version="1.1" xmlns="http://www.w3.org/2000/svg" xmlns:xlink="http://www.w3.org/1999/xlink" width="200" height="200" viewBox="0, 0, 400,342.51851851851853"><g id="svgg"><path id="path0" d="M125.964 95.560 C 121.096 97.246,120.308 99.075,120.308 108.691 C 120.308 115.469,120.305 115.497,119.537 115.669 C 119.113 115.764,114.602 115.890,109.512 115.949 C 97.088 116.093,95.232 117.053,92.156 124.936 C 89.252 132.375,87.023 137.907,85.532 141.373 C 85.211 142.118,84.331 144.355,83.577 146.343 C 82.823 148.331,81.997 150.420,81.742 150.985 C 81.486 151.551,80.479 154.019,79.504 156.470 C 78.529 158.920,77.453 161.620,77.114 162.468 C 76.774 163.316,76.160 164.859,75.749 165.895 C 75.339 166.932,74.728 168.398,74.392 169.152 C 72.357 173.719,72.322 173.947,72.322 182.582 L 72.322 190.674 73.521 193.109 C 74.353 194.798,75.148 195.859,76.115 196.572 C 78.882 198.613,78.699 198.092,78.961 204.657 C 79.093 207.940,79.343 213.325,79.517 216.624 C 79.985 225.494,80.522 236.145,80.883 243.702 C 81.442 255.425,84.957 260.854,93.414 263.056 C 95.867 263.695,312.311 263.873,315.720 263.238 C 320.884 262.278,325.663 258.019,327.723 252.542 C 328.467 250.565,328.529 249.828,329.053 236.675 C 329.249 231.774,329.558 225.373,329.740 222.451 C 329.923 219.529,330.237 213.128,330.438 208.226 C 330.869 197.741,330.658 198.667,333.050 196.779 C 336.372 194.158,336.690 193.060,336.979 183.205 C 337.259 173.675,337.297 173.942,334.715 167.266 C 334.386 166.418,333.582 164.336,332.928 162.639 C 332.273 160.943,331.538 159.092,331.293 158.526 C 331.048 157.961,329.966 155.184,328.888 152.356 C 325.102 142.426,323.606 138.574,322.999 137.197 C 322.731 136.588,322.291 135.466,322.022 134.704 C 321.753 133.942,321.311 132.821,321.040 132.212 C 320.768 131.603,319.825 129.186,318.943 126.840 C 315.995 118.993,314.005 116.807,308.954 115.874 C 307.269 115.562,306.754 115.278,305.582 114.013 C 302.613 110.809,298.302 111.049,294.259 114.645 L 292.888 115.864 286.375 115.773 L 279.863 115.681 279.651 111.911 C 279.293 105.550,277.727 103.056,273.322 101.833 C 271.286 101.268,212.067 101.322,210.451 101.890 C 205.922 103.485,204.847 105.126,204.627 110.783 C 204.494 114.191,204.339 115.266,203.941 115.517 C 203.149 116.018,187.722 115.948,187.215 115.441 C 186.922 115.149,186.802 112.999,186.796 107.986 C 186.787 99.013,185.778 96.663,181.368 95.342 C 178.942 94.615,128.115 94.815,125.964 95.560 M180.265 101.316 L 181.320 102.203 181.320 122.567 L 181.320 142.931 153.556 142.931 L 125.793 142.931 125.793 122.891 L 125.793 102.852 126.856 101.640 L 127.920 100.428 153.565 100.428 L 179.210 100.428 180.265 101.316 M272.844 108.209 L 273.824 109.305 273.672 125.518 C 273.588 134.435,273.520 142.001,273.521 142.331 C 273.522 142.898,271.787 142.931,241.871 142.931 L 210.220 142.931 209.995 136.504 C 209.530 123.184,209.704 110.327,210.369 109.002 C 211.453 106.841,209.900 106.937,242.273 107.029 L 271.864 107.112 272.844 108.209 M136.425 110.751 C 134.413 111.554,133.100 113.820,133.712 115.435 C 135.312 119.659,141.560 118.697,141.560 114.227 C 141.560 111.545,138.917 109.757,136.425 110.751 M221.428 118.007 C 220.224 118.616,219.789 120.029,220.481 121.084 C 221.004 121.882,221.218 121.921,226.248 122.139 C 234.286 122.487,261.701 122.411,262.682 122.039 C 264.311 121.419,264.674 119.393,263.385 118.105 C 262.662 117.381,222.849 117.289,221.428 118.007 M300.874 118.663 C 301.608 119.397,301.373 121.264,300.473 121.853 C 299.597 122.427,298.345 125.317,296.233 131.639 L 294.979 135.390 292.734 135.378 C 291.236 135.371,290.032 135.146,289.117 134.704 C 287.655 133.998,286.917 133.859,286.844 134.276 C 286.820 134.417,286.704 136.307,286.587 138.475 L 286.375 142.416 283.290 142.416 L 280.206 142.416 280.034 132.134 C 279.940 126.478,279.997 121.658,280.162 121.422 C 280.378 121.114,281.831 120.994,285.372 120.994 C 290.089 120.994,292.239 120.687,294.944 119.629 C 297.996 118.435,300.275 118.064,300.874 118.663 M120.228 131.877 L 120.137 142.759 112.425 142.650 C 103.749 142.527,100.270 142.851,98.765 143.923 C 97.409 144.889,97.344 144.652,97.344 138.789 C 97.344 136.166,97.209 134.019,97.045 134.019 C 96.299 134.019,95.989 137.548,95.884 147.215 L 95.772 157.498 94.385 159.316 C 92.552 161.717,92.202 163.428,92.202 169.995 C 92.202 175.124,92.166 175.422,91.517 175.592 C 90.522 175.852,90.568 176.297,90.294 163.664 C 90.111 155.224,89.946 152.253,89.693 152.873 C 89.501 153.343,89.153 154.190,88.920 154.756 C 88.187 156.534,88.131 157.285,88.050 166.491 C 87.958 176.908,88.344 176.051,83.927 175.660 C 79.606 175.277,78.636 174.212,79.838 171.168 C 80.202 170.248,81.451 167.027,82.614 164.010 C 90.907 142.499,96.426 128.560,97.678 125.957 C 99.982 121.169,100.372 121.032,111.830 121.010 L 120.318 120.994 120.228 131.877 M204.325 121.422 C 204.498 123.269,204.166 142.135,203.956 142.355 C 203.734 142.588,187.810 142.720,187.639 142.490 C 187.609 142.450,187.486 137.746,187.367 132.037 L 187.148 121.657 187.919 121.347 C 189.186 120.838,204.276 120.907,204.325 121.422 M310.490 122.311 C 311.610 123.198,312.822 125.656,315.164 131.791 C 315.596 132.922,316.364 134.927,316.870 136.247 C 317.376 137.566,318.184 139.726,318.666 141.045 C 319.148 142.365,319.656 143.599,319.795 143.787 C 319.934 143.976,320.240 144.747,320.476 145.501 C 320.711 146.255,321.102 147.335,321.344 147.901 C 321.789 148.939,322.766 151.503,325.460 158.698 C 326.992 162.789,327.457 163.986,329.527 169.149 C 331.029 172.895,331.046 173.379,329.725 174.645 C 328.659 175.666,321.573 176.356,318.942 175.696 L 318.081 175.480 318.081 166.768 C 318.081 161.937,317.932 157.665,317.746 157.177 C 316.898 154.946,316.710 156.495,316.710 165.704 C 316.710 171.814,316.585 175.186,316.355 175.329 C 316.112 175.479,316.012 170.180,316.037 158.541 C 316.078 139.497,316.162 140.298,313.399 133.676 C 311.978 130.269,311.774 129.994,311.091 130.560 C 310.200 131.300,307.624 126.154,307.237 122.860 L 307.009 120.917 308.174 121.159 C 308.816 121.292,309.858 121.810,310.490 122.311 M136.418 125.691 C 134.262 126.476,133.156 129.229,134.210 131.187 C 135.355 133.313,137.313 133.837,139.507 132.604 C 143.874 130.150,141.117 123.981,136.418 125.691 M304.490 130.354 C 304.934 131.333,305.880 133.522,306.594 135.219 C 307.307 136.915,308.369 139.383,308.953 140.703 C 309.882 142.802,310.016 143.488,310.021 146.187 L 310.026 149.272 303.085 149.364 L 296.144 149.457 296.144 146.434 C 296.144 144.771,296.273 143.264,296.432 143.085 C 296.590 142.906,296.923 142.219,297.171 141.560 C 297.420 140.900,297.921 139.666,298.285 138.817 C 298.649 137.969,299.409 136.195,299.975 134.876 C 303.141 127.489,303.175 127.455,304.490 130.354 M220.550 130.747 C 219.464 131.834,219.484 132.815,220.616 133.864 L 221.523 134.704 242.013 134.704 L 262.504 134.704 263.214 133.801 C 264.111 132.661,264.120 131.472,263.239 130.591 C 262.569 129.921,262.097 129.906,241.972 129.906 L 221.391 129.906 220.550 130.747 M126.307 149.444 C 126.626 150.448,126.106 155.741,125.659 156.036 C 124.837 156.580,102.260 156.339,101.798 155.782 C 101.104 154.946,101.517 149.812,102.325 149.221 C 103.514 148.351,126.027 148.561,126.307 149.444 M165.190 160.840 C 165.179 167.485,165.061 173.539,164.927 174.293 L 164.684 175.664 158.006 175.664 L 151.328 175.664 151.134 169.323 C 150.785 157.918,149.032 156.137,138.132 156.114 L 132.134 156.102 132.036 152.430 L 131.939 148.757 148.575 148.757 L 165.210 148.757 165.190 160.840 M201.425 162.020 C 201.292 169.765,201.061 175.367,200.871 175.484 C 200.691 175.595,194.007 175.714,186.017 175.750 L 171.489 175.814 171.264 166.827 C 170.976 155.348,170.976 149.275,171.265 148.986 C 171.391 148.860,178.280 148.757,186.574 148.757 L 201.654 148.757 201.425 162.020 M238.218 162.069 L 238.218 175.381 223.261 175.612 C 212.607 175.776,208.175 175.735,207.853 175.467 C 207.493 175.168,207.395 172.395,207.377 161.924 L 207.355 148.757 222.786 148.757 L 238.218 148.757 238.218 162.069 M276.354 149.186 C 276.556 149.719,275.975 175.211,275.755 175.431 C 275.443 175.743,244.830 175.932,244.640 175.624 C 244.349 175.153,243.913 149.591,244.187 149.146 C 244.552 148.557,276.129 148.596,276.354 149.186 M290.740 154.927 C 290.691 158.226,290.558 164.203,290.445 168.209 L 290.241 175.493 286.392 175.493 L 282.543 175.493 282.317 166.697 C 282.193 161.859,282.091 155.839,282.091 153.319 L 282.091 148.737 286.461 148.833 L 290.831 148.929 290.740 154.927 M309.406 156.010 C 309.756 156.300,309.854 158.474,309.854 165.901 L 309.854 175.421 304.627 175.659 C 301.752 175.790,298.706 175.845,297.858 175.780 L 296.315 175.664 296.224 165.937 C 296.155 158.512,296.235 156.087,296.565 155.690 C 297.083 155.065,308.613 155.352,309.406 156.010 M143.560 162.267 C 145.203 163.117,145.359 163.843,145.254 170.180 L 145.159 176.007 121.680 176.007 L 98.201 176.007 98.096 170.865 C 97.969 164.583,98.258 163.309,99.976 162.591 C 102.022 161.737,102.189 162.002,102.073 165.920 C 101.957 169.847,102.427 170.694,104.723 170.694 C 107.323 170.694,107.969 169.611,107.969 165.256 C 107.969 163.118,108.100 162.130,108.398 162.009 C 109.546 161.546,142.634 161.789,143.560 162.267 M80.270 180.463 L 82.646 181.320 205.076 181.311 L 327.506 181.303 329.545 180.465 C 331.894 179.500,332.004 179.530,331.488 181.011 C 331.277 181.614,331.105 183.903,331.105 186.097 C 331.105 193.073,330.119 193.565,315.478 193.893 L 305.704 194.113 305.046 194.949 C 304.684 195.409,304.289 196.313,304.168 196.958 C 304.047 197.604,303.696 198.321,303.388 198.552 C 303.080 198.783,302.599 199.414,302.320 199.953 C 301.253 202.018,298.050 204.324,293.969 205.964 C 284.875 209.619,269.864 204.279,268.222 196.805 C 268.095 196.223,267.681 195.355,267.304 194.875 L 266.617 194.002 245.444 194.002 C 221.665 194.002,223.517 193.793,222.753 196.559 C 220.318 205.381,205.259 210.008,195.098 205.057 C 191.503 203.305,187.147 198.532,187.147 196.346 C 187.147 193.709,187.372 193.732,163.157 193.904 C 141.148 194.061,142.607 193.880,141.830 196.543 C 139.120 205.822,122.273 210.267,112.063 204.396 C 108.705 202.466,105.503 198.736,105.028 196.203 C 104.586 193.849,104.535 193.838,93.795 193.765 C 80.300 193.673,80.028 193.622,78.285 190.861 C 77.488 189.598,76.950 179.606,77.679 179.606 C 77.798 179.606,78.964 179.991,80.270 180.463 M101.059 201.581 C 103.327 206.333,109.088 210.763,114.379 211.824 C 115.472 212.044,117.013 212.365,117.804 212.538 C 129.030 215.000,142.136 209.787,146.193 201.247 L 147.192 199.143 153.945 199.143 C 157.659 199.143,160.942 199.237,161.240 199.351 C 161.867 199.592,161.969 213.076,161.555 241.228 L 161.328 256.689 158.287 256.694 C 156.432 256.697,155.326 256.571,155.450 256.370 C 155.562 256.189,156.300 256.031,157.090 256.019 C 158.297 256.001,158.403 255.948,157.755 255.688 C 157.331 255.517,156.984 255.235,156.984 255.062 C 156.984 254.871,146.185 254.751,129.820 254.759 C 114.880 254.767,103.312 254.836,104.113 254.912 C 106.400 255.132,105.881 255.777,103.525 255.643 C 101.696 255.539,101.470 255.599,101.383 256.213 C 101.217 257.376,94.870 257.737,92.832 256.699 C 87.157 253.809,86.642 252.360,85.897 237.189 C 85.596 231.063,85.195 223.350,85.005 220.051 C 84.073 203.801,83.910 200.151,84.096 199.668 C 84.269 199.217,85.400 199.146,92.106 199.162 L 99.914 199.182 101.059 201.581 M182.928 201.476 C 190.581 217.524,220.763 216.658,227.582 200.196 L 228.024 199.129 234.920 199.222 L 241.817 199.314 241.816 217.309 C 241.816 227.207,241.770 240.201,241.713 246.187 L 241.609 257.069 240.170 257.045 C 239.052 257.027,238.885 256.956,239.417 256.727 C 240.126 256.422,239.693 256.245,238.518 256.359 C 238.141 256.395,237.975 256.160,238.004 255.627 L 238.046 254.841 211.213 254.841 C 187.732 254.841,184.339 254.906,184.058 255.356 C 183.824 255.731,183.896 255.902,184.328 255.989 C 184.653 256.054,185.065 256.247,185.244 256.417 C 185.423 256.587,187.120 256.761,189.015 256.802 C 190.909 256.844,187.832 256.986,182.177 257.118 C 176.521 257.250,171.114 257.436,170.161 257.532 C 167.187 257.831,167.454 260.540,167.315 228.636 C 167.247 212.984,167.280 199.944,167.389 199.660 C 167.558 199.221,168.666 199.146,174.711 199.162 L 181.834 199.182 182.928 201.476 M263.028 200.000 C 268.027 209.097,274.671 212.853,285.762 212.853 C 296.852 212.853,304.857 208.880,308.620 201.508 L 309.739 199.314 313.310 199.204 C 315.274 199.144,318.786 199.199,321.115 199.326 L 325.348 199.559 325.133 201.322 C 324.818 203.911,323.820 222.442,323.054 239.931 C 322.820 245.275,322.244 249.871,321.809 249.871 C 321.644 249.871,321.508 250.191,321.508 250.581 C 321.508 251.568,320.601 252.382,319.749 252.160 C 319.247 252.028,318.619 252.365,317.581 253.322 L 316.119 254.670 284.195 254.670 C 256.865 254.670,252.271 254.740,252.271 255.156 C 252.271 255.424,252.177 255.886,252.063 256.184 C 251.921 256.554,252.057 256.738,252.491 256.761 C 253.804 256.831,251.415 257.344,249.614 257.378 L 247.815 257.412 247.815 228.506 C 247.815 212.608,247.921 199.494,248.050 199.365 C 248.705 198.710,262.644 199.301,263.028 200.000 M100.217 218.579 C 95.270 218.685,94.630 218.766,94.090 219.363 C 93.308 220.227,93.319 221.760,94.110 222.338 C 95.385 223.271,153.414 223.114,154.156 222.176 C 154.882 221.258,154.690 219.450,153.813 218.950 C 153.058 218.519,115.275 218.258,100.217 218.579 M181.163 218.571 C 176.285 218.715,175.493 219.018,175.493 220.737 C 175.493 222.775,174.637 222.695,198.972 222.931 C 234.018 223.271,236.838 222.986,233.847 219.410 C 233.248 218.693,196.718 218.111,181.163 218.571 M261.027 218.589 C 255.759 218.712,255.013 218.982,255.013 220.766 C 255.013 221.969,255.826 222.794,257.008 222.790 C 257.513 222.788,270.591 222.870,286.070 222.971 C 304.614 223.093,314.524 223.038,315.123 222.810 C 316.780 222.180,317.224 219.459,315.770 218.843 C 315.167 218.588,270.043 218.378,261.027 218.589 M103.141 230.431 C 101.592 231.620,101.619 233.473,103.197 234.290 C 104.966 235.205,143.584 235.019,144.580 234.091 C 145.803 232.951,145.557 231.170,144.067 230.386 C 142.964 229.805,103.900 229.848,103.141 230.431 M183.875 230.833 C 182.847 231.861,182.811 232.701,183.744 233.887 L 184.454 234.790 204.652 234.790 C 227.216 234.790,226.221 234.900,226.221 232.404 C 226.221 229.893,227.101 229.991,204.718 229.991 L 184.716 229.991 183.875 230.833 M264.241 230.993 C 263.019 232.215,262.985 232.853,264.080 233.949 L 264.922 234.790 285.443 234.790 L 305.964 234.790 306.710 233.997 C 307.746 232.894,307.698 231.258,306.610 230.545 C 305.857 230.051,303.578 229.991,285.504 229.991 L 265.243 229.991 264.241 230.993 M102.801 242.647 C 101.587 243.862,101.572 244.085,102.627 245.311 L 103.454 246.272 123.842 246.272 C 146.873 246.272,145.829 246.395,145.604 243.727 C 145.424 241.610,145.911 241.656,123.795 241.650 L 103.803 241.645 102.801 242.647 M184.279 242.356 C 183.164 243.233,183.082 244.701,184.097 245.620 C 184.952 246.393,223.799 246.847,225.195 246.100 C 227.144 245.057,227.097 242.394,225.121 241.865 C 222.626 241.197,185.181 241.647,184.279 242.356 M263.898 242.647 C 263.347 243.198,262.896 243.827,262.896 244.045 C 262.896 244.262,263.347 244.891,263.898 245.442 L 264.900 246.444 285.133 246.444 C 306.725 246.444,306.746 246.442,307.611 244.749 C 309.158 241.718,308.633 241.645,285.298 241.645 L 264.900 241.645 263.898 242.647 M225.278 256.632 C 224.666 256.708,223.663 256.708,223.051 256.632 C 222.438 256.556,222.939 256.494,224.165 256.494 C 225.390 256.494,225.891 256.556,225.278 256.632 " stroke="none" fill="#174054" fill-rule="evenodd"></path><path id="path2" d="M126.395 94.969 C 123.572 95.643,120.826 98.190,120.476 100.457 L 120.296 101.628 120.791 100.362 C 121.611 98.271,122.748 97.032,124.750 96.048 L 126.650 95.116 153.213 95.016 C 182.283 94.907,181.678 94.869,184.094 96.937 C 186.578 99.063,186.788 99.920,186.796 107.986 C 186.802 112.999,186.922 115.149,187.215 115.441 C 187.722 115.948,203.149 116.018,203.941 115.517 C 204.339 115.266,204.494 114.191,204.627 110.783 C 204.843 105.242,206.263 103.033,210.283 101.983 C 210.848 101.836,211.130 101.648,210.908 101.566 C 210.235 101.317,207.340 102.818,206.270 103.971 C 204.568 105.805,204.323 106.588,204.259 110.404 C 204.164 116.017,205.025 115.510,195.592 115.510 C 188.586 115.510,187.536 115.441,187.355 114.968 C 187.240 114.669,187.143 111.392,187.139 107.684 C 187.130 99.179,186.535 97.487,182.862 95.511 C 181.380 94.713,129.546 94.216,126.395 94.969 M126.856 101.640 L 125.793 102.852 125.793 122.891 C 125.793 141.750,125.828 142.930,126.392 142.925 C 126.830 142.922,126.874 142.845,126.556 142.643 C 126.208 142.423,126.138 138.279,126.213 122.396 L 126.307 102.425 127.268 101.598 L 128.230 100.771 153.762 100.771 L 179.294 100.771 180.136 101.613 L 180.977 102.454 180.977 122.492 C 180.977 138.202,180.884 142.568,180.548 142.704 C 180.292 142.807,180.361 142.887,180.720 142.904 C 181.285 142.929,181.320 141.743,181.320 122.567 L 181.320 102.203 180.265 101.316 L 179.210 100.428 153.565 100.428 L 127.920 100.428 126.856 101.640 M242.331 101.448 C 260.235 101.552,273.640 101.762,274.036 101.946 C 276.874 103.261,278.642 105.215,279.185 107.635 C 279.332 108.290,279.518 108.635,279.599 108.401 C 280.136 106.852,277.511 103.282,274.924 102.040 L 273.350 101.285 242.331 101.276 L 211.311 101.268 242.331 101.448 M119.962 108.483 L 119.794 115.338 110.139 115.510 C 104.829 115.604,100.356 115.819,100.199 115.988 C 100.033 116.166,100.397 116.202,101.071 116.073 C 101.707 115.952,106.103 115.850,110.840 115.847 C 115.576 115.844,119.648 115.718,119.887 115.565 C 120.222 115.353,120.301 113.697,120.226 108.458 L 120.129 101.628 119.962 108.483 M211.825 107.379 C 209.696 108.443,209.258 115.411,209.995 136.504 L 210.220 142.931 211.108 142.909 C 211.981 142.888,211.983 142.882,211.225 142.577 L 210.454 142.267 210.465 125.718 C 210.477 108.268,210.453 108.538,212.060 107.682 C 213.059 107.150,270.496 107.107,271.488 107.638 C 271.862 107.838,272.151 107.856,272.151 107.678 C 272.151 106.802,213.562 106.511,211.825 107.379 M272.504 108.226 C 272.510 108.368,272.742 108.783,273.019 109.149 C 273.295 109.515,273.545 110.286,273.573 110.862 C 273.622 111.866,273.631 111.871,273.765 110.991 C 273.842 110.485,273.661 109.598,273.362 109.020 C 272.842 108.013,272.481 107.680,272.504 108.226 M135.836 110.739 C 131.217 113.025,133.308 119.383,138.367 118.434 C 141.582 117.831,143.127 113.745,140.960 111.575 C 139.257 109.869,138.005 109.665,135.836 110.739 M139.298 110.846 C 142.456 112.166,142.382 116.285,139.174 117.731 C 135.041 119.596,131.609 114.679,134.940 111.665 C 136.324 110.412,137.659 110.162,139.298 110.846 M297.344 112.063 C 296.590 112.403,295.255 113.317,294.378 114.095 L 292.783 115.510 286.648 115.510 C 282.212 115.510,280.388 115.391,280.060 115.081 C 279.693 114.736,279.636 114.752,279.763 115.167 C 279.894 115.596,280.993 115.696,286.404 115.773 L 292.888 115.864 294.259 114.645 C 298.337 111.019,303.112 110.819,305.761 114.164 C 306.347 114.904,306.957 115.510,307.116 115.510 C 307.707 115.510,304.837 112.673,303.613 112.047 C 302.003 111.224,299.190 111.231,297.344 112.063 M149.786 113.348 C 148.402 113.843,147.984 115.700,149.042 116.656 C 150.050 117.569,173.753 117.514,174.583 116.597 C 175.392 115.702,175.299 114.282,174.388 113.644 C 173.631 113.113,151.198 112.844,149.786 113.348 M307.826 115.634 C 307.905 115.702,308.663 115.858,309.512 115.981 C 310.589 116.138,310.899 116.102,310.540 115.863 C 310.078 115.555,307.482 115.336,307.826 115.634 M97.686 117.082 C 95.060 118.579,93.023 121.211,92.039 124.379 C 91.865 124.938,91.905 125.120,92.166 124.958 C 92.374 124.829,92.545 124.454,92.545 124.124 C 92.545 122.297,95.824 118.335,98.286 117.186 C 99.648 116.550,100.087 116.190,99.486 116.200 C 99.344 116.202,98.535 116.599,97.686 117.082 M314.334 118.509 C 315.384 119.474,316.526 120.892,316.872 121.661 C 317.219 122.429,317.567 122.993,317.645 122.915 C 318.165 122.395,315.149 118.347,313.543 117.408 C 312.729 116.933,312.944 117.232,314.334 118.509 M298.715 118.485 C 297.220 118.819,293.710 120.045,293.848 120.184 C 293.930 120.265,294.672 120.107,295.498 119.832 C 300.032 118.325,300.943 118.372,300.943 120.116 C 300.943 120.914,300.726 121.337,300.165 121.637 C 299.386 122.054,296.498 128.660,296.913 129.075 C 297.017 129.179,297.374 128.448,297.705 127.450 C 298.725 124.380,299.815 122.214,300.567 121.762 C 301.063 121.464,301.285 120.982,301.285 120.203 C 301.285 118.481,300.644 118.053,298.715 118.485 M291.517 120.651 C 291.140 120.813,288.498 120.957,285.646 120.970 C 281.909 120.987,280.377 121.114,280.162 121.422 C 279.997 121.658,279.940 126.478,280.034 132.134 L 280.206 142.416 283.290 142.416 L 286.375 142.416 286.587 138.475 C 286.704 136.307,286.820 134.417,286.844 134.276 C 286.917 133.859,287.655 133.998,289.117 134.704 C 290.036 135.148,291.237 135.370,292.754 135.378 L 295.020 135.390 295.801 132.905 C 296.230 131.538,296.660 130.189,296.756 129.906 C 296.872 129.565,296.816 129.507,296.591 129.734 C 296.405 129.923,295.909 131.195,295.489 132.562 L 294.725 135.047 293.086 135.047 C 290.457 135.047,289.250 134.489,289.493 133.386 C 289.902 131.529,290.446 130.013,291.566 127.608 C 293.771 122.874,292.959 121.601,289.320 124.085 C 287.332 125.442,286.263 126.985,285.668 129.357 C 285.544 129.851,285.305 130.340,285.138 130.443 C 284.970 130.547,284.833 131.085,284.833 131.640 C 284.833 133.136,283.939 132.921,283.682 131.362 C 283.565 130.656,283.468 128.911,283.466 127.486 C 283.463 125.744,283.297 124.677,282.959 124.230 C 281.305 122.044,282.313 121.345,287.175 121.310 C 290.108 121.289,295.427 120.412,292.888 120.369 C 292.511 120.362,291.894 120.489,291.517 120.651 M102.548 121.285 C 102.112 121.408,105.876 121.454,110.914 121.389 L 120.073 121.269 119.850 124.131 C 119.727 125.705,119.626 128.419,119.625 130.163 L 119.623 133.333 110.748 133.333 C 100.436 133.333,101.457 133.845,101.457 128.678 C 101.457 122.331,99.729 124.655,94.937 137.446 C 94.337 139.049,92.926 142.751,91.801 145.673 C 90.676 148.595,89.168 152.605,88.449 154.584 C 87.730 156.564,86.117 160.763,84.866 163.916 C 83.614 167.070,82.341 170.771,82.036 172.143 C 81.368 175.155,81.475 175.016,80.411 174.241 C 79.327 173.451,79.326 173.346,80.394 170.718 C 80.875 169.536,81.213 168.405,81.147 168.205 C 81.034 167.866,79.661 171.372,79.288 172.953 C 78.967 174.310,80.807 175.384,83.927 175.660 C 88.344 176.051,87.958 176.908,88.050 166.491 C 88.131 157.285,88.187 156.534,88.920 154.756 C 89.153 154.190,89.501 153.343,89.693 152.873 C 89.946 152.253,90.111 155.224,90.294 163.664 C 90.568 176.297,90.522 175.852,91.517 175.592 C 92.166 175.422,92.202 175.124,92.202 169.995 C 92.202 163.428,92.552 161.717,94.385 159.316 L 95.772 157.498 95.884 147.215 C 95.989 137.548,96.299 134.019,97.045 134.019 C 97.209 134.019,97.344 136.166,97.344 138.789 C 97.344 144.652,97.409 144.889,98.765 143.923 C 100.270 142.851,103.749 142.527,112.425 142.650 L 120.137 142.759 120.228 131.877 L 120.318 120.994 111.830 121.028 C 107.162 121.047,102.985 121.163,102.548 121.285 M187.919 121.347 L 187.148 121.657 187.367 132.037 C 187.486 137.746,187.609 142.450,187.639 142.490 C 187.810 142.720,203.734 142.588,203.956 142.355 C 204.166 142.135,204.498 123.269,204.325 121.422 C 204.276 120.907,189.186 120.838,187.919 121.347 M307.237 122.860 C 307.624 126.154,310.200 131.300,311.091 130.560 C 311.774 129.994,311.978 130.269,313.399 133.676 C 316.162 140.298,316.078 139.497,316.037 158.541 C 316.012 170.180,316.112 175.479,316.355 175.329 C 316.585 175.186,316.710 171.814,316.710 165.704 C 316.710 156.495,316.898 154.946,317.746 157.177 C 317.932 157.665,318.081 161.927,318.081 166.738 C 318.081 176.912,317.470 175.881,323.452 175.813 L 327.673 175.765 327.456 174.858 C 327.337 174.359,326.953 172.871,326.603 171.551 C 326.253 170.231,325.575 167.532,325.097 165.553 C 324.126 161.531,323.739 160.340,322.207 156.666 C 321.623 155.266,320.080 150.947,318.779 147.069 C 313.921 132.591,313.591 131.782,310.629 127.046 C 309.878 125.845,309.767 125.782,309.366 126.329 C 308.966 126.876,308.905 126.841,308.678 125.936 C 308.541 125.390,308.294 124.859,308.129 124.758 C 307.171 124.165,307.363 121.680,308.367 121.680 C 310.717 121.680,311.237 122.613,316.388 136.075 C 317.362 138.620,318.668 142.014,319.291 143.616 C 319.913 145.219,320.516 146.822,320.631 147.178 C 320.745 147.535,320.914 147.752,321.006 147.660 C 321.185 147.482,320.425 145.132,319.643 143.445 C 319.381 142.879,318.858 141.568,318.481 140.531 C 318.103 139.494,317.379 137.566,316.872 136.247 C 316.365 134.927,315.596 132.922,315.164 131.791 C 311.954 123.381,310.859 121.715,308.174 121.159 L 307.009 120.917 307.237 122.860 M203.898 121.645 C 204.242 121.863,204.301 122.301,204.118 123.268 C 203.981 123.997,203.799 126.563,203.714 128.971 L 203.561 133.349 197.496 133.255 L 191.431 133.162 191.212 128.706 C 191.091 126.255,190.885 123.850,190.754 123.362 C 190.267 121.552,190.992 121.336,197.539 121.342 C 200.778 121.345,203.639 121.481,203.898 121.645 M100.588 122.006 C 100.204 122.161,99.684 122.537,99.432 122.841 C 98.921 123.456,99.199 123.590,99.843 123.039 C 100.071 122.844,100.566 122.463,100.943 122.193 C 101.712 121.641,101.614 121.590,100.588 122.006 M317.738 123.466 C 317.738 123.875,319.211 127.518,319.329 127.400 C 319.499 127.231,318.395 123.976,318.035 123.582 C 317.872 123.403,317.738 123.350,317.738 123.466 M97.495 126.280 C 96.848 127.679,94.533 133.422,92.350 139.041 C 90.167 144.661,87.682 151.006,86.828 153.142 C 85.973 155.278,85.339 157.089,85.417 157.168 C 85.556 157.307,86.445 155.179,88.785 149.100 C 89.402 147.498,90.172 145.570,90.495 144.816 C 90.819 144.062,91.968 141.131,93.049 138.303 C 96.070 130.401,97.781 126.221,98.768 124.336 C 98.940 124.006,98.989 123.736,98.876 123.736 C 98.763 123.736,98.141 124.881,97.495 126.280 M135.610 125.758 C 132.549 127.776,132.618 131.551,135.746 133.169 C 139.256 134.984,143.328 131.104,141.786 127.413 C 140.878 125.242,137.689 124.387,135.610 125.758 M89.176 131.532 C 87.827 134.879,86.257 138.759,85.686 140.154 C 85.116 141.548,84.705 142.745,84.773 142.814 C 84.841 142.882,85.168 142.280,85.500 141.477 C 85.831 140.674,86.460 139.169,86.898 138.132 C 88.950 133.270,91.884 125.703,91.763 125.581 C 91.688 125.507,90.524 128.185,89.176 131.532 M140.543 126.392 C 142.492 128.142,141.980 131.214,139.507 132.604 C 137.313 133.837,135.355 133.313,134.210 131.187 C 132.205 127.464,137.375 123.550,140.543 126.392 M319.452 127.993 C 319.452 128.235,320.421 130.802,321.044 132.212 C 321.313 132.821,321.743 133.901,322.000 134.611 C 322.928 137.182,323.244 137.881,323.405 137.721 C 323.495 137.631,322.796 135.611,321.853 133.234 C 320.909 130.856,320.137 128.758,320.137 128.572 C 320.137 128.385,319.983 128.137,319.794 128.021 C 319.606 127.904,319.452 127.892,319.452 127.993 M148.948 128.954 C 146.781 132.048,147.984 132.347,162.112 132.232 C 175.323 132.124,175.150 132.153,175.150 130.065 C 175.150 128.225,174.912 128.192,161.689 128.192 L 149.482 128.192 148.948 128.954 M302.006 130.317 C 301.454 131.505,300.540 133.556,299.975 134.876 C 299.409 136.195,298.649 137.969,298.285 138.817 C 297.921 139.666,297.420 140.900,297.171 141.560 C 296.923 142.219,296.590 142.906,296.432 143.085 C 296.075 143.488,296.046 149.443,296.401 149.444 C 296.542 149.444,296.607 148.289,296.545 146.877 C 296.426 144.163,297.117 142.022,300.417 134.876 C 301.026 133.556,301.721 131.975,301.961 131.362 C 302.472 130.055,302.908 129.938,303.183 131.032 C 303.291 131.463,303.706 131.965,304.105 132.146 C 304.504 132.328,305.015 133.016,305.241 133.676 C 305.466 134.336,306.057 135.714,306.553 136.739 C 307.049 137.764,307.455 138.729,307.455 138.883 C 307.455 139.037,307.853 139.973,308.339 140.961 C 309.154 142.618,309.937 147.309,309.579 148.385 C 309.510 148.591,308.585 148.768,307.512 148.782 C 306.444 148.795,305.261 148.942,304.884 149.108 C 304.433 149.308,305.192 149.387,307.112 149.341 L 310.026 149.272 310.021 146.187 C 310.016 143.488,309.882 142.802,308.953 140.703 C 308.369 139.383,307.307 136.915,306.594 135.219 C 303.293 127.368,303.349 127.428,302.006 130.317 M323.564 138.332 C 323.563 138.505,323.949 139.610,324.421 140.788 C 325.509 143.505,326.405 145.830,329.078 152.871 C 331.037 158.031,332.230 160.662,331.476 158.160 C 330.506 154.941,323.566 137.549,323.564 138.332 M135.133 142.844 C 138.856 142.900,144.949 142.900,148.672 142.844 C 152.395 142.789,149.349 142.744,141.902 142.744 C 134.456 142.744,131.410 142.789,135.133 142.844 M82.981 146.967 C 82.173 148.989,81.380 150.951,81.219 151.328 C 81.058 151.705,80.283 153.633,79.497 155.613 C 78.711 157.592,77.867 159.674,77.622 160.240 C 76.978 161.728,75.748 165.009,75.760 165.210 C 75.781 165.549,76.554 164.021,77.136 162.489 C 78.146 159.834,81.252 152.070,81.738 150.985 C 82.633 148.989,84.673 143.513,84.562 143.403 C 84.501 143.341,83.790 144.945,82.981 146.967 M321.324 148.800 C 321.550 149.594,323.237 154.066,324.088 156.127 C 324.322 156.692,324.675 157.618,324.874 158.183 C 325.073 158.749,326.084 161.371,327.120 164.010 C 328.157 166.650,329.173 169.254,329.379 169.799 C 329.585 170.344,329.825 170.717,329.913 170.630 C 330.001 170.542,329.672 169.479,329.183 168.268 C 327.467 164.019,326.919 162.613,325.791 159.554 C 325.165 157.858,324.022 154.859,323.252 152.890 C 322.481 150.921,321.851 149.118,321.851 148.883 C 321.851 148.648,321.680 148.350,321.471 148.221 C 321.213 148.061,321.166 148.246,321.324 148.800 M102.325 149.221 C 101.517 149.812,101.104 154.946,101.798 155.782 C 102.260 156.339,124.837 156.580,125.659 156.036 C 126.106 155.741,126.626 150.448,126.307 149.444 C 126.027 148.561,103.514 148.351,102.325 149.221 M132.036 152.430 L 132.134 156.102 138.132 156.114 C 149.032 156.137,150.785 157.918,151.134 169.323 L 151.328 175.664 158.006 175.664 L 164.684 175.664 164.927 174.293 C 165.061 173.539,165.179 167.485,165.190 160.840 L 165.210 148.757 148.575 148.757 L 131.939 148.757 132.036 152.430 M171.265 148.986 C 170.976 149.275,170.976 155.348,171.264 166.827 L 171.489 175.814 186.017 175.750 C 194.007 175.714,200.691 175.595,200.871 175.484 C 201.061 175.367,201.292 169.765,201.425 162.020 L 201.654 148.757 186.574 148.757 C 178.280 148.757,171.391 148.860,171.265 148.986 M207.377 161.924 C 207.395 172.395,207.493 175.168,207.853 175.467 C 208.175 175.735,212.607 175.776,223.261 175.612 L 238.218 175.381 238.218 162.069 L 238.218 148.757 222.786 148.757 L 207.355 148.757 207.377 161.924 M244.187 149.146 C 243.913 149.591,244.349 175.153,244.640 175.624 C 244.830 175.932,275.443 175.743,275.755 175.431 C 275.975 175.211,276.556 149.719,276.354 149.186 C 276.129 148.596,244.552 148.557,244.187 149.146 M282.091 153.319 C 282.091 155.839,282.193 161.859,282.317 166.697 L 282.543 175.493 286.392 175.493 L 290.241 175.493 290.445 168.209 C 290.558 164.203,290.691 158.226,290.740 154.927 L 290.831 148.929 286.461 148.833 L 282.091 148.737 282.091 153.319 M125.973 149.458 C 126.095 149.655,126.087 151.108,125.955 152.687 L 125.716 155.558 114.015 155.674 C 107.579 155.738,102.263 155.764,102.201 155.732 C 101.823 155.535,102.041 150.149,102.448 149.659 C 103.009 148.983,125.561 148.790,125.973 149.458 M164.862 155.870 C 164.859 159.593,164.732 162.836,164.580 163.075 C 164.368 163.409,162.782 163.490,157.846 163.418 L 151.390 163.325 151.016 162.054 C 150.408 159.986,148.709 157.931,146.680 156.812 L 144.816 155.784 138.646 155.747 L 132.476 155.710 132.378 152.405 L 132.280 149.100 148.574 149.100 L 164.867 149.100 164.862 155.870 M201.081 151.928 C 200.960 153.483,200.860 156.722,200.859 159.126 L 200.857 163.496 186.118 163.496 L 171.380 163.496 171.380 156.298 L 171.380 149.100 186.340 149.100 L 201.301 149.100 201.081 151.928 M237.796 156.213 L 237.704 163.325 222.708 163.414 L 207.712 163.503 207.712 156.302 L 207.712 149.100 222.800 149.100 L 237.889 149.100 237.796 156.213 M275.952 149.614 C 275.969 149.897,275.983 150.591,275.983 151.157 C 275.983 151.722,275.969 154.732,275.952 157.844 L 275.921 163.503 260.240 163.414 L 244.559 163.325 244.466 156.213 L 244.373 149.100 260.147 149.100 C 273.926 149.100,275.925 149.165,275.952 149.614 M290.317 156.298 L 290.317 163.496 286.547 163.496 L 282.776 163.496 282.775 159.640 C 282.774 157.519,282.673 154.280,282.552 152.442 L 282.330 149.100 286.324 149.100 L 290.317 149.100 290.317 156.298 M296.523 155.740 C 296.247 156.073,296.160 159.047,296.224 165.937 L 296.315 175.664 297.604 175.700 L 298.892 175.736 297.689 175.594 L 296.487 175.451 296.492 165.960 C 296.498 155.922,296.517 155.772,297.858 155.523 L 298.715 155.363 297.814 155.317 C 297.319 155.291,296.738 155.481,296.523 155.740 M85.003 157.698 C 85.002 157.776,84.537 158.982,83.969 160.376 C 83.400 161.771,83.011 162.988,83.103 163.080 C 83.196 163.173,83.443 162.803,83.653 162.258 C 83.862 161.714,84.326 160.506,84.682 159.575 C 85.039 158.643,85.257 157.808,85.168 157.718 C 85.078 157.628,85.004 157.619,85.003 157.698 M331.791 159.515 C 331.791 159.976,333.949 165.223,334.083 165.088 C 334.157 165.014,333.735 163.739,333.146 162.254 C 332.109 159.642,331.791 158.999,331.791 159.515 M108.398 162.009 C 107.194 162.495,108.325 162.633,111.457 162.383 C 113.375 162.229,121.332 162.147,129.139 162.200 L 143.333 162.296 144.160 163.258 C 144.996 164.230,145.498 174.812,144.730 175.259 C 144.589 175.341,134.139 175.466,121.508 175.536 L 98.543 175.664 98.448 170.531 C 98.347 165.105,98.579 163.870,99.866 162.968 C 100.259 162.693,100.392 162.468,100.162 162.468 C 98.452 162.468,97.965 164.490,98.099 171.037 L 98.201 176.007 121.680 176.007 L 145.159 176.007 145.254 170.180 C 145.359 163.843,145.203 163.117,143.560 162.267 C 142.634 161.789,109.546 161.546,108.398 162.009 M101.186 162.523 C 101.575 162.827,101.816 163.616,101.903 164.867 C 102.021 166.566,102.031 166.533,102.002 164.528 C 101.975 162.585,101.884 162.288,101.285 162.183 C 100.652 162.073,100.645 162.099,101.186 162.523 M82.166 164.934 C 81.882 165.746,81.533 166.718,81.391 167.095 C 81.213 167.569,81.244 167.675,81.493 167.438 C 81.916 167.034,83.036 163.813,82.826 163.603 C 82.747 163.524,82.450 164.123,82.166 164.934 M108.067 166.752 C 108.070 167.695,108.136 168.040,108.215 167.519 C 108.294 166.998,108.292 166.227,108.210 165.805 C 108.129 165.383,108.065 165.810,108.067 166.752 M75.174 166.153 C 75.058 166.482,74.752 167.277,74.495 167.919 C 74.238 168.561,74.097 169.156,74.183 169.241 C 74.335 169.393,75.089 167.779,75.561 166.294 C 75.840 165.414,75.481 165.283,75.174 166.153 M334.201 165.895 C 334.201 166.178,334.350 166.641,334.533 166.924 C 334.828 167.381,334.865 167.381,334.865 166.924 C 334.865 166.641,334.716 166.178,334.533 165.895 C 334.238 165.438,334.201 165.438,334.201 165.895 M335.046 168.123 C 335.195 168.500,335.546 169.470,335.826 170.278 C 336.107 171.086,336.415 171.668,336.512 171.571 C 336.733 171.351,335.594 168.245,335.123 167.781 C 334.888 167.549,334.863 167.661,335.046 168.123 M101.821 169.218 C 101.769 171.026,105.775 171.786,107.224 170.244 C 107.634 169.807,107.964 169.229,107.959 168.958 C 107.952 168.642,107.814 168.711,107.573 169.152 C 106.434 171.235,102.975 171.275,102.145 169.215 L 101.843 168.466 101.821 169.218 M73.556 170.045 C 73.472 170.308,73.060 171.448,72.640 172.579 C 71.410 175.895,71.426 189.077,72.665 192.267 C 73.538 194.516,76.583 198.115,77.612 198.115 C 77.963 198.115,78.141 198.857,78.292 200.943 C 78.660 206.017,78.724 206.220,78.780 202.485 C 78.840 198.408,78.958 198.669,76.115 196.572 C 75.148 195.859,74.353 194.798,73.521 193.109 L 72.322 190.674 72.322 182.577 C 72.322 174.765,72.352 174.400,73.184 172.192 C 73.657 170.933,73.969 169.828,73.877 169.735 C 73.785 169.643,73.641 169.783,73.556 170.045 M330.269 171.783 C 330.580 173.123,330.159 174.082,328.933 174.830 C 328.331 175.196,328.087 175.491,328.385 175.491 C 329.883 175.495,331.274 172.664,330.404 171.380 C 330.144 170.996,330.110 171.098,330.269 171.783 M336.811 173.093 C 337.082 174.572,337.277 174.850,337.270 173.750 C 337.267 173.295,337.113 172.691,336.928 172.408 C 336.690 172.046,336.656 172.249,336.811 173.093 M336.932 184.747 C 336.727 192.773,336.294 194.137,333.131 196.747 C 330.684 198.766,330.766 198.595,330.819 201.542 C 330.864 204.045,330.905 203.939,331.294 200.329 C 331.460 198.784,331.640 198.475,332.997 197.415 C 336.605 194.596,337.322 192.341,337.198 184.206 L 337.104 178.063 336.932 184.747 M77.464 184.583 C 77.464 190.443,78.746 193.354,81.308 193.308 C 81.550 193.304,81.186 192.975,80.500 192.577 C 78.249 191.272,77.806 189.963,77.806 184.615 C 77.806 182.048,77.922 179.954,78.063 179.961 C 78.205 179.967,78.706 180.193,79.177 180.463 C 79.649 180.732,80.343 180.951,80.720 180.949 C 81.097 180.947,80.634 180.644,79.692 180.276 C 78.749 179.908,77.862 179.606,77.721 179.606 C 77.579 179.606,77.464 181.845,77.464 184.583 M329.392 180.491 L 327.506 181.300 204.574 181.224 C 136.962 181.182,81.820 181.262,82.038 181.400 C 83.142 182.103,327.269 181.685,329.131 180.977 C 331.305 180.151,331.105 180.154,331.105 180.948 C 331.105 182.939,327.007 185.004,322.296 185.387 L 319.623 185.604 319.526 189.460 L 319.429 193.316 313.260 193.316 C 305.330 193.316,304.362 193.680,303.697 196.915 L 303.485 197.943 286.492 198.032 C 267.827 198.130,269.137 198.286,268.451 195.887 C 267.733 193.378,268.813 193.500,246.272 193.381 C 232.122 193.307,225.659 193.390,224.748 193.657 C 223.357 194.065,222.112 195.626,222.109 196.964 C 222.107 198.107,221.992 198.115,204.604 198.115 L 188.185 198.115 187.803 196.601 C 187.594 195.768,187.039 194.727,186.571 194.287 L 185.721 193.488 165.097 193.398 C 141.351 193.295,142.562 193.150,141.462 196.230 L 140.850 197.943 123.550 198.002 C 104.557 198.067,105.570 198.174,105.570 196.100 C 105.570 195.721,105.198 194.978,104.743 194.449 L 103.916 193.488 93.701 193.226 C 87.525 193.068,83.143 193.092,82.617 193.285 C 81.988 193.517,82.883 193.616,85.861 193.647 C 106.021 193.853,104.550 193.657,105.028 196.203 C 107.641 210.133,137.781 210.411,141.830 196.543 C 142.607 193.880,141.148 194.061,163.157 193.904 C 187.372 193.732,187.147 193.709,187.147 196.346 C 187.147 198.532,191.503 203.305,195.098 205.057 C 205.259 210.008,220.318 205.381,222.753 196.559 C 223.517 193.793,221.665 194.002,245.444 194.002 L 266.617 194.002 267.304 194.875 C 267.681 195.355,268.095 196.223,268.222 196.805 C 269.864 204.279,284.875 209.619,293.969 205.964 C 298.050 204.324,301.253 202.018,302.320 199.953 C 302.599 199.414,303.080 198.783,303.388 198.552 C 303.696 198.321,304.047 197.604,304.168 196.958 C 304.289 196.313,304.684 195.409,305.046 194.949 L 305.704 194.113 315.478 193.893 C 330.261 193.562,330.957 193.197,331.197 185.648 C 331.276 183.173,331.460 180.801,331.606 180.377 C 331.924 179.451,331.803 179.457,329.392 180.491 M87.918 186.118 C 88.034 186.307,88.352 186.461,88.623 186.461 C 88.895 186.461,89.117 186.307,89.117 186.118 C 89.117 185.930,88.800 185.775,88.412 185.775 C 88.023 185.775,87.801 185.930,87.918 186.118 M84.105 199.644 C 83.999 199.920,84.070 202.349,84.263 205.043 L 84.614 209.940 84.458 204.713 L 84.303 199.486 92.000 199.486 C 99.681 199.486,99.697 199.487,99.941 200.257 C 101.783 206.078,109.859 212.000,116.846 212.654 C 118.962 212.852,118.215 212.601,114.379 211.827 C 109.080 210.757,103.326 206.331,101.059 201.581 L 99.914 199.182 92.106 199.162 C 85.558 199.146,84.266 199.224,84.105 199.644 M146.193 201.247 C 144.581 204.640,140.538 208.594,136.990 210.244 C 136.268 210.580,135.752 210.930,135.843 211.021 C 137.027 212.206,144.572 205.404,146.543 201.374 L 147.467 199.486 152.880 199.486 L 158.292 199.486 158.149 209.683 C 157.872 229.447,157.754 230.810,156.341 230.541 C 152.956 229.898,151.910 229.922,151.680 230.649 C 151.496 231.229,151.172 231.362,149.950 231.362 C 148.119 231.362,146.888 231.883,146.416 232.858 C 146.111 233.488,146.059 233.387,146.039 232.129 C 145.992 229.207,146.797 229.309,123.789 229.307 C 101.765 229.306,102.336 229.252,101.379 231.415 C 101.153 231.924,100.840 232.262,100.683 232.165 C 100.527 232.068,100.186 232.166,99.925 232.382 C 99.651 232.609,98.973 232.687,98.312 232.567 C 97.514 232.422,96.765 232.570,95.814 233.061 C 95.068 233.446,94.124 233.762,93.718 233.762 C 93.312 233.762,92.588 234.070,92.109 234.447 C 91.629 234.824,91.092 235.133,90.915 235.133 C 90.576 235.133,90.150 240.941,90.147 245.610 C 90.145 249.922,91.357 252.787,94.561 256.041 C 95.429 256.923,94.044 256.900,92.302 256.004 C 87.910 253.745,86.897 251.105,86.397 240.617 C 85.716 226.317,85.530 223.322,85.406 224.679 C 85.168 227.270,86.428 248.276,86.926 250.028 C 87.776 253.018,89.559 255.032,92.832 256.699 C 94.870 257.737,101.217 257.376,101.383 256.213 C 101.470 255.599,101.696 255.539,103.525 255.643 C 105.881 255.777,106.400 255.132,104.113 254.912 C 103.312 254.836,114.880 254.767,129.820 254.759 C 146.185 254.751,156.984 254.871,156.984 255.062 C 156.984 255.235,157.331 255.517,157.755 255.688 C 158.403 255.948,158.297 256.001,157.090 256.019 C 156.300 256.031,155.562 256.189,155.450 256.370 C 155.326 256.571,156.432 256.697,158.287 256.694 L 161.328 256.689 161.555 241.228 C 161.969 213.076,161.867 199.592,161.240 199.351 C 160.942 199.237,157.659 199.143,153.945 199.143 L 147.192 199.143 146.193 201.247 M167.389 199.660 C 167.280 199.944,167.247 212.984,167.315 228.636 C 167.454 260.540,167.187 257.831,170.161 257.532 C 171.114 257.436,176.521 257.250,182.177 257.118 C 187.832 256.986,190.909 256.844,189.015 256.802 C 187.120 256.761,185.423 256.587,185.244 256.417 C 185.065 256.247,184.653 256.054,184.328 255.989 C 183.896 255.902,183.824 255.731,184.058 255.356 C 184.339 254.906,187.732 254.841,211.213 254.841 L 238.046 254.841 238.004 255.627 C 237.975 256.160,238.141 256.395,238.518 256.359 C 239.693 256.245,240.126 256.422,239.417 256.727 C 238.885 256.956,239.052 257.027,240.170 257.045 L 241.609 257.069 241.713 246.187 C 241.770 240.201,241.816 227.207,241.816 217.309 L 241.817 199.314 234.920 199.222 L 228.024 199.129 227.582 200.196 C 225.124 206.131,219.334 210.652,212.213 212.196 C 209.512 212.782,209.433 212.821,211.311 212.639 C 217.576 212.033,224.361 207.410,227.227 201.793 L 228.404 199.486 233.444 199.486 L 238.484 199.486 238.339 208.312 C 238.180 218.052,237.668 227.849,237.262 228.947 C 237.025 229.588,236.671 229.666,233.551 229.765 C 231.022 229.846,229.884 230.028,229.285 230.447 C 228.338 231.111,227.786 231.195,228.140 230.623 C 228.309 230.349,228.147 230.288,227.615 230.428 C 227.148 230.550,226.418 230.369,225.762 229.969 C 224.725 229.337,223.822 229.308,204.799 229.308 C 182.801 229.308,183.054 229.283,182.489 231.532 C 182.315 232.226,182.171 232.328,181.801 232.021 C 181.452 231.732,180.762 231.732,179.096 232.022 C 177.489 232.302,176.664 232.308,176.168 232.043 C 175.394 231.628,174.807 231.852,174.807 232.561 C 174.807 232.841,174.361 233.076,173.706 233.140 C 171.886 233.318,171.663 234.667,171.468 246.701 L 171.300 257.069 169.665 257.069 L 168.029 257.069 167.798 249.100 C 167.671 244.717,167.615 231.799,167.674 220.394 L 167.781 199.657 174.644 199.565 L 181.508 199.472 182.512 201.621 C 185.118 207.203,194.951 213.681,199.442 212.775 C 199.749 212.713,198.766 212.416,197.258 212.113 C 190.824 210.825,185.502 206.874,182.928 201.476 L 181.834 199.182 174.711 199.162 C 168.666 199.146,167.558 199.221,167.389 199.660 M248.050 199.365 C 247.921 199.494,247.815 212.608,247.815 228.506 L 247.815 257.412 249.614 257.378 C 251.415 257.344,253.804 256.831,252.491 256.761 C 252.057 256.738,251.921 256.554,252.063 256.184 C 252.177 255.886,252.271 255.424,252.271 255.156 C 252.271 254.740,256.865 254.670,284.195 254.670 L 316.119 254.670 317.581 253.322 C 318.619 252.365,319.247 252.028,319.749 252.160 C 320.601 252.382,321.508 251.568,321.508 250.581 C 321.508 250.191,321.644 249.871,321.809 249.871 C 322.244 249.871,322.820 245.275,323.054 239.931 C 323.820 222.442,324.818 203.911,325.133 201.322 L 325.348 199.559 321.115 199.326 C 318.786 199.199,315.274 199.144,313.310 199.204 L 309.739 199.314 308.620 201.508 C 305.969 206.701,300.363 210.728,293.745 212.193 C 291.011 212.798,290.958 212.826,292.888 212.642 C 298.966 212.063,306.419 206.964,308.997 201.619 L 310.026 199.487 315.281 199.487 L 320.536 199.486 320.365 201.971 C 320.271 203.338,320.035 208.653,319.842 213.783 C 319.459 223.937,319.382 224.316,317.680 224.440 C 316.113 224.555,315.293 224.842,315.514 225.199 C 315.730 225.549,313.538 226.216,312.165 226.219 C 311.644 226.220,310.955 226.530,310.632 226.907 C 310.309 227.284,309.669 227.592,309.211 227.592 C 308.752 227.592,307.877 227.973,307.266 228.439 L 306.156 229.286 285.695 229.301 C 272.928 229.310,264.996 229.442,264.601 229.653 C 264.254 229.839,262.715 229.991,261.183 229.991 C 259.650 229.991,258.123 230.137,257.791 230.315 C 257.458 230.493,255.926 230.669,254.386 230.706 C 252.846 230.743,251.583 230.867,251.580 230.982 C 251.020 253.397,250.760 256.638,249.531 256.457 L 248.582 256.318 248.346 235.700 C 248.216 224.360,248.159 211.611,248.219 207.369 L 248.329 199.657 255.365 199.565 L 262.402 199.472 263.357 201.279 C 266.496 207.212,273.100 211.955,279.177 212.641 C 280.633 212.806,280.504 212.736,278.320 212.182 C 271.116 210.352,266.849 206.953,263.028 200.000 C 262.644 199.301,248.705 198.710,248.050 199.365 M330.303 211.080 C 330.145 214.912,330.090 218.122,330.182 218.214 C 330.444 218.476,330.826 210.257,330.703 207.027 C 330.624 204.977,330.506 206.178,330.303 211.080 M79.070 213.368 C 79.172 217.138,79.374 221.302,79.518 222.622 C 79.832 225.491,79.573 216.807,79.160 210.626 C 78.952 207.514,78.930 208.181,79.070 213.368 M84.761 214.053 C 84.753 215.938,84.857 218.560,84.993 219.880 L 85.239 222.279 85.253 219.880 C 85.260 218.560,85.156 215.938,85.021 214.053 L 84.775 210.626 84.761 214.053 M134.019 211.529 C 133.548 211.720,132.159 212.077,130.934 212.324 C 129.709 212.571,129.082 212.791,129.541 212.813 C 130.587 212.864,134.763 211.853,135.201 211.444 C 135.628 211.046,135.126 211.082,134.019 211.529 M121.765 213.108 C 123.038 213.174,125.120 213.174,126.392 213.108 C 127.665 213.042,126.624 212.988,124.079 212.988 C 121.534 212.988,120.493 213.042,121.765 213.108 M202.828 213.107 C 204.006 213.174,205.934 213.174,207.112 213.107 C 208.290 213.040,207.326 212.986,204.970 212.986 C 202.614 212.986,201.650 213.040,202.828 213.107 M283.905 213.108 C 285.185 213.174,287.190 213.174,288.360 213.107 C 289.531 213.040,288.483 212.986,286.033 212.987 C 283.582 212.987,282.624 213.042,283.905 213.108 M93.942 218.882 C 92.647 219.972,92.499 221.650,93.609 222.655 C 94.307 223.286,95.307 223.308,124.103 223.308 C 157.637 223.308,155.083 223.522,155.083 220.707 C 155.083 217.814,157.332 218.011,124.191 218.002 L 94.997 217.995 93.942 218.882 M176.024 218.807 C 174.805 219.783,174.628 221.635,175.657 222.664 C 176.670 223.677,232.949 223.668,234.069 222.655 C 235.151 221.675,235.057 219.626,233.887 218.705 C 232.990 218.000,232.793 217.995,205.009 217.997 L 177.035 217.998 176.024 218.807 M255.641 218.519 C 253.987 219.417,254.078 222.456,255.778 223.101 C 256.205 223.263,269.801 223.453,285.989 223.523 L 315.423 223.650 316.409 222.747 C 317.654 221.607,317.722 220.097,316.585 218.869 L 315.774 217.995 286.165 218.009 C 260.976 218.020,256.419 218.096,255.641 218.519 M153.813 218.950 C 154.690 219.450,154.882 221.258,154.156 222.176 C 153.414 223.114,95.385 223.271,94.110 222.338 C 93.319 221.760,93.308 220.227,94.090 219.363 C 94.858 218.514,97.355 218.452,129.392 218.486 C 147.969 218.505,153.207 218.605,153.813 218.950 M233.847 219.410 C 236.838 222.986,234.018 223.271,198.972 222.931 C 174.637 222.695,175.493 222.775,175.493 220.737 C 175.493 218.352,175.012 218.383,209.426 218.566 C 233.102 218.692,233.251 218.697,233.847 219.410 M315.770 218.843 C 317.224 219.459,316.780 222.180,315.123 222.810 C 314.524 223.038,304.614 223.093,286.070 222.971 C 270.591 222.870,257.513 222.788,257.008 222.790 C 255.826 222.794,255.013 221.969,255.013 220.766 C 255.013 218.982,255.759 218.712,261.027 218.589 C 270.043 218.378,315.167 218.588,315.770 218.843 M329.570 224.915 C 329.439 227.424,329.384 230.249,329.448 231.191 C 329.511 232.134,329.693 230.156,329.852 226.796 C 330.011 223.436,330.066 220.612,329.974 220.520 C 329.882 220.428,329.700 222.405,329.570 224.915 M79.899 229.334 C 79.919 231.675,80.056 234.979,80.203 236.675 C 80.374 238.644,80.407 237.156,80.294 232.562 C 80.197 228.603,80.061 225.300,79.991 225.221 C 79.920 225.143,79.879 226.994,79.899 229.334 M144.067 230.386 C 145.557 231.170,145.803 232.951,144.580 234.091 C 143.584 235.019,104.966 235.205,103.197 234.290 C 101.619 233.473,101.592 231.620,103.141 230.431 C 103.900 229.848,142.964 229.805,144.067 230.386 M225.471 230.690 C 226.417 231.572,226.448 233.192,225.536 234.105 C 224.866 234.775,224.393 234.790,204.652 234.790 L 184.454 234.790 183.744 233.887 C 182.811 232.701,182.847 231.861,183.875 230.833 L 184.716 229.991 204.718 229.991 C 224.374 229.991,224.734 230.004,225.471 230.690 M306.610 230.545 C 307.698 231.258,307.746 232.894,306.710 233.997 L 305.964 234.790 285.443 234.790 L 264.922 234.790 264.080 233.949 C 262.985 232.853,263.019 232.215,264.241 230.993 L 265.243 229.991 285.504 229.991 C 303.578 229.991,305.857 230.051,306.610 230.545 M328.911 240.189 C 328.794 244.100,328.629 248.149,328.546 249.186 C 328.438 250.516,328.484 250.850,328.703 250.318 C 329.039 249.503,329.617 233.076,329.310 233.076 C 329.208 233.076,329.028 236.277,328.911 240.189 M80.601 244.194 C 80.519 251.100,81.645 254.600,85.192 258.458 C 87.447 260.911,87.433 260.780,85.433 260.675 C 83.105 260.553,78.871 261.148,77.649 261.768 C 73.333 263.960,73.192 269.216,77.403 270.975 C 79.112 271.690,331.317 271.627,332.991 270.912 C 340.272 267.803,336.291 261.043,326.907 260.581 C 323.005 260.389,322.799 260.297,323.949 259.265 C 325.799 257.603,328.861 251.969,328.247 251.355 C 328.141 251.249,327.947 251.604,327.817 252.145 C 326.633 257.051,320.962 262.251,315.720 263.235 C 312.327 263.872,95.878 263.698,93.414 263.056 C 85.364 260.960,81.426 255.292,80.918 245.073 L 80.654 239.760 80.601 244.194 M144.644 242.087 C 145.830 242.683,146.012 244.660,144.968 245.604 C 144.254 246.251,143.570 246.272,123.842 246.272 L 103.454 246.272 102.627 245.311 C 101.572 244.085,101.587 243.862,102.801 242.647 L 103.803 241.645 123.795 241.650 C 139.168 241.654,143.985 241.755,144.644 242.087 M225.121 241.865 C 227.097 242.394,227.144 245.057,225.195 246.100 C 223.799 246.847,184.952 246.393,184.097 245.620 C 183.082 244.701,183.164 243.233,184.279 242.356 C 185.181 241.647,222.626 241.197,225.121 241.865 M306.585 241.983 C 308.408 242.676,308.213 245.147,306.265 246.034 C 305.601 246.337,300.090 246.444,285.133 246.444 L 264.900 246.444 263.898 245.442 C 263.347 244.891,262.896 244.262,262.896 244.045 C 262.896 243.827,263.347 243.198,263.898 242.647 L 264.900 241.645 285.298 241.645 C 297.867 241.645,306.038 241.775,306.585 241.983 M223.051 256.632 C 223.663 256.708,224.666 256.708,225.278 256.632 C 225.891 256.556,225.390 256.494,224.165 256.494 C 222.939 256.494,222.438 256.556,223.051 256.632 M96.760 264.646 C 96.489 264.917,96.202 264.920,95.749 264.656 C 95.194 264.334,95.240 264.287,96.127 264.278 C 96.864 264.270,97.036 264.370,96.760 264.646 M297.172 264.589 C 294.250 264.695,291.011 264.688,289.974 264.575 C 288.937 264.461,291.328 264.375,295.287 264.382 L 302.485 264.396 297.172 264.589 M303.090 270.678 C 302.668 270.760,301.897 270.762,301.376 270.683 C 300.855 270.604,301.200 270.538,302.142 270.535 C 303.085 270.532,303.511 270.597,303.090 270.678 " stroke="none" fill="#9eaea6" fill-rule="evenodd"></path><path id="path3" d="M234.414 110.354 C 212.975 110.552,213.735 110.487,212.758 112.225 C 212.477 112.726,212.303 117.425,212.177 127.935 L 211.997 142.931 242.759 142.931 C 267.461 142.931,273.522 142.844,273.522 142.494 C 273.522 142.253,273.581 135.260,273.653 126.953 L 273.784 111.850 272.960 112.008 C 272.420 112.111,271.647 111.826,270.717 111.181 L 269.298 110.197 261.898 110.183 C 257.829 110.175,245.461 110.252,234.414 110.354 M263.385 118.105 C 264.674 119.393,264.311 121.419,262.682 122.039 C 261.701 122.411,234.286 122.487,226.248 122.139 C 221.218 121.921,221.004 121.882,220.481 121.084 C 219.789 120.029,220.224 118.616,221.428 118.007 C 222.849 117.289,262.662 117.381,263.385 118.105 M263.239 130.591 C 264.120 131.472,264.111 132.661,263.214 133.801 L 262.504 134.704 242.013 134.704 L 221.523 134.704 220.616 133.864 C 219.484 132.815,219.464 131.834,220.550 130.747 L 221.391 129.906 241.972 129.906 C 262.097 129.906,262.569 129.921,263.239 130.591 M298.810 165.509 L 298.906 175.835 300.524 175.834 C 301.414 175.833,303.877 175.732,305.998 175.610 L 309.854 175.388 309.854 165.885 C 309.854 158.701,309.750 156.295,309.426 156.027 C 309.190 155.831,306.684 155.561,303.856 155.427 L 298.715 155.182 298.810 165.509 " stroke="none" fill="#dd6a63" fill-rule="evenodd"></path><path id="path4" d="M187.291 107.969 C 187.291 111.834,187.341 113.415,187.402 111.482 C 187.463 109.550,187.463 106.388,187.402 104.456 C 187.341 102.524,187.291 104.105,187.291 107.969 M180.634 121.502 L 180.634 140.518 179.863 140.690 C 179.439 140.785,170.531 140.923,160.069 140.996 C 141.475 141.127,141.043 141.145,140.943 141.803 C 140.844 142.456,141.164 142.483,151.710 142.704 C 165.272 142.987,181.242 142.908,178.406 142.571 L 176.350 142.327 178.664 142.372 L 180.978 142.416 180.978 122.451 C 180.977 111.470,180.900 102.485,180.805 102.485 C 180.711 102.485,180.634 111.042,180.634 121.502 M276.607 102.935 C 276.607 102.994,277.108 103.495,277.721 104.049 L 278.835 105.056 277.828 103.942 C 276.890 102.903,276.607 102.670,276.607 102.935 M126.296 122.879 C 126.296 133.813,126.339 138.336,126.392 132.929 C 126.445 127.523,126.445 118.577,126.392 113.049 C 126.339 107.522,126.296 111.945,126.296 122.879 M211.950 107.684 C 210.459 108.406,210.435 108.714,210.533 125.964 L 210.626 142.416 211.363 142.522 L 212.101 142.627 212.226 127.783 C 212.320 116.619,212.458 112.748,212.785 112.168 C 213.791 110.384,212.755 110.450,242.016 110.319 L 269.294 110.197 270.655 111.140 C 271.404 111.658,272.355 112.082,272.769 112.082 C 274.339 112.082,273.356 108.472,271.564 107.656 C 270.453 107.149,212.998 107.177,211.950 107.684 M279.809 110.540 C 279.810 112.048,279.871 112.622,279.943 111.816 C 280.015 111.010,280.014 109.776,279.941 109.074 C 279.867 108.372,279.808 109.032,279.809 110.540 M204.059 110.883 C 204.060 112.391,204.121 112.965,204.193 112.159 C 204.266 111.353,204.265 110.119,204.191 109.417 C 204.117 108.715,204.058 109.374,204.059 110.883 M161.063 112.759 C 147.932 112.958,148.064 112.934,148.083 115.123 C 148.105 117.676,147.486 117.566,161.837 117.566 C 176.050 117.566,175.493 117.660,175.493 115.265 C 175.493 113.903,173.949 112.126,173.093 112.503 C 172.999 112.545,167.586 112.660,161.063 112.759 M141.902 114.344 C 141.902 115.681,141.724 116.099,140.737 117.087 C 140.096 117.728,139.694 118.252,139.845 118.252 C 140.730 118.252,142.245 115.757,142.245 114.298 C 142.245 113.457,142.168 112.768,142.074 112.768 C 141.979 112.768,141.902 113.477,141.902 114.344 M174.388 113.644 C 175.299 114.282,175.392 115.702,174.583 116.597 C 173.753 117.514,150.050 117.569,149.042 116.656 C 147.984 115.700,148.402 113.843,149.786 113.348 C 151.198 112.844,173.631 113.113,174.388 113.644 M279.991 114.910 C 280.486 115.542,292.800 115.862,293.178 115.253 C 293.266 115.111,290.484 115.041,286.996 115.096 C 282.204 115.172,280.516 115.089,280.087 114.754 C 279.580 114.357,279.570 114.374,279.991 114.910 M111.225 115.167 L 102.656 115.357 111.119 115.433 C 116.476 115.482,119.660 115.384,119.794 115.167 C 119.911 114.979,119.959 114.859,119.900 114.901 C 119.842 114.943,115.938 115.063,111.225 115.167 M195.544 115.167 L 187.318 115.357 195.438 115.434 C 200.566 115.482,203.637 115.384,203.770 115.167 C 203.887 114.979,203.935 114.859,203.876 114.901 C 203.818 114.943,200.069 115.063,195.544 115.167 M133.607 116.738 C 133.999 117.484,135.003 118.447,135.148 118.215 C 135.194 118.141,134.782 117.618,134.233 117.052 C 133.553 116.353,133.353 116.253,133.607 116.738 M137.446 118.595 C 136.260 118.844,136.258 118.848,137.275 118.887 C 137.841 118.909,138.535 118.777,138.817 118.595 C 139.388 118.226,139.199 118.226,137.446 118.595 M298.575 118.894 C 298.121 119.021,297.708 119.410,297.656 119.758 C 297.605 120.107,297.167 120.806,296.682 121.311 C 295.641 122.399,295.612 122.616,296.395 123.481 C 296.835 123.968,296.978 124.683,296.946 126.250 L 296.903 128.363 298.149 125.206 C 298.984 123.090,299.651 121.912,300.169 121.635 C 301.512 120.916,301.063 118.415,299.629 118.629 C 299.503 118.648,299.029 118.767,298.575 118.894 M287.575 121.237 C 282.250 121.382,281.280 122.011,282.959 124.230 C 283.297 124.677,283.463 125.744,283.466 127.486 C 283.468 128.911,283.565 130.656,283.682 131.362 C 283.939 132.921,284.833 133.136,284.833 131.640 C 284.833 131.085,284.970 130.547,285.138 130.443 C 285.305 130.340,285.544 129.851,285.668 129.357 C 286.263 126.985,287.332 125.442,289.320 124.085 C 292.959 121.601,293.771 122.874,291.566 127.608 C 290.446 130.013,289.902 131.529,289.493 133.386 C 289.249 134.491,290.457 135.047,293.097 135.047 L 294.746 135.047 295.240 133.419 C 295.512 132.524,295.843 131.521,295.976 131.191 C 296.109 130.861,296.071 130.591,295.893 130.591 C 295.714 130.591,295.364 131.440,295.116 132.476 C 294.540 134.876,292.036 135.501,292.026 133.248 C 292.018 131.726,291.489 130.907,290.974 131.620 C 290.229 132.649,290.992 129.823,292.076 127.533 C 294.485 122.445,292.857 120.338,289.171 123.773 C 287.496 125.332,283.119 124.513,283.119 122.639 L 283.119 121.680 286.975 121.655 C 289.096 121.642,291.140 121.499,291.517 121.337 C 291.894 121.175,291.971 121.064,291.688 121.090 C 291.405 121.117,289.554 121.183,287.575 121.237 M107.903 121.593 C 110.223 121.652,113.925 121.652,116.129 121.593 C 118.334 121.533,116.435 121.484,111.911 121.485 C 107.386 121.485,105.583 121.534,107.903 121.593 M191.083 121.905 C 190.687 122.301,190.587 122.743,190.754 123.362 C 190.885 123.850,191.091 126.255,191.212 128.706 L 191.431 133.162 197.496 133.255 L 203.561 133.349 203.719 128.971 C 203.807 126.563,203.958 123.899,204.055 123.051 C 204.210 121.694,204.203 121.673,204.001 122.879 L 203.770 124.250 197.686 124.344 L 191.602 124.437 191.602 123.066 L 191.602 121.695 197.686 121.593 L 203.770 121.491 197.711 121.414 C 192.458 121.347,191.576 121.412,191.083 121.905 M310.716 123.147 C 311.047 123.671,311.404 124.014,311.510 123.909 C 311.615 123.803,311.344 123.374,310.908 122.955 L 310.114 122.194 310.716 123.147 M98.428 124.950 C 97.853 126.211,97.963 126.480,98.584 125.334 C 98.874 124.799,99.047 124.297,98.969 124.218 C 98.890 124.140,98.647 124.469,98.428 124.950 M110.385 124.342 C 100.575 124.437,99.400 124.636,99.400 126.202 C 99.400 126.361,99.042 127.067,98.605 127.770 C 97.707 129.212,95.867 133.685,96.083 133.900 C 96.160 133.978,96.557 133.149,96.965 132.059 C 98.052 129.155,100.374 125.107,100.954 125.107 C 101.364 125.107,101.457 125.769,101.457 128.678 C 101.457 133.844,100.440 133.333,110.721 133.333 L 119.568 133.333 119.685 128.792 C 119.750 126.294,119.800 124.250,119.798 124.250 C 119.796 124.250,115.560 124.291,110.385 124.342 M308.312 124.445 C 307.935 124.594,307.807 124.727,308.028 124.740 C 308.248 124.754,308.537 125.257,308.669 125.859 C 308.889 126.859,308.948 126.901,309.357 126.341 C 309.770 125.777,309.871 125.833,310.629 127.046 C 313.536 131.693,314.173 133.236,318.248 145.501 C 321.535 155.397,324.182 162.054,324.490 161.202 C 324.571 160.976,324.473 160.485,324.272 160.110 C 324.072 159.735,323.907 159.084,323.907 158.663 C 323.907 158.242,323.807 157.998,323.684 158.121 C 323.294 158.511,322.540 156.623,322.313 154.688 C 322.172 153.487,321.991 152.983,321.806 153.274 C 321.390 153.930,321.413 152.661,321.831 151.879 C 322.136 151.310,321.732 149.551,320.840 147.558 C 320.671 147.181,320.270 146.143,319.948 145.251 C 319.627 144.359,319.268 143.689,319.151 143.762 C 319.033 143.834,318.915 143.561,318.888 143.155 C 318.790 141.702,317.658 139.080,317.336 139.562 C 317.127 139.876,317.061 139.752,317.125 139.160 C 317.245 138.053,316.022 134.496,315.700 135.017 C 315.447 135.427,314.634 134.011,314.675 133.232 C 314.687 133.005,314.844 133.189,315.025 133.640 C 315.205 134.092,315.434 134.381,315.532 134.282 C 315.630 134.184,315.482 133.583,315.202 132.947 C 314.923 132.311,314.425 131.039,314.097 130.121 C 313.580 128.675,313.463 128.548,313.230 129.178 C 312.863 130.172,312.713 130.106,311.965 128.620 C 309.853 124.426,309.469 123.987,308.312 124.445 M311.592 124.593 C 311.592 124.781,311.813 125.321,312.082 125.793 C 312.352 126.264,312.572 126.495,312.572 126.307 C 312.572 126.118,312.352 125.578,312.082 125.107 C 311.813 124.636,311.592 124.404,311.592 124.593 M137.365 125.007 C 137.791 125.089,138.408 125.086,138.736 125.000 C 139.063 124.914,138.715 124.847,137.961 124.851 C 137.207 124.855,136.938 124.925,137.365 125.007 M140.408 125.766 C 140.999 126.127,141.566 126.627,141.666 126.878 C 141.782 127.169,141.858 127.188,141.875 126.931 C 141.906 126.470,140.289 125.106,139.714 125.108 C 139.504 125.109,139.816 125.405,140.408 125.766 M148.975 128.217 C 147.578 129.316,147.685 131.390,149.186 132.318 C 150.803 133.318,173.037 133.214,174.584 132.200 C 175.893 131.341,175.817 128.629,174.464 127.948 C 172.784 127.102,150.088 127.341,148.975 128.217 M174.523 128.759 C 175.273 129.438,175.331 130.555,174.664 131.468 C 173.983 132.400,150.612 132.701,149.231 131.796 C 148.288 131.178,148.176 130.056,148.948 128.954 L 149.482 128.192 161.689 128.192 C 172.567 128.192,173.965 128.254,174.523 128.759 M133.070 129.563 C 133.070 130.223,133.141 130.493,133.227 130.163 C 133.313 129.833,133.313 129.293,133.227 128.963 C 133.141 128.633,133.070 128.903,133.070 129.563 M141.488 131.202 L 140.901 132.476 141.573 131.667 C 141.943 131.222,142.245 130.644,142.245 130.382 C 142.245 129.677,142.134 129.797,141.488 131.202 M301.760 131.877 C 301.425 132.772,300.880 133.998,300.549 134.600 L 299.947 135.696 301.559 135.911 C 302.445 136.030,303.337 136.177,303.540 136.239 C 303.928 136.357,304.899 146.532,304.669 148.072 C 304.544 148.912,304.466 148.933,300.771 149.129 L 297.001 149.330 300.943 149.222 C 306.018 149.084,309.292 148.767,309.525 148.391 C 309.981 147.657,309.188 142.686,308.339 140.961 C 307.853 139.973,307.455 139.037,307.455 138.883 C 307.455 138.729,307.049 137.764,306.553 136.739 C 306.057 135.714,305.466 134.336,305.241 133.676 C 305.015 133.016,304.504 132.328,304.105 132.146 C 303.706 131.965,303.291 131.463,303.183 131.032 C 302.880 129.825,302.429 130.093,301.760 131.877 M94.601 137.313 C 94.402 137.858,93.764 139.537,93.185 141.045 C 92.605 142.554,91.780 144.713,91.350 145.844 C 90.921 146.975,90.166 148.945,89.672 150.221 C 89.179 151.497,88.779 152.731,88.784 152.963 C 88.795 153.439,89.408 151.937,92.864 142.963 C 94.201 139.493,95.220 136.579,95.129 136.488 C 95.038 136.397,94.800 136.769,94.601 137.313 M129.477 141.601 C 128.382 142.214,128.856 142.588,130.677 142.548 C 131.667 142.526,132.168 142.433,131.791 142.341 C 131.414 142.249,130.874 141.970,130.591 141.720 C 130.231 141.401,129.897 141.366,129.477 141.601 M135.316 142.498 C 136.312 142.568,137.854 142.567,138.743 142.497 C 139.632 142.426,138.817 142.369,136.932 142.370 C 135.047 142.371,134.320 142.429,135.316 142.498 M157.926 142.491 C 157.408 142.569,156.560 142.569,156.041 142.491 C 155.523 142.412,155.947 142.348,156.984 142.348 C 158.021 142.348,158.445 142.412,157.926 142.491 M125.621 150.916 L 125.621 152.699 114.996 152.871 L 104.370 153.042 104.265 154.307 C 104.176 155.381,104.020 155.595,103.237 155.721 C 102.729 155.803,103.085 155.813,104.027 155.744 C 104.970 155.675,110.235 155.617,115.726 155.616 L 125.712 155.613 125.957 152.664 C 126.092 151.043,126.072 149.585,125.912 149.424 C 125.752 149.263,125.621 149.935,125.621 150.916 M200.857 150.757 C 200.857 152.363,200.785 152.528,200.086 152.533 C 193.004 152.581,174.186 152.953,173.874 153.052 C 173.576 153.146,173.428 154.595,173.360 158.083 L 173.265 162.982 172.322 162.917 C 171.804 162.882,171.380 162.998,171.380 163.175 C 171.380 163.370,177.148 163.496,186.067 163.496 L 200.754 163.496 200.946 156.384 C 201.051 152.472,201.074 149.207,200.997 149.129 C 200.920 149.050,200.857 149.783,200.857 150.757 M282.546 151.328 C 282.548 152.648,282.610 153.146,282.684 152.435 C 282.758 151.723,282.757 150.644,282.681 150.035 C 282.605 149.427,282.545 150.009,282.546 151.328 M164.600 152.415 C 164.544 152.713,160.740 152.826,149.780 152.856 C 133.651 152.900,134.238 152.849,133.607 154.273 C 133.078 155.469,132.752 155.538,132.532 154.499 C 132.416 153.953,132.384 154.018,132.422 154.720 L 132.476 155.713 138.646 155.748 L 144.816 155.784 146.680 156.812 C 148.709 157.931,150.408 159.986,151.016 162.054 L 151.390 163.325 157.949 163.418 L 164.508 163.511 164.700 162.732 C 164.806 162.304,164.844 159.717,164.784 156.984 C 164.724 154.250,164.641 152.194,164.600 152.415 M237.608 152.356 C 237.559 152.579,233.344 152.673,225.621 152.624 C 219.070 152.583,212.708 152.660,211.482 152.795 L 209.254 153.042 209.159 157.926 C 209.069 162.581,208.444 164.990,208.359 161.011 C 208.225 154.719,207.823 152.737,207.768 158.098 L 207.712 163.496 222.633 163.496 C 234.512 163.496,237.588 163.406,237.724 163.053 C 237.817 162.810,237.846 160.226,237.789 157.312 C 237.731 154.398,237.650 152.168,237.608 152.356 M244.503 157.669 L 244.559 163.325 260.249 163.414 L 275.939 163.503 275.844 158.101 L 275.750 152.699 261.565 152.610 C 251.548 152.546,247.245 152.632,246.922 152.901 C 246.589 153.177,246.437 154.565,246.368 157.956 C 246.283 162.091,246.203 162.644,245.673 162.746 C 245.127 162.850,245.070 162.449,245.039 158.294 C 245.020 155.783,244.879 153.342,244.726 152.871 C 244.563 152.371,244.470 154.371,244.503 157.669 M284.156 153.000 C 283.950 153.205,283.805 155.306,283.805 158.064 C 283.805 162.191,283.730 162.820,283.205 163.126 C 282.771 163.378,283.674 163.478,286.461 163.486 L 290.317 163.496 290.317 158.098 L 290.316 152.699 287.411 152.674 C 285.814 152.660,284.349 152.807,284.156 153.000 M323.090 154.413 C 323.211 154.979,323.462 155.596,323.647 155.784 C 323.869 156.009,323.898 155.833,323.733 155.270 C 323.327 153.886,322.837 153.233,323.090 154.413 M87.395 156.492 C 87.211 156.975,87.061 157.434,87.061 157.510 C 87.061 157.586,86.690 158.463,86.237 159.459 C 85.784 160.454,84.927 162.579,84.333 164.182 C 83.739 165.784,83.030 167.602,82.757 168.221 C 82.485 168.840,82.266 169.611,82.271 169.935 C 82.276 170.258,83.221 168.132,84.372 165.210 C 87.387 157.551,88.100 155.613,87.904 155.613 C 87.808 155.613,87.579 156.008,87.395 156.492 M296.695 156.155 C 296.580 156.453,296.487 160.926,296.487 166.095 L 296.487 175.493 297.686 175.493 L 298.886 175.493 298.886 165.553 L 298.886 155.613 297.894 155.613 C 297.306 155.613,296.818 155.833,296.695 156.155 M85.385 157.755 C 85.045 158.774,85.057 158.812,85.523 158.204 C 85.803 157.838,86.033 157.336,86.033 157.090 C 86.033 156.325,85.773 156.592,85.385 157.755 M324.805 159.040 C 325.040 160.360,325.921 162.282,326.175 162.028 C 326.321 161.882,326.077 161.207,324.970 158.698 C 324.627 157.922,324.612 157.954,324.805 159.040 M245.514 160.583 C 245.516 161.525,245.583 161.870,245.662 161.349 C 245.740 160.828,245.738 160.057,245.657 159.635 C 245.576 159.214,245.511 159.640,245.514 160.583 M171.466 161.268 C 171.470 162.022,171.540 162.290,171.622 161.864 C 171.704 161.438,171.701 160.821,171.615 160.493 C 171.529 160.165,171.462 160.514,171.466 161.268 M120.246 162.382 C 124.453 162.436,131.240 162.436,135.327 162.382 C 139.415 162.327,135.973 162.282,127.678 162.283 C 119.383 162.283,116.039 162.327,120.246 162.382 M324.308 162.468 C 324.326 163.358,324.866 164.821,324.877 164.010 C 324.883 163.633,324.755 163.016,324.593 162.639 C 324.412 162.219,324.302 162.153,324.308 162.468 M100.904 162.693 C 101.491 162.862,101.531 163.120,101.332 165.473 C 101.074 168.530,101.083 168.515,99.944 167.769 C 99.456 167.449,99.034 167.321,99.006 167.484 C 98.978 167.647,98.844 167.087,98.710 166.238 C 98.565 165.323,98.481 166.927,98.504 170.180 L 98.543 175.664 121.508 175.536 C 134.139 175.466,144.589 175.341,144.730 175.259 C 144.871 175.177,144.961 172.612,144.930 169.560 C 144.898 166.508,144.818 164.627,144.752 165.381 C 144.486 168.436,144.489 168.433,142.728 167.089 L 141.164 165.895 126.282 165.895 L 111.399 165.895 110.027 167.135 L 108.655 168.375 108.613 166.878 C 108.573 165.446,108.558 165.470,108.275 167.410 C 107.878 170.135,107.029 171.037,104.863 171.037 C 102.127 171.037,101.765 170.488,101.691 166.238 C 101.633 162.924,101.575 162.643,100.943 162.578 C 100.323 162.514,100.319 162.525,100.904 162.693 M82.930 163.715 C 82.741 164.212,82.649 164.683,82.727 164.761 C 82.805 164.839,83.033 164.432,83.233 163.856 C 83.679 162.578,83.410 162.452,82.930 163.715 M334.248 165.227 C 334.448 165.803,334.676 166.210,334.754 166.132 C 334.923 165.962,334.277 164.182,334.045 164.182 C 333.956 164.182,334.047 164.652,334.248 165.227 M325.176 166.067 C 325.286 166.821,325.499 167.746,325.648 168.123 L 325.921 168.809 325.916 168.123 C 325.913 167.746,325.701 166.821,325.444 166.067 L 324.977 164.696 325.176 166.067 M81.790 171.221 C 81.673 171.528,81.577 172.140,81.577 172.583 C 81.577 173.025,81.353 173.611,81.079 173.885 C 80.614 174.349,80.696 174.807,81.244 174.807 C 81.375 174.807,81.658 173.933,81.872 172.865 C 82.255 170.960,82.213 170.120,81.790 171.221 M326.749 171.722 C 326.857 172.194,327.051 173.159,327.179 173.868 C 327.308 174.577,327.528 175.229,327.669 175.316 C 327.953 175.492,327.053 171.314,326.747 171.039 C 326.640 170.944,326.641 171.251,326.749 171.722 M337.385 176.521 C 337.385 177.746,337.447 178.248,337.523 177.635 C 337.599 177.022,337.599 176.020,337.523 175.407 C 337.447 174.794,337.385 175.296,337.385 176.521 M71.743 176.692 C 71.745 177.823,71.809 178.245,71.885 177.629 C 71.961 177.013,71.960 176.087,71.882 175.572 C 71.803 175.057,71.741 175.561,71.743 176.692 M329.624 182.387 C 328.272 183.861,328.670 183.971,330.082 182.514 C 330.719 181.857,331.094 181.323,330.916 181.326 C 330.737 181.330,330.156 181.807,329.624 182.387 M148.500 181.899 C 148.830 181.985,149.370 181.985,149.700 181.899 C 150.030 181.812,149.760 181.742,149.100 181.742 C 148.440 181.742,148.171 181.812,148.500 181.899 M191.517 181.919 C 210.416 181.968,241.341 181.968,260.240 181.919 C 279.139 181.870,263.676 181.830,225.878 181.830 C 188.081 181.830,172.618 181.870,191.517 181.919 M304.799 181.919 C 308.710 181.974,315.111 181.974,319.023 181.919 C 322.935 181.864,319.734 181.819,311.911 181.819 C 304.087 181.819,300.887 181.864,304.799 181.919 M326.135 184.435 C 325.193 184.779,324.669 185.067,324.970 185.075 C 325.664 185.094,327.745 184.406,328.175 184.015 C 328.630 183.601,328.157 183.698,326.135 184.435 M82.605 188.985 C 82.605 192.329,82.522 192.940,82.054 193.034 C 81.751 193.095,86.339 193.196,92.251 193.259 C 105.034 193.394,104.755 193.318,105.802 196.915 L 106.101 197.943 123.475 197.943 L 140.850 197.943 141.462 196.230 C 142.562 193.150,141.351 193.295,165.097 193.398 L 185.721 193.488 186.571 194.287 C 187.039 194.727,187.594 195.768,187.803 196.601 L 188.185 198.115 204.604 198.115 C 221.992 198.115,222.107 198.107,222.109 196.964 C 222.112 195.626,223.357 194.065,224.748 193.657 C 225.659 193.390,232.122 193.307,246.272 193.381 C 268.813 193.500,267.733 193.378,268.451 195.887 C 269.137 198.286,267.827 198.130,286.492 198.032 L 303.485 197.943 303.697 196.915 C 304.362 193.680,305.330 193.316,313.260 193.316 L 319.429 193.316 319.526 189.460 L 319.623 185.604 321.851 185.406 L 324.079 185.208 321.822 185.149 C 320.581 185.117,319.501 185.155,319.421 185.235 C 319.180 185.476,90.266 185.508,86.290 185.268 L 82.605 185.046 82.605 188.985 M89.117 186.118 C 89.117 186.307,88.895 186.461,88.623 186.461 C 88.352 186.461,88.034 186.307,87.918 186.118 C 87.801 185.930,88.023 185.775,88.412 185.775 C 88.800 185.775,89.117 185.930,89.117 186.118 M71.730 188.860 C 71.730 189.709,71.797 190.056,71.879 189.632 C 71.960 189.207,71.960 188.513,71.879 188.089 C 71.797 187.665,71.730 188.012,71.730 188.860 M84.425 201.371 C 84.427 202.502,84.491 202.924,84.567 202.307 C 84.643 201.691,84.642 200.766,84.564 200.251 C 84.485 199.736,84.423 200.240,84.425 201.371 M158.012 201.714 L 158.012 203.942 153.460 203.942 L 148.907 203.942 146.861 206.369 C 140.677 213.708,134.745 216.129,123.051 216.087 C 111.774 216.047,105.028 213.271,99.684 206.470 L 97.901 204.202 95.502 204.373 C 92.487 204.589,90.047 206.708,89.633 209.470 C 89.355 211.323,89.996 249.925,90.330 251.504 C 90.530 252.446,90.480 252.589,90.014 252.410 C 89.709 252.293,89.460 252.363,89.460 252.566 C 89.460 252.769,89.191 252.840,88.860 252.724 C 87.772 252.341,90.868 255.267,92.367 256.038 C 94.057 256.907,95.415 256.909,94.561 256.041 C 91.357 252.787,90.145 249.922,90.147 245.610 C 90.150 240.941,90.576 235.133,90.915 235.133 C 91.092 235.133,91.629 234.824,92.109 234.447 C 92.588 234.070,93.312 233.762,93.718 233.762 C 94.124 233.762,95.068 233.446,95.814 233.061 C 96.765 232.570,97.514 232.422,98.312 232.567 C 98.973 232.687,99.651 232.609,99.925 232.382 C 100.186 232.166,100.527 232.068,100.683 232.165 C 100.840 232.262,101.153 231.924,101.379 231.415 C 102.336 229.252,101.765 229.306,123.789 229.307 C 146.797 229.309,145.992 229.207,146.039 232.129 C 146.059 233.387,146.111 233.488,146.416 232.858 C 146.888 231.883,148.119 231.362,149.950 231.362 C 151.172 231.362,151.496 231.229,151.680 230.649 C 151.910 229.922,152.956 229.898,156.341 230.541 C 157.493 230.760,157.617 230.247,157.839 224.336 C 158.084 217.795,158.315 199.486,158.152 199.486 C 158.075 199.486,158.012 200.488,158.012 201.714 M238.166 201.209 C 238.345 203.801,238.110 203.942,233.594 203.942 L 229.740 203.942 228.811 205.346 C 218.970 220.216,188.322 219.816,180.332 204.713 C 179.848 203.797,171.368 203.472,171.390 204.370 C 171.396 204.606,171.338 216.598,171.260 231.020 C 171.168 248.202,171.209 253.637,171.380 246.787 C 171.681 234.676,171.913 233.315,173.706 233.140 C 174.361 233.076,174.807 232.841,174.807 232.561 C 174.807 231.852,175.394 231.628,176.168 232.043 C 176.664 232.308,177.489 232.302,179.096 232.022 C 180.762 231.732,181.452 231.732,181.801 232.021 C 182.171 232.328,182.315 232.226,182.489 231.532 C 183.054 229.283,182.801 229.308,204.799 229.308 C 223.822 229.308,224.725 229.337,225.762 229.969 C 226.418 230.369,227.148 230.550,227.615 230.428 C 228.147 230.288,228.309 230.349,228.140 230.623 C 227.786 231.195,228.338 231.111,229.285 230.447 C 229.884 230.028,231.022 229.846,233.551 229.765 C 236.671 229.666,237.025 229.588,237.262 228.947 C 237.883 227.270,238.829 199.486,238.265 199.486 C 238.145 199.486,238.100 200.261,238.166 201.209 M320.015 200.004 C 320.124 200.289,320.110 201.215,319.983 202.061 L 319.752 203.599 315.575 203.604 C 310.779 203.610,311.247 203.412,308.852 206.454 C 302.880 214.042,292.949 217.199,279.974 215.635 C 272.801 214.771,264.608 210.081,261.472 205.046 L 260.772 203.923 255.922 204.018 L 251.071 204.113 250.862 215.424 C 250.746 221.645,250.621 229.049,250.583 231.877 C 250.499 238.101,249.752 237.703,249.298 231.191 C 249.057 227.736,249.017 227.579,248.824 229.306 C 248.707 230.343,248.552 224.096,248.478 215.424 C 248.387 204.798,248.305 202.172,248.226 207.369 C 248.162 211.611,248.216 224.360,248.346 235.700 L 248.582 256.318 249.531 256.457 C 250.760 256.638,251.020 253.397,251.580 230.982 C 251.583 230.867,252.846 230.743,254.386 230.706 C 255.926 230.669,257.458 230.493,257.791 230.315 C 258.123 230.137,259.650 229.991,261.183 229.991 C 262.715 229.991,264.254 229.839,264.601 229.653 C 264.996 229.442,272.928 229.310,285.695 229.301 L 306.156 229.286 307.266 228.439 C 307.877 227.973,308.752 227.592,309.211 227.592 C 309.669 227.592,310.309 227.284,310.632 226.907 C 310.955 226.530,311.644 226.220,312.165 226.219 C 313.538 226.216,315.730 225.549,315.514 225.199 C 315.293 224.842,316.113 224.555,317.680 224.440 C 319.382 224.316,319.459 223.937,319.842 213.783 C 320.035 208.653,320.271 203.338,320.365 201.971 C 320.476 200.354,320.410 199.486,320.176 199.486 C 319.978 199.486,319.905 199.719,320.015 200.004 M167.772 224.507 C 167.772 238.175,167.814 243.766,167.866 236.932 C 167.918 230.099,167.918 218.916,167.866 212.082 C 167.814 205.249,167.772 210.840,167.772 224.507 M331.208 201.885 C 331.208 202.922,331.272 203.346,331.351 202.828 C 331.429 202.309,331.429 201.461,331.351 200.943 C 331.272 200.424,331.208 200.848,331.208 201.885 M78.262 203.085 C 78.263 204.404,78.325 204.902,78.399 204.191 C 78.473 203.480,78.472 202.400,78.396 201.792 C 78.321 201.183,78.260 201.765,78.262 203.085 M307.874 203.528 L 307.094 204.799 307.960 203.837 C 308.436 203.308,308.826 202.730,308.826 202.552 C 308.826 202.048,308.710 202.166,307.874 203.528 M330.861 205.484 C 330.863 206.427,330.930 206.772,331.009 206.251 C 331.087 205.730,331.085 204.958,331.004 204.537 C 330.923 204.115,330.858 204.542,330.861 205.484 M305.891 206.084 L 304.884 207.198 305.998 206.191 C 306.611 205.638,307.112 205.136,307.112 205.077 C 307.112 204.812,306.829 205.046,305.891 206.084 M84.781 208.055 C 84.781 209.657,84.840 210.313,84.912 209.512 C 84.985 208.710,84.985 207.399,84.912 206.598 C 84.840 205.797,84.781 206.452,84.781 208.055 M104.027 206.684 C 104.764 207.438,105.443 208.055,105.538 208.055 C 105.632 208.055,105.107 207.438,104.370 206.684 C 103.634 205.930,102.954 205.313,102.860 205.313 C 102.766 205.313,103.291 205.930,104.027 206.684 M186.290 207.027 C 187.218 207.969,188.055 208.740,188.149 208.740 C 188.243 208.740,187.561 207.969,186.632 207.027 C 185.704 206.084,184.867 205.313,184.773 205.313 C 184.679 205.313,185.361 206.084,186.290 207.027 M223.629 206.769 L 222.622 207.883 223.736 206.877 C 224.349 206.323,224.850 205.822,224.850 205.763 C 224.850 205.498,224.567 205.731,223.629 206.769 M265.981 205.763 C 265.981 205.822,266.482 206.323,267.095 206.877 L 268.209 207.883 267.202 206.769 C 266.264 205.731,265.981 205.498,265.981 205.763 M78.615 209.083 C 78.615 210.874,78.673 211.607,78.744 210.711 C 78.814 209.816,78.814 208.350,78.744 207.455 C 78.673 206.560,78.615 207.292,78.615 209.083 M303.012 208.412 C 301.463 209.735,301.843 209.725,303.513 208.398 C 304.225 207.832,304.670 207.376,304.503 207.383 C 304.336 207.391,303.665 207.854,303.012 208.412 M268.695 208.179 C 269.151 208.741,270.437 209.591,270.437 209.331 C 270.437 209.266,269.936 208.845,269.323 208.397 C 268.634 207.892,268.394 207.809,268.695 208.179 M199.229 213.090 C 199.559 213.176,200.099 213.176,200.428 213.090 C 200.758 213.004,200.488 212.933,199.829 212.933 C 199.169 212.933,198.899 213.004,199.229 213.090 M280.120 213.090 C 280.450 213.176,280.990 213.176,281.320 213.090 C 281.650 213.004,281.380 212.933,280.720 212.933 C 280.060 212.933,279.790 213.004,280.120 213.090 M290.746 213.090 C 291.075 213.176,291.615 213.176,291.945 213.090 C 292.275 213.004,292.005 212.933,291.345 212.933 C 290.686 212.933,290.416 213.004,290.746 213.090 M122.622 213.447 C 123.423 213.519,124.734 213.519,125.536 213.447 C 126.337 213.375,125.681 213.316,124.079 213.316 C 122.476 213.316,121.821 213.375,122.622 213.447 M284.576 213.446 C 285.283 213.520,286.440 213.520,287.147 213.446 C 287.853 213.372,287.275 213.311,285.861 213.311 C 284.447 213.311,283.869 213.372,284.576 213.446 M78.921 215.424 C 78.925 216.178,78.995 216.446,79.077 216.020 C 79.159 215.594,79.156 214.977,79.070 214.649 C 78.984 214.321,78.917 214.670,78.921 215.424 M330.506 215.424 C 330.510 216.178,330.580 216.446,330.662 216.020 C 330.744 215.594,330.741 214.977,330.655 214.649 C 330.570 214.321,330.503 214.670,330.506 215.424 M85.084 215.596 C 85.084 216.255,85.154 216.525,85.241 216.195 C 85.327 215.865,85.327 215.326,85.241 214.996 C 85.154 214.666,85.084 214.936,85.084 215.596 M154.234 218.663 C 155.290 219.474,155.428 221.754,154.479 222.703 C 153.501 223.681,94.692 223.634,93.609 222.655 C 92.499 221.650,92.647 219.972,93.942 218.882 L 94.997 217.995 124.191 218.002 C 152.359 218.010,153.415 218.033,154.234 218.663 M233.887 218.705 C 235.057 219.626,235.151 221.675,234.069 222.655 C 232.949 223.668,176.670 223.677,175.657 222.664 C 174.628 221.635,174.805 219.783,176.024 218.807 L 177.035 217.998 205.009 217.997 C 232.793 217.995,232.990 218.000,233.887 218.705 M316.585 218.869 C 317.722 220.097,317.654 221.607,316.409 222.747 L 315.423 223.650 285.989 223.523 C 252.544 223.379,253.738 223.513,254.513 219.988 C 254.960 217.951,253.794 218.024,286.165 218.009 L 315.774 217.995 316.585 218.869 M330.183 220.223 C 330.185 221.354,330.249 221.775,330.326 221.159 C 330.402 220.543,330.400 219.618,330.322 219.103 C 330.244 218.588,330.181 219.092,330.183 220.223 M85.450 221.765 C 85.450 222.802,85.514 223.226,85.593 222.708 C 85.671 222.189,85.671 221.341,85.593 220.823 C 85.514 220.304,85.450 220.728,85.450 221.765 M79.275 222.622 C 79.278 223.565,79.345 223.910,79.423 223.389 C 79.502 222.868,79.500 222.096,79.419 221.675 C 79.337 221.253,79.273 221.680,79.275 222.622 M79.600 225.878 C 79.600 226.538,79.670 226.808,79.756 226.478 C 79.843 226.148,79.843 225.608,79.756 225.278 C 79.670 224.949,79.600 225.219,79.600 225.878 M85.788 226.735 C 85.790 227.678,85.857 228.023,85.936 227.502 C 86.015 226.981,86.012 226.209,85.931 225.788 C 85.850 225.366,85.785 225.793,85.788 226.735 M329.828 227.592 C 329.828 228.440,329.895 228.787,329.976 228.363 C 330.058 227.939,330.058 227.245,329.976 226.821 C 329.895 226.397,329.828 226.744,329.828 227.592 M329.513 235.647 C 329.512 237.344,329.570 238.081,329.642 237.285 C 329.714 236.490,329.715 235.102,329.644 234.201 C 329.573 233.299,329.514 233.950,329.513 235.647 M79.969 236.332 C 79.971 237.464,80.035 237.885,80.111 237.269 C 80.188 236.653,80.186 235.727,80.108 235.212 C 80.030 234.697,79.967 235.201,79.969 236.332 M86.119 235.990 C 86.123 236.744,86.193 237.012,86.275 236.586 C 86.357 236.159,86.354 235.542,86.268 235.215 C 86.182 234.887,86.115 235.236,86.119 235.990 M86.491 240.617 C 86.491 242.031,86.551 242.609,86.625 241.902 C 86.699 241.195,86.699 240.039,86.625 239.332 C 86.551 238.625,86.491 239.203,86.491 240.617 M80.312 241.474 C 80.314 242.605,80.378 243.026,80.454 242.410 C 80.530 241.794,80.529 240.869,80.451 240.354 C 80.372 239.839,80.310 240.343,80.312 241.474 M87.599 250.900 C 87.723 251.371,87.960 251.903,88.128 252.082 C 88.617 252.606,88.467 251.855,87.891 250.900 L 87.375 250.043 87.599 250.900 M85.115 258.652 L 86.425 260.062 82.887 260.229 C 74.201 260.637,70.398 266.978,76.408 271.029 L 77.565 271.808 205.125 271.808 L 332.685 271.808 334.314 270.775 C 337.562 268.715,337.862 265.059,335.003 262.363 C 333.377 260.829,332.045 260.450,327.570 260.246 C 324.428 260.103,323.894 259.997,324.065 259.553 C 324.231 259.119,324.176 259.103,323.744 259.462 C 322.789 260.255,323.195 260.399,326.907 260.581 C 336.291 261.043,340.272 267.803,332.991 270.912 C 331.317 271.627,79.112 271.690,77.403 270.975 C 73.192 269.216,73.333 263.960,77.649 261.768 C 78.869 261.149,83.104 260.553,85.423 260.675 C 87.329 260.775,87.279 260.414,85.118 258.441 L 83.805 257.242 85.115 258.652 M95.749 264.656 C 96.202 264.920,96.489 264.917,96.760 264.646 C 97.036 264.370,96.864 264.270,96.127 264.278 C 95.240 264.287,95.194 264.334,95.749 264.656 M289.974 264.575 C 291.011 264.688,294.250 264.695,297.172 264.589 L 302.485 264.396 295.287 264.382 C 291.328 264.375,288.937 264.461,289.974 264.575 M301.376 270.683 C 301.897 270.762,302.668 270.760,303.090 270.678 C 303.511 270.597,303.085 270.532,302.142 270.535 C 301.200 270.538,300.855 270.604,301.376 270.683 " stroke="none" fill="#dbd0b1" fill-rule="evenodd"></path></g></svg>