<svg id="svg" version="1.1" xmlns="http://www.w3.org/2000/svg" xmlns:xlink="http://www.w3.org/1999/xlink" width="200" height="200" viewBox="0, 0, 400,435.7142857142857"><g id="svgg"><path id="path0" d="M158.800 60.784 C 158.250 60.961,156.630 61.418,155.200 61.800 C 151.919 62.677,147.843 64.292,145.908 65.482 C 145.087 65.987,144.328 66.400,144.221 66.400 C 142.320 66.400,133.478 74.833,130.170 79.800 C 123.118 90.388,122.449 94.143,122.421 123.270 L 122.400 144.340 120.736 145.270 C 119.820 145.782,118.515 146.892,117.836 147.737 L 116.600 149.274 116.600 164.737 C 116.600 183.189,116.591 183.143,120.856 185.835 L 122.378 186.796 122.519 267.898 C 122.674 356.904,122.504 350.195,124.768 356.600 C 125.002 357.260,125.313 358.160,125.459 358.600 C 130.327 373.201,146.330 386.321,161.284 387.971 C 166.695 388.568,263.019 388.562,267.636 387.965 C 285.481 385.655,302.348 369.506,305.809 351.417 C 306.318 348.758,306.400 337.124,306.400 267.546 L 306.400 186.763 307.650 186.081 C 312.427 183.478,312.452 183.365,312.314 164.950 C 312.183 147.589,312.217 147.776,308.783 145.550 L 306.858 144.303 306.724 141.051 C 306.651 139.263,306.535 128.980,306.467 118.200 C 306.334 97.113,306.248 96.077,304.107 90.047 C 298.970 75.574,287.368 65.135,272.308 61.436 L 268.091 60.400 213.946 60.432 C 184.166 60.449,159.350 60.608,158.800 60.784 M268.684 73.123 C 280.677 75.563,290.366 84.587,293.039 95.806 C 294.207 100.708,294.234 346.941,293.067 351.400 C 290.043 362.956,280.969 372.100,269.469 375.182 C 265.098 376.353,163.784 376.276,159.024 375.097 C 146.415 371.976,136.462 360.079,135.183 346.600 C 134.901 343.623,134.804 302.492,134.883 219.400 L 135.000 96.600 136.096 93.642 C 138.442 87.309,145.249 78.815,149.200 77.290 C 149.530 77.163,150.440 76.660,151.221 76.174 C 154.019 74.433,158.914 73.131,163.904 72.802 C 171.157 72.324,266.189 72.615,268.684 73.123 M192.800 89.154 C 189.953 90.719,189.400 91.705,189.400 95.210 C 189.400 100.034,192.238 102.503,196.947 101.775 C 199.601 101.365,228.693 101.371,231.682 101.782 C 234.473 102.166,235.561 101.918,237.226 100.517 C 242.491 96.087,239.400 87.801,232.800 88.649 C 229.916 89.020,200.157 89.036,196.800 88.668 C 194.629 88.430,193.969 88.510,192.800 89.154 M167.600 89.089 C 160.802 91.643,162.550 102.000,169.779 102.000 C 176.071 102.000,179.074 94.617,174.601 90.144 C 173.427 88.970,169.494 88.377,167.600 89.089 M256.008 89.246 C 254.600 89.808,253.630 90.774,252.757 92.484 C 248.982 99.882,259.623 105.757,264.281 98.846 C 267.993 93.338,262.303 86.735,256.008 89.246 M153.787 117.339 C 149.864 118.460,147.046 121.595,146.606 125.331 C 146.471 126.469,146.415 168.364,146.481 218.431 L 146.600 309.463 147.809 311.418 C 151.407 317.237,146.545 316.859,216.000 316.719 L 275.000 316.600 276.800 315.663 C 279.239 314.393,280.287 313.362,281.540 311.000 L 282.600 309.000 282.600 216.600 L 282.600 124.200 281.705 122.526 C 279.888 119.127,278.061 117.857,274.103 117.243 C 269.989 116.605,156.040 116.696,153.787 117.339 M268.831 130.369 L 270.000 131.538 270.005 137.669 C 270.137 303.522,270.148 302.689,267.942 303.830 C 266.204 304.729,162.400 304.681,161.026 303.781 C 158.891 302.382,159.000 307.077,159.000 216.126 L 159.000 131.653 160.175 130.426 L 161.350 129.200 214.506 129.200 L 267.662 129.200 268.831 130.369 M209.000 326.742 C 199.351 329.416,193.400 337.297,193.400 347.400 L 193.400 352.200 195.132 355.680 C 202.533 370.547,221.886 372.282,231.956 358.981 C 243.805 343.329,228.205 321.420,209.000 326.742 M218.847 339.117 C 224.175 341.900,225.545 348.716,221.684 353.227 C 215.193 360.811,202.602 353.768,205.811 344.349 C 207.719 338.749,213.614 336.383,218.847 339.117 M162.600 339.493 C 157.252 340.832,156.301 348.804,161.109 351.989 C 164.110 353.977,166.981 353.473,169.677 350.485 C 174.327 345.332,169.462 337.775,162.600 339.493 M260.905 340.223 C 256.753 342.712,256.104 347.574,259.470 350.972 C 262.503 354.033,266.648 353.901,269.500 350.652 C 274.680 344.753,267.627 336.195,260.905 340.223 " stroke="none" fill="#4e626f" fill-rule="evenodd"></path><path id="path2" d="M188.531 59.900 C 202.573 59.958,225.433 59.958,239.331 59.900 C 253.229 59.842,241.740 59.794,213.800 59.794 C 185.860 59.794,174.489 59.842,188.531 59.900 M293.000 72.400 C 294.306 73.720,295.465 74.800,295.575 74.800 C 295.685 74.800,294.706 73.720,293.400 72.400 C 292.094 71.080,290.935 70.000,290.825 70.000 C 290.715 70.000,291.694 71.080,293.000 72.400 M163.500 73.082 C 163.995 73.178,164.805 73.178,165.300 73.082 C 165.795 72.987,165.390 72.909,164.400 72.909 C 163.410 72.909,163.005 72.987,163.500 73.082 M261.900 73.082 C 262.395 73.178,263.205 73.178,263.700 73.082 C 264.195 72.987,263.790 72.909,262.800 72.909 C 261.810 72.909,261.405 72.987,261.900 73.082 M195.100 88.282 C 195.595 88.378,196.405 88.378,196.900 88.282 C 197.395 88.187,196.990 88.109,196.000 88.109 C 195.010 88.109,194.605 88.187,195.100 88.282 M232.300 88.282 C 232.795 88.378,233.605 88.378,234.100 88.282 C 234.595 88.187,234.190 88.109,233.200 88.109 C 232.210 88.109,231.805 88.187,232.300 88.282 M251.709 95.600 C 251.709 96.590,251.787 96.995,251.882 96.500 C 251.978 96.005,251.978 95.195,251.882 94.700 C 251.787 94.205,251.709 94.610,251.709 95.600 M265.693 95.200 C 265.693 95.970,265.775 96.285,265.876 95.900 C 265.976 95.515,265.976 94.885,265.876 94.500 C 265.775 94.115,265.693 94.430,265.693 95.200 M306.493 99.600 C 306.493 100.370,306.575 100.685,306.676 100.300 C 306.776 99.915,306.776 99.285,306.676 98.900 C 306.575 98.515,306.493 98.830,306.493 99.600 M122.093 101.200 C 122.093 101.970,122.175 102.285,122.276 101.900 C 122.376 101.515,122.376 100.885,122.276 100.500 C 122.175 100.115,122.093 100.430,122.093 101.200 M293.796 178.800 C 293.796 220.710,293.843 237.855,293.900 216.900 C 293.957 195.945,293.957 161.655,293.900 140.700 C 293.843 119.745,293.796 136.890,293.796 178.800 M306.980 130.400 C 306.980 137.990,307.034 141.095,307.099 137.300 C 307.165 133.505,307.165 127.295,307.099 123.500 C 307.034 119.705,306.980 122.810,306.980 130.400 M279.600 119.400 C 280.346 120.170,281.047 120.800,281.157 120.800 C 281.267 120.800,280.746 120.170,280.000 119.400 C 279.254 118.630,278.553 118.000,278.443 118.000 C 278.333 118.000,278.854 118.630,279.600 119.400 M282.944 128.800 C 282.944 130.890,283.012 131.745,283.094 130.700 C 283.176 129.655,283.176 127.945,283.094 126.900 C 283.012 125.855,282.944 126.710,282.944 128.800 M186.062 129.563 L 161.124 129.800 160.173 130.992 L 159.223 132.185 159.217 196.292 C 159.214 238.129,159.349 260.400,159.606 260.400 C 159.823 260.400,160.000 260.208,160.000 259.973 C 160.000 259.738,161.432 258.073,163.182 256.273 C 164.931 254.473,166.741 252.550,167.202 252.000 C 167.664 251.450,170.327 248.653,173.121 245.785 C 175.914 242.917,180.082 238.597,182.382 236.185 C 186.446 231.924,193.198 225.005,223.615 193.931 C 231.653 185.719,240.563 176.577,243.415 173.616 C 246.267 170.655,252.050 164.715,256.266 160.416 C 260.482 156.117,265.297 151.197,266.966 149.482 L 270.000 146.364 270.000 139.643 C 270.000 132.220,269.632 130.697,267.658 129.946 C 266.344 129.446,220.771 129.232,186.062 129.563 M122.137 132.600 C 122.139 134.360,122.209 135.030,122.293 134.089 C 122.378 133.149,122.377 131.709,122.291 130.889 C 122.205 130.070,122.136 130.840,122.137 132.600 M116.181 165.200 C 116.181 173.450,116.234 176.825,116.299 172.700 C 116.364 168.575,116.364 161.825,116.299 157.700 C 116.234 153.575,116.181 156.950,116.181 165.200 M312.581 165.400 C 312.580 173.320,312.634 176.617,312.699 172.726 C 312.765 168.835,312.765 162.355,312.700 158.326 C 312.634 154.297,312.581 157.480,312.581 165.400 M122.134 229.600 C 122.134 231.250,122.205 231.925,122.291 231.100 C 122.378 230.275,122.378 228.925,122.291 228.100 C 122.205 227.275,122.134 227.950,122.134 229.600 M306.987 257.600 C 306.987 270.030,307.038 275.115,307.100 268.900 C 307.162 262.685,307.162 252.515,307.100 246.300 C 307.038 240.085,306.987 245.170,306.987 257.600 M122.144 242.400 C 122.144 244.490,122.212 245.345,122.294 244.300 C 122.376 243.255,122.376 241.545,122.294 240.500 C 122.212 239.455,122.144 240.310,122.144 242.400 M161.131 256.093 C 161.569 255.944,161.571 256.058,161.139 256.749 C 160.077 258.450,159.598 258.110,159.642 255.687 L 159.684 253.400 160.142 254.836 C 160.428 255.733,160.799 256.205,161.131 256.093 M293.793 300.200 C 293.793 325.060,293.841 335.171,293.900 322.669 C 293.959 310.167,293.959 289.827,293.900 277.469 C 293.841 265.111,293.793 275.340,293.793 300.200 M122.190 298.400 C 122.190 314.570,122.239 321.185,122.300 313.100 C 122.360 305.015,122.360 291.785,122.300 283.700 C 122.239 275.615,122.190 282.230,122.190 298.400 M159.443 282.821 C 159.300 283.713,159.362 284.748,159.580 285.121 C 159.875 285.627,159.979 285.212,159.988 283.500 C 160.002 280.801,159.805 280.556,159.443 282.821 M186.500 317.100 C 202.285 317.158,228.115 317.158,243.900 317.100 C 259.685 317.042,246.770 316.995,215.200 316.995 C 183.630 316.995,170.715 317.042,186.500 317.100 M212.912 325.895 C 213.964 325.977,215.584 325.976,216.512 325.892 C 217.440 325.808,216.580 325.741,214.600 325.742 C 212.620 325.743,211.860 325.812,212.912 325.895 M122.150 334.600 C 122.151 337.020,122.216 337.958,122.296 336.685 C 122.376 335.412,122.375 333.432,122.294 332.285 C 122.214 331.138,122.149 332.180,122.150 334.600 M211.293 339.215 C 210.353 339.632,209.479 340.249,209.350 340.587 C 209.220 340.924,208.872 341.200,208.576 341.200 C 208.280 341.200,207.723 341.875,207.340 342.700 C 206.956 343.525,206.484 344.309,206.292 344.441 C 205.091 345.271,206.858 352.905,208.078 352.152 C 208.339 351.991,208.412 352.057,208.254 352.312 C 208.105 352.554,208.655 353.247,209.493 353.872 C 210.322 354.490,211.090 355.104,211.200 355.236 C 211.658 355.788,213.704 356.011,214.238 355.568 C 214.643 355.232,214.800 355.227,214.800 355.551 C 214.800 355.798,215.295 355.986,215.900 355.968 C 216.505 355.951,216.774 355.846,216.498 355.734 C 215.663 355.398,216.370 354.800,217.603 354.800 C 218.905 354.800,220.800 353.277,220.800 352.231 C 220.800 351.858,220.978 351.663,221.195 351.797 C 221.416 351.934,221.493 351.785,221.368 351.461 C 221.246 351.142,221.338 350.762,221.573 350.617 C 221.815 350.467,222.001 350.665,222.002 351.076 C 222.004 351.588,222.180 351.464,222.602 350.654 C 223.275 349.365,223.414 345.379,222.800 345.000 C 222.580 344.864,222.400 344.343,222.400 343.843 C 222.400 342.457,218.866 339.200,217.362 339.200 C 216.859 339.200,216.336 339.020,216.200 338.800 C 215.807 338.164,213.154 338.388,211.293 339.215 M122.101 344.600 C 122.105 345.480,122.187 345.793,122.283 345.295 C 122.379 344.798,122.375 344.078,122.275 343.695 C 122.175 343.313,122.096 343.720,122.101 344.600 M135.293 346.000 C 135.293 346.770,135.375 347.085,135.476 346.700 C 135.576 346.315,135.576 345.685,135.476 345.300 C 135.375 344.915,135.293 345.230,135.293 346.000 M256.893 346.000 C 256.893 346.770,256.975 347.085,257.076 346.700 C 257.176 346.315,257.176 345.685,257.076 345.300 C 256.975 344.915,256.893 345.230,256.893 346.000 M306.509 347.600 C 306.509 348.590,306.587 348.995,306.682 348.500 C 306.778 348.005,306.778 347.195,306.682 346.700 C 306.587 346.205,306.509 346.610,306.509 347.600 M163.905 353.483 C 164.402 353.579,165.122 353.575,165.505 353.475 C 165.887 353.375,165.480 353.296,164.600 353.301 C 163.720 353.305,163.407 353.387,163.905 353.483 M263.700 353.476 C 264.085 353.576,264.715 353.576,265.100 353.476 C 265.485 353.375,265.170 353.293,264.400 353.293 C 263.630 353.293,263.315 353.375,263.700 353.476 M145.183 366.900 C 146.841 368.666,147.200 368.984,147.200 368.683 C 147.200 368.619,146.345 367.764,145.300 366.783 L 143.400 365.000 145.183 366.900 M282.778 367.500 L 281.400 369.000 282.900 367.622 C 283.725 366.863,284.400 366.188,284.400 366.122 C 284.400 365.816,284.062 366.104,282.778 367.500 M294.575 373.700 L 293.400 375.000 294.700 373.825 C 295.912 372.730,296.184 372.400,295.875 372.400 C 295.806 372.400,295.221 372.985,294.575 373.700 M205.926 375.900 C 210.176 375.964,217.016 375.964,221.126 375.899 C 225.237 375.834,221.760 375.781,213.400 375.781 C 205.040 375.782,201.677 375.835,205.926 375.900 M254.121 375.898 C 256.277 375.971,259.697 375.970,261.721 375.898 C 263.744 375.825,261.980 375.766,257.800 375.767 C 253.620 375.767,251.964 375.826,254.121 375.898 " stroke="none" fill="#abbbbc" fill-rule="evenodd"></path><path id="path3" d="M187.669 60.300 C 202.117 60.358,225.877 60.358,240.469 60.300 C 255.061 60.242,243.240 60.194,214.200 60.194 C 185.160 60.194,173.221 60.242,187.669 60.300 M153.400 62.000 C 152.896 62.217,152.822 62.344,153.200 62.344 C 153.530 62.344,154.160 62.189,154.600 62.000 C 155.104 61.783,155.178 61.656,154.800 61.656 C 154.470 61.656,153.840 61.811,153.400 62.000 M290.000 69.725 C 290.000 69.794,290.585 70.379,291.300 71.025 L 292.600 72.200 291.425 70.900 C 290.330 69.688,290.000 69.416,290.000 69.725 M135.200 73.000 C 134.228 73.990,133.523 74.800,133.633 74.800 C 133.743 74.800,134.628 73.990,135.600 73.000 C 136.572 72.010,137.277 71.200,137.167 71.200 C 137.057 71.200,136.172 72.010,135.200 73.000 M191.100 72.700 C 203.695 72.759,224.305 72.759,236.900 72.700 C 249.495 72.641,239.190 72.593,214.000 72.593 C 188.810 72.593,178.505 72.641,191.100 72.700 M265.105 73.083 C 265.602 73.179,266.322 73.175,266.705 73.075 C 267.087 72.975,266.680 72.896,265.800 72.901 C 264.920 72.905,264.607 72.987,265.105 73.083 M157.800 73.619 C 157.242 73.871,157.485 73.907,158.600 73.738 C 159.480 73.604,160.275 73.428,160.367 73.347 C 160.710 73.044,158.568 73.271,157.800 73.619 M268.033 73.347 C 268.125 73.428,268.920 73.604,269.800 73.738 C 270.915 73.907,271.158 73.871,270.600 73.619 C 269.832 73.271,267.690 73.044,268.033 73.347 M152.900 75.212 C 151.561 75.751,151.811 76.024,153.200 75.540 C 153.860 75.310,154.400 75.049,154.400 74.961 C 154.400 74.724,153.913 74.805,152.900 75.212 M132.551 76.100 C 131.370 77.448,130.680 78.400,130.884 78.400 C 130.984 78.400,131.645 77.680,132.352 76.800 C 133.725 75.092,133.864 74.601,132.551 76.100 M147.400 78.644 L 145.800 80.076 147.600 78.761 C 148.590 78.037,149.475 77.390,149.567 77.323 C 149.658 77.255,149.568 77.203,149.367 77.206 C 149.165 77.209,148.280 77.856,147.400 78.644 M284.600 81.600 C 285.906 82.920,287.065 84.000,287.175 84.000 C 287.285 84.000,286.306 82.920,285.000 81.600 C 283.694 80.280,282.535 79.200,282.425 79.200 C 282.315 79.200,283.294 80.280,284.600 81.600 M143.200 82.200 C 142.228 83.190,141.523 84.000,141.633 84.000 C 141.743 84.000,142.628 83.190,143.600 82.200 C 144.572 81.210,145.277 80.400,145.167 80.400 C 145.057 80.400,144.172 81.210,143.200 82.200 M302.000 85.200 C 302.449 86.080,302.906 86.800,303.016 86.800 C 303.126 86.800,302.849 86.080,302.400 85.200 C 301.951 84.320,301.494 83.600,301.384 83.600 C 301.274 83.600,301.551 84.320,302.000 85.200 M289.400 87.600 C 289.741 88.260,290.111 88.800,290.221 88.800 C 290.331 88.800,290.141 88.260,289.800 87.600 C 289.459 86.940,289.089 86.400,288.979 86.400 C 288.869 86.400,289.059 86.940,289.400 87.600 M169.305 88.687 C 169.914 88.779,170.814 88.777,171.305 88.682 C 171.797 88.587,171.300 88.511,170.200 88.514 C 169.100 88.517,168.697 88.595,169.305 88.687 M257.900 88.682 C 258.395 88.778,259.205 88.778,259.700 88.682 C 260.195 88.587,259.790 88.509,258.800 88.509 C 257.810 88.509,257.405 88.587,257.900 88.682 M207.074 89.099 C 211.294 89.164,218.314 89.164,222.674 89.100 C 227.033 89.035,223.580 88.982,215.000 88.982 C 206.420 88.982,202.853 89.035,207.074 89.099 M188.920 95.200 C 188.920 96.410,188.995 96.905,189.087 96.300 C 189.178 95.695,189.178 94.705,189.087 94.100 C 188.995 93.495,188.920 93.990,188.920 95.200 M176.909 95.200 C 176.909 96.190,176.987 96.595,177.082 96.100 C 177.178 95.605,177.178 94.795,177.082 94.300 C 176.987 93.805,176.909 94.210,176.909 95.200 M240.064 94.667 C 240.029 95.364,239.896 96.264,239.770 96.667 C 239.553 97.359,239.565 97.360,239.994 96.691 C 240.245 96.302,240.377 95.402,240.289 94.691 L 240.128 93.400 240.064 94.667 M292.880 96.600 C 292.880 97.040,293.024 97.850,293.200 98.400 C 293.454 99.192,293.520 99.233,293.520 98.600 C 293.520 98.160,293.376 97.350,293.200 96.800 C 292.946 96.008,292.880 95.967,292.880 96.600 M175.894 98.503 L 175.188 99.800 175.994 98.856 C 176.680 98.052,177.046 97.194,176.700 97.203 C 176.645 97.204,176.282 97.789,175.894 98.503 M134.997 221.200 C 134.997 289.290,135.044 317.145,135.100 283.100 C 135.156 249.055,135.156 193.345,135.100 159.300 C 135.044 125.255,134.997 153.110,134.997 221.200 M189.600 98.925 C 189.600 98.994,190.185 99.579,190.900 100.225 L 192.200 101.400 191.025 100.100 C 189.930 98.888,189.600 98.616,189.600 98.925 M253.200 99.810 C 253.200 100.093,256.399 102.135,256.566 101.959 C 256.648 101.871,255.925 101.312,254.958 100.715 C 253.991 100.119,253.200 99.711,253.200 99.810 M306.583 117.400 C 306.583 126.640,306.636 130.363,306.700 125.673 C 306.764 120.983,306.764 113.423,306.699 108.873 C 306.635 104.323,306.583 108.160,306.583 117.400 M198.712 101.528 C 198.079 101.778,218.123 101.742,226.000 101.478 C 227.870 101.416,222.650 101.340,214.400 101.310 C 206.150 101.281,199.090 101.379,198.712 101.528 M168.700 102.282 C 169.195 102.378,170.005 102.378,170.500 102.282 C 170.995 102.187,170.590 102.109,169.600 102.109 C 168.610 102.109,168.205 102.187,168.700 102.282 M195.100 102.282 C 195.595 102.378,196.405 102.378,196.900 102.282 C 197.395 102.187,196.990 102.109,196.000 102.109 C 195.010 102.109,194.605 102.187,195.100 102.282 M232.105 102.287 C 232.714 102.379,233.614 102.377,234.105 102.282 C 234.597 102.187,234.100 102.111,233.000 102.114 C 231.900 102.117,231.497 102.195,232.105 102.287 M257.905 102.283 C 258.402 102.379,259.122 102.375,259.505 102.275 C 259.887 102.175,259.480 102.096,258.600 102.101 C 257.720 102.105,257.407 102.187,257.905 102.283 M122.180 116.000 C 122.180 123.590,122.234 126.695,122.299 122.900 C 122.365 119.105,122.365 112.895,122.299 109.100 C 122.234 105.305,122.180 108.410,122.180 116.000 M272.900 117.076 C 273.285 117.176,273.915 117.176,274.300 117.076 C 274.685 116.975,274.370 116.893,273.600 116.893 C 272.830 116.893,272.515 116.975,272.900 117.076 M146.197 216.400 C 146.197 266.450,146.243 286.925,146.300 261.900 C 146.357 236.875,146.357 195.925,146.300 170.900 C 146.243 145.875,146.197 166.350,146.197 216.400 M160.275 130.322 C 159.684 130.939,159.201 131.614,159.202 131.822 C 159.203 132.030,159.636 131.660,160.164 131.000 L 161.124 129.800 186.062 129.594 L 211.000 129.388 186.175 129.294 L 161.350 129.200 160.275 130.322 M259.640 129.581 C 267.990 129.803,269.200 130.036,269.200 131.425 C 269.200 131.715,269.380 132.064,269.600 132.200 C 270.465 132.735,269.935 131.474,268.831 130.369 L 267.662 129.200 259.531 129.281 L 251.400 129.361 259.640 129.581 M282.996 219.800 C 282.996 267.980,283.043 287.749,283.100 263.732 C 283.157 239.715,283.157 200.295,283.100 176.132 C 283.043 151.969,282.996 171.620,282.996 219.800 M158.986 217.000 C 159.001 307.123,158.886 302.021,160.947 303.691 C 161.745 304.338,165.162 304.383,214.320 304.391 C 271.411 304.401,268.472 304.517,269.522 302.211 C 270.031 301.095,270.260 146.800,269.754 146.800 C 269.618 146.800,268.257 148.105,266.728 149.700 C 265.200 151.295,260.496 156.117,256.275 160.416 C 252.054 164.715,246.267 170.655,243.415 173.616 C 240.563 176.577,231.653 185.719,223.615 193.931 C 193.198 225.005,186.446 231.924,182.382 236.185 C 180.082 238.597,175.914 242.917,173.121 245.785 C 170.327 248.653,167.664 251.450,167.202 252.000 C 166.741 252.550,164.931 254.473,163.182 256.273 C 161.432 258.073,160.000 259.738,160.000 259.973 C 160.000 260.208,159.821 260.400,159.601 260.400 C 159.338 260.400,159.163 238.693,159.087 196.700 C 159.005 151.196,158.976 156.994,158.986 217.000 M121.998 140.082 C 121.889 142.656,121.941 144.621,122.114 144.447 C 122.287 144.274,122.376 142.167,122.312 139.766 L 122.196 135.400 121.998 140.082 M117.600 183.325 C 117.600 183.394,118.185 183.979,118.900 184.625 L 120.200 185.800 119.025 184.500 C 117.930 183.288,117.600 183.016,117.600 183.325 M310.233 184.363 C 309.853 184.783,309.009 185.348,308.358 185.617 C 307.707 185.887,307.253 186.187,307.350 186.283 C 307.631 186.564,309.732 185.360,310.563 184.441 C 310.982 183.978,311.234 183.600,311.124 183.600 C 311.014 183.600,310.613 183.944,310.233 184.363 M121.097 186.251 L 121.993 187.000 122.102 207.000 L 122.211 227.000 122.206 206.849 L 122.200 186.697 121.200 186.100 L 120.200 185.502 121.097 186.251 M306.596 266.400 C 306.596 310.290,306.643 328.245,306.700 306.300 C 306.757 284.355,306.757 248.445,306.700 226.500 C 306.643 204.555,306.596 222.510,306.596 266.400 M122.093 233.600 C 122.093 234.370,122.175 234.685,122.276 234.300 C 122.376 233.915,122.376 233.285,122.276 232.900 C 122.175 232.515,122.093 232.830,122.093 233.600 M122.093 237.600 C 122.093 238.370,122.175 238.685,122.276 238.300 C 122.376 237.915,122.376 237.285,122.276 236.900 C 122.175 236.515,122.093 236.830,122.093 237.600 M122.176 257.000 C 122.176 263.160,122.232 265.624,122.299 262.476 C 122.367 259.327,122.367 254.287,122.299 251.276 C 122.231 248.264,122.176 250.840,122.176 257.000 M159.988 283.500 C 159.979 285.212,159.875 285.627,159.580 285.121 C 159.232 284.524,159.462 281.200,159.851 281.200 C 159.933 281.200,159.995 282.235,159.988 283.500 M147.914 312.200 C 148.141 312.640,148.838 313.449,149.463 313.999 L 150.600 314.997 149.403 313.599 C 147.507 311.382,147.480 311.358,147.914 312.200 M279.829 313.562 L 278.658 315.000 280.009 313.713 C 280.751 313.005,281.278 312.358,281.179 312.275 C 281.081 312.192,280.473 312.771,279.829 313.562 M153.400 316.400 C 153.840 316.589,154.560 316.738,155.000 316.732 C 155.643 316.723,155.604 316.657,154.800 316.400 C 153.432 315.962,152.381 315.962,153.400 316.400 M122.101 329.000 C 122.105 329.880,122.187 330.193,122.283 329.695 C 122.379 329.198,122.375 328.478,122.275 328.095 C 122.175 327.713,122.096 328.120,122.101 329.000 M225.400 328.665 C 226.422 329.633,228.933 331.271,228.327 330.574 C 227.957 330.148,227.057 329.459,226.327 329.043 C 225.597 328.627,225.180 328.457,225.400 328.665 M199.200 332.200 C 198.228 333.190,197.523 334.000,197.633 334.000 C 197.743 334.000,198.628 333.190,199.600 332.200 C 200.572 331.210,201.277 330.400,201.167 330.400 C 201.057 330.400,200.172 331.210,199.200 332.200 M210.491 338.847 C 203.782 342.167,203.581 351.449,210.136 355.209 C 216.931 359.106,225.255 353.220,223.672 345.638 C 222.405 339.571,215.851 336.194,210.491 338.847 M216.200 338.800 C 216.336 339.020,216.859 339.200,217.362 339.200 C 218.866 339.200,222.400 342.457,222.400 343.843 C 222.400 344.343,222.580 344.864,222.800 345.000 C 223.414 345.379,223.275 349.365,222.602 350.654 C 222.180 351.464,222.004 351.588,222.002 351.076 C 222.001 350.665,221.815 350.467,221.573 350.617 C 221.338 350.762,221.246 351.142,221.368 351.461 C 221.493 351.785,221.416 351.934,221.195 351.797 C 220.978 351.663,220.800 351.858,220.800 352.231 C 220.800 353.277,218.905 354.800,217.603 354.800 C 216.370 354.800,215.663 355.398,216.498 355.734 C 216.774 355.846,216.505 355.951,215.900 355.968 C 215.295 355.986,214.800 355.798,214.800 355.551 C 214.800 355.227,214.643 355.232,214.238 355.568 C 213.704 356.011,211.658 355.788,211.200 355.236 C 211.090 355.104,210.322 354.490,209.493 353.872 C 208.655 353.247,208.105 352.554,208.254 352.312 C 208.412 352.057,208.339 351.991,208.078 352.152 C 206.858 352.905,205.091 345.271,206.292 344.441 C 206.484 344.309,206.956 343.525,207.340 342.700 C 207.723 341.875,208.280 341.200,208.576 341.200 C 208.872 341.200,209.220 340.924,209.350 340.587 C 209.888 339.185,215.529 337.714,216.200 338.800 M122.124 341.000 C 122.126 342.320,122.201 342.812,122.290 342.093 C 122.379 341.374,122.377 340.294,122.286 339.693 C 122.195 339.092,122.122 339.680,122.124 341.000 M162.938 339.106 C 162.684 339.268,163.522 339.400,164.800 339.400 C 166.078 339.400,166.916 339.268,166.662 339.106 C 166.408 338.944,165.570 338.812,164.800 338.812 C 164.030 338.812,163.192 338.944,162.938 339.106 M263.500 339.082 C 263.995 339.178,264.805 339.178,265.300 339.082 C 265.795 338.987,265.390 338.909,264.400 338.909 C 263.410 338.909,263.005 338.987,263.500 339.082 M167.800 339.854 C 168.020 340.048,168.829 340.745,169.599 341.403 L 170.997 342.600 169.999 341.463 C 169.449 340.838,168.640 340.141,168.200 339.914 C 167.760 339.688,167.580 339.661,167.800 339.854 M267.600 339.711 C 267.600 339.787,268.185 340.278,268.900 340.801 C 269.704 341.390,269.984 341.487,269.633 341.055 C 269.100 340.399,267.600 339.407,267.600 339.711 M271.087 345.266 C 271.329 348.197,271.532 348.595,271.562 346.200 C 271.576 345.100,271.435 343.960,271.249 343.666 C 271.051 343.354,270.984 344.018,271.087 345.266 M157.720 346.000 C 157.720 347.210,157.795 347.705,157.887 347.100 C 157.978 346.495,157.978 345.505,157.887 344.900 C 157.795 344.295,157.720 344.790,157.720 346.000 M192.940 347.200 C 192.940 349.070,193.009 349.835,193.093 348.900 C 193.177 347.965,193.177 346.435,193.093 345.500 C 193.009 344.565,192.940 345.330,192.940 347.200 M122.501 346.200 C 122.505 347.080,122.587 347.393,122.683 346.895 C 122.779 346.398,122.775 345.678,122.675 345.295 C 122.575 344.913,122.496 345.320,122.501 346.200 M235.850 349.650 C 235.709 350.353,235.669 351.002,235.759 351.092 C 235.850 351.183,236.048 350.691,236.200 350.000 C 236.352 349.309,236.393 348.659,236.291 348.558 C 236.189 348.456,235.991 348.947,235.850 349.650 M270.800 348.732 C 270.800 348.988,270.132 349.963,269.315 350.899 C 267.905 352.513,267.896 352.539,269.149 351.400 C 270.600 350.081,271.393 348.860,271.032 348.499 C 270.905 348.371,270.800 348.476,270.800 348.732 M293.029 349.829 C 292.881 350.415,292.838 350.972,292.932 351.066 C 293.027 351.160,293.224 350.758,293.371 350.171 C 293.519 349.585,293.562 349.028,293.468 348.934 C 293.373 348.840,293.176 349.242,293.029 349.829 M169.178 351.100 L 167.800 352.600 169.300 351.222 C 170.696 349.938,170.984 349.600,170.678 349.600 C 170.612 349.600,169.937 350.275,169.178 351.100 M135.606 350.633 C 135.609 351.055,135.795 351.670,136.018 352.000 C 136.315 352.438,136.352 352.276,136.156 351.400 C 135.827 349.929,135.598 349.610,135.606 350.633 M292.229 353.029 C 292.081 353.615,292.038 354.172,292.132 354.266 C 292.227 354.360,292.424 353.958,292.571 353.371 C 292.719 352.785,292.762 352.228,292.668 352.134 C 292.573 352.040,292.376 352.442,292.229 353.029 M194.800 355.786 C 194.800 356.205,196.406 358.800,196.665 358.800 C 196.775 358.800,196.459 358.125,195.963 357.300 C 194.858 355.462,194.800 355.387,194.800 355.786 M290.481 357.409 C 290.002 358.394,289.694 359.200,289.797 359.200 C 290.068 359.200,291.684 355.951,291.503 355.770 C 291.419 355.686,290.959 356.424,290.481 357.409 M138.400 358.000 C 138.849 358.880,139.306 359.600,139.416 359.600 C 139.526 359.600,139.249 358.880,138.800 358.000 C 138.351 357.120,137.894 356.400,137.784 356.400 C 137.674 356.400,137.951 357.120,138.400 358.000 M232.175 358.668 C 231.559 359.476,231.259 360.011,231.509 359.856 C 232.021 359.540,233.753 357.200,233.475 357.200 C 233.376 357.200,232.791 357.861,232.175 358.668 M125.267 358.820 C 125.501 359.492,125.767 359.967,125.857 359.876 C 126.056 359.678,125.301 357.600,125.031 357.600 C 124.927 357.600,125.033 358.149,125.267 358.820 M198.800 361.400 C 199.995 362.610,201.063 363.600,201.173 363.600 C 201.283 363.600,200.395 362.610,199.200 361.400 C 198.005 360.190,196.937 359.200,196.827 359.200 C 196.717 359.200,197.605 360.190,198.800 361.400 M288.439 361.024 C 287.977 361.807,287.780 362.336,288.002 362.199 C 288.436 361.931,289.734 359.600,289.450 359.600 C 289.356 359.600,288.901 360.241,288.439 361.024 M139.949 360.600 C 140.165 361.040,140.634 361.760,140.993 362.200 L 141.644 363.000 141.251 362.200 C 141.035 361.760,140.566 361.040,140.207 360.600 L 139.556 359.800 139.949 360.600 M230.002 361.398 C 229.486 361.947,228.105 363.057,226.932 363.865 C 224.590 365.477,224.095 366.059,226.031 364.923 C 227.330 364.160,231.563 360.449,231.170 360.418 C 231.043 360.408,230.518 360.849,230.002 361.398 M143.123 365.100 C 144.001 366.145,145.222 367.450,145.837 368.000 C 146.451 368.550,145.803 367.695,144.396 366.100 C 141.532 362.854,140.657 362.167,143.123 365.100 M284.187 366.500 L 281.800 369.000 284.300 366.613 C 285.675 365.299,286.800 364.174,286.800 364.113 C 286.800 363.817,286.405 364.178,284.187 366.500 M207.600 367.182 C 207.930 367.405,208.545 367.591,208.967 367.594 C 209.990 367.602,209.671 367.373,208.200 367.044 C 207.324 366.848,207.162 366.885,207.600 367.182 M220.000 367.200 C 219.176 367.464,219.141 367.526,219.800 367.554 C 220.240 367.573,220.870 367.413,221.200 367.200 C 221.901 366.747,221.414 366.747,220.000 367.200 M297.835 369.219 C 297.245 370.110,296.187 371.523,295.482 372.360 C 294.777 373.197,295.010 373.022,296.000 371.972 C 297.638 370.233,299.491 367.600,299.076 367.600 C 298.983 367.600,298.424 368.329,297.835 369.219 M212.691 368.289 C 213.401 368.377,214.661 368.379,215.491 368.292 C 216.321 368.205,215.740 368.133,214.200 368.131 C 212.660 368.129,211.981 368.200,212.691 368.289 M147.344 369.109 C 147.660 369.621,150.000 371.353,150.000 371.075 C 150.000 370.976,149.339 370.391,148.532 369.775 C 147.724 369.159,147.189 368.859,147.344 369.109 M276.000 372.400 C 275.230 372.822,274.744 373.174,274.920 373.183 C 275.344 373.205,277.600 372.032,277.600 371.790 C 277.600 371.528,277.577 371.537,276.000 372.400 M136.000 375.342 C 136.990 376.400,138.700 378.003,139.800 378.904 C 142.112 380.796,141.418 380.070,137.200 376.182 C 135.250 374.384,134.830 374.090,136.000 375.342 M158.000 374.800 C 159.368 375.238,160.419 375.238,159.400 374.800 C 158.960 374.611,158.240 374.462,157.800 374.468 C 157.157 374.477,157.196 374.543,158.000 374.800 M161.737 375.694 C 161.992 375.856,170.390 375.951,180.400 375.907 C 190.410 375.862,196.350 375.776,193.600 375.715 C 181.231 375.441,161.318 375.427,161.737 375.694 M232.478 375.898 C 234.831 375.969,238.791 375.969,241.278 375.899 C 243.765 375.829,241.840 375.771,237.000 375.770 C 232.160 375.770,230.125 375.828,232.478 375.898 M247.900 375.882 C 248.395 375.978,249.205 375.978,249.700 375.882 C 250.195 375.787,249.790 375.709,248.800 375.709 C 247.810 375.709,247.405 375.787,247.900 375.882 M289.394 378.128 C 288.291 379.048,286.941 380.123,286.394 380.517 C 285.438 381.207,285.451 381.207,286.724 380.517 C 287.944 379.857,292.057 376.422,291.600 376.446 C 291.490 376.452,290.497 377.209,289.394 378.128 M142.600 381.007 C 143.040 381.366,143.760 381.835,144.200 382.051 L 145.000 382.444 144.200 381.793 C 143.760 381.434,143.040 380.965,142.600 380.749 L 141.800 380.356 142.600 381.007 M161.100 388.282 C 161.595 388.378,162.405 388.378,162.900 388.282 C 163.395 388.187,162.990 388.109,162.000 388.109 C 161.010 388.109,160.605 388.187,161.100 388.282 M266.305 388.283 C 266.802 388.379,267.522 388.375,267.905 388.275 C 268.287 388.175,267.880 388.096,267.000 388.101 C 266.120 388.105,265.807 388.187,266.305 388.283 M189.531 388.700 C 203.463 388.758,226.143 388.758,239.931 388.700 C 253.719 388.642,242.320 388.594,214.600 388.594 C 186.880 388.594,175.599 388.642,189.531 388.700 " stroke="none" fill="#8ca4a5" fill-rule="evenodd"></path><path id="path4" d="M161.300 59.876 C 161.685 59.976,162.315 59.976,162.700 59.876 C 163.085 59.775,162.770 59.693,162.000 59.693 C 161.230 59.693,160.915 59.775,161.300 59.876 M265.100 59.882 C 265.595 59.978,266.405 59.978,266.900 59.882 C 267.395 59.787,266.990 59.709,266.000 59.709 C 265.010 59.709,264.605 59.787,265.100 59.882 M140.922 67.829 L 139.800 68.858 141.100 67.954 C 141.815 67.457,142.400 66.993,142.400 66.925 C 142.400 66.609,141.958 66.880,140.922 67.829 M134.989 72.900 L 132.200 75.800 135.100 73.011 C 137.794 70.420,138.183 70.000,137.889 70.000 C 137.828 70.000,136.523 71.305,134.989 72.900 M293.583 72.500 C 294.564 73.545,295.419 74.400,295.483 74.400 C 295.784 74.400,295.466 74.041,293.700 72.383 L 291.800 70.600 293.583 72.500 M163.000 73.262 C 156.036 74.040,145.112 78.709,147.215 80.009 C 147.489 80.179,147.417 80.454,147.010 80.792 C 146.477 81.234,146.420 81.213,146.634 80.657 C 147.284 78.961,142.083 83.485,141.114 85.458 C 140.914 85.866,141.173 85.705,141.690 85.100 C 142.207 84.495,142.958 84.000,143.358 84.000 C 143.822 84.000,144.007 83.794,143.868 83.433 C 143.748 83.121,143.909 82.767,144.225 82.646 C 144.541 82.524,144.800 82.569,144.800 82.746 C 144.800 82.922,145.053 83.067,145.362 83.067 C 145.695 83.067,145.831 82.824,145.695 82.472 C 145.510 81.988,145.760 81.916,147.037 82.087 C 148.263 82.252,148.911 82.090,149.992 81.349 C 150.754 80.827,151.608 80.400,151.889 80.400 C 152.170 80.400,152.400 80.236,152.400 80.036 C 152.400 79.719,153.256 79.209,156.820 77.405 C 157.249 77.188,157.600 76.873,157.600 76.705 C 157.600 76.537,157.945 76.400,158.368 76.400 C 158.790 76.400,159.645 76.141,160.268 75.824 C 162.723 74.573,165.235 73.598,166.096 73.560 C 166.593 73.538,167.450 73.376,168.000 73.200 C 169.389 72.755,167.306 72.781,163.000 73.262 M263.900 73.496 C 265.275 73.574,266.400 73.810,266.400 74.019 C 266.400 74.229,266.649 74.400,266.954 74.400 C 267.259 74.400,268.024 74.669,268.654 74.998 C 269.284 75.326,270.093 75.596,270.451 75.598 C 270.809 75.599,271.346 75.894,271.644 76.253 C 271.942 76.612,273.332 77.453,274.733 78.123 C 276.134 78.792,277.486 79.668,277.736 80.070 C 277.987 80.471,278.438 80.800,278.738 80.800 C 279.038 80.800,281.249 82.787,283.651 85.216 C 286.052 87.644,288.239 89.603,288.509 89.568 C 289.535 89.437,290.000 89.619,290.000 90.151 C 290.000 90.454,290.270 90.926,290.600 91.200 C 290.930 91.474,291.200 92.115,291.200 92.625 C 291.200 93.135,291.380 93.664,291.600 93.800 C 292.345 94.260,292.006 92.989,290.603 90.063 C 289.693 88.163,289.045 87.249,288.742 87.436 C 288.446 87.619,288.384 87.549,288.572 87.245 C 289.075 86.432,285.698 82.474,282.000 79.540 C 280.125 78.052,278.198 77.036,273.800 75.212 C 270.651 73.907,266.633 73.160,263.400 73.280 C 261.547 73.349,261.584 73.365,263.900 73.496 M139.292 87.829 C 138.797 88.583,138.535 89.200,138.710 89.200 C 139.070 89.200,140.556 86.822,140.334 86.601 C 140.255 86.522,139.786 87.074,139.292 87.829 M168.200 88.201 C 169.116 88.517,173.195 88.643,172.717 88.340 C 172.433 88.160,171.210 88.024,170.000 88.038 C 168.790 88.052,167.980 88.125,168.200 88.201 M198.614 88.453 C 199.266 88.592,205.740 88.693,213.000 88.679 C 220.260 88.664,225.300 88.599,224.200 88.533 C 219.994 88.283,197.486 88.212,198.614 88.453 M229.200 88.400 C 227.833 88.688,227.828 88.695,229.000 88.719 C 229.660 88.733,230.560 88.589,231.000 88.400 C 231.962 87.987,231.164 87.987,229.200 88.400 M256.537 88.306 C 256.283 88.468,257.210 88.600,258.598 88.600 C 259.985 88.600,261.038 88.465,260.937 88.300 C 260.700 87.915,257.146 87.919,256.537 88.306 M190.247 90.401 C 189.451 91.282,188.800 92.133,188.800 92.292 C 188.800 92.452,189.351 91.914,190.024 91.098 C 190.697 90.281,191.552 89.436,191.924 89.219 C 192.296 89.002,192.396 88.819,192.147 88.812 C 191.897 88.805,191.042 89.521,190.247 90.401 M262.200 89.054 C 262.420 89.248,263.229 89.945,263.999 90.603 L 265.397 91.800 264.399 90.663 C 263.849 90.038,263.040 89.341,262.600 89.114 C 262.160 88.888,261.980 88.861,262.200 89.054 M164.575 90.500 L 163.400 91.800 164.700 90.625 C 165.912 89.530,166.184 89.200,165.875 89.200 C 165.806 89.200,165.221 89.785,164.575 90.500 M253.375 90.500 L 252.200 91.800 253.500 90.625 C 254.215 89.979,254.800 89.394,254.800 89.325 C 254.800 89.016,254.470 89.288,253.375 90.500 M265.787 95.200 C 265.787 97.393,265.837 97.568,266.151 96.471 C 266.371 95.706,266.371 94.694,266.151 93.929 C 265.837 92.832,265.787 93.007,265.787 95.200 M188.520 95.200 C 188.520 96.410,188.595 96.905,188.687 96.300 C 188.778 95.695,188.778 94.705,188.687 94.100 C 188.595 93.495,188.520 93.990,188.520 95.200 M177.270 95.067 C 177.231 95.984,177.096 97.064,176.970 97.467 C 176.753 98.156,176.767 98.157,177.193 97.495 C 177.442 97.107,177.577 96.027,177.493 95.095 L 177.340 93.400 177.270 95.067 M292.056 95.200 C 292.056 95.750,292.211 96.560,292.400 97.000 C 292.713 97.729,292.744 97.712,292.744 96.800 C 292.744 96.250,292.589 95.440,292.400 95.000 C 292.087 94.271,292.056 94.288,292.056 95.200 M306.273 96.400 C 306.404 97.390,306.576 98.275,306.656 98.367 C 306.957 98.714,306.728 96.164,306.390 95.400 C 306.153 94.866,306.114 95.198,306.273 96.400 M135.301 99.800 C 135.305 100.680,135.387 100.993,135.483 100.495 C 135.579 99.998,135.575 99.278,135.475 98.895 C 135.375 98.513,135.296 98.920,135.301 99.800 M175.599 99.700 C 175.010 100.504,174.913 100.784,175.345 100.433 C 176.001 99.900,176.993 98.400,176.689 98.400 C 176.613 98.400,176.122 98.985,175.599 99.700 M264.323 99.545 C 264.035 99.955,263.100 100.765,262.244 101.345 C 261.388 101.925,260.859 102.400,261.066 102.400 C 261.630 102.400,264.008 100.567,264.669 99.623 C 264.986 99.171,265.155 98.800,265.045 98.800 C 264.935 98.800,264.610 99.135,264.323 99.545 M163.600 99.325 C 163.600 99.394,164.185 99.979,164.900 100.625 L 166.200 101.800 165.025 100.500 C 163.930 99.288,163.600 99.016,163.600 99.325 M253.201 100.137 C 253.751 100.762,254.560 101.459,255.000 101.686 C 255.842 102.120,255.818 102.093,253.601 100.197 L 252.203 99.000 253.201 100.137 M293.389 127.200 C 293.389 142.050,293.439 148.125,293.500 140.700 C 293.561 133.275,293.561 121.125,293.500 113.700 C 293.439 106.275,293.389 112.350,293.389 127.200 M306.969 108.800 C 306.969 113.310,307.027 115.155,307.098 112.900 C 307.170 110.645,307.170 106.955,307.098 104.700 C 307.027 102.445,306.969 104.290,306.969 108.800 M206.900 101.899 C 211.025 101.964,217.775 101.964,221.900 101.899 C 226.025 101.834,222.650 101.781,214.400 101.781 C 206.150 101.781,202.775 101.834,206.900 101.899 M171.000 102.400 L 169.800 102.705 170.876 102.753 C 171.468 102.779,172.064 102.620,172.200 102.400 C 172.336 102.180,172.392 102.021,172.324 102.047 C 172.256 102.073,171.660 102.232,171.000 102.400 M193.600 102.382 C 193.930 102.605,194.545 102.791,194.967 102.794 C 195.990 102.802,195.671 102.573,194.200 102.244 C 193.324 102.048,193.162 102.085,193.600 102.382 M197.000 102.400 C 195.893 102.682,195.877 102.709,196.800 102.747 C 197.350 102.769,198.070 102.613,198.400 102.400 C 199.081 101.960,198.729 101.960,197.000 102.400 M230.537 102.494 C 231.146 102.881,235.100 102.886,235.337 102.500 C 235.438 102.335,234.295 102.200,232.798 102.200 C 231.300 102.200,230.282 102.332,230.537 102.494 M256.446 102.437 C 256.751 102.630,257.810 102.776,258.800 102.762 C 260.933 102.732,260.555 102.540,257.846 102.276 C 256.642 102.159,256.105 102.221,256.446 102.437 M263.700 116.697 C 265.185 116.774,267.615 116.774,269.100 116.697 C 270.585 116.620,269.370 116.557,266.400 116.557 C 263.430 116.557,262.215 116.620,263.700 116.697 M159.301 143.400 C 159.305 144.280,159.387 144.593,159.483 144.095 C 159.579 143.598,159.575 142.878,159.475 142.495 C 159.375 142.113,159.296 142.520,159.301 143.400 M312.600 165.640 C 312.600 174.225,312.717 180.833,312.860 180.325 C 313.208 179.089,313.219 151.588,312.872 150.716 C 312.722 150.339,312.600 157.055,312.600 165.640 M293.388 196.400 C 293.388 209.710,293.438 215.155,293.500 208.500 C 293.561 201.845,293.561 190.955,293.500 184.300 C 293.438 177.645,293.388 183.090,293.388 196.400 M310.175 184.900 L 309.000 186.200 310.300 185.025 C 311.015 184.379,311.600 183.794,311.600 183.725 C 311.600 183.416,311.270 183.688,310.175 184.900 M306.988 211.200 C 306.988 224.510,307.038 229.955,307.100 223.300 C 307.161 216.645,307.161 205.755,307.100 199.100 C 307.038 192.445,306.988 197.890,306.988 211.200 M135.298 271.800 C 135.214 345.599,135.297 350.315,136.735 353.067 C 136.945 353.470,137.444 354.610,137.843 355.600 C 141.367 364.341,149.924 372.283,157.992 374.300 C 159.206 374.603,160.830 375.016,161.600 375.216 C 164.846 376.062,265.948 375.679,269.270 374.809 C 273.157 373.791,278.896 371.068,280.637 369.415 C 280.878 369.187,281.917 368.228,282.946 367.284 C 287.253 363.334,290.795 357.625,292.509 351.870 C 293.359 349.016,293.364 348.757,293.392 304.000 C 293.412 273.572,293.353 266.610,293.211 282.500 C 293.079 297.183,292.856 305.963,292.617 305.900 C 292.406 305.845,291.984 306.520,291.678 307.400 C 291.373 308.280,290.928 309.450,290.689 310.000 C 289.622 312.457,289.212 313.900,289.206 315.220 C 289.203 316.001,289.025 316.815,288.812 317.028 C 288.598 317.242,288.216 318.763,287.963 320.408 C 287.371 324.254,287.019 326.258,286.242 330.200 C 285.895 331.960,285.149 335.920,284.585 339.000 C 283.383 345.563,281.673 351.360,280.176 353.938 C 277.785 358.060,271.633 363.988,269.732 364.002 C 269.549 364.004,268.898 364.267,268.283 364.587 C 265.629 365.972,263.151 366.150,244.679 366.283 C 234.602 366.356,226.086 366.264,225.754 366.078 C 225.368 365.862,224.475 366.053,223.275 366.608 C 220.220 368.022,217.358 368.495,213.400 368.241 C 207.763 367.879,207.200 367.816,207.200 367.549 C 207.200 367.410,206.615 367.060,205.900 366.771 C 205.185 366.482,204.510 366.141,204.400 366.013 C 204.290 365.886,203.660 365.461,203.000 365.069 L 201.800 364.356 203.000 365.381 L 204.200 366.406 185.400 366.284 C 175.060 366.216,166.150 366.059,165.600 365.934 C 159.169 364.474,150.000 358.460,150.000 355.703 C 150.000 355.426,149.847 355.200,149.659 355.200 C 149.208 355.200,146.984 350.278,146.405 348.000 C 146.154 347.010,145.797 345.660,145.611 345.000 C 145.426 344.340,144.986 342.360,144.633 340.600 C 144.280 338.840,143.790 336.410,143.543 335.200 C 143.296 333.990,142.943 332.010,142.760 330.800 C 142.293 327.722,141.740 324.877,141.243 323.000 C 141.010 322.120,140.815 320.556,140.810 319.524 C 140.804 318.492,140.620 317.536,140.400 317.400 C 140.180 317.264,140.000 316.634,140.000 316.000 C 140.000 315.366,139.844 314.751,139.653 314.632 C 139.333 314.435,138.700 311.816,138.630 310.400 C 138.613 310.070,138.195 309.149,137.700 308.353 C 137.205 307.557,136.800 306.601,136.800 306.229 C 136.800 305.857,136.620 305.664,136.400 305.800 C 135.803 306.169,135.851 309.382,135.608 252.800 L 135.381 199.800 135.298 271.800 M293.334 225.200 C 293.334 226.850,293.405 227.525,293.491 226.700 C 293.578 225.875,293.578 224.525,293.491 223.700 C 293.405 222.875,293.334 223.550,293.334 225.200 M159.642 255.687 C 159.598 258.110,160.077 258.450,161.139 256.749 C 161.571 256.058,161.569 255.944,161.131 256.093 C 160.799 256.205,160.428 255.733,160.142 254.836 L 159.684 253.400 159.642 255.687 M306.991 313.200 C 306.991 331.570,307.040 339.085,307.100 329.900 C 307.160 320.715,307.160 305.685,307.100 296.500 C 307.040 287.315,306.991 294.830,306.991 313.200 M280.799 312.900 C 280.210 313.704,280.113 313.984,280.545 313.633 C 281.201 313.100,282.193 311.600,281.889 311.600 C 281.813 311.600,281.322 312.185,280.799 312.900 M154.900 317.087 C 155.505 317.178,156.495 317.178,157.100 317.087 C 157.705 316.995,157.210 316.920,156.000 316.920 C 154.790 316.920,154.295 316.995,154.900 317.087 M273.105 317.083 C 273.602 317.179,274.322 317.175,274.705 317.075 C 275.087 316.975,274.680 316.896,273.800 316.901 C 272.920 316.905,272.607 316.987,273.105 317.083 M167.900 317.496 C 169.275 317.574,171.525 317.574,172.900 317.496 C 174.275 317.418,173.150 317.354,170.400 317.354 C 167.650 317.354,166.525 317.418,167.900 317.496 M177.091 317.489 C 177.801 317.577,179.061 317.579,179.891 317.492 C 180.721 317.405,180.140 317.333,178.600 317.331 C 177.060 317.329,176.381 317.400,177.091 317.489 M221.528 317.500 C 227.318 317.562,236.678 317.562,242.328 317.500 C 247.978 317.437,243.240 317.386,231.800 317.386 C 220.360 317.386,215.738 317.437,221.528 317.500 M209.000 326.000 C 207.981 326.438,209.032 326.438,210.400 326.000 C 211.204 325.743,211.243 325.677,210.600 325.668 C 210.160 325.662,209.440 325.811,209.000 326.000 M218.033 325.743 C 218.125 325.821,218.830 326.001,219.600 326.142 C 220.585 326.323,220.822 326.282,220.400 326.006 C 219.858 325.650,217.637 325.403,218.033 325.743 M199.087 331.966 C 197.279 333.708,195.890 335.193,196.000 335.266 C 196.110 335.340,197.687 333.915,199.504 332.100 C 203.718 327.891,203.418 327.795,199.087 331.966 M227.200 329.268 C 228.862 330.944,232.055 333.621,231.000 332.453 C 230.340 331.723,229.080 330.572,228.200 329.894 C 227.320 329.217,226.870 328.935,227.200 329.268 M232.837 335.200 C 233.996 336.996,234.000 337.001,233.998 336.567 C 233.997 336.365,233.532 335.660,232.965 335.000 L 231.934 333.800 232.837 335.200 M194.388 338.022 C 194.146 338.474,194.007 339.022,194.080 339.239 C 194.152 339.457,194.418 339.087,194.671 338.417 C 195.197 337.025,195.039 336.805,194.388 338.022 M161.600 339.081 C 160.774 339.380,158.425 341.626,157.918 342.600 C 157.689 343.040,158.175 342.627,158.997 341.682 C 159.820 340.737,161.057 339.717,161.746 339.415 C 162.951 338.887,162.839 338.632,161.600 339.081 M168.286 339.805 C 168.762 340.138,169.730 341.083,170.439 341.905 C 171.512 343.150,171.605 343.199,170.997 342.200 C 170.187 340.870,168.415 339.201,167.811 339.200 C 167.597 339.200,167.811 339.472,168.286 339.805 M267.635 339.300 C 267.728 339.355,268.433 339.940,269.202 340.600 L 270.600 341.800 269.425 340.500 C 268.779 339.785,268.074 339.200,267.858 339.200 C 267.643 339.200,267.543 339.245,267.635 339.300 M258.575 341.300 L 257.400 342.600 258.700 341.425 C 259.415 340.779,260.000 340.194,260.000 340.125 C 260.000 339.816,259.670 340.088,258.575 341.300 M171.800 346.202 C 171.800 347.369,171.932 348.116,172.094 347.862 C 172.480 347.255,172.485 344.499,172.100 344.263 C 171.935 344.162,171.800 345.035,171.800 346.202 M236.531 346.600 C 236.533 348.140,236.605 348.721,236.692 347.891 C 236.779 347.061,236.777 345.801,236.689 345.091 C 236.600 344.381,236.529 345.060,236.531 346.600 M157.116 345.327 C 157.018 345.838,157.063 346.603,157.216 347.027 C 157.400 347.542,157.502 347.233,157.521 346.100 C 157.553 344.220,157.388 343.905,157.116 345.327 M271.709 346.000 C 271.709 346.990,271.787 347.395,271.882 346.900 C 271.978 346.405,271.978 345.595,271.882 345.100 C 271.787 344.605,271.709 345.010,271.709 346.000 M192.524 347.000 C 192.526 348.320,192.601 348.812,192.690 348.093 C 192.779 347.374,192.777 346.294,192.686 345.693 C 192.595 345.092,192.522 345.680,192.524 347.000 M122.428 350.033 C 122.444 350.565,122.619 351.360,122.819 351.800 C 123.071 352.358,123.107 352.115,122.938 351.000 C 122.655 349.143,122.387 348.636,122.428 350.033 M170.175 350.668 C 169.559 351.476,169.259 352.011,169.509 351.856 C 170.021 351.540,171.753 349.200,171.475 349.200 C 171.376 349.200,170.791 349.861,170.175 350.668 M306.493 350.400 C 306.493 351.170,306.575 351.485,306.676 351.100 C 306.776 350.715,306.776 350.085,306.676 349.700 C 306.575 349.315,306.493 349.630,306.493 350.400 M257.955 350.257 C 258.465 351.281,260.669 353.201,261.331 353.197 C 261.589 353.196,261.260 352.841,260.600 352.409 C 259.940 351.977,258.979 351.124,258.464 350.512 C 257.800 349.722,257.652 349.648,257.955 350.257 M235.646 352.467 C 235.621 352.834,235.496 353.464,235.370 353.867 C 235.152 354.562,235.163 354.563,235.597 353.887 C 235.848 353.496,235.973 352.866,235.873 352.487 C 235.711 351.868,235.688 351.866,235.646 352.467 M162.938 353.694 C 163.192 353.856,163.940 353.988,164.600 353.988 C 165.260 353.988,166.008 353.856,166.262 353.694 C 166.516 353.532,165.768 353.400,164.600 353.400 C 163.432 353.400,162.684 353.532,162.938 353.694 M263.129 353.751 C 263.894 353.971,264.906 353.971,265.671 353.751 C 266.768 353.437,266.593 353.387,264.400 353.387 C 262.207 353.387,262.032 353.437,263.129 353.751 M123.248 354.400 C 123.242 354.730,123.483 355.540,123.786 356.200 C 124.493 357.745,124.503 357.026,123.800 355.200 C 123.503 354.430,123.255 354.070,123.248 354.400 M125.428 360.400 C 125.572 360.950,125.850 361.571,126.045 361.780 C 126.616 362.391,126.441 361.514,125.769 360.400 L 125.167 359.400 125.428 360.400 M303.265 360.617 C 302.595 362.088,302.723 362.402,303.447 361.065 C 303.786 360.440,303.988 359.854,303.896 359.763 C 303.805 359.671,303.521 360.056,303.265 360.617 M230.194 361.606 C 229.332 362.489,227.942 363.686,227.106 364.265 C 226.270 364.845,225.670 365.404,225.774 365.508 C 226.120 365.853,232.000 360.807,232.000 360.166 C 232.000 359.821,231.718 360.046,230.194 361.606 M126.400 362.700 C 126.400 362.891,126.661 363.396,126.980 363.824 C 127.540 364.573,127.552 364.568,127.332 363.694 C 127.104 362.791,126.400 362.040,126.400 362.700 M301.650 363.806 C 301.182 364.598,300.800 365.335,300.800 365.445 C 300.800 365.554,300.073 366.714,299.185 368.022 C 298.297 369.330,297.712 370.394,297.885 370.387 C 298.397 370.367,302.962 362.828,302.651 362.517 C 302.567 362.434,302.117 363.014,301.650 363.806 M128.419 366.200 C 128.409 366.794,129.123 367.810,129.374 367.559 C 129.494 367.440,129.329 366.995,129.009 366.571 C 128.688 366.147,128.422 365.980,128.419 366.200 M131.001 370.200 C 131.412 370.860,132.254 371.940,132.872 372.600 C 133.490 373.260,133.997 373.929,133.998 374.086 C 134.002 374.755,141.481 381.452,141.831 381.102 C 141.948 380.985,141.179 380.194,140.122 379.345 C 137.702 377.400,135.548 375.228,133.019 372.184 C 130.450 369.093,130.091 368.740,131.001 370.200 M296.662 371.531 C 295.933 372.337,295.772 372.988,296.398 372.601 C 296.815 372.343,297.739 370.800,297.476 370.800 C 297.392 370.800,297.026 371.129,296.662 371.531 M292.987 375.686 C 291.674 377.054,291.029 377.819,291.554 377.386 C 292.906 376.271,294.507 374.719,295.149 373.900 C 296.262 372.481,295.310 373.268,292.987 375.686 M289.029 379.009 C 288.605 379.329,288.338 379.671,288.435 379.769 C 288.532 379.866,289.059 379.602,289.606 379.182 C 290.153 378.761,290.420 378.420,290.200 378.422 C 289.980 378.424,289.453 378.688,289.029 379.009 M142.400 381.386 C 142.400 381.699,144.850 383.283,145.040 383.093 C 145.147 382.986,144.596 382.523,143.817 382.063 C 143.038 381.603,142.400 381.299,142.400 381.386 M284.481 382.081 C 283.756 382.529,283.248 382.982,283.353 383.087 C 283.606 383.340,286.000 381.917,286.000 381.514 C 286.000 381.126,286.069 381.100,284.481 382.081 M277.599 385.849 L 276.600 386.433 277.600 386.167 C 278.714 385.870,279.014 385.681,278.766 385.433 C 278.674 385.341,278.149 385.528,277.599 385.849 M152.200 386.800 C 152.336 387.020,152.932 387.197,153.524 387.194 C 154.366 387.189,154.469 387.103,154.000 386.800 C 153.210 386.289,151.884 386.289,152.200 386.800 M274.800 386.800 C 274.315 387.114,274.372 387.189,275.100 387.194 C 275.595 387.197,276.000 387.020,276.000 386.800 C 276.000 386.299,275.576 386.299,274.800 386.800 M155.800 387.798 C 156.460 388.109,157.360 388.361,157.800 388.357 L 158.600 388.349 157.800 388.034 C 157.360 387.861,156.460 387.610,155.800 387.476 L 154.600 387.233 155.800 387.798 M271.400 387.820 L 269.800 388.379 271.400 388.153 C 273.078 387.916,274.794 387.206,273.600 387.243 C 273.270 387.253,272.280 387.513,271.400 387.820 M159.738 388.894 C 159.992 389.056,184.500 389.188,214.200 389.188 C 243.900 389.188,268.408 389.056,268.662 388.894 C 268.916 388.732,244.408 388.600,214.200 388.600 C 183.992 388.600,159.484 388.732,159.738 388.894 " stroke="none" fill="#cfd1cd" fill-rule="evenodd"></path></g></svg>