<svg id="svg" version="1.1" xmlns="http://www.w3.org/2000/svg" xmlns:xlink="http://www.w3.org/1999/xlink" width="200" height="200" viewBox="0, 0, 400,441"><g id="svgg"><path id="path0" d="M248.413 25.879 C 246.417 26.172,243.536 26.986,237.059 29.086 C 235.118 29.716,232.912 30.411,232.157 30.632 C 231.402 30.852,230.431 31.190,230.000 31.383 C 229.569 31.576,227.892 32.164,226.275 32.690 C 224.657 33.216,219.980 34.823,215.882 36.260 C 211.784 37.697,207.549 39.145,206.471 39.479 C 205.392 39.813,204.157 40.233,203.725 40.414 C 203.294 40.594,201.265 41.291,199.216 41.961 C 197.167 42.631,195.137 43.337,194.706 43.531 C 194.275 43.724,193.127 44.147,192.157 44.470 C 191.186 44.793,186.598 46.364,181.961 47.962 C 177.324 49.559,171.059 51.698,168.039 52.714 C 165.020 53.731,162.196 54.719,161.765 54.909 C 160.924 55.280,149.510 59.177,142.745 61.403 C 140.480 62.148,138.275 62.907,137.843 63.089 C 137.412 63.271,136.353 63.633,135.490 63.893 C 134.627 64.153,133.569 64.525,133.137 64.719 C 132.706 64.913,127.765 66.611,122.157 68.492 C 112.923 71.590,106.224 73.888,104.118 74.680 C 103.114 75.058,101.820 75.467,99.608 76.104 C 98.637 76.383,97.667 76.727,97.451 76.868 C 97.235 77.010,95.735 77.530,94.118 78.024 C 87.735 79.976,69.478 86.152,68.535 86.679 C 68.160 86.888,67.656 87.059,67.414 87.059 C 66.548 87.059,61.720 89.549,59.412 91.186 C 53.564 95.334,49.604 101.037,47.711 108.039 L 46.863 111.176 46.935 221.765 C 47.016 343.600,46.824 335.191,49.643 340.836 C 54.220 350.001,61.302 355.881,70.588 358.227 C 71.990 358.581,73.775 359.036,74.555 359.239 C 75.425 359.465,121.438 359.607,193.575 359.606 C 320.841 359.603,316.106 359.675,321.569 357.674 C 333.786 353.198,340.298 348.002,344.953 339.020 C 349.015 331.179,349.119 330.290,349.381 301.105 L 349.608 275.739 351.482 273.944 C 354.277 271.266,354.118 273.989,354.115 228.896 C 354.113 183.145,354.264 185.660,351.348 182.682 L 349.412 180.705 349.404 156.137 C 349.396 130.531,349.195 126.655,347.643 122.168 C 345.252 115.256,340.537 108.626,334.664 103.918 C 333.400 102.904,332.958 101.822,332.178 97.843 C 331.925 96.549,331.565 94.961,331.379 94.314 C 331.193 93.667,330.666 91.461,330.209 89.412 C 329.752 87.363,328.952 83.833,328.432 81.569 C 327.912 79.304,327.367 76.745,327.221 75.882 C 325.921 68.220,317.864 58.712,310.980 56.719 C 301.363 53.933,296.509 54.078,285.822 57.470 C 284.955 57.745,284.451 56.642,283.950 53.369 C 281.136 35.016,265.988 23.297,248.413 25.879 M255.939 43.569 C 261.015 45.124,264.297 47.735,266.673 52.106 C 267.655 53.912,268.079 55.062,269.007 58.431 C 269.275 59.402,269.652 60.601,269.845 61.097 C 270.453 62.656,270.252 63.414,269.118 63.835 C 265.693 65.106,263.169 65.990,258.431 67.578 C 255.520 68.554,248.196 71.048,242.157 73.119 C 229.981 77.295,228.724 77.724,214.706 82.501 C 209.314 84.339,202.873 86.566,200.392 87.450 C 197.912 88.335,194.559 89.498,192.941 90.036 C 191.324 90.573,189.647 91.173,189.216 91.369 C 188.784 91.565,187.550 92.011,186.473 92.361 C 185.396 92.711,183.278 93.558,181.767 94.244 L 179.020 95.490 146.275 95.589 C 116.674 95.678,113.605 95.630,114.314 95.082 C 114.745 94.748,115.539 94.381,116.078 94.264 C 116.618 94.148,117.941 93.722,119.020 93.317 C 120.098 92.913,123.275 91.771,126.078 90.780 C 128.882 89.789,132.500 88.470,134.118 87.850 C 135.735 87.230,138.647 86.158,140.588 85.469 C 142.529 84.780,144.471 84.079,144.902 83.911 C 145.333 83.743,146.657 83.253,147.843 82.822 C 149.029 82.391,151.500 81.474,153.333 80.784 C 158.028 79.018,160.032 78.278,164.510 76.660 C 166.667 75.881,169.578 74.796,170.980 74.250 C 172.382 73.704,174.324 73.001,175.294 72.688 C 176.265 72.374,177.412 71.967,177.843 71.783 C 178.275 71.599,179.598 71.092,180.784 70.656 C 185.215 69.027,189.666 67.344,191.470 66.614 C 192.495 66.200,194.348 65.532,195.588 65.129 C 198.371 64.226,203.453 62.417,204.510 61.953 C 204.941 61.763,206.088 61.347,207.059 61.028 C 208.029 60.709,211.382 59.467,214.510 58.268 C 217.637 57.069,220.407 56.085,220.664 56.083 C 220.922 56.080,222.422 54.799,223.998 53.235 C 226.331 50.920,227.336 50.222,229.412 49.476 C 230.814 48.971,233.549 47.937,235.490 47.176 C 238.878 45.849,246.010 43.412,247.647 43.023 C 249.639 42.549,253.424 42.798,255.939 43.569 M300.980 71.765 C 301.114 71.980,301.567 72.157,301.988 72.157 C 306.297 72.157,311.695 78.121,313.332 84.690 C 313.764 86.424,314.471 89.260,314.902 90.991 C 315.333 92.722,315.686 94.590,315.686 95.142 L 315.686 96.145 312.647 95.818 C 310.975 95.638,291.167 95.546,268.627 95.613 C 224.067 95.747,225.358 95.813,231.651 93.739 C 232.900 93.327,235.686 92.360,237.843 91.590 C 240.000 90.820,244.147 89.379,247.059 88.389 C 249.971 87.398,252.940 86.326,253.657 86.006 C 255.207 85.316,260.499 83.364,263.529 82.365 C 265.745 81.634,278.399 77.077,279.804 76.504 C 280.235 76.327,281.029 75.995,281.569 75.764 C 282.108 75.534,283.696 74.959,285.098 74.486 C 286.500 74.013,287.824 73.504,288.039 73.354 C 288.255 73.205,289.225 72.853,290.196 72.572 C 291.167 72.291,292.402 71.921,292.941 71.748 C 294.371 71.291,300.696 71.304,300.980 71.765 M313.763 112.735 C 323.420 115.513,327.632 119.461,332.602 130.392 C 333.032 131.337,333.161 136.454,333.257 156.351 L 333.376 181.133 331.993 181.392 C 331.233 181.535,329.238 181.549,327.560 181.424 C 325.882 181.299,324.289 181.192,324.020 181.187 C 323.635 181.179,323.529 177.621,323.529 164.736 C 323.529 146.143,323.319 144.183,320.705 138.431 C 316.847 129.944,309.148 123.138,301.176 121.169 C 297.170 120.179,296.158 119.966,293.725 119.605 C 292.140 119.369,256.781 119.230,200.196 119.237 C 150.157 119.243,98.936 119.240,86.373 119.232 L 63.529 119.216 63.529 115.523 C 63.529 113.410,63.697 111.774,63.921 111.699 C 64.137 111.627,119.628 111.598,187.235 111.633 L 310.155 111.697 313.763 112.735 M285.294 135.581 C 294.784 135.947,296.748 136.501,301.291 140.093 C 306.676 144.351,307.451 147.656,307.451 166.375 L 307.451 181.198 301.863 181.089 L 296.275 180.980 296.069 174.314 C 295.690 162.028,290.720 154.706,280.784 151.796 C 277.474 150.827,219.114 151.015,217.188 152.001 C 214.473 153.391,213.412 157.418,214.986 160.362 C 216.760 163.679,214.726 163.472,248.433 163.768 C 281.006 164.054,279.270 163.913,281.511 166.465 C 283.595 168.839,283.922 170.120,283.922 175.930 L 283.922 181.176 281.667 181.196 C 258.523 181.401,249.842 184.316,239.109 195.488 C 227.349 207.728,222.461 230.334,228.594 244.118 C 228.786 244.549,229.343 245.961,229.833 247.255 C 230.322 248.549,231.045 250.076,231.439 250.649 C 231.834 251.221,232.157 251.809,232.157 251.955 C 232.157 253.705,241.064 263.999,245.164 266.985 C 254.121 273.511,262.068 275.686,276.950 275.686 L 283.922 275.686 283.922 279.967 C 283.922 288.999,281.066 291.592,271.309 291.418 C 266.755 291.337,265.318 291.441,264.395 291.919 C 259.927 294.229,259.925 300.672,264.392 302.982 C 266.079 303.854,276.032 304.105,279.583 303.365 C 284.303 302.381,292.157 297.273,292.157 295.187 C 292.157 294.989,292.480 294.359,292.874 293.786 C 294.791 291.004,296.076 285.912,296.084 281.059 C 296.093 275.745,295.723 276.078,301.601 276.078 C 306.181 276.078,306.676 276.147,307.045 276.837 C 307.715 278.088,307.573 303.626,306.881 306.223 C 305.126 312.818,300.157 317.705,293.333 319.547 C 291.964 319.917,266.033 319.999,177.451 319.914 L 63.333 319.804 63.226 228.235 C 63.167 177.873,63.216 136.265,63.334 135.773 L 63.550 134.880 170.304 135.072 C 229.019 135.177,280.765 135.406,285.294 135.581 M154.706 151.351 C 140.924 151.552,139.721 151.625,138.705 152.313 C 135.239 154.662,135.763 160.757,139.608 162.810 C 140.918 163.510,142.304 163.538,170.272 163.438 L 199.565 163.333 200.951 161.989 C 204.146 158.893,203.607 153.757,199.910 152.056 C 198.335 151.332,177.869 151.012,154.706 151.351 M94.910 152.059 C 90.633 154.208,90.688 160.491,95.003 162.843 C 96.126 163.455,97.584 163.529,108.445 163.529 L 120.627 163.529 122.238 162.485 C 126.459 159.748,126.254 154.117,121.856 152.031 C 119.728 151.021,96.929 151.045,94.910 152.059 M336.889 198.445 C 337.628 198.841,337.647 199.590,337.647 228.623 L 337.647 258.396 336.176 258.672 C 333.177 259.235,265.857 258.502,263.870 257.885 C 234.020 248.612,236.387 204.177,267.026 198.614 C 270.437 197.995,335.752 197.837,336.889 198.445 M264.706 212.718 C 252.836 216.021,249.237 231.086,258.174 240.062 C 271.319 253.265,292.095 237.717,283.824 220.867 C 280.645 214.391,271.975 210.695,264.706 212.718 M270.980 220.588 C 280.220 223.023,279.284 235.465,269.793 236.382 C 260.403 237.289,258.209 223.348,267.303 220.558 C 268.816 220.093,269.111 220.096,270.980 220.588 M333.245 298.039 C 333.362 321.714,333.250 323.312,331.160 328.040 C 327.807 335.620,321.671 340.785,313.412 342.978 C 310.996 343.619,81.091 343.824,78.980 343.186 C 78.355 342.997,76.873 342.617,75.688 342.341 C 74.502 342.065,73.002 341.539,72.354 341.173 C 68.285 338.874,66.108 337.077,66.417 336.271 C 66.611 335.767,80.969 335.681,182.045 335.584 L 297.451 335.472 300.612 334.447 C 309.128 331.685,316.878 325.238,319.863 318.431 C 320.099 317.892,320.653 316.657,321.093 315.686 C 323.197 311.049,323.513 307.841,323.522 291.066 L 323.529 276.054 328.333 276.164 L 333.137 276.275 333.245 298.039 M96.275 291.714 C 90.895 293.116,90.086 299.413,94.871 302.638 L 96.194 303.529 131.254 303.529 C 161.493 303.529,166.468 303.449,167.440 302.947 C 171.181 301.013,171.361 295.054,167.756 292.487 L 166.481 291.579 131.966 291.493 C 112.983 291.446,96.922 291.545,96.275 291.714 M185.279 291.785 C 180.690 293.138,180.348 300.708,184.776 302.917 C 186.646 303.850,244.739 303.844,246.610 302.911 C 250.993 300.724,251.138 294.572,246.863 292.217 C 245.528 291.481,187.684 291.076,185.279 291.785 " stroke="none" fill="#070706" fill-rule="evenodd"></path><path id="path2" d="M272.229 142.846 C 272.376 146.976,272.410 150.496,272.304 150.668 C 272.197 150.840,273.470 150.980,275.131 150.980 C 287.603 150.980,295.625 159.920,296.069 174.314 L 296.275 180.980 301.863 181.089 L 307.451 181.198 307.451 166.375 C 307.451 145.500,305.978 141.464,296.863 137.371 C 293.603 135.907,292.391 135.757,282.157 135.547 L 271.961 135.337 272.229 142.846 M287.059 153.151 C 287.059 153.650,286.908 153.674,286.176 153.294 C 284.879 152.619,284.863 152.549,286.013 152.549 C 286.692 152.549,287.059 152.760,287.059 153.151 M290.345 155.533 C 290.966 156.280,291.375 156.991,291.254 157.112 C 291.038 157.328,288.235 154.742,288.235 154.327 C 288.235 153.704,289.359 154.346,290.345 155.533 M306.667 158.847 C 306.667 159.265,306.490 159.608,306.275 159.608 C 306.059 159.608,305.882 159.156,305.882 158.604 C 305.882 158.035,306.052 157.706,306.275 157.843 C 306.490 157.976,306.667 158.428,306.667 158.847 M306.440 163.479 C 306.272 164.748,306.338 165.483,306.638 165.668 C 306.929 165.848,307.065 167.122,307.023 169.263 C 306.965 172.233,306.900 172.497,306.407 171.793 C 306.104 171.360,305.885 170.427,305.921 169.719 C 305.957 169.011,305.780 167.917,305.528 167.289 C 305.211 166.500,305.195 166.021,305.476 165.740 C 305.699 165.516,305.882 164.486,305.882 163.451 C 305.882 162.416,306.065 161.569,306.288 161.569 C 306.547 161.569,306.602 162.261,306.440 163.479 M296.757 176.973 C 296.675 177.883,296.609 177.039,296.610 175.098 C 296.611 173.157,296.678 172.412,296.759 173.443 C 296.840 174.474,296.839 176.062,296.757 176.973 M274.795 275.969 C 275.491 276.056,276.727 276.057,277.540 275.972 C 278.354 275.888,277.784 275.817,276.275 275.815 C 274.765 275.813,274.099 275.883,274.795 275.969 M296.326 276.961 C 296.196 277.446,296.087 279.290,296.084 281.059 C 296.076 285.912,294.791 291.004,292.874 293.786 C 292.480 294.359,292.157 294.989,292.157 295.187 C 292.157 295.386,291.160 296.568,289.942 297.816 C 285.914 301.941,279.451 304.259,273.150 303.836 C 271.633 303.734,270.789 303.724,271.275 303.814 C 271.760 303.903,272.164 304.184,272.173 304.439 C 272.363 309.954,272.038 319.440,271.651 319.687 C 270.898 320.165,291.845 320.062,293.373 319.579 C 300.547 317.315,305.137 312.777,306.881 306.223 C 307.573 303.626,307.715 278.088,307.045 276.837 C 306.369 275.575,296.667 275.687,296.326 276.961 M108.353 359.900 C 110.250 359.972,113.250 359.972,115.019 359.899 C 116.788 359.827,115.235 359.768,111.569 359.768 C 107.902 359.769,106.455 359.828,108.353 359.900 M164.443 359.902 C 181.445 359.958,209.151 359.958,226.011 359.902 C 242.872 359.845,228.961 359.799,195.098 359.799 C 161.235 359.799,147.440 359.845,164.443 359.902 M269.537 359.902 C 275.322 359.963,284.675 359.963,290.322 359.902 C 295.968 359.840,291.235 359.790,279.804 359.790 C 268.373 359.791,263.753 359.841,269.537 359.902 " stroke="none" fill="#60a2a7" fill-rule="evenodd"></path><path id="path3" d="M249.510 43.031 C 250.319 43.115,251.642 43.115,252.451 43.031 C 253.260 42.946,252.598 42.877,250.980 42.877 C 249.363 42.877,248.701 42.946,249.510 43.031 M244.706 43.905 C 243.520 44.301,242.725 44.641,242.941 44.660 C 243.157 44.680,244.392 44.361,245.686 43.952 C 246.980 43.543,247.775 43.203,247.451 43.197 C 247.127 43.190,245.892 43.509,244.706 43.905 M254.118 43.297 C 254.118 43.385,255.132 43.772,256.373 44.158 C 260.318 45.386,263.604 47.907,266.025 51.562 C 267.176 53.301,267.447 53.206,266.373 51.440 C 264.129 47.750,261.065 45.300,256.906 43.869 C 254.771 43.134,254.118 43.000,254.118 43.297 M235.686 47.060 C 233.637 47.886,230.814 48.974,229.412 49.477 C 227.355 50.216,226.343 50.912,224.170 53.084 C 222.468 54.784,220.975 55.913,220.113 56.151 C 219.363 56.358,218.846 56.624,218.963 56.741 C 219.545 57.323,222.033 55.779,224.314 53.420 C 226.803 50.846,226.987 50.740,232.157 48.872 C 238.069 46.736,240.883 45.546,240.000 45.553 C 239.676 45.556,237.735 46.234,235.686 47.060 M284.000 53.529 C 284.000 53.961,284.141 54.755,284.314 55.294 C 284.562 56.070,284.628 56.111,284.628 55.490 C 284.628 55.059,284.486 54.265,284.314 53.725 C 284.065 52.949,284.000 52.908,284.000 53.529 M245.686 53.608 C 245.255 53.709,244.196 54.028,243.333 54.317 C 241.865 54.809,240.821 55.246,235.882 57.435 C 234.804 57.913,231.980 59.062,229.608 59.988 C 227.235 60.913,223.882 62.240,222.157 62.935 C 219.293 64.089,213.147 66.489,206.078 69.214 C 204.569 69.796,202.539 70.528,201.569 70.842 C 200.598 71.155,199.451 71.570,199.020 71.762 C 195.795 73.203,188.034 76.217,172.549 82.041 C 171.363 82.487,169.566 83.181,168.557 83.582 C 167.548 83.983,162.871 85.740,158.165 87.487 C 153.459 89.233,149.078 90.895,148.431 91.180 C 147.784 91.464,146.549 91.913,145.686 92.177 C 144.824 92.441,143.059 93.206,141.765 93.877 L 139.412 95.098 131.765 95.111 C 127.559 95.118,122.353 95.057,120.196 94.977 L 116.275 94.830 118.824 93.867 C 120.225 93.337,122.255 92.631,123.333 92.299 C 124.412 91.966,125.471 91.513,125.686 91.293 C 126.182 90.786,125.215 91.062,120.588 92.745 C 118.647 93.451,116.618 94.129,116.078 94.252 C 115.539 94.375,114.745 94.748,114.314 95.082 C 113.605 95.630,116.674 95.678,146.275 95.589 L 179.020 95.490 181.767 94.244 C 183.278 93.558,185.396 92.711,186.473 92.361 C 187.550 92.011,188.784 91.565,189.216 91.369 C 189.647 91.173,191.324 90.573,192.941 90.036 C 194.559 89.498,197.912 88.335,200.392 87.450 C 202.873 86.566,209.314 84.339,214.706 82.501 C 228.724 77.724,229.981 77.295,242.157 73.119 C 248.196 71.048,255.520 68.554,258.431 67.578 C 263.169 65.990,265.693 65.106,269.118 63.835 C 270.259 63.411,270.539 62.275,269.774 61.176 C 269.468 60.737,269.425 60.900,269.607 61.825 L 269.850 63.063 266.646 64.298 C 262.442 65.919,261.986 65.828,261.325 63.236 C 259.446 55.862,253.000 51.894,245.686 53.608 M268.088 56.457 C 268.398 58.163,269.347 60.779,269.384 60.028 C 269.413 59.444,268.773 57.234,268.183 55.882 C 267.948 55.343,267.918 55.522,268.088 56.457 M291.569 55.686 C 291.074 55.899,291.002 56.023,291.373 56.023 C 291.696 56.023,292.314 55.872,292.745 55.686 C 293.239 55.474,293.312 55.349,292.941 55.349 C 292.618 55.349,292.000 55.501,291.569 55.686 M214.191 58.307 C 213.261 58.636,212.569 58.975,212.654 59.059 C 212.833 59.238,216.471 58.044,216.471 57.806 C 216.471 57.561,216.024 57.659,214.191 58.307 M208.055 60.651 C 207.201 60.958,206.407 61.305,206.291 61.421 C 205.932 61.780,208.375 61.098,209.412 60.550 C 210.665 59.887,210.047 59.933,208.055 60.651 M204.490 61.893 C 204.285 62.071,203.324 62.460,202.353 62.758 C 200.346 63.374,195.862 65.235,197.059 64.955 C 198.305 64.663,205.537 62.045,205.787 61.795 C 206.144 61.438,204.906 61.531,204.490 61.893 M193.478 65.851 C 192.372 66.249,191.136 66.786,190.733 67.043 C 190.038 67.486,190.041 67.496,190.784 67.240 C 193.465 66.315,195.905 65.396,196.046 65.258 C 196.382 64.928,195.428 65.149,193.478 65.851 M188.235 67.843 C 187.712 68.181,187.712 68.223,188.235 68.223 C 188.559 68.223,189.088 68.052,189.412 67.843 C 189.935 67.505,189.935 67.463,189.412 67.463 C 189.088 67.463,188.559 67.634,188.235 67.843 M185.294 68.998 C 184.431 69.406,183.902 69.742,184.118 69.743 C 184.653 69.747,187.747 68.298,187.255 68.275 C 187.039 68.264,186.157 68.590,185.294 68.998 M180.980 70.616 C 180.118 71.031,179.853 71.261,180.392 71.127 C 181.868 70.760,183.808 69.868,183.137 69.865 C 182.814 69.863,181.843 70.202,180.980 70.616 M177.913 71.629 C 177.772 71.770,176.287 72.368,174.613 72.958 C 172.938 73.548,170.069 74.596,168.235 75.286 C 166.402 75.977,164.020 76.866,162.941 77.262 C 161.863 77.658,161.281 77.995,161.648 78.011 C 162.282 78.038,162.961 77.807,165.686 76.641 C 166.821 76.156,169.865 75.055,175.357 73.144 C 178.438 72.072,179.744 71.403,178.791 71.384 C 178.449 71.378,178.055 71.488,177.913 71.629 M293.137 71.783 C 292.591 72.031,292.828 72.066,293.922 71.900 C 294.784 71.768,295.564 71.596,295.654 71.517 C 295.991 71.220,293.890 71.442,293.137 71.783 M298.464 71.512 C 298.898 71.884,301.193 72.109,300.977 71.759 C 300.845 71.546,300.190 71.373,299.519 71.373 C 298.849 71.373,298.374 71.435,298.464 71.512 M290.000 72.543 C 289.569 72.726,288.882 72.983,288.473 73.114 C 288.065 73.245,287.814 73.435,287.916 73.537 C 288.019 73.639,289.059 73.384,290.228 72.969 C 291.396 72.554,292.000 72.213,291.569 72.212 C 291.137 72.211,290.431 72.360,290.000 72.543 M302.782 72.731 C 307.018 74.291,309.798 76.754,311.648 80.588 C 312.376 82.098,312.854 82.892,312.710 82.353 C 311.535 77.962,305.348 72.053,302.063 72.184 C 301.683 72.200,302.007 72.446,302.782 72.731 M284.424 74.675 C 282.305 75.419,280.997 76.078,281.642 76.078 C 282.009 76.078,287.149 74.158,287.368 73.939 C 287.715 73.592,287.009 73.769,284.424 74.675 M279.784 76.402 C 279.579 76.581,278.661 76.962,277.743 77.250 C 276.825 77.538,276.150 77.850,276.243 77.943 C 276.433 78.133,278.907 77.317,280.392 76.574 C 280.961 76.289,281.117 76.082,280.765 76.081 C 280.430 76.080,279.989 76.224,279.784 76.402 M271.446 79.484 C 270.516 79.813,269.841 80.168,269.946 80.273 C 270.166 80.493,272.951 79.604,273.510 79.136 C 274.052 78.681,273.406 78.790,271.446 79.484 M153.137 80.785 C 151.627 81.396,149.550 82.201,148.521 82.573 C 147.491 82.946,146.716 83.317,146.798 83.399 C 146.973 83.575,152.844 81.533,155.322 80.433 C 157.994 79.249,156.234 79.532,153.137 80.785 M292.157 80.258 C 291.618 80.350,290.824 80.570,290.392 80.748 C 289.961 80.926,288.196 81.645,286.471 82.347 C 284.745 83.048,282.627 83.933,281.765 84.313 C 280.902 84.694,279.402 85.282,278.431 85.620 C 277.461 85.958,275.078 86.874,273.137 87.655 C 271.196 88.437,268.373 89.515,266.863 90.053 C 262.941 91.449,258.162 93.276,255.882 94.249 C 253.870 95.109,235.103 95.745,231.390 95.079 L 230.035 94.836 232.174 94.071 C 233.351 93.651,235.373 92.942,236.667 92.497 C 237.961 92.052,239.284 91.534,239.608 91.346 C 240.734 90.692,239.390 90.987,236.665 91.992 C 235.156 92.549,232.900 93.338,231.651 93.746 C 225.330 95.810,224.086 95.747,268.627 95.613 C 291.167 95.546,310.975 95.638,312.647 95.818 L 315.686 96.145 315.659 94.837 C 315.644 94.118,315.471 93.176,315.274 92.745 C 315.034 92.217,314.996 92.588,315.159 93.882 L 315.401 95.804 313.681 95.549 C 312.735 95.409,310.881 95.183,309.561 95.046 L 307.160 94.798 306.697 92.791 C 304.930 85.139,298.093 79.246,292.157 80.258 M267.132 81.052 C 266.202 81.381,265.511 81.720,265.595 81.804 C 265.774 81.983,269.412 80.789,269.412 80.551 C 269.412 80.306,268.966 80.404,267.132 81.052 M261.506 82.938 C 261.400 83.045,259.884 83.648,258.137 84.278 C 256.391 84.909,254.375 85.693,253.657 86.021 C 252.940 86.349,251.602 86.833,250.684 87.097 C 249.766 87.361,249.087 87.649,249.175 87.737 C 249.366 87.928,252.574 87.043,253.137 86.644 C 253.353 86.491,255.382 85.707,257.647 84.902 C 262.259 83.263,263.319 82.776,262.320 82.757 C 261.979 82.750,261.612 82.832,261.506 82.938 M140.588 85.416 C 139.078 86.008,137.092 86.736,136.175 87.035 C 135.257 87.333,134.578 87.650,134.667 87.739 C 134.841 87.913,136.479 87.374,141.373 85.532 C 143.098 84.883,144.245 84.349,143.922 84.346 C 143.598 84.343,142.098 84.825,140.588 85.416 M313.364 85.805 C 313.312 86.673,314.573 91.832,314.786 91.619 C 314.896 91.509,314.768 90.482,314.501 89.337 C 313.865 86.606,313.403 85.170,313.364 85.805 M132.549 88.424 C 131.794 88.722,130.069 89.355,128.716 89.833 C 127.363 90.310,126.343 90.787,126.449 90.893 C 126.621 91.066,127.561 90.777,130.000 89.804 C 130.431 89.632,131.402 89.268,132.157 88.996 C 132.912 88.724,133.697 88.354,133.902 88.172 C 134.391 87.740,134.192 87.777,132.549 88.424 M246.275 88.627 C 245.304 89.035,244.686 89.375,244.902 89.384 C 245.441 89.406,248.159 88.442,248.489 88.112 C 248.941 87.661,248.128 87.850,246.275 88.627 M242.226 89.981 C 241.401 90.275,240.607 90.649,240.461 90.811 C 240.315 90.973,240.549 90.970,240.980 90.804 C 241.412 90.639,242.338 90.338,243.039 90.135 C 243.740 89.933,244.314 89.687,244.314 89.589 C 244.314 89.314,243.852 89.401,242.226 89.981 M55.294 94.314 C 54.342 95.284,53.650 96.078,53.758 96.078 C 53.866 96.078,54.734 95.284,55.686 94.314 C 56.639 93.343,57.330 92.549,57.222 92.549 C 57.114 92.549,56.247 93.343,55.294 94.314 M331.831 96.275 C 331.825 96.706,331.971 97.412,332.157 97.843 C 332.586 98.842,332.586 97.811,332.157 96.471 C 331.904 95.682,331.841 95.644,331.831 96.275 M49.868 101.389 C 49.211 102.831,49.336 103.139,50.046 101.828 C 50.378 101.216,50.576 100.642,50.487 100.552 C 50.397 100.462,50.118 100.839,49.868 101.389 M64.020 111.632 C 63.750 111.741,63.529 112.114,63.529 112.461 C 63.529 113.030,63.577 113.029,64.020 112.443 C 64.354 112.000,65.256 111.751,66.863 111.658 L 69.216 111.521 66.863 111.478 C 65.569 111.454,64.289 111.523,64.020 111.632 M97.767 111.666 C 100.314 111.734,104.373 111.734,106.787 111.665 C 109.201 111.596,107.118 111.540,102.157 111.541 C 97.196 111.541,95.221 111.597,97.767 111.666 M202.843 111.666 C 207.534 111.729,215.211 111.729,219.902 111.666 C 224.593 111.604,220.755 111.553,211.373 111.553 C 201.990 111.553,198.152 111.604,202.843 111.666 M266.579 111.660 C 267.501 111.743,268.913 111.742,269.716 111.658 C 270.519 111.573,269.765 111.506,268.039 111.507 C 266.314 111.508,265.657 111.577,266.579 111.660 M133.235 112.048 C 133.936 112.135,135.083 112.135,135.784 112.048 C 136.485 111.961,135.912 111.890,134.510 111.890 C 133.108 111.890,132.534 111.961,133.235 112.048 M306.952 112.048 C 307.648 112.134,308.884 112.136,309.697 112.051 C 310.511 111.966,309.941 111.895,308.431 111.893 C 306.922 111.892,306.256 111.961,306.952 112.048 M46.766 113.529 C 46.770 114.392,46.850 114.699,46.944 114.211 C 47.038 113.723,47.034 113.017,46.936 112.642 C 46.838 112.268,46.761 112.667,46.766 113.529 M325.866 119.706 C 326.828 120.730,327.666 121.569,327.729 121.569 C 328.023 121.569,327.712 121.217,325.980 119.591 L 324.118 117.843 325.866 119.706 M110.895 119.505 C 112.035 119.585,113.800 119.584,114.817 119.503 C 115.834 119.423,114.902 119.358,112.745 119.359 C 110.588 119.360,109.756 119.426,110.895 119.505 M292.848 119.493 C 293.336 119.587,294.041 119.583,294.416 119.485 C 294.791 119.387,294.392 119.310,293.529 119.315 C 292.667 119.319,292.360 119.399,292.848 119.493 M299.608 120.766 C 299.931 120.985,300.534 121.167,300.948 121.170 C 301.951 121.178,301.638 120.954,300.196 120.631 C 299.337 120.439,299.178 120.476,299.608 120.766 M309.412 124.814 C 309.412 124.889,309.985 125.370,310.686 125.884 C 311.475 126.461,311.749 126.556,311.405 126.132 C 310.883 125.489,309.412 124.517,309.412 124.814 M314.118 128.824 C 315.289 130.010,316.336 130.980,316.444 130.980 C 316.552 130.980,315.681 130.010,314.510 128.824 C 313.338 127.637,312.291 126.667,312.184 126.667 C 312.076 126.667,312.946 127.637,314.118 128.824 M349.111 129.412 C 349.111 130.167,349.191 130.475,349.290 130.098 C 349.389 129.721,349.389 129.103,349.290 128.725 C 349.191 128.348,349.111 128.657,349.111 129.412 M333.120 149.412 C 333.120 157.931,333.171 161.417,333.235 157.157 C 333.298 152.897,333.298 145.926,333.235 141.667 C 333.171 137.407,333.120 140.892,333.120 149.412 M115.392 135.196 C 144.025 135.252,190.877 135.252,219.510 135.196 C 248.142 135.141,224.716 135.095,167.451 135.095 C 110.186 135.095,86.760 135.141,115.392 135.196 M63.233 227.526 C 63.180 278.145,63.270 319.643,63.431 319.743 C 63.697 319.908,63.696 257.798,63.429 168.824 C 63.374 150.490,63.286 176.906,63.233 227.526 M349.591 164.706 C 349.591 173.657,349.643 177.319,349.705 172.843 C 349.768 168.368,349.768 161.044,349.705 156.569 C 349.643 152.093,349.591 155.755,349.591 164.706 M323.679 154.706 C 323.680 157.294,323.743 158.302,323.820 156.945 C 323.897 155.589,323.896 153.471,323.819 152.240 C 323.741 151.008,323.678 152.118,323.679 154.706 M102.475 151.274 C 105.886 151.339,111.357 151.339,114.632 151.274 C 117.908 151.208,115.118 151.155,108.431 151.155 C 101.745 151.155,99.065 151.209,102.475 151.274 M147.967 151.274 C 152.025 151.338,158.554 151.338,162.477 151.274 C 166.399 151.210,163.078 151.158,155.098 151.158 C 147.118 151.158,143.909 151.210,147.967 151.274 M185.567 151.273 C 187.873 151.342,191.756 151.342,194.194 151.273 C 196.632 151.204,194.745 151.148,190.000 151.148 C 185.255 151.147,183.260 151.204,185.567 151.273 M228.725 151.274 C 234.495 151.335,243.936 151.335,249.706 151.274 C 255.475 151.213,250.755 151.163,239.216 151.163 C 227.676 151.163,222.956 151.213,228.725 151.274 M269.710 151.258 C 270.198 151.352,270.904 151.348,271.279 151.250 C 271.654 151.152,271.255 151.075,270.392 151.079 C 269.529 151.084,269.223 151.164,269.710 151.258 M91.464 157.647 C 91.464 158.402,91.544 158.711,91.643 158.333 C 91.742 157.956,91.742 157.338,91.643 156.961 C 91.544 156.583,91.464 156.892,91.464 157.647 M102.475 163.823 C 105.886 163.888,111.357 163.888,114.632 163.823 C 117.908 163.757,115.118 163.704,108.431 163.704 C 101.745 163.704,99.065 163.758,102.475 163.823 M155.421 163.823 C 163.363 163.883,176.246 163.883,184.049 163.823 C 191.851 163.764,185.353 163.715,169.608 163.715 C 153.863 163.715,147.479 163.764,155.421 163.823 M224.412 163.823 C 227.377 163.889,232.230 163.889,235.196 163.823 C 238.162 163.756,235.735 163.701,229.804 163.701 C 223.873 163.701,221.446 163.756,224.412 163.823 M268.708 181.467 C 270.155 181.542,272.625 181.543,274.199 181.468 C 275.772 181.393,274.588 181.332,271.569 181.331 C 268.549 181.331,267.262 181.392,268.708 181.467 M328.129 181.460 C 328.825 181.546,330.060 181.548,330.874 181.463 C 331.687 181.378,331.118 181.307,329.608 181.305 C 328.098 181.303,327.432 181.373,328.129 181.460 M354.021 218.543 C 354.075 236.492,354.167 255.500,354.224 260.784 C 354.281 266.069,354.357 251.686,354.391 228.824 C 354.426 205.961,354.335 186.952,354.188 186.583 C 354.042 186.213,353.966 200.595,354.021 218.543 M237.818 196.569 L 236.667 197.843 237.941 196.691 C 238.642 196.058,239.216 195.484,239.216 195.417 C 239.216 195.114,238.892 195.381,237.818 196.569 M286.206 198.333 C 295.551 198.392,310.727 198.392,319.931 198.333 C 329.136 198.275,321.490 198.227,302.941 198.227 C 284.392 198.227,276.861 198.275,286.206 198.333 M337.254 205.803 L 337.449 213.137 337.557 206.107 C 337.617 202.241,337.529 198.941,337.362 198.773 C 337.195 198.606,337.147 201.769,337.254 205.803 M251.373 206.471 C 250.420 207.441,249.729 208.235,249.837 208.235 C 249.945 208.235,250.812 207.441,251.765 206.471 C 252.717 205.500,253.408 204.706,253.301 204.706 C 253.193 204.706,252.325 205.500,251.373 206.471 M268.339 212.046 C 268.935 212.136,269.817 212.134,270.300 212.041 C 270.782 211.948,270.294 211.874,269.216 211.877 C 268.137 211.880,267.743 211.956,268.339 212.046 M276.863 213.901 C 276.863 214.009,277.392 214.371,278.039 214.706 C 278.686 215.040,279.216 215.226,279.216 215.118 C 279.216 215.010,278.686 214.648,278.039 214.314 C 277.392 213.979,276.863 213.794,276.863 213.901 M281.961 218.039 C 282.422 218.686,282.887 219.216,282.995 219.216 C 283.102 219.216,282.814 218.686,282.353 218.039 C 281.892 217.392,281.427 216.863,281.319 216.863 C 281.211 216.863,281.500 217.392,281.961 218.039 M267.303 220.558 C 258.209 223.348,260.403 237.289,269.793 236.382 C 279.284 235.465,280.220 223.023,270.980 220.588 C 269.111 220.096,268.816 220.093,267.303 220.558 M242.892 228.431 C 242.893 230.804,242.957 231.724,243.035 230.476 C 243.113 229.228,243.113 227.287,243.034 226.162 C 242.955 225.038,242.891 226.059,242.892 228.431 M253.032 226.667 C 253.032 227.422,253.113 227.730,253.212 227.353 C 253.310 226.975,253.310 226.358,253.212 225.980 C 253.113 225.603,253.032 225.912,253.032 226.667 M285.765 227.843 C 285.888 229.029,286.053 230.074,286.132 230.163 C 286.406 230.478,286.193 227.638,285.869 226.667 C 285.658 226.034,285.621 226.451,285.765 227.843 M253.032 230.588 C 253.032 231.343,253.113 231.652,253.212 231.275 C 253.310 230.897,253.310 230.279,253.212 229.902 C 253.113 229.525,253.032 229.833,253.032 230.588 M279.096 241.777 C 278.491 242.309,278.151 242.745,278.341 242.745 C 278.531 242.745,279.101 242.304,279.608 241.765 C 280.780 240.517,280.521 240.523,279.096 241.777 M256.863 254.702 C 256.863 254.970,259.264 256.161,259.443 255.982 C 259.528 255.896,258.983 255.533,258.230 255.175 C 257.478 254.816,256.863 254.603,256.863 254.702 M297.549 258.725 C 304.721 258.785,316.456 258.785,323.627 258.725 C 330.799 258.665,324.931 258.617,310.588 258.617 C 296.245 258.617,290.377 258.665,297.549 258.725 M46.799 267.843 C 46.799 269.461,46.868 270.123,46.952 269.314 C 47.037 268.505,47.037 267.181,46.952 266.373 C 46.868 265.564,46.799 266.225,46.799 267.843 M46.853 302.157 C 46.853 318.549,46.902 325.198,46.961 316.932 C 47.020 308.666,47.020 295.254,46.961 287.128 C 46.901 279.002,46.853 285.765,46.853 302.157 M323.676 280.196 C 323.677 282.569,323.742 283.489,323.820 282.241 C 323.898 280.993,323.897 279.051,323.818 277.927 C 323.739 276.802,323.675 277.824,323.676 280.196 M332.941 298.549 L 333.137 320.980 333.238 298.846 C 333.294 286.673,333.206 276.579,333.043 276.415 C 332.879 276.251,332.833 286.212,332.941 298.549 M349.595 298.627 C 349.595 310.922,349.645 315.894,349.706 309.678 C 349.766 303.462,349.766 293.403,349.706 287.325 C 349.645 281.247,349.595 286.333,349.595 298.627 M323.620 286.275 C 323.620 287.029,323.701 287.338,323.800 286.961 C 323.898 286.583,323.898 285.966,323.800 285.588 C 323.701 285.211,323.620 285.520,323.620 286.275 M158.938 291.664 C 160.403 291.739,162.697 291.739,164.036 291.662 C 165.375 291.586,164.176 291.524,161.373 291.525 C 158.569 291.526,157.473 291.588,158.938 291.664 M260.896 297.451 C 260.899 298.529,260.976 298.924,261.066 298.328 C 261.156 297.732,261.153 296.849,261.060 296.367 C 260.967 295.885,260.894 296.373,260.896 297.451 M181.267 297.647 C 181.267 298.402,181.348 298.711,181.447 298.333 C 181.545 297.956,181.545 297.338,181.447 296.961 C 181.348 296.583,181.267 296.892,181.267 297.647 M126.793 303.823 C 134.088 303.883,145.912 303.883,153.068 303.823 C 160.224 303.763,154.255 303.715,139.804 303.715 C 125.353 303.715,119.498 303.764,126.793 303.823 M187.549 303.800 C 187.926 303.898,188.544 303.898,188.922 303.800 C 189.299 303.701,188.990 303.620,188.235 303.620 C 187.480 303.620,187.172 303.701,187.549 303.800 M205.588 303.823 C 212.868 303.883,224.779 303.883,232.059 303.823 C 239.338 303.764,233.382 303.715,218.824 303.715 C 204.265 303.715,198.309 303.764,205.588 303.823 M268.725 303.800 C 269.103 303.898,269.721 303.898,270.098 303.800 C 270.475 303.701,270.167 303.620,269.412 303.620 C 268.657 303.620,268.348 303.701,268.725 303.800 M309.902 329.843 C 308.985 330.492,308.235 331.110,308.235 331.217 C 308.235 331.323,309.029 330.864,310.000 330.196 C 310.971 329.528,311.765 328.902,311.765 328.805 C 311.765 328.535,311.690 328.576,309.902 329.843 M325.098 336.194 C 323.696 337.544,322.108 338.960,321.569 339.341 C 320.628 340.006,320.639 340.007,321.856 339.348 C 322.963 338.749,328.321 333.714,327.832 333.732 C 327.730 333.736,326.500 334.844,325.098 336.194 M66.531 335.980 C 66.367 336.246,143.016 336.245,253.725 335.978 C 276.480 335.924,243.711 335.835,180.905 335.783 C 118.100 335.730,66.631 335.819,66.531 335.980 M310.980 343.137 C 309.640 343.419,309.636 343.427,310.784 343.450 C 311.431 343.463,312.314 343.323,312.745 343.137 C 313.688 342.732,312.906 342.732,310.980 343.137 M80.686 343.421 C 81.387 343.508,82.534 343.508,83.235 343.421 C 83.936 343.334,83.363 343.263,81.961 343.263 C 80.559 343.263,79.985 343.334,80.686 343.421 M340.171 345.980 L 339.020 347.255 340.294 346.103 C 340.995 345.470,341.569 344.896,341.569 344.829 C 341.569 344.526,341.245 344.792,340.171 345.980 M63.529 355.882 C 64.069 356.191,64.686 356.443,64.902 356.443 C 65.118 356.443,64.853 356.191,64.314 355.882 C 63.775 355.574,63.157 355.322,62.941 355.322 C 62.725 355.322,62.990 355.574,63.529 355.882 M84.829 359.901 C 88.455 359.966,94.279 359.966,97.770 359.901 C 101.261 359.836,98.294 359.783,91.176 359.783 C 84.059 359.784,81.202 359.837,84.829 359.901 M121.863 359.900 C 124.074 359.970,127.691 359.970,129.902 359.900 C 132.113 359.830,130.304 359.773,125.882 359.773 C 121.461 359.773,119.652 359.830,121.863 359.900 " stroke="none" fill="#b76962" fill-rule="evenodd"></path><path id="path4" d="M246.975 25.420 C 246.606 25.566,249.291 25.686,252.941 25.686 C 256.592 25.686,259.276 25.566,258.907 25.420 C 258.032 25.073,247.850 25.073,246.975 25.420 M244.118 26.275 C 243.831 26.738,244.215 26.738,245.294 26.275 C 246.050 25.950,246.048 25.936,245.219 25.910 C 244.747 25.895,244.251 26.059,244.118 26.275 M260.588 26.275 C 261.761 26.778,262.740 26.778,261.961 26.275 C 261.637 26.065,261.020 25.904,260.588 25.916 L 259.804 25.937 260.588 26.275 M239.412 27.628 C 238.118 28.105,236.794 28.592,236.471 28.711 C 236.147 28.830,235.088 29.144,234.118 29.409 C 233.147 29.674,231.491 30.224,230.438 30.632 C 229.385 31.039,228.360 31.373,228.160 31.373 C 227.509 31.373,216.460 35.414,216.634 35.589 C 216.801 35.756,221.206 34.364,222.353 33.782 C 222.676 33.618,225.853 32.541,229.412 31.388 C 238.905 28.315,243.437 26.710,242.549 26.737 C 242.118 26.750,240.706 27.151,239.412 27.628 M264.487 27.460 C 265.552 27.876,266.498 28.143,266.588 28.053 C 266.822 27.818,263.950 26.663,263.187 26.685 C 262.836 26.695,263.421 27.044,264.487 27.460 M267.059 28.394 C 267.059 28.481,268.017 29.093,269.189 29.755 C 276.993 34.159,281.867 41.896,284.288 53.725 C 285.080 57.592,284.887 57.513,290.196 56.138 C 295.746 54.700,296.880 54.510,299.908 54.510 C 310.894 54.510,321.468 60.892,325.503 69.959 C 325.897 70.844,326.232 71.346,326.247 71.074 C 326.288 70.338,324.674 67.059,324.271 67.059 C 324.079 67.059,323.922 66.825,323.922 66.539 C 323.922 64.875,316.908 58.803,312.767 56.881 C 307.605 54.485,299.403 53.408,294.810 54.524 C 293.890 54.747,291.463 55.358,289.416 55.881 C 285.144 56.974,285.353 57.070,284.726 53.725 C 283.219 45.681,280.732 40.155,276.376 35.170 C 273.653 32.053,267.059 27.258,267.059 28.394 M213.410 36.368 C 212.481 36.688,211.808 37.037,211.914 37.143 C 212.122 37.350,216.078 36.123,216.078 35.851 C 216.078 35.580,215.198 35.751,213.410 36.368 M209.804 37.621 C 209.480 37.809,208.282 38.268,207.142 38.640 C 206.001 39.012,205.158 39.407,205.269 39.518 C 205.477 39.726,211.373 37.691,211.373 37.411 C 211.373 37.138,210.414 37.266,209.804 37.621 M199.608 41.146 C 197.343 41.944,192.490 43.627,188.824 44.885 C 185.157 46.144,181.980 47.350,181.765 47.566 C 181.503 47.828,181.633 47.862,182.157 47.668 C 182.588 47.508,183.912 47.054,185.098 46.658 C 186.284 46.262,189.284 45.218,191.765 44.337 C 194.245 43.456,198.127 42.103,200.392 41.331 C 202.657 40.559,204.583 39.855,204.673 39.768 C 205.103 39.348,203.363 39.821,199.608 41.146 M245.294 44.087 C 243.784 44.564,242.196 45.094,241.765 45.266 C 241.333 45.437,238.686 46.452,235.882 47.521 C 227.818 50.594,227.930 50.545,228.898 50.568 C 229.371 50.579,229.867 50.412,230.000 50.196 C 230.133 49.980,230.552 49.804,230.930 49.804 C 231.308 49.804,232.348 49.451,233.241 49.020 C 234.134 48.588,235.127 48.235,235.448 48.235 C 235.769 48.235,236.141 48.059,236.275 47.843 C 236.408 47.627,236.773 47.451,237.086 47.451 C 237.399 47.451,238.404 47.113,239.318 46.700 C 240.232 46.286,241.598 45.756,242.353 45.520 C 243.108 45.285,244.823 44.741,246.164 44.311 C 249.114 43.366,252.544 43.308,255.049 44.162 C 256.070 44.510,256.991 44.709,257.095 44.604 C 258.451 43.249,249.227 42.844,245.294 44.087 M259.827 46.108 C 263.163 48.115,266.667 52.095,266.667 53.877 C 266.667 54.200,266.843 54.573,267.059 54.706 C 267.275 54.839,267.454 55.335,267.457 55.807 C 267.460 56.280,267.647 56.931,267.873 57.255 C 268.624 58.332,267.845 55.226,266.829 53.090 C 265.215 49.696,259.934 44.706,257.957 44.706 C 257.704 44.706,258.546 45.337,259.827 46.108 M178.235 48.530 C 177.157 48.863,176.457 49.200,176.681 49.278 C 176.904 49.357,178.051 49.079,179.230 48.661 C 181.771 47.759,181.043 47.663,178.235 48.530 M172.353 50.588 C 172.066 51.052,172.450 51.052,173.529 50.588 C 174.286 50.263,174.283 50.250,173.455 50.224 C 172.982 50.208,172.486 50.373,172.353 50.588 M224.353 53.348 C 222.402 55.397,221.277 56.247,219.981 56.649 C 214.774 58.263,207.803 61.140,209.039 61.165 C 209.374 61.171,209.815 61.018,210.020 60.824 C 210.225 60.631,212.069 59.905,214.118 59.211 C 216.167 58.518,218.020 57.817,218.235 57.654 C 218.451 57.491,219.313 57.233,220.152 57.082 C 221.366 56.863,222.195 56.254,224.225 54.090 C 225.627 52.595,227.015 51.373,227.309 51.373 C 227.603 51.373,227.843 51.196,227.843 50.980 C 227.843 50.062,226.818 50.758,224.353 53.348 M170.000 51.373 C 169.713 51.836,170.097 51.836,171.176 51.373 C 171.933 51.048,171.930 51.035,171.102 51.008 C 170.629 50.993,170.133 51.157,170.000 51.373 M164.902 53.119 C 162.961 53.812,161.108 54.483,160.784 54.610 C 160.461 54.737,158.784 55.298,157.059 55.858 C 153.878 56.889,152.293 57.630,153.241 57.641 C 153.513 57.644,154.043 57.475,154.417 57.264 C 154.792 57.054,157.811 55.977,161.128 54.872 C 164.444 53.766,167.709 52.622,168.383 52.329 C 170.620 51.355,168.484 51.840,164.902 53.119 M148.884 58.623 C 146.450 59.466,145.333 60.000,146.005 60.000 C 146.367 60.000,152.320 57.992,152.516 57.804 C 152.921 57.415,151.347 57.770,148.884 58.623 M268.458 59.020 C 269.161 62.572,269.133 63.016,268.190 63.263 C 267.695 63.392,267.391 63.600,267.515 63.725 C 268.235 64.444,269.827 62.960,269.574 61.807 C 269.182 60.024,268.142 57.427,268.458 59.020 M143.071 60.531 C 142.280 60.778,141.486 61.141,141.307 61.337 C 141.116 61.545,141.256 61.595,141.642 61.457 C 142.006 61.326,143.021 61.027,143.897 60.791 C 144.773 60.555,145.490 60.280,145.490 60.181 C 145.490 59.911,144.682 60.028,143.071 60.531 M206.471 61.569 C 205.770 61.870,205.799 61.909,206.742 61.933 C 207.322 61.948,207.906 61.784,208.039 61.569 C 208.329 61.100,207.560 61.100,206.471 61.569 M135.098 63.314 C 133.804 63.791,132.480 64.290,132.157 64.423 C 131.833 64.556,130.649 64.927,129.525 65.248 C 128.401 65.569,126.901 66.088,126.192 66.403 C 125.482 66.718,122.167 67.862,118.824 68.946 C 115.480 70.030,110.716 71.652,108.235 72.551 C 104.017 74.080,102.260 74.646,100.092 75.172 C 99.604 75.291,99.113 75.535,99.001 75.716 C 98.749 76.124,101.599 75.293,107.451 73.252 C 114.440 70.815,121.585 68.406,123.529 67.831 C 124.500 67.544,125.471 67.195,125.686 67.054 C 125.902 66.914,128.902 65.863,132.353 64.720 C 135.804 63.577,138.701 62.577,138.791 62.497 C 139.252 62.090,137.170 62.551,135.098 63.314 M202.353 63.137 C 201.875 63.446,201.925 63.519,202.624 63.523 C 203.096 63.527,203.592 63.353,203.725 63.137 C 204.034 62.638,203.126 62.638,202.353 63.137 M200.000 63.922 C 199.522 64.231,199.572 64.303,200.271 64.308 C 200.744 64.311,201.239 64.137,201.373 63.922 C 201.681 63.422,200.773 63.422,200.000 63.922 M263.137 65.098 C 262.358 65.602,263.337 65.602,264.510 65.098 L 265.294 64.761 264.510 64.739 C 264.078 64.728,263.461 64.889,263.137 65.098 M194.510 65.816 C 193.539 66.157,193.021 66.494,193.359 66.566 C 193.696 66.638,194.755 66.349,195.712 65.925 C 197.779 65.008,197.011 64.938,194.510 65.816 M190.196 67.453 C 189.225 67.850,186.490 68.905,184.118 69.796 C 177.685 72.212,177.605 72.246,177.831 72.472 C 177.946 72.587,178.437 72.492,178.922 72.261 C 179.407 72.030,180.863 71.451,182.157 70.974 C 183.451 70.497,185.066 69.862,185.746 69.563 C 186.425 69.264,187.219 69.019,187.510 69.018 C 187.801 69.018,189.098 68.502,190.392 67.872 C 193.022 66.592,192.906 66.343,190.196 67.453 M296.377 71.650 C 296.865 71.744,297.571 71.740,297.946 71.642 C 298.321 71.544,297.922 71.467,297.059 71.471 C 296.196 71.476,295.889 71.556,296.377 71.650 M290.583 72.885 C 286.975 74.063,285.250 74.870,286.294 74.890 C 286.628 74.897,287.070 74.756,287.275 74.578 C 287.479 74.400,288.441 74.027,289.412 73.749 C 290.382 73.471,291.529 73.105,291.961 72.936 C 292.392 72.767,293.363 72.452,294.118 72.237 C 294.892 72.016,295.149 71.834,294.706 71.820 C 294.275 71.806,292.419 72.285,290.583 72.885 M299.608 72.157 C 299.931 72.366,300.549 72.527,300.980 72.515 L 301.765 72.494 300.980 72.157 C 299.808 71.653,298.828 71.653,299.608 72.157 M175.882 72.941 C 175.126 73.266,175.129 73.279,175.957 73.306 C 176.430 73.321,176.926 73.157,177.059 72.941 C 177.345 72.477,176.962 72.477,175.882 72.941 M302.131 72.899 C 302.278 73.138,302.648 73.333,302.952 73.333 C 304.826 73.333,309.477 77.131,310.655 79.623 C 311.158 80.685,311.704 81.558,311.869 81.562 C 312.565 81.578,310.127 77.684,308.505 76.189 C 306.287 74.143,301.314 71.577,302.131 72.899 M173.333 73.725 C 172.855 74.035,172.906 74.107,173.604 74.112 C 174.077 74.115,174.573 73.941,174.706 73.725 C 175.014 73.226,174.106 73.226,173.333 73.725 M327.225 74.510 C 327.347 75.049,327.651 76.637,327.902 78.039 C 328.153 79.441,328.439 80.350,328.538 80.060 C 328.756 79.420,327.874 74.941,327.367 74.118 C 327.108 73.698,327.068 73.810,327.225 74.510 M169.412 75.294 C 168.936 75.602,168.992 75.675,169.706 75.680 C 170.191 75.684,170.588 75.510,170.588 75.294 C 170.588 74.803,170.172 74.803,169.412 75.294 M283.922 75.294 C 283.443 75.603,283.494 75.675,284.193 75.680 C 284.665 75.684,285.161 75.510,285.294 75.294 C 285.603 74.795,284.694 74.795,283.922 75.294 M167.059 76.078 C 166.581 76.387,166.631 76.460,167.330 76.465 C 167.802 76.468,168.298 76.294,168.431 76.078 C 168.740 75.579,167.831 75.579,167.059 76.078 M281.765 76.078 C 281.009 76.403,281.011 76.416,281.840 76.443 C 282.312 76.458,282.808 76.294,282.941 76.078 C 283.228 75.615,282.844 75.615,281.765 76.078 M96.667 76.471 C 96.235 76.657,93.000 77.719,89.477 78.830 C 85.954 79.941,83.154 80.932,83.255 81.033 C 83.356 81.134,84.650 80.831,86.131 80.361 C 92.034 78.487,98.234 76.407,98.393 76.247 C 98.681 75.960,97.493 76.113,96.667 76.471 M163.137 77.647 C 162.614 77.985,162.614 78.027,163.137 78.027 C 163.461 78.027,163.990 77.856,164.314 77.647 C 164.837 77.309,164.837 77.267,164.314 77.267 C 163.990 77.267,163.461 77.438,163.137 77.647 M276.547 77.937 C 275.619 78.257,274.946 78.606,275.051 78.711 C 275.259 78.919,279.216 77.691,279.216 77.419 C 279.216 77.149,278.335 77.319,276.547 77.937 M160.588 78.431 C 160.280 78.931,161.188 78.931,161.961 78.431 C 162.439 78.122,162.388 78.050,161.690 78.045 C 161.217 78.042,160.722 78.216,160.588 78.431 M158.431 79.217 C 157.680 79.661,151.013 82.156,144.706 84.355 C 142.010 85.294,140.131 86.127,140.532 86.206 C 140.932 86.284,141.453 86.155,141.689 85.919 C 141.925 85.683,142.438 85.490,142.829 85.490 C 143.517 85.490,143.907 85.342,145.779 84.375 C 146.261 84.126,147.001 83.922,147.423 83.922 C 147.844 83.922,148.298 83.745,148.431 83.529 C 148.565 83.314,149.069 83.137,149.553 83.137 C 150.036 83.137,150.599 82.982,150.804 82.792 C 151.009 82.601,152.765 81.873,154.706 81.172 C 158.552 79.784,160.532 78.851,159.608 78.862 C 159.284 78.866,158.755 79.026,158.431 79.217 M273.333 79.227 C 273.010 79.424,270.451 80.368,267.647 81.325 C 261.552 83.405,260.397 83.864,261.178 83.897 C 261.503 83.910,263.003 83.464,264.512 82.905 C 266.020 82.345,268.747 81.374,270.571 80.745 C 272.395 80.117,274.063 79.428,274.277 79.213 C 274.764 78.726,274.142 78.736,273.333 79.227 M328.727 81.569 C 328.840 82.108,329.304 84.314,329.757 86.471 C 330.211 88.627,330.772 91.098,331.005 91.961 C 331.237 92.824,331.866 95.559,332.402 98.039 C 333.209 101.774,333.558 102.708,334.433 103.475 C 341.679 109.824,345.152 114.639,347.659 121.814 C 348.403 123.944,349.013 125.298,349.016 124.822 C 349.018 124.347,348.821 123.465,348.579 122.862 C 347.938 121.269,347.593 120.368,347.030 118.824 C 346.755 118.069,346.208 116.983,345.814 116.410 C 345.420 115.838,345.098 115.254,345.098 115.113 C 345.098 113.856,338.856 106.632,335.086 103.527 C 334.219 102.813,333.766 101.966,333.409 100.392 C 333.140 99.206,332.651 97.088,332.321 95.686 C 331.991 94.284,331.121 90.425,330.388 87.109 C 329.655 83.794,328.935 80.971,328.788 80.835 C 328.641 80.699,328.613 81.029,328.727 81.569 M78.113 82.621 C 77.183 82.950,76.483 83.281,76.558 83.356 C 76.732 83.529,80.784 82.352,80.784 82.127 C 80.784 81.834,79.849 82.007,78.113 82.621 M312.285 83.333 C 312.411 83.980,312.671 85.350,312.862 86.376 C 313.198 88.178,313.740 89.343,313.712 88.203 C 313.685 87.142,312.636 82.701,312.347 82.430 C 312.187 82.280,312.160 82.686,312.285 83.333 M72.157 84.706 C 71.377 85.210,72.357 85.210,73.529 84.706 L 74.314 84.369 73.529 84.347 C 73.098 84.335,72.480 84.497,72.157 84.706 M256.078 85.405 C 254.874 85.839,254.545 86.090,255.042 86.195 C 255.442 86.279,255.963 86.155,256.199 85.919 C 256.434 85.683,256.935 85.490,257.310 85.490 C 257.686 85.490,258.102 85.314,258.235 85.098 C 258.551 84.587,258.209 84.636,256.078 85.405 M69.804 85.453 C 69.480 85.636,68.073 86.185,66.677 86.674 C 59.075 89.339,51.945 95.817,48.825 102.892 C 48.267 104.159,47.901 105.287,48.013 105.399 C 48.125 105.511,48.338 105.268,48.486 104.860 C 51.503 96.551,58.264 90.199,67.851 86.664 C 69.669 85.993,71.234 85.367,71.330 85.272 C 71.637 84.965,70.412 85.110,69.804 85.453 M136.667 87.225 C 135.373 87.696,133.630 88.381,132.795 88.747 C 131.960 89.112,131.069 89.412,130.815 89.412 C 130.561 89.412,130.185 89.558,129.980 89.736 C 129.775 89.914,128.814 90.299,127.843 90.591 C 126.873 90.883,125.902 91.248,125.686 91.403 C 125.471 91.558,124.412 91.959,123.333 92.294 C 118.510 93.793,116.172 94.859,117.647 94.886 C 118.402 94.900,123.255 95.021,128.431 95.155 C 133.608 95.290,137.730 95.277,137.591 95.127 C 137.452 94.977,134.629 94.751,131.317 94.624 C 127.125 94.463,125.176 94.240,124.902 93.891 C 124.687 93.615,124.069 93.312,123.529 93.218 C 122.572 93.052,122.574 93.047,123.627 92.995 C 124.221 92.965,124.706 92.797,124.706 92.622 C 124.706 92.446,125.897 91.901,127.353 91.410 C 130.164 90.463,130.315 90.403,133.835 88.846 C 135.082 88.294,136.334 87.843,136.618 87.843 C 137.187 87.843,139.608 86.709,139.608 86.442 C 139.608 86.191,139.237 86.290,136.667 87.225 M250.130 87.590 C 248.379 88.137,247.812 88.627,248.931 88.627 C 249.386 88.627,249.867 88.451,250.000 88.235 C 250.133 88.020,250.663 87.843,251.176 87.843 C 251.690 87.843,252.220 87.667,252.353 87.451 C 252.653 86.966,251.999 87.007,250.130 87.590 M243.137 90.074 C 241.088 90.827,238.265 91.864,236.863 92.379 C 235.461 92.893,233.374 93.649,232.225 94.058 C 229.217 95.129,230.246 95.250,241.961 95.206 C 251.863 95.169,248.552 94.723,237.157 94.559 C 235.164 94.530,233.725 94.345,233.725 94.118 C 233.725 93.902,234.169 93.725,234.711 93.725 C 235.253 93.725,236.003 93.570,236.378 93.379 C 237.038 93.044,238.583 92.380,240.196 91.741 C 240.627 91.570,242.525 90.864,244.412 90.173 C 246.299 89.481,247.843 88.851,247.843 88.771 C 247.843 88.451,246.685 88.771,243.137 90.074 M313.752 89.732 C 313.737 90.231,313.878 90.937,314.064 91.300 C 314.251 91.664,314.497 92.696,314.611 93.595 L 314.819 95.229 312.605 95.078 C 310.544 94.937,310.500 94.952,311.961 95.284 C 315.146 96.009,315.416 95.901,315.132 94.020 C 314.778 91.672,313.785 88.587,313.752 89.732 M139.216 94.510 C 138.408 94.768,138.373 94.830,139.020 94.857 C 139.451 94.875,140.069 94.719,140.392 94.510 C 141.079 94.066,140.602 94.066,139.216 94.510 M47.005 107.920 C 46.224 110.959,46.206 333.832,46.987 336.412 C 47.684 338.719,48.008 338.230,47.371 335.832 C 46.598 332.925,46.624 111.323,47.397 108.312 C 47.691 107.168,47.843 106.144,47.735 106.036 C 47.628 105.928,47.299 106.776,47.005 107.920 M63.935 112.524 C 63.373 113.574,63.421 118.166,64.000 118.745 C 64.364 119.109,90.450 119.208,179.196 119.182 C 249.767 119.161,293.469 119.009,292.745 118.787 C 292.035 118.569,252.899 118.499,193.922 118.611 C 140.216 118.713,89.083 118.686,80.294 118.551 L 64.314 118.305 64.314 115.329 L 64.314 112.353 187.353 112.378 L 310.392 112.403 313.375 113.251 C 315.015 113.717,316.691 114.219,317.100 114.367 C 317.528 114.521,317.707 114.486,317.523 114.285 C 317.347 114.092,315.847 113.497,314.190 112.962 L 311.176 111.989 187.759 111.877 C 66.098 111.767,64.335 111.776,63.935 112.524 M318.039 114.698 C 318.039 114.801,318.789 115.263,319.706 115.723 C 324.013 117.886,327.505 121.559,330.275 126.841 C 331.873 129.888,332.256 130.076,330.908 127.153 C 328.732 122.432,324.674 117.980,320.387 115.612 C 318.353 114.488,318.039 114.366,318.039 114.698 M295.686 119.608 C 297.198 120.092,298.004 120.092,297.255 119.608 C 296.931 119.399,296.225 119.243,295.686 119.261 L 294.706 119.294 295.686 119.608 M299.216 120.392 C 300.727 120.876,301.533 120.876,300.784 120.392 C 300.461 120.183,299.755 120.027,299.216 120.045 L 298.235 120.078 299.216 120.392 M302.157 121.176 C 303.236 121.640,303.620 121.640,303.333 121.176 C 303.200 120.961,302.704 120.797,302.232 120.812 C 301.403 120.838,301.401 120.852,302.157 121.176 M307.155 123.437 C 311.223 125.640,314.750 128.649,317.109 131.930 C 318.051 133.241,318.955 134.490,319.118 134.706 C 319.433 135.125,320.703 137.733,321.704 140.018 C 322.453 141.725,323.096 144.476,323.536 147.843 L 323.868 150.392 323.728 147.647 C 323.512 143.436,323.245 142.480,320.715 136.872 C 318.895 132.835,314.530 127.675,310.717 125.052 C 308.597 123.593,304.785 121.567,304.176 121.574 C 303.928 121.577,305.269 122.415,307.155 123.437 M349.191 127.496 C 349.296 128.492,349.502 140.933,349.649 155.143 L 349.915 180.980 351.486 182.538 C 354.732 185.757,354.491 182.081,354.501 228.542 C 354.511 274.598,354.733 271.087,351.613 274.101 L 349.804 275.850 349.800 297.435 C 349.795 322.080,349.530 326.687,347.790 332.347 C 343.293 346.978,332.511 356.084,316.098 359.113 C 312.575 359.763,305.356 359.804,194.118 359.804 L 75.882 359.804 72.207 358.885 C 61.651 356.246,53.613 350.030,49.646 341.439 C 49.265 340.612,48.867 340.022,48.763 340.126 C 48.334 340.555,51.516 345.872,53.713 348.396 C 55.725 350.708,59.369 354.118,59.828 354.118 C 59.953 354.118,60.792 354.613,61.694 355.219 C 63.791 356.629,68.878 358.733,71.498 359.274 C 72.615 359.505,74.324 359.866,75.294 360.077 C 76.265 360.287,80.676 360.577,85.098 360.720 C 92.902 360.973,93.141 361.005,93.256 361.814 C 93.383 362.702,95.113 363.218,98.137 363.270 C 99.047 363.286,99.608 363.484,99.608 363.791 C 99.608 364.063,99.957 364.473,100.383 364.701 C 101.015 365.039,101.117 365.006,100.931 364.522 C 100.549 363.527,101.885 363.349,102.649 364.293 L 103.336 365.141 104.258 364.281 C 104.936 363.650,105.260 363.549,105.478 363.901 C 105.641 364.165,106.107 364.326,106.515 364.259 C 106.922 364.192,107.506 364.294,107.813 364.487 C 109.255 365.389,112.157 364.994,112.157 363.895 C 112.157 363.478,112.303 363.137,112.482 363.137 C 112.661 363.137,112.793 363.534,112.776 364.020 C 112.749 364.788,112.968 364.918,114.466 365.025 C 116.419 365.165,118.800 364.392,117.979 363.884 C 117.701 363.713,117.593 363.452,117.740 363.306 C 117.886 363.159,118.580 363.523,119.282 364.114 C 120.550 365.180,121.355 364.886,120.381 363.712 C 120.047 363.309,120.036 363.137,120.344 363.137 C 120.586 363.137,120.784 363.314,120.784 363.529 C 120.784 363.745,121.225 363.922,121.765 363.922 C 122.304 363.922,122.745 364.120,122.745 364.362 C 122.745 364.679,122.899 364.674,123.296 364.345 C 123.623 364.073,124.284 363.998,124.925 364.159 C 125.702 364.354,126.135 364.250,126.472 363.790 C 126.889 363.220,126.987 363.256,127.383 364.125 C 127.854 365.159,128.933 365.382,130.198 364.705 C 130.689 364.442,131.013 364.442,131.176 364.705 C 131.551 365.312,132.081 365.172,132.325 364.401 C 132.552 363.688,135.686 363.602,135.686 364.309 C 135.686 364.477,136.111 364.696,136.631 364.795 C 137.276 364.918,137.516 364.820,137.388 364.486 C 137.251 364.131,137.743 364.014,139.188 364.057 C 140.281 364.091,141.176 364.262,141.176 364.438 C 141.176 364.614,141.529 364.647,141.961 364.510 C 142.411 364.367,142.745 364.439,142.745 364.679 C 142.745 364.910,143.186 365.098,143.725 365.098 C 144.319 365.098,144.706 364.874,144.706 364.531 C 144.706 363.939,147.581 363.863,148.501 364.432 C 148.741 364.580,149.030 364.459,149.144 364.164 C 149.364 363.590,151.213 363.738,151.598 364.361 C 151.947 364.926,154.053 364.752,154.402 364.128 C 154.675 363.640,154.878 363.630,155.715 364.064 C 157.317 364.895,159.606 365.158,159.347 364.481 C 159.030 363.657,160.770 363.763,161.427 364.608 C 161.934 365.259,161.989 365.257,162.525 364.566 C 163.069 363.863,163.151 363.862,164.912 364.534 C 166.420 365.110,166.791 365.139,167.063 364.699 C 167.326 364.274,167.508 364.265,167.978 364.655 C 168.456 365.052,168.640 365.011,168.976 364.434 C 169.203 364.044,169.393 363.925,169.400 364.168 C 169.407 364.449,170.381 364.624,172.059 364.645 C 173.515 364.664,175.657 364.773,176.819 364.889 C 178.504 365.056,179.029 364.967,179.410 364.447 C 179.745 363.988,180.107 363.891,180.630 364.121 C 181.775 364.625,183.597 364.745,184.078 364.349 C 184.315 364.153,185.392 364.009,186.471 364.029 C 187.549 364.049,188.850 363.926,189.363 363.755 C 189.981 363.550,190.397 363.612,190.600 363.940 C 191.029 364.635,199.330 364.641,200.166 363.946 C 200.627 363.564,201.058 363.548,202.011 363.880 C 202.845 364.171,203.409 364.184,203.727 363.920 C 204.011 363.684,205.698 363.609,207.938 363.732 C 210.072 363.849,212.125 363.765,212.725 363.537 C 213.471 363.253,214.025 363.270,214.632 363.595 C 215.134 363.863,217.715 364.094,220.870 364.153 C 223.830 364.208,226.441 364.371,226.673 364.514 C 226.904 364.656,227.329 364.577,227.618 364.338 C 228.153 363.894,235.042 364.011,237.707 364.510 C 238.429 364.645,239.771 364.586,240.689 364.380 C 241.769 364.136,242.441 364.139,242.595 364.388 C 242.725 364.599,243.651 364.727,244.651 364.672 C 245.652 364.617,246.987 364.786,247.619 365.048 C 248.615 365.461,252.782 365.735,253.922 365.462 C 254.137 365.411,255.637 365.301,257.255 365.217 C 258.873 365.134,260.814 365.033,261.569 364.992 C 262.324 364.951,263.605 365.055,264.417 365.223 C 265.725 365.493,265.930 365.429,266.214 364.662 C 266.468 363.976,266.583 363.921,266.766 364.399 C 267.027 365.080,277.412 364.997,278.243 364.308 C 278.736 363.898,280.392 364.240,280.392 364.752 C 280.392 365.306,282.133 365.151,282.964 364.522 C 283.957 363.771,285.098 363.764,285.098 364.510 C 285.098 364.921,285.512 365.098,286.471 365.098 C 287.404 365.098,287.843 364.917,287.843 364.533 C 287.843 363.559,288.619 363.438,288.959 364.358 L 289.284 365.236 289.524 364.318 C 289.701 363.643,289.899 363.502,290.274 363.786 C 290.961 364.305,292.941 364.402,292.941 363.917 C 292.941 363.503,294.228 363.378,294.605 363.756 C 295.155 364.305,299.216 364.250,299.216 363.694 C 299.216 363.317,299.668 363.137,300.611 363.137 C 301.555 363.137,301.918 363.282,301.731 363.584 C 301.535 363.900,301.842 363.959,302.786 363.787 C 304.999 363.382,308.746 362.998,310.081 363.040 C 310.999 363.069,311.403 362.875,311.578 362.324 C 311.872 361.397,312.284 361.377,313.582 362.227 C 314.386 362.754,314.735 362.793,315.327 362.423 C 315.735 362.169,316.379 361.955,316.759 361.948 C 317.412 361.937,317.411 361.905,316.741 361.398 C 315.783 360.671,316.547 360.265,317.798 360.835 C 318.605 361.203,318.978 361.166,319.786 360.636 C 320.439 360.208,321.138 360.074,321.820 360.245 C 322.776 360.485,322.843 360.424,322.660 359.468 C 322.524 358.758,322.630 358.431,322.996 358.431 C 323.289 358.431,323.529 358.255,323.529 358.039 C 323.529 357.824,323.978 357.647,324.527 357.647 C 325.186 357.647,325.485 357.838,325.409 358.210 C 325.346 358.519,325.471 358.774,325.686 358.777 C 325.902 358.779,326.045 358.349,326.005 357.822 C 325.952 357.138,326.130 356.863,326.624 356.863 C 327.006 356.863,328.186 356.420,329.247 355.879 C 330.595 355.191,331.513 354.967,332.294 355.134 C 333.294 355.348,333.384 355.287,333.149 354.548 C 332.877 353.691,333.661 352.549,334.521 352.549 C 334.773 352.549,335.474 352.020,336.078 351.373 C 336.683 350.725,337.371 350.196,337.608 350.196 C 337.845 350.196,338.039 350.009,338.039 349.781 C 338.039 349.552,338.216 349.475,338.431 349.608 C 338.647 349.741,338.824 349.654,338.824 349.414 C 338.824 349.174,339.362 348.413,340.021 347.724 C 341.831 345.828,345.882 339.659,345.882 338.798 C 345.882 338.381,346.015 338.038,346.176 338.036 C 346.569 338.032,347.451 336.097,347.451 335.239 C 347.451 334.863,347.627 334.447,347.843 334.314 C 348.059 334.180,348.235 333.582,348.235 332.983 C 348.235 332.385,348.361 331.769,348.516 331.615 C 349.733 330.398,349.895 327.419,350.143 301.813 L 350.392 275.978 351.312 275.367 C 351.818 275.031,352.833 273.970,353.567 273.008 L 354.902 271.260 354.902 228.959 C 354.902 181.144,355.145 184.823,351.793 181.879 L 350.323 180.588 350.053 154.026 C 349.888 137.802,349.631 127.118,349.391 126.575 C 349.082 125.873,349.040 126.067,349.191 127.496 M331.810 130.196 C 331.828 130.520,331.984 131.225,332.157 131.765 L 332.471 132.745 332.504 131.765 C 332.522 131.225,332.366 130.520,332.157 130.196 C 331.819 129.673,331.780 129.673,331.810 130.196 M332.549 156.797 L 332.549 180.784 328.137 180.866 L 323.725 180.948 327.647 181.079 C 329.804 181.151,331.960 181.112,332.438 180.993 L 333.307 180.776 333.072 156.957 C 332.943 143.856,332.773 133.064,332.693 132.974 C 332.614 132.884,332.549 143.605,332.549 156.797 M63.622 147.745 L 63.714 160.196 63.823 147.940 L 63.933 135.685 167.751 135.784 L 271.569 135.882 271.675 143.235 L 271.782 150.588 245.290 150.588 C 216.368 150.588,217.028 150.539,215.044 152.846 C 214.535 153.438,214.119 154.275,214.119 154.706 C 214.119 155.271,214.310 155.111,214.805 154.131 C 216.359 151.050,214.905 151.201,245.294 150.980 L 272.353 150.784 272.207 143.333 C 272.126 139.235,271.984 135.750,271.890 135.588 C 271.795 135.426,224.876 135.294,167.624 135.294 L 63.529 135.294 63.622 147.745 M95.098 151.188 C 94.235 151.499,93.488 151.756,93.436 151.759 C 93.385 151.762,92.862 152.515,92.273 153.431 C 89.992 156.984,91.009 161.187,94.668 163.332 L 96.343 164.314 108.520 164.314 L 120.696 164.314 122.580 163.039 C 124.515 161.731,125.803 160.001,125.854 158.642 C 125.870 158.203,125.504 158.624,125.000 159.623 C 124.430 160.754,123.443 161.823,122.211 162.647 L 120.304 163.922 108.631 163.922 C 95.930 163.922,95.280 163.827,93.260 161.699 C 91.183 159.509,90.910 156.514,92.543 153.830 C 94.088 151.289,94.577 151.199,108.039 150.967 L 120.196 150.757 108.431 150.690 C 99.044 150.636,96.350 150.737,95.098 151.188 M140.067 150.869 C 134.875 151.858,134.326 160.247,139.250 163.355 L 140.769 164.314 169.626 164.314 C 200.533 164.314,199.166 164.404,201.501 162.208 C 205.295 158.640,203.535 150.818,198.983 151.012 C 198.435 151.036,198.550 151.184,199.412 151.566 C 204.724 153.924,204.369 161.611,198.863 163.471 C 197.060 164.080,142.126 164.113,140.516 163.505 C 136.433 161.966,134.829 156.521,137.517 153.326 C 139.401 151.088,137.996 151.192,169.216 150.974 L 198.235 150.772 169.608 150.734 C 153.863 150.712,140.569 150.773,140.067 150.869 M121.992 151.891 C 123.280 152.573,123.988 153.325,124.798 154.877 C 125.395 156.019,125.882 156.684,125.882 156.356 C 125.882 154.449,122.683 150.980,120.924 150.980 C 120.564 150.980,121.044 151.390,121.992 151.891 M285.131 152.692 C 285.993 153.447,287.059 153.700,287.059 153.151 C 287.059 152.760,286.692 152.549,286.013 152.549 C 285.438 152.549,285.041 152.613,285.131 152.692 M288.235 154.327 C 288.235 154.742,291.038 157.328,291.254 157.112 C 291.562 156.804,289.326 154.181,288.725 154.146 C 288.456 154.130,288.235 154.212,288.235 154.327 M213.738 156.667 C 213.478 159.645,214.439 161.685,216.813 163.190 L 218.585 164.314 247.665 164.314 C 278.600 164.314,278.321 164.297,280.509 166.241 C 282.743 168.227,283.137 169.612,283.137 175.475 L 283.137 180.784 274.683 180.784 C 270.034 180.784,265.490 180.953,264.585 181.159 C 258.730 182.492,257.099 182.965,254.118 184.194 C 243.818 188.439,235.202 196.764,230.251 207.255 C 229.742 208.333,229.169 209.522,228.977 209.897 C 228.785 210.271,228.627 210.923,228.627 211.344 C 228.627 211.766,228.451 212.220,228.235 212.353 C 228.020 212.486,227.849 212.894,227.857 213.258 C 227.874 214.071,228.984 212.277,229.006 211.401 C 229.059 209.259,234.271 200.611,238.135 196.254 C 247.595 185.588,258.334 181.208,275.098 181.178 C 284.794 181.161,284.016 181.670,283.856 175.447 C 283.715 169.979,283.286 168.503,281.238 166.430 C 278.578 163.739,280.976 163.925,248.784 163.923 C 218.405 163.922,218.027 163.902,216.140 162.201 C 214.786 160.979,214.366 160.046,214.089 157.647 C 213.926 156.232,213.805 155.895,213.738 156.667 M305.882 158.604 C 305.882 159.156,306.059 159.608,306.275 159.608 C 306.490 159.608,306.667 159.265,306.667 158.847 C 306.667 158.428,306.490 157.976,306.275 157.843 C 306.052 157.706,305.882 158.035,305.882 158.604 M323.700 170.196 C 323.700 175.696,323.755 177.946,323.822 175.196 C 323.890 172.446,323.890 167.946,323.822 165.196 C 323.755 162.446,323.700 164.696,323.700 170.196 M63.723 240.196 L 63.725 319.804 167.451 319.896 C 224.500 319.947,271.390 319.853,271.651 319.687 C 272.040 319.440,272.358 310.110,272.173 304.412 C 272.161 304.064,271.274 303.919,269.118 303.913 C 263.873 303.898,261.188 301.930,260.885 297.879 C 260.509 292.843,262.785 291.373,270.959 291.373 L 277.095 291.373 279.160 290.071 C 282.785 287.785,283.922 285.380,283.922 279.995 C 283.922 275.435,284.181 275.613,278.235 276.071 L 274.314 276.373 278.431 276.398 C 280.696 276.412,282.793 276.434,283.091 276.447 C 283.527 276.466,283.597 277.260,283.451 280.538 C 283.240 285.289,282.346 287.308,279.536 289.374 L 277.885 290.588 271.668 290.588 C 264.630 290.588,264.069 290.748,261.804 293.394 C 257.642 298.256,262.310 305.174,269.271 304.461 L 271.782 304.204 271.675 311.735 L 271.569 319.267 167.941 319.485 C 110.946 319.605,64.271 319.637,64.218 319.557 C 64.165 319.477,64.032 283.676,63.922 240.000 L 63.721 160.588 63.723 240.196 M305.882 163.451 C 305.882 164.486,305.699 165.516,305.476 165.740 C 305.195 166.021,305.211 166.500,305.528 167.289 C 305.780 167.917,305.957 169.011,305.921 169.719 C 305.885 170.427,306.104 171.360,306.407 171.793 C 306.900 172.497,306.965 172.233,307.023 169.263 C 307.065 167.122,306.929 165.848,306.638 165.668 C 306.338 165.483,306.272 164.748,306.440 163.479 C 306.602 162.261,306.547 161.569,306.288 161.569 C 306.065 161.569,305.882 162.416,305.882 163.451 M296.610 175.098 C 296.609 177.039,296.675 177.883,296.757 176.973 C 296.839 176.062,296.840 174.474,296.759 173.443 C 296.678 172.412,296.611 173.157,296.610 175.098 M267.246 198.819 C 255.487 200.547,243.595 212.235,243.534 222.124 C 243.526 223.418,243.899 222.578,244.317 220.362 C 245.897 211.977,253.599 203.393,262.157 200.476 C 266.432 199.019,266.413 199.020,301.961 199.020 L 336.667 199.020 336.767 228.527 L 336.868 258.035 301.865 258.137 L 266.863 258.240 302.051 258.335 L 337.240 258.431 337.503 257.385 C 337.838 256.048,337.427 199.419,337.078 198.854 C 336.776 198.366,270.554 198.332,267.246 198.819 M264.314 212.168 C 263.903 212.442,264.257 212.483,265.490 212.304 C 267.687 211.985,268.000 211.763,266.242 211.771 C 265.505 211.774,264.637 211.953,264.314 212.168 M271.013 211.906 C 271.103 211.984,271.971 212.163,272.941 212.304 C 274.174 212.483,274.529 212.442,274.118 212.168 C 273.589 211.816,270.620 211.565,271.013 211.906 M260.980 213.466 C 257.347 215.429,252.877 221.637,252.981 224.574 C 253.016 225.568,253.057 225.530,253.367 224.214 C 254.324 220.151,257.860 215.617,261.561 213.705 C 262.752 213.090,263.461 212.594,263.137 212.603 C 262.814 212.611,261.843 213.000,260.980 213.466 M277.647 214.106 C 287.225 219.253,288.772 232.633,280.727 240.744 C 279.251 242.232,279.003 242.605,279.891 241.999 C 283.645 239.442,287.272 231.670,286.531 227.773 C 285.767 223.756,285.411 222.476,284.610 220.871 C 283.196 218.037,278.281 213.302,276.802 213.351 C 276.512 213.360,276.892 213.700,277.647 214.106 M227.318 214.552 C 226.699 216.780,226.280 219.001,226.308 219.908 C 226.326 220.498,226.676 219.493,227.086 217.674 C 227.497 215.856,227.751 214.287,227.651 214.187 C 227.551 214.087,227.401 214.251,227.318 214.552 M225.728 222.189 C 225.422 222.987,225.505 233.167,225.831 234.685 C 225.967 235.320,226.078 232.629,226.078 228.705 C 226.078 224.780,226.053 221.569,226.022 221.569 C 225.992 221.569,225.859 221.848,225.728 222.189 M243.291 228.235 C 243.291 231.147,243.353 232.338,243.428 230.882 C 243.504 229.426,243.504 227.044,243.428 225.588 C 243.353 224.132,243.291 225.324,243.291 228.235 M252.365 227.549 C 252.238 228.466,252.300 229.745,252.504 230.392 C 252.814 231.377,252.879 231.106,252.907 228.725 C 252.945 225.541,252.714 225.039,252.365 227.549 M252.977 232.473 C 252.828 236.279,259.141 242.926,264.767 244.886 C 268.286 246.111,276.267 245.066,278.208 243.125 C 278.774 242.560,278.156 242.665,276.803 243.364 C 274.610 244.498,271.990 245.090,269.136 245.094 C 266.316 245.098,265.850 244.980,262.157 243.328 C 258.669 241.767,254.527 236.834,253.392 232.891 C 253.097 231.866,253.004 231.772,252.977 232.473 M243.585 234.902 C 243.585 235.441,243.736 236.235,243.922 236.667 C 244.229 237.382,244.259 237.364,244.259 236.471 C 244.259 235.931,244.107 235.137,243.922 234.706 C 243.614 233.991,243.585 234.008,243.585 234.902 M226.438 237.843 C 226.652 240.578,227.303 243.415,227.640 243.079 C 227.733 242.986,227.467 241.328,227.047 239.396 C 226.481 236.789,226.324 236.388,226.438 237.843 M244.326 238.039 C 244.326 238.363,244.497 238.892,244.706 239.216 C 245.044 239.739,245.086 239.739,245.086 239.216 C 245.086 238.892,244.915 238.363,244.706 238.039 C 244.368 237.516,244.326 237.516,244.326 238.039 M245.098 240.209 C 245.098 242.251,251.227 250.371,254.710 252.944 C 258.348 255.632,264.901 258.447,266.343 257.942 C 266.629 257.842,265.840 257.544,264.591 257.280 C 257.667 255.817,249.540 248.961,246.317 241.863 C 245.568 240.215,245.098 239.577,245.098 240.209 M228.632 245.614 C 228.613 248.538,234.692 257.889,240.168 263.357 C 246.353 269.534,257.500 275.431,262.666 275.259 L 263.725 275.223 262.549 274.923 C 261.902 274.758,260.411 274.396,259.235 274.118 C 247.576 271.362,235.464 260.540,229.982 247.982 C 229.242 246.288,228.635 245.223,228.632 245.614 M264.706 275.694 C 265.662 275.993,274.017 276.218,273.693 275.936 C 273.603 275.858,271.324 275.703,268.627 275.591 C 265.931 275.479,264.167 275.525,264.706 275.694 M323.922 276.649 C 323.922 277.151,324.586 277.230,328.137 277.152 L 332.353 277.059 332.556 299.216 L 332.758 321.373 332.752 298.824 L 332.745 276.275 328.333 276.164 C 324.599 276.070,323.922 276.144,323.922 276.649 M323.611 298.039 C 323.555 303.539,323.337 308.833,323.124 309.804 C 322.367 313.271,322.326 313.557,322.683 312.941 C 323.646 311.276,323.955 307.227,323.836 297.843 L 323.711 288.039 323.611 298.039 M95.705 291.100 C 90.116 292.882,89.626 300.565,94.910 303.566 C 95.940 304.150,162.045 304.659,165.813 304.111 C 171.770 303.245,172.903 295.138,167.542 291.738 L 165.729 290.588 131.394 290.628 C 107.595 290.656,96.643 290.801,95.705 291.100 M185.090 291.110 C 180.073 293.437,179.243 298.511,183.238 302.423 C 185.269 304.411,184.567 304.374,217.513 304.237 L 246.202 304.118 247.709 302.904 C 252.533 299.018,251.430 293.010,245.530 291.035 C 243.614 290.393,186.482 290.465,185.090 291.110 M167.364 292.034 C 171.995 294.692,171.390 301.906,166.398 303.553 C 163.645 304.462,96.430 303.807,94.802 302.856 C 90.672 300.444,90.601 294.596,94.671 292.114 C 96.452 291.028,165.479 290.952,167.364 292.034 M247.069 292.162 C 251.466 294.405,251.089 300.902,246.430 303.157 C 244.585 304.050,189.133 304.353,185.788 303.488 C 180.763 302.189,179.630 294.829,184.041 292.140 C 186.032 290.926,244.686 290.946,247.069 292.162 M321.595 315.021 C 320.055 318.602,319.335 319.993,318.003 321.961 C 316.354 324.397,313.502 327.484,311.185 329.339 C 310.327 330.026,309.848 330.588,310.120 330.588 C 311.802 330.588,319.158 321.705,320.999 317.451 C 321.372 316.588,321.859 315.486,322.081 315.001 C 322.303 314.516,322.406 314.040,322.309 313.943 C 322.213 313.847,321.891 314.332,321.595 315.021 M331.877 323.529 C 331.657 324.716,331.335 326.024,331.162 326.437 C 330.948 326.947,330.986 327.102,331.279 326.920 C 331.800 326.599,332.726 322.683,332.464 321.916 C 332.361 321.617,332.098 322.343,331.877 323.529 M329.438 330.064 C 326.099 336.504,318.921 341.464,311.176 342.680 C 308.090 343.165,108.591 343.247,90.784 342.771 C 75.802 342.370,74.663 342.167,69.995 339.068 C 68.764 338.250,67.876 337.775,68.022 338.011 C 69.439 340.304,75.942 342.643,82.353 343.165 C 92.107 343.960,311.124 343.464,313.922 342.641 C 321.194 340.502,327.886 334.950,330.520 328.871 C 331.435 326.760,330.773 327.490,329.438 330.064 M307.647 331.597 C 305.805 332.695,301.850 334.352,300.248 334.698 C 299.629 334.831,299.214 335.031,299.326 335.143 C 299.920 335.737,309.412 331.781,309.412 330.939 C 309.412 330.514,309.552 330.462,307.647 331.597 M295.882 335.686 C 295.235 335.851,243.407 336.007,180.709 336.032 C 114.903 336.059,66.622 336.225,66.498 336.426 C 66.380 336.617,66.579 337.014,66.940 337.309 C 67.514 337.775,67.565 337.756,67.342 337.161 C 67.100 336.514,72.992 336.473,181.877 336.372 C 267.381 336.293,296.967 336.150,297.843 335.814 C 299.292 335.257,297.920 335.168,295.882 335.686 M314.804 360.281 C 314.211 360.371,313.240 360.371,312.647 360.281 C 312.054 360.191,312.539 360.118,313.725 360.118 C 314.912 360.118,315.397 360.191,314.804 360.281 M116.863 363.945 C 116.863 364.363,116.686 364.706,116.471 364.706 C 116.255 364.706,116.078 364.254,116.078 363.702 C 116.078 363.133,116.248 362.804,116.471 362.941 C 116.686 363.074,116.863 363.526,116.863 363.945 " stroke="none" fill="#8da39e" fill-rule="evenodd"></path></g></svg>
